<svg xmlns="http://www.w3.org/2000/svg" xml:space="preserve" viewBox="0 0 256 256"><rect width="256" height="256" ry="39.5" style="fill:#fff;stroke-width:351.781;stroke-linejoin:bevel;-inkscape-stroke:none"/><path fill="#EAEAEA" d="M241.4 192.3c3.5 2.8 3.9 6.2.8 8.5-1.3 1-4.8-.2-6.8-1.3-1-.5-1.6-4.2-1-4.6 1.9-1.4 4.4-1.9 7-2.6zM244 68c-.2 4.1-3 5.5-5.7 4.6-1.8-.5-3.6-3.2-4-5.3-.2-1.1 2-3.7 3.6-4 3.2-1 5.9.3 6.1 4.7zM66.3 244.6c-4-1.4-3.8-4.4-3-7 .3-1.2 2.8-2.7 4-2.4 1.9.4 4.2 1.7 5.2 3.3 1.7 2.8-.7 5.3-6.2 6.1zM241.3 29.3c-2.4-.6-4.9-1-6.5-2.4-.7-.6-.2-3.7.7-4.7 1-1.2 3.3-2 5-2 1.1.1 3.2 2 3.2 3 0 2-1.3 4-2.4 6.1zM65.5 29.6c-3.4-2.8-3.7-6-.7-8.6 2.6-2.4 5.4-1 7.1 1.6.7 1 1 3.6.5 4-2 1.4-4.3 2.2-6.9 3zM239.8 158.9c-4.4-.6-6.7-3-5.4-6.8.5-1.5 3.8-2.6 5.9-2.8 1-.2 3.6 2.4 3.4 3.2-.6 2.2-2.3 4.2-4 6.4zM191.2 153.1c2-1.6 3.7-3.4 5.8-3.9 1-.2 3.7 2 3.6 3 0 2.2-.8 5.3-2.3 6.1-1.3.7-4.1-1-6.1-2.1-.7-.4-.7-1.8-1-3zM65.7 115.3c-3.7-2-3.5-5-1.8-7.2.9-1.3 4.2-2.3 5.3-1.6 1.7 1.1 3.6 4 3.3 5.7-.6 2.6-3 4.7-6.8 3.1zM24 20c2.3 1.6 4.5 3 5.7 4.9.4.6-1.2 3.5-2.5 4-1.5.8-4 .6-5.4-.2-3.4-1.9-2.4-6.2 2.2-8.7zM20.3 194.6c2.3-1 4.6-2.2 6.6-1.8 1.2.3 3.2 3.4 2.8 4.5a8.5 8.5 0 0 1-4.6 4.4c-3.3 1.2-5.1-1.5-4.8-7zM148.2 24.2c2.1-1.7 4.1-3.2 6.4-4 .7-.1 3.2 2 3 3 0 2.2-.8 5.4-2.3 6.1-1.3.7-4.1-1-6.1-2.1-.7-.4-.7-1.7-1-3zM191.1 67.2c2.2-1.6 4.1-3.2 6.4-4 .7-.2 2.8 1.8 3.3 3 1 3 0 5.8-3.4 6.5-3.9.7-5.7-1.5-6.3-5.5z"/><path fill="#E9E9E9" d="M199.2 244.2a24 24 0 0 1-7.3-2.8c-.5-.3-.2-3.7.6-4 1.9-1.1 5-2.4 6.3-1.5 3.3 1.8 3 5.1.4 8.3zM156.8 64.3c1.8 3.5 2.2 6.4-1.7 8.1-3.2 1.5-5.3-.2-6.2-3-.5-1.2-.1-3.2.6-4.3 1.8-2.5 4.3-3 7.3-.8z"/><path fill="#EAEAEA" d="M199 115c-3.6 2-6 .7-7-2.4-.5-1.6.4-4.6 1.6-5.3 1.5-.8 4 0 6.1 0-.1 2.5-.2 5-.7 7.7zM106 27c-1.5-3.7.4-6 3.3-6.7 1.5-.3 4.8 1.2 5 2.3.6 2 0 5.2-1.4 6.5-2.3 2.1-5 1-6.9-2z"/><path fill="#E9E9E9" d="M149 113c-2-3.7.3-5.8 2.7-6.5 1.7-.5 5 .7 5.6 2.1.8 1.5.2 4.8-1.1 6-2.3 2.4-5.2 1.8-7.2-1.6zM65.5 192.3c3.7-1 6 .7 7 3.5.5 1.2-.6 3.9-1.7 4.5-1.6.9-4.5 1.3-5.8.5-3.5-2.5-2.8-5.6.5-8.5z"/><path fill="#EAEAEA" d="M72.8 67.9c-1.3 3.2-2.6 6-6.6 4.7-3-1-3.9-3.3-3-5.9.4-1.4 2.8-3.7 3.3-3.4 2.4 1 4.3 2.7 6.3 4.6z"/><path fill="#E9E9E9" d="M21.2 64.3c3.5-2.5 6.4-1.4 7.8 1.6.7 1.5-.3 4.6-1.7 5.8-1 1-5 .8-5.4 0-1-2-.7-4.7-.7-7.4zM192.3 22.2c2.3-.7 4.8-2 6.4-1.4 1.3.5 2.2 3.5 2 5.4 0 1.2-2 3-3.4 3.5-3.8 1.3-6.5-2.6-5-7.5z"/><path fill="#EAEAEA" d="M27 115c-3.4 1.6-6 .6-6.7-2.3-.4-1.8.6-5.3 2-5.8 1.6-.7 4.7.1 6.3 1.4 2.8 2.4.7 4.7-1.7 6.7z"/><path fill="#E9E9E9" d="M28.2 157.2c-3 2.3-6.1 2.3-7.5-.6-.8-1.8.9-4.6 1.4-7 2.3.6 4.9.9 6.8 2.2.7.4-.3 3.3-.7 5.4zM151.8 244.4l-3-6.6c2.2-.9 4.7-2.8 6.3-2.2 1.5.5 3 4 2.5 5.8-.4 1.4-3.6 2.1-5.8 3zM113.7 243.5c-4 2.5-7 1-8-2.7-.4-1.5 1.7-4.2 3.3-5.4.9-.7 4.3.2 4.7 1.1.7 2 .3 4.5 0 7z"/><path fill="#EAEAEA" d="M29 242c-4.2 3.7-8.4 3.3-8.8-.7-.2-1.8.7-4.3 2-5.5.9-.9 4-.7 4.9.2 1.2 1.3 1.4 3.7 2 6zM238.3 115.9c-3-1.8-6-3.7-3.3-7a7.8 7.8 0 0 1 5.8-2.5c1 0 3.3 3.3 3 4-1.2 2.2-3.4 3.7-5.5 5.5z"/><path fill="#E9E9E9" d="M154.7 158.6c-5.5-.9-8-4-5.8-6.7a8 8 0 0 1 5.3-2.6c1.2 0 3.6 2.1 3.5 3.1-.2 2.1-1.7 4-3 6.2zM64.2 150.3c3.5-2.5 6.3-1.4 7.8 1.5.7 1.4 0 4.6-1.3 5.4-1.5 1-5.4 1.2-5.9.4-1-1.9-.6-4.6-.6-7.3zM237 235.7c3.1-1.3 6-.8 6.6 2.2.3 2-1 5-2.6 6-1 .8-4.4-.2-5.8-1.5-2.7-2.4-.6-4.6 1.8-6.7z"/><path fill="#080808" d="m129 188 47.3-10.2c2-.4 3.8-1.3 5.7-1.7 6.4-1.4 10.7.7 12.5 6 1.9 5.7-.1 10.7-6.1 13a231 231 0 0 1-76.8 13.8c-13.5-.3-19.1-6.2-18.4-19.7.8-16.5 2.2-33 2.7-49.4.9-29.8 1.3-59.7 2-89.5.2-6.6 3.4-10.8 8.8-11.4 6-.7 10.5 4 10.4 11.2 0 19.3 0 38.7-.7 58-.8 23.8-2.4 47.6-3.7 71.3l-.2 3.5c-.2 5.9.2 6.3 6.1 6l10.5-1z"/></svg>