<?xml version="1.0" standalone="no"?>
<!DOCTYPE svg PUBLIC "-//W3C//DTD SVG 20010904//EN"
 "http://www.w3.org/TR/2001/REC-SVG-20010904/DTD/svg10.dtd">
<svg version="1.0" xmlns="http://www.w3.org/2000/svg"
 width="260.000000pt" height="260.000000pt" viewBox="0 0 260.000000 260.000000"
 preserveAspectRatio="xMidYMid meet">
<metadata>
Created by potrace 1.14, written by Peter Selinger 2001-2017
</metadata>
<g transform="translate(0.000000,260.000000) scale(0.100000,-0.100000)"
fill="#000000" stroke="none">
<path d="M1043 2210 c-13 -5 -32 -24 -43 -42 -19 -31 -20 -51 -20 -283 0 -239
-19 -760 -40 -1080 -13 -210 3 -265 87 -301 95 -41 534 8 781 87 115 37 147
57 162 104 10 30 9 41 -7 72 -10 21 -30 44 -45 53 -29 16 -22 17 -290 -56 -82
-22 -319 -62 -407 -69 l-84 -6 6 138 c4 76 13 264 22 418 8 154 15 422 15 595
0 284 -2 317 -18 336 -33 41 -73 52 -119 34z"/>
</g>
</svg>
