<svg xmlns="http://www.w3.org/2000/svg" xml:space="preserve" width="120" height="120"><path d="M57.2 3.2c-.5.4-.8.6-1.5.8l-3.2.8a132.4 132.4 0 0 0-10.2 3c-1.5.5-3 1.2-4.5 2l-3.7 2.1c-1.1.7-2.3 1.1-3.6 1.5l-4.3 1.3a59 59 0 0 0-4.7 1.4 18.5 18.5 0 0 0-11 9.4 28.2 28.2 0 0 0-3 9 38 38 0 0 0-.8 4.8l-.2 4.9v4.3a90 90 0 0 1-1.3 8.7L4 62a159 159 0 0 0-1.7 9c-.2 1.7-.2 3.3 0 5 0 1.6.5 3.1 1 4.7a41.5 41.5 0 0 0 3.6 7.7 28.1 28.1 0 0 0 5.8 6.8l2.9 2.5 2.4 2.7 2.2 3a19.6 19.6 0 0 0 7 6.7c1.7.9 3.4 1.6 5.2 2.2 1.7.5 3.1 1.9 4.9 2.2 1.6.3 3 1.6 4.6 1.8 1.7.3 3.6.8 5.3 1 1.5.3 3.5.3 5 .6 1.7.3 3.2-.1 4.9.1 1.7.3 3.3-.9 5-.7a42.7 42.7 0 0 0 19.2-3.3l4.2-1.6a140.8 140.8 0 0 0 9.4-4.2 31.2 31.2 0 0 0 11.5-10.5c1-1.6 1.7-3.4 2.3-5.2a31 31 0 0 0 1-4.8c.1-1.2.2-2.5.5-3.7a18.8 18.8 0 0 1 2.3-5.5l2.2-3.2 2.1-3.6a20 20 0 0 0 2.1-10 48.5 48.5 0 0 0-1.6-10.7c-.4-1.8-1.2-3.5-2-5.2l-2.4-4a51.7 51.7 0 0 1-4.8-10.8 30.6 30.6 0 0 0-3.9-7.3c-.9-1.3-2-2.4-3.2-3.4a30.6 30.6 0 0 0-6.9-4.1 35.2 35.2 0 0 1-5.7-3.3c-1-.6-1.8-1.3-2.6-2l-3-2.3c-1.3-1-2.7-1.7-4.2-2.4A39.5 39.5 0 0 0 68.3 3l-4.7-.8c-1.5-.2-2.9 0-4.3.2-1.5.2-1-.1-2 .7z" style="display:inline;fill:#000;fill-opacity:1;stroke-width:14.6133;stroke-linejoin:bevel;-inkscape-stroke:none"/><path d="M51.4 117.9h6.1l3.1-.2 3.4-.2 3-.1 2.6-.5c1-.3 2.2-.1 3.1-.7l2.8-.5c1-.7-.4-2 0-3.2l.1-.6c.2-.5.2-1.1.3-1.7l.4-2.1c.1-1.1.2-2.2 0-3.3a23.8 23.8 0 0 0-1.2-5.9l-.8-2.4a32.3 32.3 0 0 1-1.2-5.7l1.1-1a29.4 29.4 0 0 1 4.5-2.4 33.2 33.2 0 0 1 4.8-1.8 421.4 421.4 0 0 0 5.8-2.1c1.1-.5 2.2-1 3.2-1.8s1.9-1.7 2.5-2.8l.4-.6 1-2.7a151.3 151.3 0 0 1 1.6-5l1.3-2.6c.4-1 1-2 1.2-3.1.4-1.2.7-2.4.7-3.6 0-1.3-.3-2.4-.7-3.6l-.8-2.7-.7-2.8-.8-3.2a21.3 21.3 0 0 0-2.8-5.6l-1.2-1.7a6.6 6.6 0 0 1-1-3.4 38.4 38.4 0 0 1 1-10.4v-3.1l-.2-.6c-.3-1.1-1-2-1.7-2.9l-.7-.5a6 6 0 0 0-3.4-1h-.6l-3 .9A23.6 23.6 0 0 0 79 24l-2.3 1.7-1.5 1-1.6.7a15.3 15.3 0 0 1-4 .6 102.2 102.2 0 0 1-8.2-2l-3.6-.4c-1 0-2.1 0-3.2.2l-3 .3a266.6 266.6 0 0 1-3.7.5h-1a17.7 17.7 0 0 1-3.3-1.4l-2.1-1.2a31.6 31.6 0 0 0-8-3.2c-1-.2-2-.3-2.9-.2-1.4.1-2.6.5-3.7 1.5a8 8 0 0 0-2.7 6l.3 2.6a96.2 96.2 0 0 0 .6 4.3 13.2 13.2 0 0 1-1.8 7.5l-1.4 2.6c-.5 1.1-1 2.2-1.2 3.4-.2 1-.3 2-.2 3.1v4.9l-.2 2.2-.4 2.5a28.4 28.4 0 0 0-.2 5.6c0 1 .2 2.2.7 3.2.5 1.2 1.2 2.3 2 3.2 1 .8 1.8 1.6 2.8 2.2l2.4 1.6 1.5 1 1.7 2c.8.7 1.5 1.5 2.4 2.1a14 14 0 0 0 6.5 2.8l3.1.2 2.2.2.7.2c0-.2-.3-.4-.3-.7v.7l-.3 2.2-.2 2.5c0 .4 0 1-.2 1.4 0 .3 0 .5-.2.7-.1.3.1-.1.3-.1h.1-1.2c-.4 0-1-.2-1.4-.4l-2-.8-2.2-.6-2-.5a12.2 12.2 0 0 1-2.7-1.1l-1.3-1-1.3-1.3-1.5-1.8c-.6-.7-1.3-1.5-2.1-2-.8-.7-1.7-1.3-2.6-1.6-1-.5-2.2-.8-3.4-.7l-1.4.5c-.8.4-1.5 1-1.9 1.8l-.4 1.3v1c0 1 .6 2 1.2 2.8l.5.5 1.3 1c.5.3.8 1 1.2 1.5a24.3 24.3 0 0 1 1.3 3c.4.7.7 1.6 1.2 2.3l.6 1.1c.5.6 1 1.1 1.7 1.5l2.2 1.3 2.3.9 1.6.6.8.4c.5.4 1.1 1 1.8 1.3.7.4 1.5.8 2.4 1 .8.3 1.7.5 2.5.6l2.1.4c.7 0 1.3.2 1.9.3l1.3.4c.3 0 .6.2.8.4l.3.1-.2-.3c0-.1 0 0 0 0v.2s.1-.3 0 0l-.2.7-.8 1.2-.8 1.3-.6 1-.6.8-.4.6s-2.1 2.2-1.3 1.2c-3.8 3.8 6 4 6 4z" style="fill:#fff;fill-opacity:1;stroke-width:15;stroke-linejoin:bevel;-inkscape-stroke:none"/></svg>