<?xml version="1.0" encoding="UTF-8"?><svg width="72mm" height="72mm" version="1.1" viewBox="0 0 72 72" xml:space="preserve" xmlns="http://www.w3.org/2000/svg"><g><g transform="matrix(.95377 0 0 .95377 -7.779 -1.5213)" fill-rule="evenodd"><path transform="matrix(4.1778 0 0 4.1778 -393.92 -579.08)" x="96.896835" y="140.48013" width="16" height="16" d="m98.897 140.48h12a2 2 45 0 1 2 2v12a2 2 135 0 1-2 2h-12a2 2 45 0 1-2-2v-12a2 2 135 0 1 2-2z" fill="#007ebb"/><path d="m16.205 16.821-3.2014-3.992c-1.9174 4.3041-2.4286 7.3418-2.8729 12.206-0.95592 3.7281-0.49409 8.5613 3.6129 9.8874l-2.481 18.307c-2.8596 3.7785-0.98091 8.763 1.4333 12.23l12.678 8.6154c2.9767 2.9479 7.432 1.8285 10.754 0.17469l22.321-3.1285c1.1481 5.2898 8.3705 5.749 12.244 2.4511l-0.93945-7.0778c-1.431 3.9133 2.7701 7.0024 6.6314 5.6052 3.8423-1.3476 3.7886-5.3322 2.4263-8.731-4.6358-8.1737-16.614 3.2-12.499 2.631 6.0129 7.5271 9.1733-6.0412 10.366-14 0.78676-4.3244 3.1553-10.002-0.92296-13.127-10.461-7.2548-20.836 19.746-46.853 33.019 2.4823-0.50348 3.9234 4.0429 3.6874 4.0291 0.46388-4.729 43.141-33.229 46.019-64.443 0.37427-4.4303-3.4481-6.5132-7.6028-4.6954-5.1732 2.1488-8.1837 4.6054-11.003 9.1255l-8.7992 2.6676c2.002-6.2885-1.531-11.459-8.251-12.75-4.5808-0.45745-8.6379 0.017977-12.244 2.3347-23.129 15.958-8.2898 27.164-6.897 2.8118 0.10476-4.3528-4.1895-5.9965-8.3451-4.7748-4.3766 0.88373-2.5901-1.0438-5.3161 2.4477-1.2326 8.8215 7.0041 3.5317 6.0548 8.1758z" fill="#007ebb" fill-rule="nonzero" stroke-linejoin="bevel" stroke-width=".27784"/><path d="m24.262 40.166c-0.0045-2.1066 0.12684-4.2103 0.19533-6.3151 0.80076-1.1974 4.5032-4.086 4.2651-1.4 0.99976 9.652 5.0739 18.756 5.6175 28.475 0.69464 2.5372-1.9031 4.6329-4.2664 3.5736-2.9495-1.3832-3.8375-4.9261-4.5166-7.8438-1.1813-5.4115-1.3283-10.972-1.295-16.49zm0.91146-24.414c1.9798 0.59974 4.3255 4.2822 1.3672 5.1432-2.3482 0.30558-6.0038-0.50846-4.0588-3.5085 0.37399-1.1204 1.5689-1.6866 2.6917-1.6347zm11.719 26.888c-0.32546-2.2702 2.0177-3.5229 3.9964-3.1901 0.838 1.5399 0.76894 4.1133 1.7449 5.9122 0.37826 1.0999 2.1509 4.3865 2.7537 3.2868 0.57948-5.2985 4.8588-9.6576 9.6761-11.531 2.3661-0.77495 5.0736-0.46054 7.3339 0.5427 4.7911 2.3919 6.8064 7.8689 7.6106 12.842 0.7943 4.1664 0.96352 8.4133 0.99916 12.644h-4.7526c-0.74438-5.8894-1.1808-12.007-3.6804-17.474-0.86483-1.3144-2.0479-2.4557-3.2857-3.424-2.8308-0.83592-4.7879 1.9977-5.9245 4.1667-2.2257 4.5116-2.865 9.5955-3.5807 14.518 0.69479 3.068-3.3372 3.9902-5.0598 1.8717-3.3112-3.2456-4.4092-7.9504-5.8121-12.215-0.80168-2.6167-1.4015-5.2868-2.0189-7.951z" fill="#fff" stroke-linejoin="bevel" stroke-width="1.0016" aria-label="in"/></g></g></svg>