<?xml version="1.0" encoding="UTF-8"?><svg viewBox="0 0 72 72" xmlns="http://www.w3.org/2000/svg"><g fill-rule="evenodd"><path d="m8 72h56c4.4183 0 8-3.5817 8-8v-56c0-4.4183-3.5817-8-8-8h-56c-4.4183 8.1162e-16 -8 3.5817-8 8v56c5.4108e-16 4.4183 3.5817 8 8 8z" fill="#007EBB"/><path d="m62 62h-10.684v-18.198c0-4.9894-1.8958-7.7776-5.8449-7.7776-4.2961 0-6.5406 2.9016-6.5406 7.7776v18.198h-10.297v-34.667h10.297v4.6696s3.096-5.7287 10.452-5.7287c7.3531 0 12.617 4.4903 12.617 13.777v21.949zm-45.651-39.206c-3.5073 0-6.3493-2.8644-6.3493-6.397 0-3.5327 2.8421-6.397 6.3493-6.397 3.5073 0 6.3477 2.8644 6.3477 6.397 0 3.5326-2.8404 6.397-6.3477 6.397zm-5.3168 39.206h10.737v-34.667h-10.737v34.667z" fill="#FFF"/></g></svg>