<svg xmlns="http://www.w3.org/2000/svg" xml:space="preserve" width="120" height="120"><path d="M17.99 13.96h82.94v83.57H17.99z" style="display:inline;fill:#fdfcff;fill-opacity:1;stroke-width:14.4941;stroke-linejoin:bevel;-inkscape-stroke:none"/><path d="m13.73 86 .07-.33c.26-1.07-.12.92-.14 1.03a9.47 9.47 0 0 0 .46 4.91c.14.35.32.68.47 1.02a8.72 8.72 0 0 0 4.17 3.81c.57.26 1.14.4 1.74.56.08-.06 1.47.35.78.12-.51-.18-.92-.49-1.27-.89-.2.2-.07-.25-.17-.24-.02 0 .02.04.03.07l.09.2c.49 1 .3.63.9 1.7a13.9 13.9 0 0 0 4.43 4.33c.37.23.75.43 1.13.64a15.37 15.37 0 0 0 6.36 1.54c1.73.05 3.45-.19 5.17-.38 1.65-.18 3.3-.41 4.94-.63 1.78-.23 3.57-.45 5.34-.72 1.75-.23 3.47-.56 5.2-.88 1.58-.28 3.15-.56 4.73-.82.97-.16 1.95-.18 2.93-.2 1.36.02 2.72.2 4.07.37 1.88.13 3.75.36 5.64.52 2.38.2 4.75-.17 7.07-.73.87-.18 1.7-.51 2.55-.76.08-.02.33-.08.26-.04-.33.16-.63.17-.99.22h-.38c-.08 0 .13.09.2.12l1.47.6c1.95.75 4.03.93 6.1 1 1.82.06 3.62-.17 5.39-.55a16.85 16.85 0 0 0 8.46-5.15c.56-.64 1.02-1.36 1.46-2.09.16-.25.3-.53.5-.75-.17.14.2-.22.14-.16-.21.24-.41.5-.65.7-.57.51-1.18.8-1.89 1.05a5.12 5.12 0 0 1-3.9-.63 5.41 5.41 0 0 1-1.9-4.7c.05-.26.07-.47.16-.72.21-.58.16-.35 0-.12-.32.44-.73.78-1.13 1.13a5 5 0 0 1-1.22.8c-1 .39-2.03.69-3.06.98-1.5.48-2.99 1.03-4.5 1.48-2 .6-4.07.92-6.13 1.2a263.91 263.91 0 0 1-14.83 1.13c-2.65.13-5.29.15-7.93.14-2.7-.01-5.4-.1-8.1-.19-2.6-.06-5.22-.18-7.83-.37-2.14-.13-4.24-.5-6.32-.97a19 19 0 0 1-4.62-1.73c-.82-.4-1.58-.9-2.32-1.42-8.1-5.27-15.55 6.18-7.45 11.45a31.7 31.7 0 0 0 4.19 2.3c2.45 1.04 4.92 2.09 7.56 2.52 2.7.5 5.4.97 8.14 1.04a325.86 325.86 0 0 0 16.65.48c2.88.03 5.76.06 8.63-.12 2.72-.13 5.44-.22 8.15-.4 2.62-.16 5.25-.32 7.85-.72 2.59-.35 5.2-.62 7.76-1.18 1.68-.38 3.34-.85 5-1.32a50.4 50.4 0 0 0 4.86-1.63 16.29 16.29 0 0 0 4.8-2.99c1.2-1.08 2.43-2.15 3.38-3.47 1.11-1.58 2.1-3.25 2.4-5.2.13-1.04.25-1.62.09-2.71a8.71 8.71 0 0 0-3-5.46c-2.01-1.6-3.84-2.58-6.51-2.6-.58 0-1.15.1-1.72.16-1.15.3-1.74.38-2.83.95a9.68 9.68 0 0 0-3.64 3.32c-.48.73-.27.4-.65 1.03-.1.16-.22.3-.28.47-.01.04.12-.15.09-.08-.15.2-.3.39-.5.54.03.07-.47.33-.55.37-.6.19-1.23.28-1.86.3-.47 0-.94 0-1.4-.17-1.79-.68-3.58-1.42-5.51-1.57-.6 0-1.2-.05-1.79 0-1.5.12-2.88.62-4.28 1.13-.87.26-1.76.5-2.67.47-1.7-.09-3.37-.33-5.04-.61-1.76-.2-3.53-.34-5.29-.47-.94-.04-1.13-.07-2.05-.03-1.21.05-2.41.25-3.61.45-1.61.3-3.22.63-4.83.95-1.58.3-3.18.5-4.77.77-1.6.25-3.2.53-4.82.68-1.57.14-3.14.35-4.72.52-1.03.07-2.07.13-3.1.15-.06 0-.64-.05-.66-.02-.03.04.13.1.08.12.14.3-.71-.63.08.32l-.03-.08-.26-.65a15 15 0 0 0-.75-1.54c-.17-.29-.36-.57-.54-.85l-.6-.8a11.54 11.54 0 0 0-3.9-2.95l-.86-.35c-.72-.27-1.47-.45-2.22-.64l.05.02a5.82 5.82 0 0 1 3.39 2.85c.44 1.05.71 2.08.48 3.24.07-.22-.01.14.02.1.18-.25.22-.94.32-1.24C29.6 77.86 15.18 75.8 13.73 86z" style="display:inline;fill:#7a9398;fill-opacity:.996078;stroke-width:14.4941;stroke-linejoin:bevel;-inkscape-stroke:none"/><path d="M8.32 15.7c.21-.52.2-.54.43-.96l.02-.02-.27.58c-.28.62-.53 1.26-.78 1.89-.4 1-.68 2.03-.91 3.07a31.28 31.28 0 0 0-.46 3.13 21.38 21.38 0 0 0 .73 7.9c.3 1.13.64 2.24.95 3.36.24.9.44 1.8.64 2.7.14.67.24 1.34.32 2.02.04.44.05.89.04 1.34-.03.46-.04.93-.12 1.39-.06.45-.16.9-.25 1.36a79.8 79.8 0 0 0-.62 3.14 43.2 43.2 0 0 0-.5 3.92c-.14 1.43-.1 2.87-.02 4.31.07 1.4.2 2.78.34 4.17.09 1.1.21 2.2.31 3.3a27.47 27.47 0 0 1-.48 7.92c-.16.74-.34 1.48-.52 2.2-.2.83-.43 1.64-.63 2.45a31.4 31.4 0 0 0-.63 3.51c-.17 1.53-.02 3.06.24 4.57.22 1.37.62 2.69 1.07 3.99.36.95.75 1.9 1.1 2.85.18.53.34 1.08.45 1.63a32.87 32.87 0 0 1 .62 5.7c.02.86.06 1.71.11 2.56.07 1.21.26 2.41.5 3.6.28 1.42.84 2.75 1.46 4.05.59 1.07 1.2 2.17 2.06 3.05.33.35.7.67 1.05 1a18.13 18.13 0 0 0 5.02 2.76c1.5.6 3.05.98 4.63 1.26 1.48.26 2.97.37 4.47.4 1.49 0 2.98-.1 4.45-.28 1.55-.27 3.11-.53 4.67-.77 1.36-.2 2.72-.4 4.08-.58.95-.15 1.9-.14 2.86-.05.55.07 1.07.24 1.58.44l2.1.9c1.48.7 3.05 1.07 4.65 1.34 1.47.22 2.96.22 4.43 0 .97-.13 1.47-.28 2.42-.51 1.85-.43 3.61-1.16 5.38-1.86 1.29-.5 2.55-1.07 3.84-1.58.33-.13.63-.25.97-.35.15-.05.36-.06.36-.04 0 .02-.27.1-.29.1.33.13.68.2 1.01.32.07.02.25.03.2.09-.05.05-.15-.04-.23-.05-.01 0-.04 0-.03.01.06.08.16.13.24.2l.74.62a14.58 14.58 0 0 0 4.62 2.41c1.56.54 3.2.74 4.83.92 1.63.19 3.26.15 4.9.1 1.47-.03 2.94-.23 4.4-.44 1.25-.16 2.48-.4 3.71-.68a29.4 29.4 0 0 0 3.97-1.15 26.73 26.73 0 0 0 6.23-3.33 27.27 27.27 0 0 0 3.16-2.76 14.33 14.33 0 0 0 2.89-4.86c.53-1.44.94-2.91 1.28-4.4.28-1.34.49-2.68.7-4.03a22.64 22.64 0 0 0 .17-7.67 19.04 19.04 0 0 0-1.36-4.46c-.42-.9-.88-1.77-1.28-2.67l-.19-.54c-.01-.06.05-.03.05-.02l.03.09c0 .06 0 .12.02.18.01.06.03-.13.07-.3l.17-.64.8-3.05a40.66 40.66 0 0 0 1.17-7.45c.09-1.37.06-2.75-.1-4.12-.2-1.42-.5-2.82-.87-4.2-.32-1.16-.7-2.3-1.06-3.43-.28-.85-.53-1.71-.74-2.58a2.78 2.78 0 0 1-.12-1.24c.09-.68.24-1.34.37-2 .24-1.15.39-2.3.54-3.46.14-1.06.24-2.12.31-3.19.08-1.1.11-2.2.16-3.3.05-1.16.09-2.31.1-3.47-.02-.62.08-1.23.2-1.83.15-.71.4-1.4.66-2.07a22.6 22.6 0 0 0 1.27-4.43c.21-1.34.3-2.7.12-4.04-.13-.98-.25-1.33-.5-2.23-.15-.71-.55-1.36-.68-2.08l-.45-3.21a22.14 22.14 0 0 0-3.35-8.72c-.53-.74-.83-1.06-1.4-1.74a15.36 15.36 0 0 0-4.6-3.47c-.39-.18-.8-.34-1.2-.52-2.18-.82-4.5-1-6.79-.52-.4.09-.8.22-1.19.33-1.55.5-2.95 1.33-4.44 1.98-.83.44-1.66.39-2.63.37-1.4-.09-2.76-.5-4.1-.89-1.63-.5-3.24-1.05-4.9-1.46-2.37-.59-4.8-.75-7.23-.7-2.07.04-4.1.48-6.11.94-.89.24-1.78.16-2.68.04-2.19-.43-4.34-.98-6.55-1.35-2.71-.44-5.44-.21-8.15.14-1.65.22-3.3.5-4.95.58-1.85.03-3.69-.23-5.53-.33-2.37-.08-4.72.25-7.07.5-.93.12-1.88.03-2.81.05-1.1.02-1.4.07-2.5.17l-1.3.2c-9.5 1.4-7.53 14.83 1.97 13.44l.62-.07c1.9-.2 3.83-.02 5.73-.3 1.59-.23 3.18-.48 4.8-.48 2.26.05 4.5.47 6.77.43l1.25-.06c1.65-.12 3.27-.46 4.9-.72 1.4-.22 2.8-.43 4.2-.23 2.16.29 4.25.87 6.38 1.32 1.11.2 1.8.36 2.94.46 1.72.14 3.46.02 5.14-.37 1.12-.28 2.24-.59 3.4-.68 1.1-.08 2.22-.02 3.3.26 1.6.47 3.2 1 4.82 1.4 2.45.61 4.94 1.14 7.48 1.18 2.81.03 5.69.05 8.31-1.12.97-.41 1.92-.86 2.88-1.29-.35-.04-.84.04-1.1-.24-.02-.03-.1-.06-.07-.07.08-.02.26.1.34.12.01 0 .03-.02.04-.01l.19.17c.09.1.26.24.34.35.19.28.3.6.45.9.28.64.49 1.3.58 1.99.19 1.24.25 2.5.45 3.74.22 1.22.48 2.44 1.01 3.57 0 0 .03.04.03.02 0-.27-.05-.27 0-.53.03-.2.05.53.02.37-.06.66-.36 1.28-.58 1.9a28 28 0 0 0-1.28 4.2c-.3 1.48-.5 2.97-.5 4.48-.02 1 0 2-.07 2.98-.05.97-.11 1.93-.2 2.89l-.21 2.54c-.1.84-.26 1.67-.41 2.5-.26 1.35-.48 2.7-.56 4.07-.05 1.75.05 3.5.52 5.2.3 1.21.61 2.43 1.01 3.62.3.89.61 1.77.84 2.67.2.68.38 1.37.45 2.07.04.6.09 1.19.05 1.78-.04.78-.1 1.56-.24 2.33a48.2 48.2 0 0 1-.52 2.57c-.25 1.05-.56 2.09-.86 3.12a18.1 18.1 0 0 0-.64 5.14c.03.34.05.68.1 1.02.18 1.38.62 2.71 1.17 3.99.39.9.8 1.77 1.24 2.64a7 7 0 0 1 .32.84c.08.5.16.99.14 1.5 0 .74-.1 1.47-.19 2.2-.12.96-.25 1.93-.45 2.88-.2.8-.38 1.62-.67 2.4l-.14.32c-.1.26-.79.66-1 .88-.45.3-.92.58-1.39.86-.55.3-1.1.62-1.68.87-.66.27-1.35.48-2.05.63-.93.21-1.87.4-2.82.56-.94.16-1.9.3-2.85.34-.9.05-1.81.04-2.7-.05-.61-.07-1.22-.16-1.8-.34-.4-.13-.67-.3-.14.07.13.09-1.04-.7-.4-.3a20.91 20.91 0 0 0-3.95-2.52c-.41-.17-.82-.35-1.24-.5-1.55-.55-3.2-.75-4.82-.94-.5 0-1-.04-1.49-.02-1.88.08-3.67.64-5.4 1.3-1.31.54-2.59 1.13-3.88 1.68-1.1.47-2.2 1-3.38 1.26-.42.1-.82.18-1.26.08-.45-.08-.89-.19-1.3-.4-1.11-.49-2.22-.98-3.38-1.34-1.7-.53-3.42-.94-5.2-1.03a29.3 29.3 0 0 0-5.34.24c-1.5.16-3 .38-4.5.65-1.34.2-2.69.46-4.05.56-.9.07-1.8.15-2.7.13-.78-.01-1.55-.05-2.31-.17a9.96 9.96 0 0 1-1.97-.52l-.5-.2-.32-.16c-.01-.01-.06-.05-.05-.03l.16.13c.75.79.3.35.17.16-.11-.19-.21-.4-.28-.6a8.5 8.5 0 0 1-.23-1.5c-.03-.78-.02-1.57-.08-2.35-.04-.9-.07-1.8-.13-2.7a30.4 30.4 0 0 0-.32-2.76 28.38 28.38 0 0 0-1.57-6.24c-.32-.86-.68-1.7-1.01-2.56-.19-.52-.35-1.05-.45-1.59-.03-.27-.1-.57-.1-.76.03-.54.18-1.08.3-1.6l.63-2.52a39.49 39.49 0 0 0 1.13-6.52 42.34 42.34 0 0 0 .08-8.18c-.1-1.2-.2-2.4-.38-3.6a39.63 39.63 0 0 1-.26-3.27 22.4 22.4 0 0 1 .4-5.05c.16-.8.34-1.58.56-2.36.27-.96.47-1.95.6-2.94.11-1 .18-2 .18-3.01 0-1.16-.02-2.32-.18-3.47a39.3 39.3 0 0 0-.62-3.2 66.21 66.21 0 0 0-.88-3.32c-.28-.98-.54-1.96-.78-2.95-.13-.57-.25-1.15-.32-1.73-.03-.4-.05-.81 0-1.22.07-.5.13-1.02.23-1.52.07-.28.14-.56.26-.82.13-.26.27-.52.42-.76.31-.38.57-1.03.8-1.59 3.26-9.77-10.56-14.38-13.82-4.6z" style="display:inline;fill:#685c64;fill-opacity:1;stroke-width:14.4941;stroke-linejoin:bevel;-inkscape-stroke:none"/><path d="M40.3 31.25c-.77.34-1.45.83-2.1 1.36a7.06 7.06 0 0 0-1.75 2.4c-.12.28-.2.57-.3.86-.05.39-.17.78-.14 1.18.12 2.1 1.24 3.19 2.9 4.21-.11 0 .94.5.88.5-.03 0-.07 0-.1-.02-.2-.19-.45-.35-.59-.59-.25-.46-.37-.98-.55-1.47.05-.46.08-.93.17-1.39.03-.15.14-.27.2-.4 0-.04-.04.04-.06.07-.06.07-.12.13-.16.2-.62.9-.4.58-.87 1.84l.08 1.93c.03.08.08.34.07.25-.02-.14-.08-.28-.1-.43-.07-1.04.02-.3.1-.96 0-.04-.04.07-.06.1a6.14 6.14 0 0 0-.5 2.17c-.02.26 0 .52-.03.77-.1.9.05 1.77.32 2.61v.02c-.09-.41-.1-.8.02-1.2.03-.1.1-.2.12-.3 0-.05-.06.08-.1.12-.97 1.09-2.18 2.24-2.35 3.79-.06.62.05 1.25.08 1.87.23.5.4 1.05.7 1.52.95 1.52 2.78 2.25 4.33 3-.59-.71.72.52.54.38-.3-.23-.68-.4-.89-.71a2.95 2.95 0 0 1-.35-2.99l.12-.22c0-.02-.03.03-.05.04l-.22.28c-.4.59-.26.4-.52.87l.05-.11.11-.17.03-.03c-.4.5-.8.96-1.15 1.49a6.58 6.58 0 0 0-.93 3.16c-.04.72 0 1.43.2 2.13.07.26.19.5.28.77 1.98 4.65 8.56 1.86 6.59-2.8.02.08.16.91.08.38 0-.4-.07.26-.16.16-.1.04.11-.17.18-.25.34-.34.69-.68.94-1.1.37-.65.27-.44.05-.18l.04-.07c.55-.72-.05.13.68-.96.36-.8.72-1.4.6-2.38-.26-2.21-1.42-3.12-3.26-3.95-.44-.2-.66-.3-1.08-.52l-.32-.19c-.14-.05.95 1.4.34 1.02-.07.8.05.94-.33 1.5-.03.03-.12.1-.12.06-.03-.2 1.03-1.1 1.13-1.27.58-.68.92-.99 1.3-1.86.48-1.11.5-2.33.17-3.48-.05-.17-.03-.13-.02-.02v.03c.01-.29.03-.44.03-.72 0-.03 0-.12-.01-.1-.07.1-.02.35-.15.4.38-.86.64-1.63.64-2.59 0-.3-.08-.61-.13-.92-.01-.07-.05-.27-.05-.2-.04.5-.03.99-.04 1.48-.11.25-.2.5-.34.75-.04.07-.2.25-.15.18.14-.23.35-.42.5-.65.8-1.26.51-.86.88-2.73-.2-.64-.3-1.32-.6-1.91-.5-1-1.6-1.56-2.54-2.07-.28-.16.04.08.12.23.37.65.48.92.47 1.71 0 .22-.09.44-.13.65l-.15.31v-.05c0-.03-.04.05-.07.05l.02-.03c-.06.02.38-.21.01 0 4.82-1.8 2.26-8.61-2.55-6.8zM78.71 32.9c-1.08.18-2.16.32-3.23.57-.88.34-1.73.56-2.22 1.57a6.75 6.75 0 0 0-.54 2.8c-.01.42.32.77.45 1.17.06.2-.2-.34-.25-.53-.08-.29-.11-.58-.17-.87v-.43l.02-.07-.01.06c-.03.17-.07.33-.09.5-.07.53-.05.62-.05 1.16.03.67.11 1.33.13 2 0 .66-.02 1.32.07 1.98.1.7.18.9.36 1.56a12.82 12.82 0 0 0 2.13 3.7c.36.46.78.87 1.17 1.3l.24.26c.01.02.03.08.01.07l-.17-.18c-.76-1.3-.57-2.59.33-3.7a4.2 4.2 0 0 0-2.23 2.98c-.1.56.06 1.13.09 1.69.22.46.4.95.67 1.38.66 1.02 1.91 1.6 2.97 2.1l.21.12.03.04c-.48-.17-.76-.65-.98-1.07-.21-.47-.2-.99-.14-1.49 0-.05.02-.1.04-.16 0-.03.07-.12.03-.1-.04.01-.04.07-.06.11-.34.53-.62 1.1-.87 1.67-.32.75-.63 1.51-.88 2.3-.28.88-.37 1.8-.45 2.72-.02.39-.05.77-.1 1.16-.56 5.01 6.53 5.8 7.1.79.05-.46.1-.93.11-1.4.03-.38.04-.78.15-1.15.14-.5.35-.97.56-1.44.21-.45.46-.87.71-1.29.73-1.36 1.06-2.7.54-4.24-.12-.24-.2-.5-.34-.74a5.45 5.45 0 0 0-2.66-2.26l-.28-.13-.16-.08-.03-.01c.43.5.67.74.83 1.5 0 .43.1.88 0 1.31-.22.97-.66 1.5-1.43 1.98l.66-.4c.77-.56 1.79-1.4 2.03-2.35.5-1.98.3-1.95-.27-3.45-.15-.22-.29-.45-.45-.66-.43-.57-1-1.01-1.46-1.56-.33-.4-.62-.83-.87-1.28-.03-.08-.08-.16-.1-.25-.1-.45.02-.94-.02-1.4 0-.68-.02-1.36-.06-2.05l-.03.12v.03c.12-.53.25-1.04.22-1.59-.06-.37-.08-.76-.18-1.13-.07-.25-.36-.98-.31-.72.06.36.38.66.36 1.03-.1 1.87-.37 3.35-2.32 3.86.13-.2.98-.24 1.19-.13 5.14 0 5.14-7.28 0-7.28z" style="fill:#685c64;fill-opacity:1;stroke-width:14.4941;stroke-linejoin:bevel;-inkscape-stroke:none"/><path d="M20.2 3.33c-.74.12-1.4.44-2.04.8a4.5 4.5 0 0 0-1.99 2.96c-.05.29-.03.58-.05.87.05.56.02.33.1.84l.03.2c-.1-.75-.01-.9.2-1.65.19-.38.43-.73.77-.99l.23-.13c-.63.18-1.28.28-1.92.42-1.03.26-2.02.7-2.82 1.42-.17.15-.33.33-.5.5a7.34 7.34 0 0 0-1.4 2.91c-.22.5.16-.17-.14.17-.24.23-.5.44-.75.66-.56.55-1 1.19-1.45 1.83-2.78 4.16 3.11 8.1 5.9 3.94.09-.15.1-.18.2-.32l.18-.22c-.04 0-.05.05-.08.07.52-.48 1.07-.93 1.51-1.5.65-.81 1.21-1.7 1.47-2.71.03-.11.1-.26.1-.37l-.02.01c-.19.25-.03.07-.26.31-.1.09-.15.13-.27.19-.05.02-.2.04-.16 0l.1-.03c.77-.2 1.57-.33 2.35-.53a5.37 5.37 0 0 0 2.94-1.76c.2-.25.34-.53.5-.79.13-.35.29-.69.37-1.05.12-.52.11-1.16 0-1.69 0-.05.04.4.01.14-.02.19-.01.38-.06.56a2.9 2.9 0 0 1-1.27 1.86c-.28.15-.56.27-.88.3 5.11-.64 4.2-7.86-.9-7.22z" style="display:inline;fill:#bdc3c7;fill-opacity:1;stroke-width:14.4941;stroke-linejoin:bevel;-inkscape-stroke:none"/><path d="M98.93 10.56c-.06-.05.13 0 .1-.01l-.24-.04c-.33-.07-.7-.21-.97-.4-.28-.2-.5-.47-.76-.7-.67-1.04-.07-.06-.33-.55l.02.05.1.32c.27.68.25.57.66 1.26.67 1 1.7 1.57 2.68 2.2l.14.1c.05.03.1.05.13.1.02.04-.07-.04-.1-.06-.12-.09-.24-.28-.1-.01.41.86.97 1.64 1.67 2.3.16.15.35.29.52.44.32.3.75.48 1.08.78.06.05.11.17.16.23.5.73 1.12 1.36 1.77 1.95.24.2.47.4.68.64 3.5 3.58 8.57-1.37 5.07-4.96-.35-.34-.7-.68-1.1-.99-.37-.31-.7-.67-.98-1.08a9.05 9.05 0 0 0-2.22-1.98c-.03-.02-.05-.06-.08-.06-.02 0 .06.06.03.07-.08.02-.39-.7-.4-.7-.22-.39-.37-.7-.65-1.06a6.76 6.76 0 0 0-1.89-1.7l-.57-.35-.13-.08-.03-.01c.03.05.08.08.12.13l.15.22.11.24.04.11c-.08-.17-.1-.36-.17-.53-.25-.72-.22-.57-.65-1.34-.33-.32-.61-.7-.98-.97a5.02 5.02 0 0 0-2.27-.8c-5.12-.42-5.72 6.82-.6 7.24z" style="display:inline;fill:#bfc3c8;fill-opacity:1;stroke-width:14.4941;stroke-linejoin:bevel;-inkscape-stroke:none"/><path d="M105.08 97.3c1.3-.94-.33.15-.56.31a6.56 6.56 0 0 0-2.35 2.87c-.1.24-.17.5-.26.74-.17.52-.22 1.05-.33 1.58-.02.1-.05.1-.06.03v-.03c-.05 0-.78.6-.86.66-.85.55-1.6 1.23-2.3 1.94-.5.54-1.07 1.03-1.5 1.62-.17.22-.31.46-.46.69-.4.83-.34.63-.61 1.44-.06.15-.1.3-.15.46 0 .04-.06.14-.05.1.02-.1.08-.25.13-.36-3.03 4.04 2.68 8.32 5.7 4.28a7.26 7.26 0 0 0 1.1-2.24c0-.01.02-.06 0-.05-.03.02-.04.06-.07.1-.02.02-.07.1-.08.07 0-.05.05-.08.08-.11l.22-.24.76-.8a7.8 7.8 0 0 1 1.5-1.24 10.52 10.52 0 0 0 2.82-2.91c.13-.25.27-.5.39-.76.29-.67.45-1.37.55-2.1-.08.08-.4.4-.2.19.57-.37 1.26-.55 1.74-1.08 3.64-3.65-1.5-8.8-5.15-5.16z" style="display:inline;fill:#838b90;fill-opacity:1;stroke-width:14.4941;stroke-linejoin:bevel;-inkscape-stroke:none"/><path d="M8.96 103.44c.62 1.91 1.8 2.75 3.51 3.66.76.42 1.64.65 2.36 1.14l.47.37c.66.64 1.39 1.21 2.13 1.77.6.47 1.1 1.07 1.65 1.6.43.4.88.77 1.33 1.14 3.93 3.08 8.29-2.48 4.36-5.56-.27-.2-.53-.42-.78-.65-.75-.73-1.43-1.54-2.3-2.14-.78-.59-1.48-1.25-2.25-1.85-.55-.37-.7-.5-1.3-.83-.75-.42-1.56-.7-2.32-1.11l-.26-.15-.05-.04c.24.34.5.62.55 1.08-1.11-5.02-8.22-3.45-7.1 1.57z" style="display:inline;fill:#828f98;fill-opacity:1;stroke-width:14.4941;stroke-linejoin:bevel;-inkscape-stroke:none"/></svg>