<svg style="clip-rule:evenodd;fill-rule:evenodd;stroke-linejoin:round;stroke-miterlimit:2" viewBox="0 0 181 148" xml:space="preserve" xmlns="http://www.w3.org/2000/svg"><path d="M243-334a6.69 6.69 0 0 1 2.43-4.74 8.08 8.08 0 0 1 5.23-1.87c2.01 0 3.85.7 5.22 1.87a6.7 6.7 0 0 1 2.43 4.74 6.6 6.6 0 0 1-2.04 5.09 8.01 8.01 0 0 1-5.61 2.22 7.97 7.97 0 0 1-5.61-2.22 6.55 6.55 0 0 1-2.04-5.08z" style="display:inline;fill:#fff;fill-opacity:1;fill-rule:nonzero" transform="matrix(6.07 0 0 6.07 -1406.62 2110.17)"/><path style="display:inline;fill:#265787;fill-opacity:1;fill-rule:nonzero" d="M250.06-341.12c-.03 0-.05.02-.08.03-.06.02-.14.02-.21.03-.07.03-.14.01-.21.04l-.05.02h-.19c-.06.09-.18.05-.24.08l-.05.06h-.08l-.09.02-.06.02-.09.01-.07.04-.12.07-.22.08c-.06.02-.1.1-.16.12-.03.01-.06 0-.09.02l-.06.07-.08.05-.07.06c-.27.2.12-.09-.15.1-.02 0-.04.04-.07.05l-.1.04c-.05.03-.07.07-.1.12l-.06.06c-.71.3-1.36.7-1.93 1.19l-.02.01c-.18.04.06-.02-.13.1-.02 0-.05-.01-.07 0-.1.03-.07.05-.14.1l-.07.04-.07.04c-.03 0-.06.01-.08.03l-.05.06-.08.02-.14.11-.04.04c-.1.08-.06.06-.16.12l-.09.06c-.08.11-.03.06-.13.15l-.04.08c-.22.28.04-.11-.18.16-.03.03-.04.07-.06.1l-.12.24c-.04.05-.12.13-.13.2v.12l-.07.1-.1.18c0 .17 0 .03-.03.2l-.01.07-.03.08c-.02.1.03.03-.05.1-.02.07 0 .16-.03.22-.02.03-.05.04-.06.07l.01.08-.03.1-.01.09c-.02.08-.08.11-.1.2 0 0 .02.18.01.2 0 .03-.02.06-.04.09.06.08-.05.12-.05.19 0 .04.06.06.06.1 0 .04-.06.05-.07.09v.1l-.02.1-.01.23-.01.12.02.1v.08c-.03.12-.06.02 0 .16-.04.76.07 1.5.3 2.2l-.01.04c0 .03-.02.05-.01.08 0 .03.02.05.03.08.01.06 0 .12-.01.18l.02.1v.11c.01.14.03.11.06.26.03.18.02.1.06.26l.03.13.05.1c.02.03 0 .07.01.1.01.04.04.07.06.1.05.17.02.09.1.24.04.13.1.3.17.43.21.34-.04-.12.13.2.04.12.13.2.2.3l.05.11.14.21c.08.07.1.18.18.25.04.04.1.06.13.1.04.04.05.1.09.14.17.1.1.04.23.19.24.2.01.02.3.2l.15.1c.42.25-.12-.1.27.12l.11.08c.15.06.27.15.42.2l.2.03c.29.08 0 .06.33.06.24.1.06.04.3.06.17.02.11.04.28.03h.26c.34.06-.1-.01.24.01.04 0 .08.02.11.03h.15c.37.12.74.2 1.13.27l.05.04.18.07c.2.1-.02.02.2.09.06.02.18.09.23.1.04.02.09.02.13.03l.12.04.12.03.14.03c.33.04-.06-.02.27.08.09.04.14.01.23.02.24.04 0 .04.24.03.13.02.27.02.4.01h.13c.28-.01.04.02.3-.03.12.01.18.03.3 0 .05-.02.1-.06.15-.07.05-.02.1 0 .16-.02.05 0 .1-.03.15-.05l.15-.03.16-.03.12-.08.14-.07.14-.07c.24-.1.07.02.26-.13l.12-.06.12-.07.12-.06.35-.23c.11-.05.22-.13.32-.22.03-.03.05-.06.1-.08.21-.12.02.09.19-.15.05-.03.17-.1.21-.14l.1-.09c.02-.03.06-.04.09-.07.03-.04.04-.09.08-.11.03-.03.08-.03.12-.05l.08-.1.08-.1.3-.28.07-.1c.24-.23-.04.05.17-.18l.1-.1c.09-.1.15-.22.22-.33.1-.1.1-.1.12-.15.5-.62.9-1.31 1.16-2.06l.02-.05c.02-.03.02-.07.03-.1l.1-.2c.06-.07.09-.1.12-.2l.02-.11.1-.18.04-.1c.04-.09.07-.13.09-.22.01-.04 0-.08.02-.11.01-.04.04-.07.06-.1.08-.22-.05-.01.08-.2v-.1c.05-.1.07-.13.1-.23l.03-.35c0-.04 0-.08.02-.11v-.13c.02-.2.06-.04.04-.25-.02-.31-.04.06-.02-.25v-.1c0-.05-.04-.19-.05-.23-.04-.25.02 0 0-.24l-.02-.1-.04-.18c-.01-.04 0-.08-.02-.11 0-.03-.04-.06-.04-.09-.02-.03-.01-.07-.02-.1l-.03-.12c-.1-.23 0 0-.08-.22l-.04-.1c0-.03 0-.07-.02-.1l-.06-.08-.04-.1c-.02-.04-.05-.06-.06-.1l-.01-.1c-.03-.08-.13-.2-.18-.28l-.04-.1-.05-.1c-.01-.04-.05-.06-.07-.08l-.05-.11-.17-.26c-.09-.21.01 0-.14-.18l-.07-.13c-.03-.03-.08-.05-.1-.09-.06-.15-.02-.08-.12-.2-.11-.03-.13-.15-.2-.22-.04-.02-.08-.03-.1-.06l-.07-.07-.07-.07c-.06-.09-.15-.14-.22-.23-.02-.03-.03-.07-.06-.1-.01-.01-.18-.1-.19-.12-.02-.03-.03-.08-.06-.11l-.12-.07a1.21 1.21 0 0 1-.1-.09c-.06-.04-.15-.15-.21-.19l-.14-.06-.26-.15c-.04-.03-.07-.07-.12-.09l-.14-.05-.14-.06-.16-.06-.15-.08-.16-.05-.16-.04-.15-.05c-.29-.1.01-.03-.29-.1-.66-.15.38.1-.33-.06-.24-.05-.11-.05-.36-.07-.38-.03.04.03-.33-.03-.37-.02.05.02-.3-.05l-.15-.02-.15-.02a1.54 1.54 0 0 0-.37.01 8.37 8.37 0 0 0-.82-.1c-.2-.28-.55-.48-1.05-.48l-.01.01c-.03-.01-.06-.05-.09-.05z" transform="matrix(3.12 0 0 3.12 -664.22 1123.3)"/><path style="display:inline;fill:#ea7600;fill-rule:nonzero" d="M243.01-360.08s.02.02-.14.02l-.13-.01c-.06 0-.11.02-.17.03l-.3.02c-.1.04-.22.02-.32.04l-.17.07-.18.04c-.1.04-.23.13-.32.18l-.28.14-.13.13c-.07.06-.14.12-.2.2-.1.13-.18.28-.26.43-.04.27-.13.54-.1.82v.06c-.3.76-.1 1.6.64 2.2v.01l.46.38.04.27c.08.19.09.4.16.58l.17.3c.02.04.03.1.06.14.06.12.11.16.2.26.07.08.13.18.21.26l.12.1.11.14c.04.04.1.06.15.1l.13.08c.13.09.24.18.38.25.13.03.23.11.35.18l.11.05.23.13.12.05.1.08c.04.03.09.03.13.05.04.01.07.04.1.06l.22.1.29.2.08.07c.23.13.03-.03.21.13.07.04.13.1.2.13l.1.05c.12.08.04.07.15.17l.1.05c.27.22-.08-.08.16.17l.1.08.07.1c.04.04.1.05.15.08l.14.1.42.3.13.1c.33.2-.08-.1.25.15l.12.06.12.05c.09.04.14.1.23.15.25.13 0-.05.22.12.09.05.17.14.25.2H245l-.03-.02c-.14-.03-.27-.1-.4-.14l-.16-.03c-.13-.03-.15-.05-.27-.11-.05 0-.1.02-.15 0-.06 0-.1-.03-.15-.04-.32-.1.03.01-.28-.05-.4-.09.14-.02-.33-.07-.18-.01-.36-.05-.55-.06-.44-.01.08.04-.36.02l-.16-.02c-.22.02-.43 0-.65.02l-.16.02c-.06 0-.1-.02-.16-.03-.33.07.02 0-.31.03-.06 0-.1.03-.16.03l-.16-.02c-.15 0-.18.01-.32.05h-.17l-.17.01-.16-.01-.15-.01c-.06-.01-.11-.03-.17-.03-.07 0-.13.02-.2.03-.13 0-.27-.04-.4-.05l-.43.01-.42-.03h-.42l-.2-.01h-.41l-.18-.03c-.07.01-.13.03-.2.03-.14 0-.28-.05-.42-.05l-.21.01h-.45c-.07-.01-.15-.03-.23-.03-.19-.01-.26.03-.45.05l-.21.01c-.26.01-.16 0-.42.03l-.75.08c-.38.02 0-.03-.38.03-.5.12.15-.02-.37.03-.13.01-.24.07-.37.1l-.19.01-.2.03h-.22l-.2.07-.2.05c-.06.01-.13 0-.2.02l-.36.06h-.2c-.06 0-.08.01-.11.02h-4.61c-.3 0-.6.05-.9.1-.18-.02-.38-.05-.58-.04-.2 0-.42-.03-.63-.04-.08-.01-.15-.02-.23-.01l-.1.02h-.12c-.3.02.03.03-.26 0-.17.02-.32.09-.48.13-.07.01-.15.01-.22.04s-.12.08-.17.11l-.14.1c-.05.03-.1.05-.14.1-.1.08-.44.46-.46.5a3.8 3.8 0 0 0-.14.8c0 .1.05.2.08.28.01.1.01.2.04.28.03.1.08.18.12.26.08.15.18.28.3.4a2.1 2.1 0 0 0 .56 1.74v.1l.04.14.01.14.05.13.12.36.1.17c.14.15.22.34.36.49.13.14.3.23.46.33.18.04.32.17.49.24l.16.05.28.1c.12.01.24.06.36.07.34.05-.01-.04.34.03.34.07.05.04.38.05.37-.05-.01 0 .35 0l.18-.02c.05 0 .11.02.17.01l.15-.02.15-.02c.16-.03.32-.02.48-.04.18-.02.1-.03.27-.04h.14c.2-.06.06-.03.27-.04l.14-.02h.14c.39-.05-.12-.03.27-.04.14.02.28 0 .42-.01h.15c.05 0 .09-.04.14-.04.05 0 .1.03.15.05.06-.01.21-.05.28-.05l.15.03.15-.03h.47l.16.02.16-.02h.54l.34-.03c.05 0 .11.02.17.01l.17-.02h.38l.2-.02c.33-.05.02-.03.36-.06.22-.02.17 0 .38-.03l.2-.04c.17-.01.36-.03.54-.07.06-.01.11-.04.17-.04.24-.01.12 0 .36-.04h.05l-.25.18c-.02.03-.04.08-.07.1-.04.03-.1.03-.14.06-.03.03-.05.08-.09.11l-.1.07c-.07.04-.12.1-.19.15l-.1.08-.1.07c-.07.04-.13.1-.2.16-.08.08-.1.08-.2.14-.14.18 0 0-.17.17l-.08.09-.1.07c-.25.2.11-.06-.18.14-.18.17-.34.36-.53.53l-.08.1c-.02.04-.06.07-.1.1l-.13.19c-.09.11-.08.12-.1.15l-3.16 2.42c-.03 0-.05 0-.07.02l-.1.05c-.1.03-.2.1-.3.16l-.1.05c-.04.01-.07.04-.1.06l-.12.04c-.07.05-.15.06-.21.1-.17.09-.05.05-.21.12-.2.08.02-.04-.2.09-.07.1-.2.08-.3.14l-.1.1c-.25.18.01-.05-.19.14l-.1.06c-.03.02-.07.01-.1.03-.03 0-.05.03-.08.05l-.1.04c-.2.16.08.02-.18.13-.1.13-.26.16-.4.24l-.16.13c-.24.09.02-.02-.19.1l-.09.04-.07.05-.1.07-.1.04c-.05.1-.15.14-.25.19-.08.03-.1.02-.16.07l-.06.07c-.2.08-.03 0-.19.1l-.08.05-.08.04c-.2.07-.08-.04-.2.1-.03 0-.06 0-.09.02l-.1.08-.08.05-.07.05c-.07.06-.09.07-.17.1-.17.1-.35.2-.51.32-.27.13 0-.01-.24.16-.14.09-.17.08-.28.2-.3.3.1-.04-.21.22l-.2.2-.11.1-.17.2c-.03.04-.07.06-.11.08l-.05.1-.08.09-.16.18c-.03.02-.07.03-.1.06l-.04.1-.1.07c-.26.28.19-.12-.12.17-.27.25.13-.16-.18.1l-.06.09c-.03.02-.06.03-.08.06-.05.04-.09.1-.14.16-.08.08-.18.14-.27.2-.02.04-.03.08-.06.11s-.07.03-.1.06c-.07.04-.1.11-.17.16l-.2.14c-.22.24.03-.03-.2.18l-.08.09c-.03.03-.08.03-.12.06l-.07.1-.09.07-.17.17-.09.07c-.02.02 0 .07-.03.09-.26.2-.02-.13-.18.12-.07.08-.16.13-.24.2l-.07.07-.18.15c-.03.02-.08.04-.1.07-.04.03-.05.07-.08.1-.05.05-.18.09-.23.13l-.1.08-.12.08c-.39.25.15-.1-.22.18-.03.03-.08.04-.11.06-.11.08-.21.2-.31.28l-.12.08-.11.11-.26.24c-.24.26.05 0-.23.23-.14.1-.2.25-.3.38-.02.05-.06.08-.08.12l-.04.06a5.14 5.14 0 0 0-1.36 1.75l-.27.35-.1.15c-.38.7.21-.3-.17.34-.05.08-.05.19-.09.28-.01.04-.04.07-.06.1-.03.09 0 .18-.03.26-.01.05-.05.09-.08.13 0 .1.02.23 0 .34-.02.03-.05.06-.05.09l.02.1.01.12a.9.9 0 0 0-.03.41l.03.12c.07.5-.05-.13.05.35.08.1.06.24.1.35.04.08.18.27.23.35.03.05.05.11.09.16l.13.14c.1.07.16.18.25.25l.15.11.15.13c.13.08.22.1.37.16.25.1.12.06.39.11l.17.04H215.82c.07-.02.13-.05.2-.06.28-.05.06.03.33-.03l.12-.05c.32-.09.02.03.33-.1l.01-.01c.55 0 1.12-.1 1.68-.3h.21c.07-.01.14.02.22.02h.17c.27-.02.1 0 .38-.05.07 0 .14 0 .21-.03.08-.02.14-.06.22-.09.35-.12.05.03.36-.14.18-.1.37-.18.54-.3.15-.1.28-.25.4-.37l.4-.41.13-.13c.05-.06.16-.25.2-.32.23-.2.04-.01.21-.25.03-.04.08-.08.1-.13.04-.04.05-.1.08-.14.2-.33-.02.12.15-.24.06-.06.15-.15.2-.23l.05-.13c.05-.09.16-.22.23-.3.04-.03.06-.07.08-.1l1.3-1.07.12-.05.08.01.08-.05h.09c.11-.01.06-.04.2-.09h.1l.1-.05c.15-.08.31-.1.45-.16.31-.15-.13.03.22-.1l.12-.05.13-.07c.14-.07.28-.14.4-.22l.2-.14.09-.07.09-.03c.27-.18-.05-.05.2-.14l.1-.1.08-.1c.1-.09.22-.14.3-.23.03-.02.04-.06.06-.08.17-.12 0 0 .16-.15l.1-.08.06-.1c.06-.08.06-.07.14-.12.09-.08.18-.15.26-.24l.06-.08c.13-.15.05-.01.13-.18l.06-.06c.09-.07.1-.05.18-.13.01-.02.1-.16.12-.17l.09-.04c.12-.2 0-.02.13-.15.06-.03.06-.1.1-.14l.15-.13c.22-.3-.09.08.15-.12l.05-.08c.05-.05.13-.05.18-.1.03-.02.04-.05.05-.08.06-.07.14-.11.21-.15l-.03.13c-.05.47.05-.16.01.29l-.03.12c.06.15-.01.3 0 .43.01.05.04.1.04.15.01.35-.09-.02.03.31 0 .05-.02.1-.01.16 0 .05.03.1.04.16.03.13.02.18.07.3.12.39 0-.1.1.29.05.18.15.33.24.5l.08.15c.32.53-.13-.28.17.27l.08.13.1.11c.16.21-.04.02.14.23.23.28.01-.05.19.23l.07.1.08.08c.02.03.03.08.07.1.03.03.08.03.1.06.04.03.05.08.07.12l.08.09c.02.06.07.1.1.15l.05.07c.01.03.04.04.06.07l.03.09.04.08c.1.18.14.38.2.58.11.15.13.35.2.53.1.29.01-.03.09.28.02.04.06.07.08.12l.03.12.06.14.04.14c.13.32.01-.06.1.28.07.13.09.14.15.29l.05.15c.03.05.08.08.1.13.03.05.04.1.05.16l.1.17.5.8c.08.12.15.25.24.36l.12.1c.06.06.11.14.17.22.24.23-.06-.06.19.2l.1.1.05.09c.32.35-.12-.23.18.18.22.16 0-.01.18.17l.1.09.07.1.2.18.13.1.12.11c.16.14.33.26.51.37l.13.07c.04.03.06.08.1.1.04.03.1.02.13.04l.07.07c.11.1.1.08.22.12.08.08.17.16.27.22l.12.06.18.15.1.07.54.44.02.02.13.12.14.1.1.13.14.11c.26.24.01.04.3.27.19.11.35.25.51.38l.18.15c.25.13.13.06.36.22.37.23.74.43 1.13.63l.21.1.25.07c.23.08.44.2.68.26.08.02.16.02.25.03l.14.03a21.3 21.3 0 0 0 9.75 1.55l.1.05c.05 0 .1 0 .13.02l.12.06.11.04.24.08h.16l.15.05.2.07h.16l.23.02c.07 0 .15-.03.22-.04l.44-.04c.17-.02.21-.05.37-.11.12-.08.27-.05.4-.09.07-.02.14-.07.22-.1.16-.07.28-.1.44-.19l.19-.1c.47-.31-.15.07.36-.2l.18-.11.16-.14c.27-.12.14-.06.37-.2l.06-.04a20.7 20.7 0 0 0 5.37-2.67l.2-.04c.69-.2-.39.07.32-.1l.17-.07.18-.03c.13-.04.17-.1.31-.14.46-.11-.08.1.34-.08.04-.03.09-.07.14-.09l.15-.03.15-.07.15-.05c.17-.06.15-.06.3-.17.08-.08.2-.07.3-.13.05-.02.08-.07.13-.1l.16-.1c.15-.1.2-.13.33-.25.29-.25.54-.54.8-.82.1-.18.26-.31.38-.48.05-.06.08-.12.12-.19l.21-.36c.04-.05.09-.08.12-.13l.08-.17.11-.14.1-.15c.2-.31 0 .02.2-.32.13-.17.23-.38.34-.57l.13-.22.19-.46c.08-.2.2-.4.25-.6l.05-.22c.04-.13.1-.25.15-.38l.07-.18c.02-.06.07-.11.09-.17l.04-.2.06-.2.04-.18.09-.18.06-.18c.01-.06 0-.12.02-.18l.12-.37.1-.39.08-.43.05-.2v-.2c.02-.2.04-.21.09-.4.03-.12 0-.25.02-.38.01-.05.04-.11.04-.17v-.17l.05-.17.02-.16c.03-.16.02-.32.04-.47l.02-.16.01-.14c.01-.05.04-.1.06-.14l-.02-.15.04-.28c0-.06 0-.11.02-.17.06-.36.02.04.05-.33.07-.23.06-.46.08-.69l.05-.32c0-.1 0-.18.02-.29.01-.04.03-.09.03-.14v-.15c0-.06.03-.1.04-.16l.01-.17c.07-.17.03-.35.05-.52.01-.05.04-.1.04-.16v-.16l.03-.18v-.18l.01-.33-.01-.52c-.01-.18 0-.37-.03-.54l-.05-.18c-.05-.28.05-.08-.11-.32.01-.16-.05-.3-.1-.44 0-.05-.01-.1-.03-.14-.11-.4.02.12-.08-.28-.03-.04-.06-.07-.08-.12l-.07-.25-.07-.1-.04-.13-.06-.1-.06-.14c-.03-.03-.07-.05-.1-.1-.02-.03-.01-.08-.03-.12l-.07-.11-.14-.26-.08-.1c-.16-.25.06.02-.12-.22l-.25-.29-.18-.3c-.06-.11-.08-.17-.17-.27-.02-.11-.1-.2-.14-.3-.01-.03 0-.07-.03-.1-.13-.25-.04.05-.1-.2l-.04-.11-.06-.1-.18-.48c-.17-.22 0 .04-.08-.23-.02-.05-.06-.08-.08-.12-.06-.16.02-.1-.05-.25-.02-.04-.05-.06-.08-.09-.12-.38.06.14-.09-.23l-.03-.11c-.02-.05-.06-.08-.07-.12-.02-.04-.02-.1-.03-.13l-.05-.13-.05-.12-.06-.1-.04-.12-.07-.13c-.12-.3.05 0-.13-.27-.31-.57.16.25-.19-.27l-.07-.15c-.08-.13-.14-.16-.22-.28l-.08-.11-.11-.11-.1-.11c-.06-.05-.15-.1-.2-.16-.18-.27.15.05-.14-.2-.09-.1-.16-.2-.26-.28-.04-.03-.09-.04-.12-.07-.27-.25.18.05-.17-.17l-.1-.09-.09-.1c-.08-.09-.11-.09-.21-.16l-.2-.18c-.12-.1-.27-.16-.39-.25-.05-.04-.15-.16-.21-.2l-.14-.04c-.22-.21-.49-.35-.74-.52l-.11-.08-.12-.07-.1-.09c-.11-.08-.24-.14-.36-.22-.1-.12-.23-.21-.36-.3l-.13-.08c-.41-.3.18.1-.24-.18-.38-.35.18.14-.23-.17l-.1-.1c-.03-.04-.08-.06-.13-.1-.15-.1-.1-.07-.23-.18-.31-.2.03.03-.26-.18l-.13-.08-.11-.11c-.1-.1-.14-.11-.24-.18-.08-.07-.17-.1-.25-.17l-.1-.1-.12-.07-.1-.1-.13-.08-.57-.44c-.1-.07-.17-.16-.26-.23-.04-.02-.08-.02-.1-.05-.03-.02-.04-.05-.06-.08l-.08-.1c-.04 0-.07-.02-.1-.04l-.07-.1-.1-.07-.07-.08c-.14-.14-.04.01-.14-.16-.17-.12-.05-.03-.2-.17l-.09-.08-.08-.1-.2-.17-.22-.19-.08-.12-.12-.08c-.11-.1-.09-.08-.19-.2l-.15-.12-.19-.1-.34-.25c-.06-.04-.11-.1-.18-.13-.05-.03-.12-.04-.18-.06l-.17-.1-.18-.11c-.28-.16-.07-.02-.36-.16-.43-.21.13.02-.34-.17l-.16-.08c-.11-.06-.2-.07-.31-.11l-.43-.19c-.08-.03-.15-.1-.23-.13l-1.62-1.25-.02-.05-.07-.02-.04-.05-.06-.05-.06-.1c-.06-.07-.08-.08-.15-.14l-.14-.16-.1-.07c-.02-.03-.02-.08-.05-.1l-.18-.17c-.12-.02-.14-.14-.21-.2-.03-.03-.07-.03-.1-.05l-.04-.08-.08-.06c-.08-.08-.15-.16-.24-.23l-.06-.03c-.06-.04-.1-.1-.15-.15-.13-.07-.22-.19-.33-.28l-.18-.13-.1-.08c-.03-.03-.07-.04-.1-.06l-.12-.07-.34-.2c-.1-.1-.25-.12-.38-.18l-.11-.07c-.19-.07-.02.06-.18-.09l-.1-.04-.19-.07-.68-.53c-.08-.07-.08-.17-.12-.26l-.1-.17c-.05-.23 0 .02-.08-.2-.01-.05-.01-.09-.03-.12l-.14-.2-.14-.23c-.1-.12-.27-.33-.4-.42-.06-.05-.15-.07-.22-.12-.12-.07-.2-.17-.33-.24l-.17-.06c-.69-.25.32.12-.33-.15-.05-.03-.11-.03-.17-.05l-.16-.09-.35-.1-.18-.06c-.06-.02-.12 0-.18-.02-.05-.02-.1-.06-.15-.07l-.17-.03c-.32-.08.04-.05-.33-.06l-.19-.04c-.2-.04-.12-.05-.32-.05h-.14c-.06 0-.1.03-.16.03s-.1-.02-.16-.03l-.17-.02zm7.62 16.04c2.97 0 5.8.97 8.03 2.78 1.13.92 2.05 2.02 2.72 3.23a9.98 9.98 0 0 1 .66 8.31c-.5 1.4-1.33 2.7-2.45 3.84l.01-.01a12.5 12.5 0 0 1-8.96 3.66c-3.47 0-6.68-1.3-8.97-3.63a10.74 10.74 0 0 1-2.45-3.83 9.96 9.96 0 0 1 .67-8.31 11.27 11.27 0 0 1 2.72-3.24 12.7 12.7 0 0 1 8.02-2.8zm-19.72 12.9c.01 0 0 .05-.03.05h-.04.01c.02-.02.03-.05.06-.05z" transform="matrix(3.12 0 0 3.12 -664.22 1123.3)"/><path style="fill:#ea7600;fill-opacity:1;stroke-width:3.56431;stroke-linejoin:bevel" d="M496.92 322.08c.27-.14.82-.75.81-.44-.1 2.88-.96.18-1.04.33-.08.15-.04.34-.03.51 0 .08.03-.14.04-.22-.07.15-.32.32-.2.44.1.1.21-.21.32-.32.02-.02.1-.08.06-.07-.1.04-.18.12-.28.15-.9.28-.47-.22-.83 1-.22.02-.48-.08-.65.06-.17.14-.1.43-.2.63-.28.54-.37.2-.88.55-.11.09-.15.24-.24.36l-.37.43c-.13-.03-.26-.16-.38-.1-.47-.03.03.45-.13.54-.18.11-.42.09-.6.18-.33.17-.93.82-1.13 1.03-.3.1-.64.12-.91.3-.32.2-.51.56-.81.8-.28.2-.6.33-.9.51-.78.5-1.48 1.08-2.15 1.71-.57.58-1.34.78-1.87 1.4-.15.19-.18.48-.37.63-.1.06-1.34.27-1.43.29-.34.5-.45.73-.98 1.15-.16.13-.37.19-.55.3-.2.13-.37.32-.58.44-.27.14-.6.18-.87.34-.3.16-.54.4-.81.6-.34.2-.67.42-1.03.59-.37.16-.8.2-1.14.4-3.74 2.23 2.5-.85-1.72 1.5-3.61 2.01 1.4-1.38-2.03 1.03-.63.54-1.43.78-2.1 1.22-.37.23-.66.55-1.02.78-.33.21-.73.3-1.04.55-1.88 1.45.3.53-2.02 1.28-1.26 1.23-3.18 1.85-4.45 3.03-1.14 1.4-.52.78-1.85 1.87-1.04 1.08-2.4 1.65-3.42 2.75-.36.38-.6.87-.98 1.24-.31.32-.72.54-1.07.81l-.95.78c-1.35 1.28-2.32 2.88-3.53 4.28-.47.54-1.4 1.43-1.9 1.92-.3.38-.66.72-.9 1.14-.22.4-.21.9-.45 1.28-.25.42-.68.7-.99 1.09-.29.36-.5.78-.77 1.16-.23.32-.55.59-.73.94-.18.39-.22.82-.33 1.23a9.89 9.89 0 0 0-2.08 3.06c-.14.35-.17.74-.33 1.08-.16.33-.96 1.4-1.19 1.71-2.2 3.84.91-1.39-1.37 1.87-.19.27-.23.62-.42.88-.2.3-.56.49-.76.8-.22.34-.3.74-.47 1.11-.16.37-.34.74-.51 1.1-.16 1.02-1.32 1.18-1.78 1.92-.24.38-.13.9-.34 1.31-.18.36-.6.56-.8.91-2.38 4.24 1.66-1.6-1.31 2.52-1.14 1.03-1.17 2.62-2.09 3.8-.27.35-.76.53-1 .91-.47 1.6-.12.89-1 2.15-.5.65-.72 1.44-1.11 2.14-.21.38-.5.7-.72 1.09-.22.4-.29.88-.57 1.24-1.88 2.34-.54-.78-1.54 2.14-2.36 2.81.7-1.03-1.39 2.3-.49.77-1.28 1.33-1.8 2.1-1.4 2.07.16.56-1.8 2.17-.77 1.83-1.96 3.24-3.12 4.8-.66.91-1.29 1.85-1.93 2.78-.23.5-.4 1.02-.68 1.49-.29.5-.7.93-1 1.43-.68.92-.9 2.08-1.46 3.06-2.05 3.52-.14-.76-1.7 3.02-.56 1.03-.75 2.21-1.22 3.28-.23.54-.6 1-.81 1.54-1.45 3.6.53-.36-.89 3.39-.2.54-.55 1.03-.82 1.55-.16 1.05-.32 2.42-.62 3.45-.17.57-.52 1.09-.63 1.67-.13.7-.05 1.44-.1 2.15-.35 4.22-.19-.33-.28 4.17-.07.7-.2 1.4-.2 2.1 0 .69.2 1.36.25 2.05.05.62.02 1.25.08 1.88.06.64.2 1.26.27 1.9.13 1.23.18 2.47.28 3.71.1.6.2 1.21.27 1.82.07.52.06 1.05.16 1.56.13.6.36 1.17.54 1.76.15.5.26 1 .44 1.5.17.48.5.91.62 1.41.13.5.09 1.03.13 1.54.2.46.5.9.63 1.4.11.46-.02.97.09 1.44s.4.88.56 1.33c.47 1.3.88 2.64 1.22 3.98.88.9.53 2.9 1.05 3.88.2.39.75.5.93.9.18.38.03.84.05 1.26l.6 1.11c.07.33.05.7.2 1 1.02 2.13.68.26 1.52 2.27.16.39.2.81.3 1.21.38 1.42.28 1.06.82 2.4.06.72.7 1.2.88 1.86.09.33-.02.69.06 1.02.08.3.29.56.41.85.67 1.58-.1.1.77 1.66.04.97-.04.89.3 1.81.12.3.36.56.4.87.06.35-.17.7-.09 1.04.71 1.07.48.5.72 1.71.01.32-.04.64.03.94.3 1.3.52.48.65 1.86.04.38-.1.77-.07 1.15.06.61.52 2.02.68 2.57.03.47.01.95.08 1.42.06.47.22.93.3 1.4.2 1 .33 2.22.58 3.2.27 1.04.66 2.05 1 3.07.66 1.28.83 2.74 1.29 4.08.15.46.38.88.57 1.33.53 1.3.56 1.48 1.03 2.9.84 2.1.38 1.13 1.53 3.21.27.48.49 1 .81 1.45.37.5.86.89 1.25 1.37.68.83 1.1 1.6 1.64 2.5.37.47.7.98 1.1 1.43.37.4.82.72 1.19 1.12.7.76 1.4 1.85 2.18 2.56 1.6 1.14.85.53 2.25 1.8 1.84 2.18.07.23 1.94 1.94.38.34.69.75 1.07 1.08.99.84 2.36 1.72 3.44 2.46 2.05 1.05 3.78 2.63 5.8 3.73.52.29 1.08.5 1.62.76 2.66 2.07-.22-.08 2.47 1.66.4.27.78.6 1.19.87 1.34.9 2.79 1.64 4.17 2.47l1.24.6c.36.31.66.7 1.07.93.45.24 1.04.16 1.46.43.44.28.59.9 1.02 1.16.43.27.97.25 1.45.37l1.24.86c.46.1.96.1 1.39.32.44.22.74.66 1.16.94.4.26.86.4 1.26.65.38.25.66.62 1.05.84 3.09 1.82-.63-.98 2.32 1.37.3.2.6.42.91.6.78.44 1.65.7 2.42 1.16 1.3.76.94.8 2.12 1.67.33.24.7.43 1.06.65 1.08.83 2.24 1.56 3.42 2.22.42.23.9.38 1.28.67.38.28.66.67.99 1.01l1.18.86c.72.8 1.8 1.04 2.62 1.67 1.46 1.09.55.94 2.09 1.85 3.34 1.96-.69-.95 2.36 1.36.83.36 1.36 1.16 2.14 1.59.45.24.98.27 1.41.53.42.25.68.71 1.09.97 3.64 2.29-.73-1.14 2.36 1.4.94.41 1.69 1.15 2.6 1.62.45.25 1 .32 1.43.59.4.24.66.67 1.04.93.83.55 1.91.79 2.84 1.07 1.48.83 3.02 1.57 4.6 2.21.49.2 1 .34 1.48.55 1.18.52 1.72.92 2.8 1.61 1.03.52 2.19.63 3.25 1.02.51.19.96.53 1.48.68.56.17 1.16.13 1.72.27.58.16 2.33.92 2.92 1.17a95.06 95.06 0 0 0 8.82 2.66l1.7.4c1.43.28 1.87.25 3.24.7.84.27 2.34.95 3.19 1.24.55.2 1.12.35 1.68.52 3.07.18.45-.08 3.6.57.59.12 1.22.1 1.8.29.6.2 1.07.68 1.67.85 6.72 1.9-3.12-1.82 3.37.76.6.06 1.2.04 1.77.18.97.23 2.56 1.08 3.48 1.39 2.14.72 1.46.27 3.67.65.57.1 1.13.27 1.7.41 1.1.4 2.27.53 3.4.83.55.14 1.08.38 1.64.51.55.13 1.12.13 1.66.26.58.13 1.12.4 1.7.5.69.12 1.4.1 2.09.14.68 0 1.37-.12 2.04.01.66.13 1.21.62 1.87.75.57.12 1.17-.07 1.75 0 .55.05 1.06.31 1.61.35.95.05 3.5-.29 4.44-.4 4.07.45.33.26 4.34-.16.7-.07 1.43.06 2.14-.04.74-.1 1.43-.45 2.17-.57 4.24-.69.6.65 4.66-1.2 2.47-.36 1.65-.14 4.04-.87.74-.23 1.5-.41 2.2-.7.68-.28 1.27-.74 1.95-1 6.21-2.47-1.5 1.18 4.28-1.66l1.91-.76c.61-.32 1.2-.7 1.84-.96.6-.25 1.3-.28 1.88-.57.53-.27.9-.78 1.41-1.1l3.19-1.54c1.27-1.1 2.87-1.67 4.23-2.63.41-.28.74-.68 1.17-.93 1.75-.69.92-.26 2.49-1.28 1.39-.35 2.33-1.42 3.5-2.15.36-.22.8-.33 1.15-.56.37-.22.67-.54 1.02-.8.34-.25.7-.48 1.06-.72.35-.2.7-.38 1.05-.56.3-.28.55-.62.9-.82.36-.2.84-.14 1.18-.37.34-.23.47-.7.8-.94.32-.24.74-.3 1.1-.48.36-.18.72-.4 1.08-.6.66-.34 1.54-.77 2.15-1.22.35-.25.63-.6 1-.83.4-.24.89-.3 1.28-.55.36-.22.61-.57.94-.81.36-.27.76-.47 1.14-.71.93-.32 1.5-1.15 2.32-1.63.44-.25.99-.3 1.4-.6.41-.3.63-.81 1.01-1.16 3.77-3.54-1.71 2.2 2.15-1.94 3.64-2.14-1.16.83 2.3-1.8.33-.26.8-.34 1.14-.6 2.75-2.1-1.12.34 1.61-2.02.3-.26.72-.33 1.08-.49 1.02-1.28.28-.42 1.4-1.55.23-.24.4-.55.68-.72.33-.2.75-.19 1.09-.38.29-.16 1.3-1.2 1.52-1.41.63-.38.97-.52 1.47-1.08.2-.22.25-.57.5-.73.31-.2.76-.06 1.06-.26.32-.21.45-.61.68-.92l1.05-.52.91-.54c.28-.24.54-.5.85-.71.26-.18.6-.24.86-.42.28-.2.49-.48.75-.7.83-.74.75-.63 1.7-1.2 1.66-1.73-.3.2 1.72-1.43.25-.2.44-.5.7-.7.59-.46 1.3-.74 1.9-1.2.3-.23.54-.52.82-.78.4-.2.84-.32 1.18-.6.36-.3.52-.79.86-1.1.31-.3.76-.44 1.08-.74.32-.3.52-.74.83-1.06.68-.71 1.35-1.05 2.2-1.57.67-.61 1.05-1.46 1.63-2.14.32-.38.72-.7 1.05-1.07.92-1.04.84-1.19 1.75-2.26.38-.44.8-.84 1.2-1.26.83-.72.94-1.88 1.54-2.74.34-.47.87-.8 1.2-1.27.8-1.09.75-1.74 1.27-2.96.22-.5.51-.99.77-1.48.8-1.4 1.27-2.94 1.88-4.43.19-.46.45-.89.64-1.35.08-.18.77-2.13.86-2.39l.42-1.17c.22-.41.5-.8.67-1.25.16-.4.18-.84.3-1.25.42-1.37.95-2.72 1.47-4.05.05-.48.01-.97.15-1.42.15-.47.5-.85.69-1.31.17-.45.23-.93.36-1.39.12-.43.33-.85.4-1.3.45-2.73-.46.08.34-2.13.88-1.1.44-2.48.91-3.73.14-.35.5-.6.6-.97.7-3.02-1 .44.42-2.12.21-.4.56-.77.64-1.22.1-.5-.26-1.03-.15-1.53.09-.45.52-.76.7-1.18.17-.35.16-.76.32-1.11.84-1.83.73-.1.55-2.22.3-.55.88-1.5 1.03-2.16.08-.37 0-.77.07-1.15.07-.39.24-.75.36-1.13.52-1.73-.01-.13.58-1.86.3-.28.7-.47.88-.84.15-.32-.12-.73 0-1.05.13-.32.5-.47.68-.76.13-.24.09-.55.22-.78 1.32-2.2.27.6 1.05-1.8.16-.46.5-1.53.77-1.95.43-.68 1.11-1.18 1.54-1.86.23-.36.34-.78.55-1.16.2-.38.46-.74.7-1.1 2.39-3.06-.62 1.16.93-2.43.18-.42.68-.63.92-1.03.44-.74.47-1.68.88-2.44.22-.4.53-.73.79-1.1 1.03-1.89.37-.55 1.16-2.5.17-.41.41-.8.52-1.22.11-.43.05-.89.15-1.32.08-.41.27-.8.4-1.2l.34-1.26c.12-.3.78-1.95.83-2.27.08-.43-.01-.89.05-1.33.07-.5.26-.98.34-1.48.16-.85.23-1.71.38-2.56.28-1.02.53-1.8.62-2.88.04-.54-.07-1.08-.03-1.62.05-.57.28-1.13.28-1.7-.01-.54-.26-1.05-.33-1.57-.07-.55-.05-1.1-.08-1.66-.11-.5-.32-.98-.34-1.49-.02-.55.27-1.1.21-1.65-.04-.49-.37-.9-.5-1.38-.13-.5-.16-1.04-.27-1.55-.52-1.95-.3-.99-.7-2.88-.37-.94-.86-1.83-1.25-2.76-.2-.46-.34-.95-.55-1.4-.18-.4-.47-.74-.64-1.14-1.15-2.7.4-.1-1.21-2.56l-.53-1.27c-.23-.35-.52-.67-.7-1.05-.21-.44-.22-.97-.48-1.4-.24-.4-.7-.62-.96-1-.89-1.75-.36-.93-1.56-2.47-.37-.41-1.24-1.34-1.53-1.83-.2-.34-.23-.79-.48-1.1-.24-.3-.68-.4-.94-.7-2.39-2.75 1.17.36-1.62-1.93-2.95-3.22.97 1.16-1.5-1.93-.22-.27-.53-.46-.74-.74-.19-.24-.25-.56-.44-.8-.23-.28-.54-.49-.8-.73l-.7-.9c-.6-.77-1.14-1.6-1.76-2.36-.57-.7-.66-.53-1.14-1.42-.13-.23-.18-.5-.27-.75-.2-.25-.39-.51-.6-.75-.67-.75-1.02-.92-1.5-1.73a22.66 22.66 0 0 1-1.45-3.06c-.5-.47-1.3-1.13-1.65-1.73-.18-.32-.18-.73-.38-1.04-.2-.31-1.4-1.43-1.64-1.7s-.42-.58-.63-.86c-1.39-3.77.47 1-.92-1.87-.13-.26-.12-.57-.26-.83-.39-.7-.75-.78-1.2-1.4-.1-.15-.16-.34-.24-.52-.03-.23.02-.48-.08-.69-.09-.19-.3-.3-.44-.45-.16-.18-.32-.35-.44-.56-1.03-1.85.4.46-.2-1.57-.08-.25-.34-.4-.5-.6l-.19-.71c-.2-.21-.5-.36-.58-.63-.09-.25.13-.52.1-.78s-.22-.47-.3-.72c-.13-.49-.15-1-.25-1.49-.36-.54-.6-.74-.6-1.44 0-.97.42-.64.02-1.59-.64-1.53-.55.37-.36-1.85-.27-1.26-.61-2.5-1.1-3.7-.3-.77-.73-1.48-1-2.25-.16-.44-.24-.9-.36-1.34-.67-.84-.58-2.06-1.16-2.94-.27-.4-.81-.57-1.06-.98-.29-.47-.24-1.08-.5-1.55-.25-.46-.7-.78-1.01-1.2-.31-.43-.57-.9-.85-1.33-.3-.38-.59-.77-.92-1.12-.36-.37-.8-.65-1.16-1.02l-1.66-1.97c-1.96-1.56-.34.66-1.73-1.62a55.54 55.54 0 0 0-7.06-5.45c-.23-.25-.4-.56-.67-.75-.37-.27-.82-.37-1.2-.6-.35-.2-.63-.48-.96-.7-.82-.53-1.13-.63-2.01-1.03l-.98-.84c-.34-.13-.73-.2-1.03-.41-2.48-1.77 1.82.4-1.48-1.36-1.66-.88-.62.14-1.69-1.14l-1.71-.91c-.24-.14-.43-.35-.68-.46-.3-.15-.67-.16-.97-.32-.18-.1-1.44-1.15-1.59-1.28-.27-.13-.53-.3-.82-.4-.28-.1-.6-.08-.86-.22-.54-.3-.87-.9-1.4-1.21-.26-.16-.57-.23-.85-.35l-.8-.4c-2.87-1.9 1.43.84-1.8-.8-.25-.12-.4-.4-.65-.56-.28-.18-.67-.19-.9-.42-.25-.24-.3-.6-.45-.9-.3-.23-.62-.45-.93-.67-3.01-1.38 1.01.5-1.94-.98-.33-.16-.7-.27-1.01-.46-.3-.17-.56-.41-.84-.61-.82-.59-1.07-.74-1.92-1.3-.4-.12-.82-.18-1.19-.39-.36-.2-.63-.55-.96-.82-.35-.27-.7-.53-1.07-.79-1.97-1.37-.36-.2-2.53-1.44-.45-.26-.87-.56-1.3-.84-.42-.24-.82-.5-1.24-.73-.47-.25-.97-.42-1.44-.67-2.58-1.4-.1-.26-2.86-1.85-.98-.57-2.04-1-3.05-1.52-.55-.16-1.15-.22-1.66-.49-.52-.27-.86-.8-1.37-1.08-.47-.26-1.04-.3-1.54-.52-.49-.2-.91-.57-1.42-.75-4.21-1.49.08.73-3.73-1.43-.58-.17-1.16-.36-1.74-.5-.56-.14-1.14-.2-1.7-.34-2.07-.53-1.64-.64-3.67-1.04-3.65-.72-.16.28-3.63-.81-.61-.19-2.72-.84-3.37-.94-2.53-.41-.78.22-3.3-.31-3.27-.7.1-.43-3.31-.56-.53-.28-1-.74-1.6-.85-.61-.1-1.23.24-1.86.23-1.6-.01-3.15-.75-4.74-.84-.56-.03-1.13.08-1.7.11-1.12-.42-1.78-.8-3-.76-2.6.09-.65.5-3.12.47-4.21-.07 1.55-.52-2.94-.07-.54-.02-1.08-.08-1.61-.05-.5.04-.98.28-1.48.26-1.71-.1-1.03-.78-2.76-.58-2.82.33.17.91-2.7.07-1.39.46-2.79.2-4.2.18-.46-.01-.91.07-1.37.06-.45 0-.9-.05-1.35-.08l-1.35.02c-2.05.06-4.1.26-6.15.26-.54 0-1.09-.12-1.63-.07-.6.07-1.2.28-1.8.42-3.63-.59-.03-.26-3.56.18-.54.06-1.08-.08-1.63-.06-2.24.1-1.06.24-3.28.57-.5.07-1.02.06-1.53.09-1 .29-2.06.33-3.08.54-.52.1-1.02.34-1.54.4-.5.04-1.02-.2-1.51-.11-4.58.75 2.07.6-2.85.56-1.3.77-2.78.67-4.2.97-.47.1-.9.3-1.38.38-.48.07-.98 0-1.47.05-.44.03-.87.12-1.3.18l-1.2.29c-.35.18-.66.45-1.04.55-.41.12-.85.04-1.27.1-1.55.2-.98.24-2.45.63-.46.12-.93.2-1.4.3l-1.36.34c-.45.12-.88.3-1.33.38-1.43.3-1.1-.05-2.55.41-3.2 1.02 1.27 0-2.23.73-18.22 5.47-10.48 31.24 7.74 25.77 2-.9-.32-.02 2.08-.37.32-.05.6-.24.9-.35 1.03-.35 2.08-.52 3.12-.82 2.09-.82 4.4-.87 6.55-1.48 1.04-.37 1.22-.51 2.31-.6.4-.03.83.1 1.22 0 .41-.1.7-.53 1.13-.59 3.46-.43-.53 1.2 2.54-.27 2.44.33.28.29 2.73-.49.45-.14.94-.15 1.42-.22 1.34-.18 2.68-.4 4.03-.47 2.44-.03.37.1 2.7-.35 1.8-.34 3.68-.38 5.5-.4.42-.02.85-.01 1.27-.09 1.58-.27 1.11-.55 2.79-.37.47.05.9.34 1.37.33.4 0 .77-.25 1.16-.38l1.37.1c.45-.04 2.28-.2 2.74-.2.92-.02 1.85.15 2.78.13.47 0 .94-.09 1.42-.13l1.4.01c.47-.01.92-.04 1.38-.03.44 0 .88.1 1.31.08.44-.03.86-.28 1.3-.25.44.02.83.35 1.28.38 4.37.29-1.72-.82 2.3 0 1.56.09.76.16 2.4-.26.42 0 .82.2 1.23.26.4.04.79 0 1.18.03 2.02.12.6.18 2.62-.02 2.4.8-.07.18 2.58.21 1.74.02 3.59 1.07 5.4.7 2.76.16.04-.18 2.66.74 1.31.46 1.5.16 2.86.37.49.07.96.23 1.44.36l1.45.37c1 .1 1.9.15 2.87.44.45.14.87.36 1.31.52 1.13.4 2.3.63 3.44 1 3.27 1.76-1.36-.5 1.92.43.56.16 1.59 1.18 2.07 1.41.4.18.85.18 1.25.32.41.15.8.37 1.19.55 1.09.67 2.22 1.27 3.3 1.96.4.25.75.57 1.16.79.4.21.85.33 1.27.5l1.23.73c3.47 2.87-1.5-1.03 2.37 1.32.37.23.55.7.92.91.39.22.9.16 1.3.35.57.28 1.44 1.16 1.9 1.6 2.8 1.11-.38-.32 2.03 1.32.36.25.81.31 1.18.54.34.21.58.54.9.76 1.98 1.32.1-.37 1.75 1.24.8.1 1.21.05 1.9.6.24.21.34.56.58.77.77.7 1.73.68 2.51 1.34 2.1.9-.29-.19 1.58.85.28.15.6.2.85.39.24.17.35.48.57.68.76.66.9.56 1.86.77.73 1.07.91 1.2 2.11 1.67.35.13.73.2 1.04.38.53.32.8.97 1.39 1.21.32.15.63.31.96.45.26.12.57.15.8.32.26.18.38.53.65.7.36.21.82.22 1.18.43.53.3.83.94 1.47 1.07 2.65.79-.45-.35 1.54 1.07.24.17.58.12.85.22.83.32 1.34 1.1 1.88 1.74.22.12.42.29.66.36.25.07.58-.1.76.07.23.21.07.64.26.88.09.12 1.8 1.13 1.83 1.38.7.62.62.47 1.15 1.27.14.2.17.5.37.63.22.14.57-.01.79.15.2.15-.25.67.22.75.13.12.3.18.42.31.04.05-.01.15.04.18.17.09.44 0 .54.15.09.13-.22.29-.16.43.04.1.22-.02.33-.03.31.54.2.95.38 1.52.05.18.2.32.22.5.02.18-.19.37-.11.53.12.26.43.4.64.6-.1 1.19-.09.37.11 1.8.05.35.05.7.13 1.05.07.36.24.7.32 1.06.08.36.08.73.18 1.09.11.38.3.73.44 1.1.09.38.19.76.25 1.15.06.4.01.82.14 1.2s.52.65.63 1.04c.12.44-.07.91.02 1.35.17.82.9 1.45.9 2.33 1.67 3.15-.38-.83 1.11 2.4.19.4.48.75.62 1.17.16.47.09 1.01.28 1.48.38.93 1.31 1.58 1.57 2.59.3.42.67.8.92 1.26 2.19 3.96-1.15-1.2 1 2.2.96 1.51.48.68 1.59 1.99l.59.78.64.85c.12.31.16.66.36.94.2.28.56.4.77.66.65.84.72 2.06 1.71 2.66.22.3.48.6.66.92.9 1.57.08.72 1.2 2.14.29.37.68.65.94 1.04.19.29.26.64.39.96l.82 1.02.82 1.2c.17.35.3.73.51 1.07 1.5 2.3.3-.04 1.53 1.95.22.36.33.79.59 1.12.25.33.6.56.91.84.51.6 1.1 1.13 1.57 1.77.27.37.4.84.7 1.2.65.73 1.91 1.18 2.32 2.27l.55.87c.23.21.51.38.69.64.18.29.2.66.35.95.46.83 1.26 1.45 1.95 2.07.36.42.51.53.74 1.04.38.88.53 1.78 1.53 2.19.1.2.18.41.29.61.1.2.28.35.34.56.07.27-.02.56.05.83.12.53.7.94.7 1.54.45 2.3-.25-.82.42 1.13.11.34-.04.8.01 1.14.03.16.17.3.21.45.05.2.04.39.06.58.58.82.25.05-.08.99-.04.13.24.82.24.86 0 .13-.13.22-.2.33 0 .3 0 .6-.02.9 0 .71-.01 1.51-.33 2.18-.1.23-.34.4-.4.64-.54 2.3.79-.6-.31 1.55-1.1 1.78.22-.64-.3 1.43-.07.24-.34.38-.44.61-.34.8.21 1.44-.83 1.83 0 .25.05.52-.02.77-.14.51-.58.9-.77 1.4-.1.26-.12.56-.2.83-.32.9-.42.93-.96 1.72-.24.27-.52.5-.71.82-.2.32-.28.7-.44 1.05-.16.35-.36.67-.53 1.02-.19.39-.32.8-.54 1.18-.25.4-.62.73-.87 1.14-.26.44-.43.92-.64 1.37-.36.4-.76.75-1.06 1.18-.7 1.02-.88 1.94-1.33 3.1-.56 1.43-1.24 2.83-1.84 4.25-1.65 6.4 1.03-3.22-1.3 2.81-.15.42 0 .9-.1 1.35-.1.44-.37.83-.5 1.27-.6 2.1.26.71-1.09 2.38-.14 1.17-.13 1.65-.52 2.77-.16.46-.46.87-.6 1.34-.12.44-.05.91-.16 1.35-.1.4-.31.77-.47 1.15l-.31 1.22c-1.55 5.42.6-2.33-.58 2.69-.51 2.15-.24.37-.86 2.17-.24.7-.2 1.48-.54 2.15-.1.46-.21.92-.28 1.39-.06.4 0 .82-.1 1.2-.1.36-.34.65-.51.98a5.57 5.57 0 0 0-.76 3.1c-.16.43-.61 1.6-.75 2.06-.1.33-.11.68-.24 1-.14.37-.4.69-.55 1.06-.85 2.1.44-.02-1.02 2.1l-.5 1.2c-.05.41-.02.84-.15 1.23-.12.36-.38.64-.57.95-.13.32-.3.62-.4.95-.1.35-.08.73-.2 1.07-.12.28-.34.5-.51.76-.19.47-.4 1.09-.66 1.54-.14.24-.32.46-.46.7-.25.44-.34.95-.6 1.37-.12.2-.31.34-.47.52-1.09 1.72.8-1.2-.8.99-.16.22-.22.51-.4.7-.53.58-1.56.66-1.87 1.48-.36.6-.54.98-1.09 1.45-.24.2-.54.3-.79.5-.74.55-1.46 1.2-2.09 1.88-.27.21-.54.44-.82.64-.23.16-.5.27-.71.45-.23.19-.36.48-.6.65-.83.59-1.62.32-2.02 1.46-2 .7.13-.25-1.45 1.19-.25.23-.63.3-.92.47-.93.58-1.8 1.3-2.63 2-1.57 1.55.23-.03-1.8 1.1-.35.2-.62.52-.95.74-1.24.85-2.4 1.06-3.07 2.54-1.68.88-.47.09-1.85 1.5-1.18 1.18-2.73 2-3.87 3.24-.55.49-1.07 1-1.63 1.5-.3.25-.63.47-.92.75-.29.28-.47.68-.8.93-.55.43-1.37.42-1.88.93-.51.8-1.08 1.68-1.98 2.1-.3.14-.72.06-.99.27-3.05 2.35 1.79-.2-1.54 1.42-.26.28-.47.62-.78.83-.36.25-.8.33-1.2.5-.44.18-1.82.74-2.2 1-.35.25-.6.62-.94.9-.29.23-.6.41-.91.62-.36.18-.7.39-1.07.55-.4.17-.87.22-1.25.46-.37.23-.63.62-.95.92-.32.29-.62.61-.98.86-.31.2-1.86.88-2.22 1.04-.65.4-1.33.77-1.97 1.2-.35.25-.65.54-1 .78-.33.22-.7.39-1.04.6-2.02 1.28 0 .16-2.12 1.27-.32.3-.6.67-.97.91-.38.26-.86.35-1.26.58-.4.23-.72.57-1.12.79-.4.2-.85.29-1.25.49-1.07.52-1.45.87-2.39 1.58-2.78 1.26-5.24 3.1-8.08 4.24-2.65.5-.31-.16-2.5 1.07-1.6.9-3.55 1.06-5.28 1.59-1.55.35-.77.22-2.35.4-.44.1-.84.36-1.28.43-.44.07-.89-.04-1.33 0-2.19.16-.4.38-2.56-.08-.42.09-1.61.37-2.1.35-.45-.03-.9-.19-1.35-.24-1.22-.12-2.45.04-3.67-.16-1.86-1.06.07-.18-2.28-.49-.99-.12-1.9-.62-2.87-.81-.51-.1-1.04-.12-1.56-.2-.54-.08-1.08-.19-1.62-.28-1.08-.32-2.15-.74-3.24-1.02-.57-.15-1.15-.2-1.72-.33-.58-.14-1.13-.37-1.7-.5-.6-.15-1.23-.2-1.82-.36-.58-.16-1.13-.41-1.7-.62-.56-.2-1.12-.46-1.7-.6-.6-.14-1.21-.16-1.81-.25-.55-.12-1.1-.22-1.65-.36-1.1-.28-2.17-.7-3.28-.98-.59-.15-1.2-.23-1.79-.35-1.14-.4-2.24-.83-3.43-1.08-.52-.11-1.07-.08-1.59-.21-.5-.12-.97-.4-1.47-.53-.49-.14-1-.13-1.49-.28-.47-.16-.9-.45-1.35-.67l-1.49-.31c-.47-.04-.95-.03-1.42-.1-.66-.12-1.79-.53-2.4-.79-.42-.17-.81-.4-1.24-.55-.45-.15-.92-.2-1.39-.31-.48-.22-2.08-.92-2.62-1.12-.39-.14-.79-.26-1.18-.37-.41-.11-.85-.14-1.24-.3-.41-.16-.77-.43-1.15-.65l-1.19-.41c-.25-.08-2.35-.68-2.6-.85-.4-.28-.55-.87-.99-1.1-.4-.23-.91-.08-1.36-.2-.73-.18-1.39-.6-2.12-.8-1.3-.68-.65-.3-1.95-1.12-.37-.2-.76-.35-1.14-.5-.35-.14-.74-.17-1.06-.36-.3-.17-.52-.47-.78-.7l-.98-.46c-.72-.81-.87-1.17-1.86-1.61-1.03-.46-1.39-.18-2.28-.93-.35-.3-.52-.79-.89-1.07-.33-.25-.76-.31-1.15-.47-2.2-1.56-4.28-3.33-6.8-4.39-.32-.37-.6-.8-.98-1.1-.4-.33-.9-.52-1.34-.78-.39-.3-.8-.57-1.17-.88-.36-.31-.62-.75-1.03-1-4.47-2.69 1.57 1.94-2.73-1.52-2.22-1.82-.22-.26-2.49-1.82-.39-.27-.74-.61-1.15-.85-.44-.26-.96-.37-1.4-.64-.4-.26-.74-.63-1.12-.95l-1.48-.83c-4.28-3.43 2.57 1.85-2.55-1.32-.45-.28-.66-.86-1.11-1.14-.43-.25-.98-.2-1.44-.4-.88-.37-1.53-1.2-2.51-1.4-1.35-.82-1.07-.68-2.51-1.41-.42-.21-.87-.38-1.28-.62-.38-.24-.66-.62-1.06-.82-.44-.22-1-.15-1.42-.4-.45-.29-.73-.78-1.1-1.17-.38-.28-.73-.6-1.15-.83-.44-.23-2.09-.66-2.54-.95-.4-.25-.68-.68-1.06-.97-.95-.71-1.36-.8-2.43-1.22-3.17-1.9 1.63 1.06-1.82-1.39-.6-.42-1.63-.78-2.24-1.2-.34-.22-.62-.52-.93-.8l-.8-.72c-2.27-2.18.87.65-1.82-1.11-.23-.16-.32-.47-.52-.66-.2-.18-.48-.28-.69-.46-1.14-1.02-.09-.6-1.48-.94-.35-.31-.91-.76-1.18-1.16-.13-.21-.14-.5-.3-.69-.11-.13-.32-.14-.48-.22-.2-.1-.41-.19-.57-.34-.12-.1-.15-.27-.22-.41l-.51-.71c-.11-.21-.2-.43-.34-.63-.1-.13-.27-.2-.33-.35-.1-.21-.03-.48-.13-.69-.17-.33-.77-.33-.72-.85-.86-.9-.22-.02-.51-1.48-.07-.32-.24-.6-.33-.9-.34-1.06-.53-2.16-1.19-3.08-1.05-2.84.17.73-.44-1.98-.07-.31-.28-.58-.35-.89-.07-.34 0-.7-.06-1.03-.11-.77-.44-1.49-.44-2.27-.4-3.87.27 1.65-.55-2.37-.08-.42-.06-.86-.08-1.3-.01-.44.12-.9 0-1.33-.97-3.19-.84.74-.73-2.63-1.34-5.54.63 2.92-.41-2.66a78.3 78.3 0 0 0-.82-2.51c-.17-.44-.48-.83-.6-1.28-.14-.47-.11-.98-.17-1.46-.48-1.1-.7-1.54-1.08-2.68-.15-.44-.22-.92-.4-1.35-.19-.44-.54-.8-.68-1.25-.15-.46-.03-1-.2-1.45-.16-.43-.52-.76-.78-1.15-.65-4.19.5 1.77-1.01-2.01-.15-.37.16-.81.02-1.18-.13-.35-.57-.5-.77-.81-.37-.6-.16-1.46-.6-2.03-.13-.3-.3-.6-.4-.93-.1-.37.02-.79-.16-1.13-.19-.37-.7-.51-.89-.89-.14-.29.02-.65-.02-.97-.13-1.03-.26-1.1-.72-2.02-.33-1.02-.72-2.02-1.09-3.02-.13-.35-.31-.67-.4-1.03-.08-.39-.04-.8-.1-1.18-.05-.37-.16-.72-.24-1.08-.19-.35-.43-.68-.57-1.05-.14-.39-.17-.8-.26-1.2-.1-.43-.43-1.72-.46-2.22-.02-.44.11-.89.04-1.32-.06-.36-.28-.66-.43-1-.94-2.49-.1.32-.16-2.17-.01-.36-.22-.68-.3-1.03a10.2 10.2 0 0 1-.1-2.83c.16-1.05.19-.5-.2-1.66 0-.25.27-.42.35-.66.1-.33.1-.69.2-1.02.64-2.13.32-.02.54-2.1 0-.4-.08-.8.02-1.17.08-.34.36-.6.5-.92.14-.32.22-.67.35-1 .37-.93.85-1.81 1.11-2.78 1.85-1.37.28.2.82-1.88.1-.37.44-.61.65-.92.2-.32.38-.66.6-.97 1.06-1.54.5-.22 1.1-2.17.7-1 1.5-1.88 2.14-2.91.25-.4.42-.85.7-1.23 1.7-2.32.21.6 1.51-2.32.38-.35.83-.63 1.15-1.03.32-.4.48-.9.74-1.33.56-.89 1.2-1.72 1.77-2.6.3-.46.54-.94.84-1.38.32-.47.69-.9 1.03-1.36.96-1.56.68-1.21 1.8-2.62.3-.4.7-.72.95-1.16.25-.44.28-.97.51-1.42.05-.1 1.63-2.34 1.71-2.45.23-.45.49-.9.69-1.36.18-.43.24-.9.45-1.31.2-.4.51-.72.77-1.08.6-.87 1.1-1.8 1.58-2.76 1.41-2.39-.49.65 1.3-1.63.77-.99.57-1.13 1.19-2.2 1.2-2.06.33.02 1.13-2.18.24-.34.47-.68.72-1 .25-.33.6-.58.8-.93.2-.4.18-.89.4-1.27.23-.4.63-.66.93-1 .62-.76.74-1.02 1.23-1.83.18-.45.68-1.79 1-2.21.23-.32.62-.49.86-.8.21-.28.3-.64.47-.94.5-.92.55-.9 1.21-1.7.49-1.03.46-1.06 1.08-2.02.17-.27.39-.5.55-.77.43-.73.73-1.55 1.21-2.25.26-.14.54-.24.77-.43.62-.51.9-1.32 1.37-1.95.16-.21.37-.4.54-.6l.49-.63c.24-.22.5-.42.73-.67.2-.22.3-.52.52-.71.18-.16.46-.16.65-.3.2-.16.32-.4.5-.58.32-.3.93-.76 1.3-1.04l.72-.66c.29-.14.6-.22.85-.42.23-.2.27-.59.53-.75.27-.17.69 0 .96-.17 2.82-1.9-1.59-.1 1.68-1.27.82-.83.7-.83 1.71-1.4.33-.2.7-.32 1.03-.52.3-.18.55-.43.83-.62.6-.4 1.26-.7 1.82-1.14 2.68-1.9-.99.54 2.01-.91.3-.15.51-.45.8-.65.3-.22.68-.34.97-.6.28-.23.38-.65.69-.83.29-.17.67-.1 1-.16.28-.2.57-.4.85-.63.27-.21.49-.5.79-.67.74-.44 1.7-.41 2.4-.89.26-.18.36-.52.54-.78l.98-.55c.26-.2.54-.39.79-.61.24-.23.4-.55.68-.75.52-.37 1.3-.3 1.78-.72 1.77-1.58-.68-.5 1.48-1.26l.55-.55c.22-.12.49-.19.67-.37.21-.21.22-.6.47-.76.2-.14.54.08.75-.05.18-.12.17-.4.25-.6l.71-.26c.23-.1.48-.17.7-.31.86-.6 1.48-1.5 2.38-2.08.3-.19.68-.22.97-.43.3-.2.5-.53.75-.79.38-.41.68-.9 1.12-1.23.21-.16.5-.2.71-.35.25-.16.46-.37.68-.56.7-.6.46-.3.76-1.29.14-.06.3-.08.43-.17.2-.13.33-.33.52-.46.23-.16.55-.2.73-.4.25-.3.26-.77.52-1.06 1.16-1.27 1.3-.22 1.06-1.16.22-.2.43-.4.65-.58.05-.04.13-.03.16-.07.12-.15.17-.35.3-.5.14-.16.7-.4.5-.4-.25 0-.69.64-.63.4.07-.38.48-.6.73-.9 10.58-15.86-11.86-30.82-22.44-14.95z" transform="matrix(.281 0 0 .281 -41.8 -43.7)"/></svg>