<?xml version="1.0" encoding="UTF-8" standalone="no"?>
<!-- Created with Inkscape (http://www.inkscape.org/) -->

<svg
   width="100.542mm"
   height="111.12508mm"
   viewBox="0 0 100.542 111.12508"
   version="1.1"
   id="svg1"
   xml:space="preserve"
   sodipodi:docname="c.new.svg"
   inkscape:version="1.3.2 (091e20e, 2023-11-25, custom)"
   xmlns:inkscape="http://www.inkscape.org/namespaces/inkscape"
   xmlns:sodipodi="http://sodipodi.sourceforge.net/DTD/sodipodi-0.dtd"
   xmlns="http://www.w3.org/2000/svg"
   xmlns:svg="http://www.w3.org/2000/svg"><sodipodi:namedview
     id="namedview1"
     pagecolor="#505050"
     bordercolor="#eeeeee"
     borderopacity="1"
     inkscape:showpageshadow="0"
     inkscape:pageopacity="0"
     inkscape:pagecheckerboard="0"
     inkscape:deskcolor="#505050"
     inkscape:document-units="mm"
     inkscape:zoom="1.9578168"
     inkscape:cx="115.94548"
     inkscape:cy="185.41061"
     inkscape:window-width="1920"
     inkscape:window-height="991"
     inkscape:window-x="-9"
     inkscape:window-y="-9"
     inkscape:window-maximized="1"
     inkscape:current-layer="g1" /><defs
     id="defs1" /><g
     inkscape:label="Calque 1"
     inkscape:groupmode="layer"
     id="layer1"
     transform="translate(-54.84488,-92.937458)"><g
       id="g1"
       transform="matrix(2.4324516,0,0,2.4324516,58.899141,97.418476)"><path
         fill="#283593"
         fill-rule="evenodd"
         d="m 17.903,0.28628166 c 0.679,-0.381 1.515,-0.381 2.193,0 C 23.451,2.1692817 33.547,7.8372817 36.903,9.7202817 37.582,10.100282 38,10.804282 38,11.566282 c 0,3.766 0,15.101 0,18.867 0,0.762 -0.418,1.466 -1.097,1.847 -3.355,1.883 -13.451,7.551 -16.807,9.434 -0.679,0.381 -1.515,0.381 -2.193,0 -3.355,-1.883 -13.451,-7.551 -16.807,-9.434 -0.678,-0.381 -1.096,-1.084 -1.096,-1.846 0,-3.766 0,-15.101 0,-18.867 0,-0.762 0.418,-1.466 1.097,-1.8470003 3.354,-1.883 13.452,-7.551 16.806,-9.43400004 z"
         clip-rule="evenodd"
         id="path2"
         style="display:inline;fill:#283593;fill-opacity:1" /><path
         style="display:inline;fill:#283593;fill-opacity:1;stroke-width:0.108943;stroke-linejoin:bevel"
         id="path3"
         d="m 0.66100592,32.060718 c -0.45257707,1.378449 0.24624274,3.224143 1.85274538,3.353935 0.9316652,0.171254 3.052427,-0.821914 3.0722283,-0.91431 -1.4192135,-0.755738 0.4790311,1.188487 0.942205,1.456795 1.95714,1.579085 4.8084264,0.291712 6.7508074,1.84833 0.977782,1.181074 1.749869,2.596032 3.109103,3.413242 1.504942,1.048302 3.57453,1.617737 5.256731,0.627636 1.257318,-0.581488 1.873945,-1.856612 2.530566,-2.985957 0.560612,-0.926125 1.762286,-1.606369 2.64988,-1.745578 -1.105517,-0.575925 0.858949,1.067207 1.400894,0.774244 1.449507,0.560993 2.834023,-2.106794 2.289691,-2.361426 1.960543,-0.07852 4.282656,-0.425346 5.535623,-2.15556 4.382203,-15.33176 -15.603977,2.206146 -3.0319,-2.189783 -4.979218,1.733007 -31.0399626,-4.558543 -32.35857408,0.878432 z"
         sodipodi:nodetypes="cccccccccccccc" /><path
         fill="#5c6bc0"
         fill-rule="evenodd"
         d="m 0.304,31.404282 c -0.266,-0.356 -0.304,-0.694 -0.304,-1.149 0,-3.744 0,-15.014 0,-18.759 0,-0.758 0.417,-1.458 1.094,-1.8360003 3.343,-1.872 13.405,-7.507 16.748,-9.38000004 0.677,-0.379 1.594,-0.371 2.271,0.008 3.343,1.87200004 13.371,7.45900004 16.714,9.33100004 0.27,0.152 0.476,0.335 0.66,0.5760003 z"
         clip-rule="evenodd"
         id="path4"
         style="display:inline;fill:#5c6bc0;fill-opacity:1" /><path
         style="display:inline;fill:#5c6bc0;fill-opacity:1;stroke-width:0.108943;stroke-linejoin:bevel"
         id="path1"
         d="M 19.112212,-0.8151337 C 17.46887,-1.400084 15.323607,-0.77798828 14.773141,1.016469 14.733934,2.6182133 13.604372,3.641603 12.001349,3.6664082 10.267796,3.6840059 8.3426361,3.9993653 7.3882531,5.654128 6.8756293,6.9973335 6.1539287,8.3574331 4.4214572,7.7686619 2.362627,7.5800524 -0.81204411,7.6530329 -1.3824242,10.14816 c -0.3837638,1.245503 1.2720503,3.578464 1.99593722,3.280075 -0.053297,-2.208966 -0.86992079,1.943127 -0.7328533,2.683139 0.20885384,1.317963 -1.71991232,2.650968 -0.39903573,4.081608 0.74903008,1.411926 2.33251551,2.355475 2.57857241,4.027343 0.6389529,-1.853553 -2.04933994,0.204612 -2.41845327,0.876517 -1.57768543,2.215499 -1.18764873,6.033342 1.50879497,7.182365 2.0558865,0.631771 3.4518696,-1.345292 4.4829221,-2.778644 C 6.4889106,28.106559 8.2720148,28.219836 9.3809013,27.18407 18.791262,15.537127 39.186918,15.812531 35.860783,8.4513728 35.021832,6.5122191 32.240898,7.5326952 31.422735,5.4398913 30.191314,3.8408491 28.1207,3.8140053 26.29748,3.941773 24.285485,4.007734 23.729554,1.5709386 21.995581,0.99023361 L 20.971194,0.87326958 C 20.826768,-0.02611601 20.012331,-0.74091365 19.112212,-0.8151337 Z"
         sodipodi:nodetypes="cccccccccccccccccccc" /><path
         fill="#3949ab"
         fill-rule="evenodd"
         d="m 37.485,10.205282 c 0.516,0.483 0.506,1.211 0.506,1.784 0,3.795 -0.032,14.589 0.009,18.384 0.004,0.396 -0.127,0.813 -0.323,1.127 l -19.084,-10.5 z"
         clip-rule="evenodd"
         id="path8"
         style="display:inline;fill:#3949ab;fill-opacity:1" /><path
         style="display:inline;fill:#3949ab;fill-opacity:1;stroke-width:0.108943;stroke-linejoin:bevel"
         id="path5"
         d="m 33.070862,28.776271 c 0.75123,1.069101 1.910453,1.963493 3.26657,1.978619 1.518782,0.02119 2.647108,-1.457701 2.702547,-2.88555 0.130954,-1.240644 -0.0077,-2.492883 -0.02343,-3.737051 -0.0958,-2.157235 -0.495651,-4.326265 -0.104894,-6.478819 0.19827,-1.574996 0.845193,-3.136107 0.588165,-4.742773 -0.262967,-1.298559 -1.503352,-2.50518 -2.887428,-2.32416 -1.369992,0.228787 -2.200952,2.036949 -1.324124,3.167743 -0.84148,5.052341 -5.496561,10.408276 -2.217406,15.021991 z"
         sodipodi:nodetypes="ccccccccc" /><path
         style="display:inline;fill:#5c6bc0;fill-opacity:1;stroke-width:0.108943;stroke-linejoin:bevel"
         id="path7"
         d="m 13.948234,24.538293 c 0.932777,-0.853865 1.536272,-1.498872 2.534025,-2.353729 1.112505,-0.881291 2.120775,-1.911288 3.381404,-2.580819 0.663301,-0.291628 1.68942,-0.558599 2.525779,-0.72373 1.460372,-0.209286 3.082853,-0.330005 4.174833,-1.462041 0.656955,-0.599076 1.240545,-1.524626 1.941395,-1.82245 1.178287,-0.484311 2.662049,-0.422846 3.573855,-1.462342 0.619979,-0.651622 1.110467,-1.77918 1.371584,-2.385357 L 9.7677703,26.02744 c 1.6051207,0.258307 2.9855447,-0.4349 4.1804637,-1.489147 z"
         sodipodi:nodetypes="cccccccccc" /><path
         style="display:inline;fill:#283593;fill-opacity:1;stroke-width:0.108943;stroke-linejoin:bevel"
         id="path9"
         d="m 33.635804,30.697983 c 0.50497,-0.984583 0.04398,-2.308442 -0.990718,-2.72953 C 31.889367,27.664985 31.087224,27.50624 30.350468,27.152024 29.393369,26.769489 28.422187,26.390466 27.515767,25.883596 27.122821,25.63513 26.116837,25.205477 25.731702,24.819691 25.439242,24.522765 24.964166,23.904485 24.973904,23.96153 24.242501,22.994583 22.997109,22.648314 22.13012,21.850522 21.651594,21.566239 21.368551,21.025656 20.845606,20.753404 20.044486,20.24351 19.05131,20.22441 18.152339,20.36707 c -1.19505,0.226757 -1.869159,1.640406 -1.415533,2.738299 2.431085,1.736712 13.071005,11.478494 16.898998,7.592614 z"
         sodipodi:nodetypes="ccccccccccc" /><path
         style="font-size:54.3601px;font-family:'Gloria Hallelujah';-inkscape-font-specification:'Gloria Hallelujah';display:inline;fill:#ffffff;stroke-width:0.163338;stroke-linejoin:bevel"
         d="m 7.600688,19.342915 c 0.083438,-4.575832 2.690909,-8.836521 6.222316,-11.6210202 2.428698,-2.0069701 5.993625,-2.8369185 8.90119,-1.4018549 2.035426,0.9548408 3.704269,3.0006137 3.66895,5.3254001 -2.467688,0.119669 -4.557718,-1.8121701 -7.052355,-1.394131 -2.736601,0.179356 -4.627327,2.628563 -5.422034,5.054579 -1.17381,3.390653 -0.840648,7.039277 -0.690937,10.553338 0.285162,1.241031 1.052625,2.42655 2.073671,3.205069 1.336426,0.900904 3.057886,0.707669 4.583854,0.602199 2.525483,-0.429051 4.432183,-2.262005 6.34938,-3.804776 1.298759,-0.958864 2.877993,-1.613182 4.511484,-1.581798 0.09538,3.603234 -1.770248,7.19002 -4.880597,9.054487 -2.564622,1.600814 -5.714446,2.233595 -8.70611,1.881237 C 14.268221,34.696975 12.263959,32.259879 10.740748,29.933683 8.8646476,26.744234 7.7078926,23.049565 7.600688,19.342915 Z"
         id="text9"
         aria-label="c" /></g></g></svg>
