<?xml version="1.0" encoding="UTF-8"?><svg width="100.54mm" height="111.13mm" version="1.1" viewBox="0 0 100.54 111.13" xml:space="preserve" xmlns="http://www.w3.org/2000/svg"><g transform="translate(-54.845 -92.937)"><g transform="matrix(2.4325 0 0 2.4325 58.899 97.418)"><path d="m17.903 0.28628c0.679-0.381 1.515-0.381 2.193 0 3.355 1.883 13.451 7.551 16.807 9.434 0.679 0.38 1.097 1.084 1.097 1.846v18.867c0 0.762-0.418 1.466-1.097 1.847-3.355 1.883-13.451 7.551-16.807 9.434-0.679 0.381-1.515 0.381-2.193 0-3.355-1.883-13.451-7.551-16.807-9.434-0.678-0.381-1.096-1.084-1.096-1.846v-18.867c0-0.762 0.418-1.466 1.097-1.847 3.354-1.883 13.452-7.551 16.806-9.434z" clip-rule="evenodd" fill="#283593" fill-rule="evenodd"/><path d="m0.66101 32.061c-0.45258 1.3784 0.24624 3.2241 1.8527 3.3539 0.93167 0.17125 3.0524-0.82191 3.0722-0.91431-1.4192-0.75574 0.47903 1.1885 0.9422 1.4568 1.9571 1.5791 4.8084 0.29171 6.7508 1.8483 0.97778 1.1811 1.7499 2.596 3.1091 3.4132 1.5049 1.0483 3.5745 1.6177 5.2567 0.62764 1.2573-0.58149 1.8739-1.8566 2.5306-2.986 0.56061-0.92612 1.7623-1.6064 2.6499-1.7456-1.1055-0.57592 0.85895 1.0672 1.4009 0.77424 1.4495 0.56099 2.834-2.1068 2.2897-2.3614 1.9605-0.07852 4.2827-0.42535 5.5356-2.1556 4.3822-15.332-15.604 2.2061-3.0319-2.1898-4.9792 1.733-31.04-4.5585-32.359 0.87843z" fill="#283593" stroke-linejoin="bevel" stroke-width=".10894"/><path d="m0.304 31.404c-0.266-0.356-0.304-0.694-0.304-1.149v-18.759c0-0.758 0.417-1.458 1.094-1.836 3.343-1.872 13.405-7.507 16.748-9.38 0.677-0.379 1.594-0.371 2.271 8e-3 3.343 1.872 13.371 7.459 16.714 9.331 0.27 0.152 0.476 0.335 0.66 0.576z" clip-rule="evenodd" fill="#5c6bc0" fill-rule="evenodd"/><path d="m19.112-0.81513c-1.6433-0.58495-3.7886 0.037145-4.3391 1.8316-0.039207 1.6017-1.1688 2.6251-2.7718 2.6499-1.7336 0.017598-3.6587 0.33296-4.6131 1.9877-0.51262 1.3432-1.2343 2.7033-2.9668 2.1145-2.0588-0.18861-5.2335-0.11563-5.8039 2.3795-0.38376 1.2455 1.2721 3.5785 1.9959 3.2801-0.053297-2.209-0.86992 1.9431-0.73285 2.6831 0.20885 1.318-1.7199 2.651-0.39904 4.0816 0.74903 1.4119 2.3325 2.3555 2.5786 4.0273 0.63895-1.8536-2.0493 0.20461-2.4185 0.87652-1.5777 2.2155-1.1876 6.0333 1.5088 7.1824 2.0559 0.63177 3.4519-1.3453 4.4829-2.7786 0.85545-1.394 2.6386-1.2807 3.7474-2.3165 9.4104-11.647 29.806-11.372 26.48-18.733-0.83895-1.9392-3.6199-0.91868-4.438-3.0115-1.2314-1.599-3.302-1.6259-5.1253-1.4981-2.012 0.065961-2.5679-2.3708-4.3019-2.9515l-1.0244-0.11696c-0.14443-0.89939-0.95886-1.6142-1.859-1.6884z" fill="#5c6bc0" stroke-linejoin="bevel" stroke-width=".10894"/><path d="m37.485 10.205c0.516 0.483 0.506 1.211 0.506 1.784 0 3.795-0.032 14.589 9e-3 18.384 4e-3 0.396-0.127 0.813-0.323 1.127l-19.084-10.5z" clip-rule="evenodd" fill="#3949ab" fill-rule="evenodd"/><path d="m33.071 28.776c0.75123 1.0691 1.9105 1.9635 3.2666 1.9786 1.5188 0.02119 2.6471-1.4577 2.7025-2.8856 0.13095-1.2406-0.0077-2.4929-0.02343-3.7371-0.0958-2.1572-0.49565-4.3263-0.10489-6.4788 0.19827-1.575 0.84519-3.1361 0.58816-4.7428-0.26297-1.2986-1.5034-2.5052-2.8874-2.3242-1.37 0.22879-2.201 2.0369-1.3241 3.1677-0.84148 5.0523-5.4966 10.408-2.2174 15.022z" fill="#3949ab" stroke-linejoin="bevel" stroke-width=".10894"/><path d="m13.948 24.538c0.93278-0.85386 1.5363-1.4989 2.534-2.3537 1.1125-0.88129 2.1208-1.9113 3.3814-2.5808 0.6633-0.29163 1.6894-0.5586 2.5258-0.72373 1.4604-0.20929 3.0829-0.33 4.1748-1.462 0.65696-0.59908 1.2405-1.5246 1.9414-1.8224 1.1783-0.48431 2.662-0.42285 3.5739-1.4623 0.61998-0.65162 1.1105-1.7792 1.3716-2.3854l-23.683 14.28c1.6051 0.25831 2.9855-0.4349 4.1805-1.4891z" fill="#5c6bc0" stroke-linejoin="bevel" stroke-width=".10894"/><path d="m33.636 30.698c0.50497-0.98458 0.04398-2.3084-0.99072-2.7295-0.75572-0.30347-1.5579-0.46221-2.2946-0.81643-0.9571-0.38254-1.9283-0.76156-2.8347-1.2684-0.39295-0.24847-1.3989-0.67812-1.7841-1.0639-0.29246-0.29693-0.76754-0.91521-0.7578-0.85816-0.7314-0.96695-1.9768-1.3132-2.8438-2.111-0.47853-0.28428-0.76157-0.82487-1.2845-1.0971-0.80112-0.50989-1.7943-0.52899-2.6933-0.38633-1.195 0.22676-1.8692 1.6404-1.4155 2.7383 2.4311 1.7367 13.071 11.478 16.899 7.5926z" fill="#283593" stroke-linejoin="bevel" stroke-width=".10894"/><path d="m7.6007 19.343c0.083438-4.5758 2.6909-8.8365 6.2223-11.621 2.4287-2.007 5.9936-2.8369 8.9012-1.4019 2.0354 0.95484 3.7043 3.0006 3.669 5.3254-2.4677 0.11967-4.5577-1.8122-7.0524-1.3941-2.7366 0.17936-4.6273 2.6286-5.422 5.0546-1.1738 3.3907-0.84065 7.0393-0.69094 10.553 0.28516 1.241 1.0526 2.4266 2.0737 3.2051 1.3364 0.9009 3.0579 0.70767 4.5839 0.6022 2.5255-0.42905 4.4322-2.262 6.3494-3.8048 1.2988-0.95886 2.878-1.6132 4.5115-1.5818 0.09538 3.6032-1.7702 7.19-4.8806 9.0545-2.5646 1.6008-5.7144 2.2336-8.7061 1.8812-2.8913-0.51867-4.8955-2.9558-6.4188-5.282-1.8761-3.1894-3.0329-6.8841-3.1401-10.591z" fill="#fff" stroke-linejoin="bevel" stroke-width=".16334" aria-label="c"/><path d="m21.396 18.552q-0.06544 0-0.19631-0.14723-0.13087-0.14723-0.16359-0.22903-0.01636-0.01636-0.01636-0.06544-0.01636-0.03272-0.01636-0.08179 0-0.06544 0.01636-0.11452 0-0.03272 0.01636-0.06544 0.06544-0.09816 0.19631-0.22903 0.13087-0.13087 0.16359-0.13087h3.5009q0.09816-0.85068 0.26175-1.7504 0.17995-0.91611 0.42534-1.7668h0.37626q0.06544 0.03272 0.17995 0.09816 0.11451 0.04908 0.22903 0.09816 0.11452 0.04908 0.19631 0.11451 0.0818 0.04908 0.0818 0.06544v3.2718q0.27811 0 0.70344-0.0818 0.42534-0.09815 0.81796-0.09815 0.40898-0.01636 0.68709 0.14723 0.27811 0.14723 0.27811 0.63801 0 0.27811-0.19631 0.42534-0.17995 0.14723-0.45806 0.22903-0.27811 0.06544-0.58893 0.09815-0.31082 0.01636-0.60529 0.0818-0.27811 0.04908-0.45806 0.17995-0.17995 0.11451-0.17995 0.34354 0 0.39262 0.16359 0.73616 0.17995 0.34354 0.37626 0.67073 0.21267 0.32718 0.37626 0.67073 0.16359 0.34354 0.16359 0.73616 0 0.73616-0.73616 0.73616-0.34354 0-0.62165-0.19631-0.27811-0.21267-0.50713-0.55621-0.21267-0.34354-0.39262-0.76888-0.16359-0.42534-0.29446-0.85068-0.11451-0.4417-0.17995-0.83432-0.06544-0.40898-0.09816-0.68708zm8.4086 0q-0.06544 0-0.19631-0.14723-0.13087-0.14723-0.16359-0.22903-0.01636-0.01636-0.01636-0.06544-0.01636-0.03272-0.01636-0.08179 0-0.06544 0.01636-0.11452 0-0.03272 0.01636-0.06544 0.06544-0.09816 0.19631-0.22903 0.13087-0.13087 0.16359-0.13087h3.5009q0.09816-0.85068 0.26175-1.7504 0.17995-0.91611 0.42534-1.7668h0.37626q0.06544 0.03272 0.17995 0.09816 0.11451 0.04908 0.22903 0.09816t0.19631 0.11451q0.0818 0.04908 0.0818 0.06544v3.2718q0.27811 0 0.70344-0.0818 0.42534-0.09815 0.81796-0.09815 0.40898-0.01636 0.68709 0.14723 0.27811 0.14723 0.27811 0.63801 0 0.27811-0.19631 0.42534-0.17995 0.14723-0.45806 0.22903-0.27811 0.06544-0.58893 0.09815-0.31082 0.01636-0.60529 0.0818-0.27811 0.04908-0.45806 0.17995-0.17995 0.11451-0.17995 0.34354 0 0.39262 0.16359 0.73616 0.17995 0.34354 0.37626 0.67073 0.21267 0.32718 0.37626 0.67073 0.16359 0.34354 0.16359 0.73616 0 0.73616-0.73616 0.73616-0.34354 0-0.62165-0.19631-0.27811-0.21267-0.50713-0.55621-0.21267-0.34354-0.39262-0.76888-0.16359-0.42534-0.29446-0.85068-0.11451-0.4417-0.17995-0.83432-0.06544-0.40898-0.09816-0.68708z" fill="#fff" stroke-linejoin="bevel" stroke-width=".050335" aria-label="++"/></g></g></svg>