<svg width="200mm" height="200mm" viewBox="0 0 200 200" xml:space="preserve" xmlns:xlink="http://www.w3.org/1999/xlink" xmlns="http://www.w3.org/2000/svg"><defs><radialGradient xlink:href="#a" id="c" cx="75" cy="101.2" fx="75" fy="101.2" r="52.1" gradientTransform="matrix(.35892 1.94326 -1.35442 .25016 189 -83.8)" gradientUnits="userSpaceOnUse"/><radialGradient xlink:href="#b" id="d" cx="65.2" cy="24.8" fx="65.2" fy="24.8" r="58.8" gradientTransform="matrix(.06703 1.03428 -1.35423 .08776 97.3 -28.8)" gradientUnits="userSpaceOnUse"/><linearGradient id="b"><stop style="stop-color:#fefe7a;stop-opacity:1" offset="0"/><stop style="stop-color:#2f5134;stop-opacity:1" offset="1"/></linearGradient><linearGradient id="a"><stop style="stop-color:#eb8600;stop-opacity:1" offset=".5"/><stop style="stop-color:#a93101;stop-opacity:1" offset="1"/></linearGradient></defs><ellipse style="fill:#40464b;fill-opacity:1;stroke-width:.264999;stroke-linejoin:bevel" cx="100.3" cy="100.1" rx="100.3" ry="100.1"/><path style="display:inline;fill:url(#c);fill-opacity:1;stroke-width:.264999;stroke-linejoin:bevel" d="m83.8 47.8-4.5.7c-1.4 0-2.7.4-4 .7a32.2 32.2 0 0 0-7.4 2.4c-1 .8-2 1.6-2.8 2.7-.8.8-1.4 2-2 3a31.1 31.1 0 0 0-3.2 6.7c-.4 1.2-.6 2.4-1.1 3.4-.3 1-.8 2-1.2 2.9l-1.9 3c-.8 1-1.5 2.2-2.2 3.3a32.5 32.5 0 0 0-3.4 8.5c-.5 1.5-.7 3-.8 4.6l-.1 4.6v4.4c0 1.5 0 3 .2 4.6l.7 4.6.2 2.2.3 2c0 1.4 0 2.7-.2 4 0 1.3-.3 2.7-.6 4l-.6 4.4-.2.7c0 .7 0 1.4-.2 2.1l-.1 1.3-.1.7v.7l-.2 3c0 1.6 0 3.3.3 4.9.3 1.6.5 3.2 1 4.8.2 1.4.6 2.7.9 4l.8 4.2 1 4.3 1 4.2c.4 1.6 1 3 1.3 4.7l1.5 4.5c.6 1.5 1.3 2.8 2.1 4.2.8 1.3 1.9 2.5 3 3.6.8 1.1 1.8 2.2 2.8 3.2a23 23 0 0 0 7 5.2 13.6 13.6 0 0 0 9 .8c1.3-.3 2.5-1 3.6-1.7l2.6-1.8a12.4 12.4 0 0 1 5.2-1.7 13 13 0 0 0 4-1c.7-.3 1.7-.7 2.5-1.2l1-.7c1.2-.9 2-2 2.8-3 .8-1.1 1.3-2.3 2-3.3l2.2-3 1.6-2 .9-.8c.8-.8 1.7-1.6 2.7-2.3l.4-.4c.2 0 .3-.2.5-.3l2.1-1.8 3-3 3-3.2 2.4-3.3 2.3-3.1 2-2.8 2-2.6 2.4-2.9a34 34 0 0 0 2.2-3.5c.7-1.3 1.3-2.6 1.8-4l1.5-3.6 1.6-3.2 1.5-3.4 1.5-3.6 1.5-4 1.4-4c.5-1.2.8-2.5 1.2-3.7l1.3-3.6c.5-1 .8-2.2 1.4-3.1l1.7-3 1.5-3.3a14.7 14.7 0 0 0 1.2-7.1c-.2-1.4-.8-2.6-1.6-3.7-.6-1-1.2-2-2-2.8-.6-1-1.3-1.8-2-2.7-.6-1-1.3-1.8-2-2.6l-2-2.6z"/><path style="display:inline;fill:url(#d);fill-opacity:1;stroke-width:.264999;stroke-linejoin:bevel" d="M89.1 49.2V50.5l-.3 1.3-.1 1.1v.4l-.2.9-.2 1-.1.4v.5c-.3 1.7 0-.6-.2 1-.2 2 0-.7-.2 1.2v.5l-.2 1.7c0 1.1 0 2.2-.2 3.3v2.4l.1.6v.5l.2 1.1c0 .6.2 1.1.3 1.7l.1.6.4 1 .2.6.3.5.5.9.8 1.4 1 1.3 1.5 1.6.4.3.3.4.7.6.3.3.9 1.2c.8 1.1-.2-.3.5.9l.4.4.2.6.7 1 .7 1.1c0 .2.2.4.3.5.4.6.7 1.2 1.2 1.6.5.8.2.4.8 1l.5.6.5.5 1 1c.2 0 1.1.6 1.2.7.9.5 1.8.8 2.7 1h1.4c.8 0 1.7-.2 2.5-.5l1-.4.3-.2 1-.5.8-.3 1-.3h1.2l1.7-.1c.6 0 1.2 0 1.8-.2l1.8-.3 1.2-.3 1.7-.8 1.4-1 .3-.5c.6-.8 0 .2.5-.6l.5-1.1.1-.4.3-.6v-.3c0-.2.1-.2.2-.3v-.3l.1-.3V82l.2-.4.6-2 .2-.5.2-.2c0-.3.1-.5.3-.7v-.1l.2-.2c.2-.2.3-.4.6-.5l.5-.2.4-.1c.4-.2.9-.2 1.3-.5 1-.3 2-.6 2.7-1.3.2 0 .4-.2.5-.3.7-.5 1.3-1.2 1.7-2l.2-.6.1-.5.2-.9v-.4l.1-.5v-.4.2c-.3.3-.7.5-1.1.5h-.2.1l.3.1.8.5.3.2.3.2.3.3.3.2.6.6.3.3.3.3.3.3c.7.6 1.2 1.3 1.8 2l.6.7 1.4 1.4.8.7.4.4.4.3.8.7.4.3.4.4.4.2.4.4.8.6.7.6.6.4.5.6.3.2 1.2 1.6c.3.5.6 1 .7 1.5l.1.6.1.4v.4l.2 1 .3 1c.3.8.7 1.4 1.2 2l1 1c.6.5 1.3.8 2 1.2a276.5 276.5 0 0 0 2.4.5H160.7c.7 0 1.3-.1 2-.3a8 8 0 0 0 1.6-1l.8-.6.3-.3 1-1c.7-.9 1.4-1.8 1.8-2.7l.3-.7c.2-.5.3-1.2.3-1.7v-1.9l-.1-1.7c-.2-1.2 0 .3 0-.9l-.2-.4V80.2l-.3-2.2v-1l.1-.3.1-.7c0-.7 0 0 .2-.7V75c0-.4.2-.7.3-1.1l.4-2.3.2-1.4v-1.4l-.2-1v-.4c-.1-.7-.1-.3-.3-.9v-.4l-.3-1-.2-.4v-.4l-.5-1c-.5-1 .1.2-.3-.8l-.8-1.4-.4-.7-.4-.6-.2-.3-.2-.3-.9-1.8-.1-.3-.1-.3-.5-1.3c-.2-1 0 .2-.3-.8 0-.3 0-.6-.2-.8l-.2-.5-.1-.4-.9-1.5c0-.2-.1-.4-.3-.5 0-.2-.2-.3-.3-.4l-.4-.4-1.6-1.5-.4-.3c-.2 0-.3-.2-.4-.3l-1-.6-1.6-1-1.6-.8-.4-.2-.4-.2c-.6-.4-1.3-.7-1.9-1.2l-.6-.4-.3-.2-.4-.2-.6-.5-1-.7-.4-.1-.4-.2-.3-.2-.9-.4-1.8-.7-.4-.2h-.5l-.4-.2h-.4l-.8-.3-2.7-.3h-.9l-1.8.1-.8.1-.4.1-1.2.2-1.8.4h-1.6c-.6 0-1.2 0-1.8-.2l-1-.3c-.1 0-.4 0-.6-.2h-.3l-1-.4c-1.8-.4-.5-.4-3-.7 0 0 4.7-11.4 11-21.1C136.4 15.2 146.9 6 148.4 4c4.8-6.2.3-3.5.3-3.6a51 51 0 0 0-14.8 12c-4.2 4.8-7.6 11.8-10.4 15-8.1 9.5-3.7 10.5-4.4 9.3-.2-.4-3.3-3.1-3.6-3.5l-.4-.7-.3-.4-.3-.3-.5-.6-1.8-1.6-.6-.5-.4-.2-1-.7-.3-.3-.4-.1-.3-.2-.7-.5-.3-.2-.6-.4-.3-.2-.2-.2-.3-.2-.2-.1-.5-.6-.4-.5-.3-.2-1-1-.3-.2-.8-.6c-.8-.4-1.7-.8-2.6-1l-1-.3h-1c-1.5-.2.7-.1-.7-.2h-1.5l-.7-.1c-.8 0-1.5-.2-2.2-.3h-1l-.9-.3-.6-.1h-.3l-1-.3-.7-.2h-.3l-.9-.3-.6-.2-.3-.1h-.3c-1.5-.4.7 0-.9-.3-1-.2-2-.2-2.9 0-.8.2-1.7.4-2.5.8l-.8.3-.7.4-.7.4-.3.2-.3.1-.3.2-.3.2c-.8.6.3 0-.5.4l-.9.6-.2.1-.5.4-.8.5-.2.1-.2.2-.3.1-.2.1-.2.1-.2.1h-.2l-.1.2h-.2l-1.1.3h-.9l-.9.1-.6.2h-.3l-.8.2c-.9.4.2 0-.7.2l-.3.2-1 .3-.6.4-.4.2c-.3.3-.8.4-1 .8l-.4.2-.4.4-1.1 1.3-.3.3-.2.3-.3.3-.2.4c-.8 1 .1-.5-.5.6l-1 1.6-.3.3-.3.4-.2.1v.2l-.2.2-.1.1-.2.2-.1.2-.4.3c-.1.2 0 .2-.3.3l-.1.2c-.2 0-.2.3-.3.4l-.2.1-.6.8-.3.4-.1.2a6 6 0 0 0-1 2v.6l-.1.4v2.7l.2.5v1.1l.1.3.1.3v1.5c.1 0 0 0 0 0l.3-.2c-.2 0-.2.2-.3.2l-.2.1-.3.2-.4.3c-.4.3-.8.5-1.1 1-.6.7-1 1.3-1 2.3l.1.9.1.4.8 1.3.2.2.2.2.3.2.3.2.7.4c.7.2.1 0 .8.1l.4.1h1l.7-.1.3-.1h.2l.5-.2 1.3-.5c.6-.3-.3.2.4-.1l.1-.1h.2l.4-.2.5-.2.8-.2c.4-.2.9-.2 1.3-.3.4-.1 0 0 .4 0l1-.2H70l.4-.1.7-.1.4-.2.6-.2c.6 0 1.1-.3 1.7-.6l1.3-.5.4-.1.4-.2h.2l.2-.2.6-.2.5-.2 1.2-.3H79.2l.3-.1H81c.4.2 0 0 .5.1l1 .2 1 .2h.4l.3.1h.5c.4.1.8.2 1.3.1l.5.1h.5l.3-.1h.2c.5-.2 0 0 .5 0l.2-.1.7-.2 1-.3s.1 0 0 0c0 .3-.8-.5-.8-.2z"/></svg>