<svg xmlns="http://www.w3.org/2000/svg" xml:space="preserve" width="120" height="120"><ellipse cx="18.6" cy="60.3" rx="10.6" ry="12" style="display:inline;fill:#1b2020;fill-opacity:1;stroke-width:15;stroke-linejoin:bevel;-inkscape-stroke:none"/><path d="m29 31.8 11.8 10 21.7 1.6L81.9 35l10-11.7L94.5 36 94 52.1 91 64.5l-7 11.2-10.2 7.6-9.5 2.8-15.7-1.2-15.3-4.5-6.3-4.7 1-9.5.4-12.3.7-7.8z" style="display:inline;fill:#564d3e;fill-opacity:1;stroke-width:15;stroke-linejoin:bevel;-inkscape-stroke:none"/><path d="M29.7 56.1v-.4a40.7 40.7 0 0 0 .8-6.7l.1-2.4.1-2.4V42a98.4 98.4 0 0 0-.1-4.5l-.3-1.5.1-1.2.1-1.8c0-.7-.2-1.4-.4-2l-.5-1.8-.3-1.5v-.3.2l-.2.3c-.5.5-1 .7-1.8.4l-.3-.2V28c0 .3.2.5.3.8a28.6 28.6 0 0 0 2 3.7c.3.7.8 1.2 1.3 1.7.6.6 1.2 1 1.8 1.4.4.2.7.4 1 .8l.7 1 .8 1.4 1 1.6c.3.5.7 1 1.3 1.4l.3.2c.8.5 1.6.8 2.4 1l2.2.2c.7 0 1.4 0 2 .2.7 0 1.3.2 2 .4l1.7.8c.8.5 1.7.7 2.5 1a20 20 0 0 0 7.5.3 30.1 30.1 0 0 0 3.8-.7l.8-.4c.6-.3 1.2-.8 1.7-1.3l.5-.3s0-.1.1 0c0 0-.1 0 0 0h.3l1.3.1a9 9 0 0 0 3.7-.8l1.7-.8 1.6-1 1.3-1.1.1-.1h.2l.6-.2 1.7-.3 2-.5 1.8-.8a7.3 7.3 0 0 0 3.5-4l.3-.7.3-.1 1.1-.6c.6-.3 1-.8 1.4-1.3l.8-1.4.2-.5v.1l-.2.2.4-.1 1-.8.8-1.4a513.9 513.9 0 0 0 1.5-2.4l.7-1-.2.2c-.4 0-.9-.1-1.2-.4a11.7 11.7 0 0 1 .3 4.4l-.1 1.9c0 .8 0 1.6.2 2.4l.6 1.8.2.9v.8l-.4 1L92 38c-.2.6-.2 1.2 0 1.8a24 24 0 0 0 .5 2.2v1c0 .5 0 1 .2 1.7.1.6.4 1.1.6 1.7v1l-.2.8c-.1.3-.3.5-.3.8l-.1.5v.6c0 .4.2.8.4 1.2.1.1.2.2 0 0v-1l-.8 1-.1.7v1.1l.1.5.1-.7v-.1a4 4 0 0 0-1 2l-.2 1.5-.1 1.3-.3 1.5a18 18 0 0 1-1.8 4.5l-1 1.8a10 10 0 0 0-.6 1.7v.5l-.1.5v1.4c0 .1 0 .3-.2.3-.2.4-.5.6-.8.9l-1.3 1-1.5 1.2-1.5 1.3A32.7 32.7 0 0 1 77 78l-1.7 1.2-1.6 1.2-1.3 1a5.2 5.2 0 0 1-2.2.9l-1.3.1-1.8.7-1.4.8c-.3.2-.7.2-1 .2l-1.3-.1-1.8-.2-2.1-.2a147.2 147.2 0 0 0-4.7-.2l-2.4.1a14.6 14.6 0 0 1-4-.4l-1.6-.6-1.4-.7a19 19 0 0 0-3.5-1.6l-1.8-.3-1.7-.2a4 4 0 0 1-1.3-.4l-1.4-.9-1.3-.6-1-.8-.5-.2-1-.3-.2-.2-1.6-.8c-.3 0-.5 0-.7-.2l-.2-.1-.3-.6-.8-2-3.3 1.3.7 2 .4.8c.3.5.7 1 1.1 1.3l.4.3c.4.3 1 .6 1.5.7.3 0 .6.2.8.4.5.3 1 .6 1.7.7l.3.2.8.6 1.6.8 1.5.9c.7.3 1.5.6 2.3.7.6 0 1.2 0 1.7.2l1.4.2 1.2.4 1.4.8 1.7 1a15.8 15.8 0 0 0 7.3 1.2 89.2 89.2 0 0 1 4.4 0h2.2a67.5 67.5 0 0 1 5.7.6 7.7 7.7 0 0 0 3.9-1.4l.8-.3 1.2-.1a9.8 9.8 0 0 0 5.1-2.6l1.6-1.2L79 81l1.7-1.2a39 39 0 0 0 5-4l1.4-1.2A51.1 51.1 0 0 0 90 72l.3-.3.6-1.8-.1-1.5c0-.5.2-.9.4-1.3l.8-1.5a18.5 18.5 0 0 0 1.8-3.9l.5-1.8.3-1.6.2-1.5.1-1.1v-.2c.7-.7 1.1-1.4 1-2.5 0 0-.2-.7-.2-.3 0 .2 0 .3-.2.4l.4-.5c.6-.7.8-1.3.7-2.3l-.2-.5-.2-.3v.7l-.1.2v-.2l.4-.8a7 7 0 0 0 .1-4l-.4-1.4v-.9l-.2-1.6-.3-1.3-.2-1v-.4l.2-1 .4-1.6a7 7 0 0 0-.3-3.5l-.5-1.3c0-.5-.2-.9-.1-1.3 0-.6 0-1.3.2-1.9a13.5 13.5 0 0 0-.1-3.8l-.3-1.6c-.2-.6-.4-1.2-.8-1.7l-.3-.4c-.6-.5-1.3-.6-2-.5-.8.2-1.3.5-1.8 1a15.4 15.4 0 0 0-2 2.9l-.6 1.2-.5.7h.1l-.6.3-.4.2-1 1.4-.5 1-.3.3-1 .5c-.6.3-1.1.7-1.5 1.3a6 6 0 0 0-.7 1.4l-.3.7-.7.8a4 4 0 0 1-.8.6l-1.2.5-1.5.4-1.9.4c-.8.2-1.6.4-2.3.9l-1.2 1-1.2.8a36 36 0 0 1-2.5 1 5 5 0 0 1-1 .2l-1.1-.1c-.7-.1-1.4-.1-2 .1l-.4.2c-.5.2-1 .6-1.4 1l-1 .8-.2.1c-.3.2-.7.2-1 .3a31 31 0 0 1-6.2.3 19 19 0 0 1-2-.3 8 8 0 0 1-1.7-.7l-2.4-1c-.8-.3-1.7-.5-2.6-.6l-2.2-.2-1.6-.1c-.4-.1-.8-.2-1.1-.5-.3-.1-.6-.4-.7-.7l-.8-1.2-.9-1.6c-.3-.6-.7-1.1-1.2-1.6a7 7 0 0 0-1.6-1.4l-1.2-.8-1-1.2a12.4 12.4 0 0 1-1.6-3.1c-.3-.8-.5-1.5-1.1-2L29 25c-1-.5-1.9-.3-2.6.4l-.3.4-.2.5c-.2.6-.3 1.2-.2 1.8 0 .7.2 1.4.4 2l.5 1.7.3 1.3-.1 1.3-.1 1.8c0 .7.2 1.3.3 2l.2 1.6V44a190.3 190.3 0 0 1-.7 9.3A24.3 24.3 0 0 1 26 56c0 2.7 3.7 2.7 3.7 0z" style="display:inline;fill:#3b3d3e;fill-opacity:1;stroke-width:15;stroke-linejoin:bevel;-inkscape-stroke:none"/><ellipse cx="14.7" cy="55.5" rx="5.8" ry="5.6" style="display:inline;fill:#fff;fill-opacity:1;stroke-width:15;stroke-linejoin:bevel;-inkscape-stroke:none"/><path d="M29.2 51.3a8.5 8.5 0 0 0-.4-1.3 7.4 7.4 0 0 0-2.7-3.3c-.2 0-.3-.2-.5-.3-.8-.4-1.7-.6-2.6-.5-.4 0-.7 0-1.1.2h-.5 1.2l.6.2.2.2v-.2l-1-1.2a7.2 7.2 0 0 0-1.8-1.7l-.5-.2a7 7 0 0 0-3.5-.6c-1 .1-2 .4-2.8.8l-.8.4-2.8.7c-.8.4-1.7.6-2.4 1.2l-.7.5c-.8.8-1.3 1.8-1.5 2.9v1.2-.5c0 .3-.2.5-.4.8a8.6 8.6 0 0 0-1.6 5.8c0 .6.2 1.3.4 2l.6 1 1 1c-.3-.3.2.2.1.2a5 5 0 0 1-.3-.5c-.1-.2 0-.1 0-.2l-.2 2.8c0 1 0 2.1.3 3.1.1.7.2 1 .5 1.6.3.9.7 1.7 1.2 2.4l.9 1c.7.7 1.4 1.3 2.4 1.6l1.4.4c.7 0 1.3 0 2 .2l.7.4 1.9 1.4c.9.7 1.9 1.1 3 1.4l.6.2c1 .3 2.1.4 3.1.3l1.4-.3a12 12 0 0 0 1.9-.5l1.8-.9c1-.5 1.8-1.1 2.6-1.9l.5-.5a8 8 0 0 0 1.6-3l.2-.9v-1a6.7 6.7 0 0 0-1.6-3.3l-1-1-.3-.3.4.4.5 1.4v.7s-.1.1 0 .1v-.1l.2-.6a9.8 9.8 0 0 0 1-6.7 6.2 6.2 0 0 0-1.6-3l-.5-.4-1-.8-.8-.5-.2-.4c-3-4.2-8.9-.2-6 4l1.4 1.7c.6.5 1.1 1 1.8 1.3l-.1-.5.1.7c0 .5-.3 1-.5 1.5-.5 1-1.2 2.3-1 3.4 0 .6.3 1.3.4 2l.7.8.8.8c.2.2.1.1.1 0v-1.2c.2 0 0 .2 0 .2 0 .3-.8.7-1 .9-.6.3-1.1.6-1.8.7-.4.1-.8.2-1.3.1-.4 0-.9-.3-1.3-.6l-1.9-1.4-1-.7-2.1-.8c-.9-.2-1.7-.4-2.6-.4-.2 0 .4 0 .3.2-.4-.2-.6-.6-.8-1a4 4 0 0 1-.4-1.9l.1-1c.1-.7.3-1.5.3-2.3 0-.7 0-1.1-.2-1.7a6 6 0 0 0-1.7-2.7s0-.1 0 0l.2.5v.2-.6l.5-1c.4-.6.9-1.3 1.2-2l.2-.5.2-1.8c-.1.7-.3 1-.7 1.4l-.4.2.7-.4c.7-.3 1.4-.4 2.1-.5.8-.2 1.7-.4 2.4-.8l.2-.1-.4-.2-.1-.1.8 1.1c.7.8 1.4 1.6 2.3 2.1l.9.4c1 .3 2 .3 2.9 0-.5 0-1 0-1.5-.3-.2 0-.1 0-.2-.2 0-.2 0 .2 0 0-.1-.3 0 .2 0 .2l.2.8s.1.1 0 .2v-.2c1.7 5 8.8 2.7 7.1-2.4z" style="display:inline;fill:#252a2b;fill-opacity:1;stroke-width:15;stroke-linejoin:bevel;-inkscape-stroke:none"/><ellipse cx="37.6" cy="50.6" rx="8" ry="8.4" style="display:inline;fill:#fff;fill-opacity:1;stroke-width:15;stroke-linejoin:bevel;-inkscape-stroke:none"/><ellipse cx="56.5" cy="52.6" rx="10.2" ry="9.9" style="display:inline;fill:#fff;fill-opacity:1;stroke-width:15;stroke-linejoin:bevel;-inkscape-stroke:none"/><ellipse cx="38.9" cy="51.7" rx="6.3" ry="6" style="display:inline;fill:#050505;fill-opacity:1;stroke-width:15;stroke-linejoin:bevel;-inkscape-stroke:none"/><ellipse cx="58.7" cy="53.5" rx="7.2" ry="7.6" style="display:inline;fill:#020406;fill-opacity:1;stroke-width:15;stroke-linejoin:bevel;-inkscape-stroke:none"/><ellipse cx="37.3" cy="49.6" rx="3.8" ry="3.6" style="display:inline;fill:#fff;fill-opacity:1;stroke-width:15;stroke-linejoin:bevel;-inkscape-stroke:none"/><circle cx="56.2" cy="50.3" r="3.8" style="fill:#fff;fill-opacity:1;stroke-width:15;stroke-linejoin:bevel;-inkscape-stroke:none"/><path d="m46.6 73.5.8.1h2.4c.5.3 1 .4 1.6.4h1c.4 0 .9-.2 1.4 0 .4.1.9.4 1.3.7.7.3 1.3.5 2 .4h1l1-.2h.4c.5.2 1 .4 1.6.4h.5a4 4 0 0 0 1.8-.6l.8-.7c.4-.4.7-1 1-1.5l.3-.6-.2.2c-.4.3-.8.4-1.3.2l.7.7c.5.4 1 .8 1.5 1l.4.1c.7.2 1.4.2 2 0l.5-.1a4 4 0 0 0 1.6-1.7l.4-.6v-.2h.1c-.1.2-.2.3-.4.3h.2c.6 0 1.1-.2 1.6-.5l.6-.7c.3-.5.5-1 .5-1.6 0-.7-.1-.7-.3-1.3L72 66l-.9-1c1 1-.2 1.5-1.6 3.2-.2.1-.4-.2-.6-.3h-.2l.9.6a16.4 16.4 0 0 1 2.2 2l.4.8.1.4c-.4-1.9 1.3-1.7 2.8-1.9l.3.3h-.1l-.2-.2-1.1-1.4-1.7-1.8-1.5-1.6-.6-.7c-1.7-1.8-4.3.6-2.6 2.5l.6.6 1.5 1.5 1.6 1.8 1 1.4.7.8c2.6-.1 2.6 0 3-1.7V71l-.5-1.2a7 7 0 0 0-1-1.6L73.3 67l-1.4-1.1-.7-.8c-.2-.1-1-.7-1.1-.6-1.4 1.5-2.8 2.3-1.6 3.3a8.6 8.6 0 0 1 1.6 1.6c0-.2-.1-.6.1-.8l.4-.2.3-.1h-.1l-1 .1c-.5.2-.9.4-1.3.8l-.2.3c-.3.3-.4.7-.6 1l-.2.3h.2c.1 0 0 0 0 0h-.1l-.3-.3-1.4-1.2-.8-.4c-.7-.1-1.3 0-1.9.3l-.4.4-.2.2-.6 1-.5 1c-.2.1-.3 0-.4 0l-1-.2-1-.1c-.5 0-1 0-1.5.2h-.8c-.8-.4-1.5-1-2.3-1.1l-.5-.1h-2c-.3 0-.5.1-.8 0l-.8-.3c-.5-.2-1-.2-1.5-.1H48l-.2-.1c-2.5-.9-3.7 2.7-1.2 3.6z" style="fill:#050505;fill-opacity:1;stroke-width:15;stroke-linejoin:bevel;-inkscape-stroke:none"/><path d="m92.1 80.2.2.3h-.1l-.4-.8c-.5-.7-1-1.4-1.8-2-.8-.5-1.8-1-2.8-1l-.7-.1h-1.2.3l.6.2.2.1-.8-1.1a5.6 5.6 0 0 0-1.9-1.5l-1.6-.5-2-.4-1.3-.6-2.2-1.1-2.4-.8-.7-.6-1.2-1.1-.3-.2c-4-3.3-8.6 2.2-4.7 5.5l.2.1 1.6 1.4c.8.7 1.8 1.3 2.8 1.6l2 .7 1.5.9 2.9 1.1 2 .5h.2l-.6-.5.2.2 1 1.3a6 6 0 0 0 3.1 2l.7.1h1.5c-.4 0-.7-.2-1-.4 0 0 0-.1 0 0l.5 1c3 4.3 9.2.2 6.2-4.3z" style="display:inline;fill:#da7a28;fill-opacity:1;stroke-width:15;stroke-linejoin:bevel;-inkscape-stroke:none"/><path d="m105.7 85.6-.2-.1h-.1l-.5-.3-1.2-.8a7 7 0 0 0-1.8-.8l-1-.2-.9-.1h-.2.2c.1 0 0 0 0 0V83l-1.3-.9-1-.4c-.4 0-.8-.2-1.1-.3l-.7-.6-1.5-1-1-.6-.3-.3c-4.2-3-8.3 2.9-4.2 5.8l.5.4 1.4.7.8.6a10 10 0 0 0 3.8 2l-.3-.2.3.3c.2 0 .3.2.4.3l.3.2 1.6.8.6.2 1.5.2c-.3-.1-.1 0 0 0l.3.2.6.6.2.2c4 3.5 8.8-2.3 4.8-5.7z" style="display:inline;fill:#8b8b8b;fill-opacity:1;stroke-width:15;stroke-linejoin:bevel;-inkscape-stroke:none"/><path d="M102 86.8h.1l.2-.2h.3-.4.1l1 .7h.6l1.1.1a8.4 8.4 0 0 1 .9 0l.1.1a3 3 0 0 1 .4.8 6.6 6.6 0 0 1 .4 1.7l.1 1.2.1.2c.2.6.5 1 .8 1.4l.6.8.2.4c0 .2 0 0 0 0a5.4 5.4 0 0 0 .2 2l.4 1v.2s.1.1.1 0V97c-.1-.4 0-.9.3-1.2l.4-.3c.4-.3.7-.3 1.2-.3l.2.1-.4-.2-.4-.3-.9-.5a4 4 0 0 0-1.2-.3h-.7l-.6-.2c-.2 0-.3-.2-.5-.3l-.5-.4a4 4 0 0 0-1.3-.7l-1.1-.4-.6-.2-.4-.2-.4-.5-.5-.5-.3-.3-.6-.3a2 2 0 0 1-.6-.4c0-.1 0-.2 0 0h.1V89l.3-.7V88v.1c0 .1 0 .2-.2.3a1 1 0 0 1-.5.2c-.2 0-.4-.2-.5-.3l-.2-.3a10.8 10.8 0 0 0 .6 2l.1.4 1.3 1.5a15.3 15.3 0 0 0 3.9 2.4l1.1.4H108.1l.8-.4.3-.3c.5-.5.7-1.1.6-1.7v-.6l-.9-1.6-.8-1.2-1.3-1.4a7 7 0 0 0-1.7-1.1c-.4-.2-1-.3-1.5-.3l-.7.1c-.5.2-1 .6-1.3 1l-.3.8c0 .5 0 .9.2 1.3 1 2.5 4.4 1 3.4-1.3V88.9c-.2.4-.5.7-.8.8h-.4c.3 0 .5.2.7.4l.8.8a18.7 18.7 0 0 1 1 1.7v-.3c0-.3.1-.6.4-.8l.2-.2.5-.1h-.2a7.3 7.3 0 0 1-1.4-.6 16.5 16.5 0 0 1-2-1.3c0-.2-.3-.3-.4-.5a2 2 0 0 1-.2-.6v-.8c-.2-.5-.3-1-.6-1.3l-.5-.5a3 3 0 0 0-1-.5 3 3 0 0 0-1.8 0l-.5.2-.4.3c-.4.4-.7 1-1 1.5l-.3 1.4v1.7l.2.8c.1.4.4.8.8 1.1l1.3 1h.1s0 .1 0 0l.2.2c.3.4.6.8 1 1a5.8 5.8 0 0 0 2.3 1.2l.7.2s.2.1.1 0l.2.2 1 .7a6.3 6.3 0 0 0 2.3 1h1-.1l.4.3.7.4.8.4.3.1c.4.2.8.2 1.2 0 .2 0 .3 0 .5-.2l.4-.3c.4-.4.6-1 .5-1.6v-.3l-.4-.9-.1-.4-.2-.5v-.5c0-.5 0-1-.2-1.4l-.6-1.1a57 57 0 0 0-.6-.9l-.3-.3-.2-.7c0-.5 0-1-.2-1.4a13.4 13.4 0 0 0-.8-2.4 4.6 4.6 0 0 0-2-1.9h-.3c-.4-.2-.7-.2-1.1-.2h-1.5l.5.2a4 4 0 0 0-1-.6c-.4-.3-1-.5-1.5-.5h-.3l-1 .3c-.3 0-.7.2-1 .4l-.2.1-.2.1c-2 1.6.2 4.6 2.3 3z" style="display:inline;fill:#3b3d3e;fill-opacity:1;stroke-width:15;stroke-linejoin:bevel;-inkscape-stroke:none"/><circle cx="21.2" cy="65" r=".2" style="display:inline;fill:#3b3d3e;stroke:#000"/></svg>