<svg xmlns="http://www.w3.org/2000/svg" xml:space="preserve" width="120" height="120"><path d="m10.4 76.4-3.2 2.8 2 7.7 14.2 7.2L61.2 99l40.6-3.5 11.8-10.7L110 72z" style="fill:#fefdfe;fill-opacity:1;stroke-width:15;stroke-linejoin:bevel;-inkscape-stroke:none"/><path d="m13.3 78.8.3.3.8.7c.1.1.3.3.3.5v.7l-.4 1.1c-.3.7-.6 1.3-.6 2v.5c.1.7.4 1.4.9 1.9.5.6 1.2 1.1 2 1.4l1.3.6c.6.3 1.2.5 1.9.5.8 0 1.6 0 2.3-.5.5-.3 1.1-.7 1.5-1.3.3-.5.6-1 .7-1.6l.2-1.1.4-.8.5-.7.6-.6.8-.5 1-.2h1.1l1.4.5 1.8.7 2.3.5c.4 0 .9.2 1.3.4l1.4.7.5.3.3.5.2.6c0 .4-.2.6-.3 1l-.4 1.6v.5c.1.6.4 1.2.8 1.7l.3.3c.5.4 1 .6 1.7.7h.4c.6.3 1 .7 1.6.8a6 6 0 0 0 1.6.1h.4l.8.3 2 .4c.7 0 1.4-.1 2-.5 1-.5 1.5-1.1 1.7-2.2l-.1-1.4-.2.3.4-.3a3 3 0 0 0 1.1-2c0-.6 0-1.2-.4-1.8 0-.1 0-.1 0 0V85c-.1.1-.3.5-.4.4l1.2-.8a45.3 45.3 0 0 1 2-1.1c.4-.2.8-.2 1.2-.2l1.5.3c.8.3 1.6.6 2.4.6h1l1.4-.3 1.8-.4h1.3c.6.3 1.1.8 1.8 1a5 5 0 0 0 2.3.3h1l.1.6c.1.6.2 1.3.5 1.8l.4 1.1c0 .1 0 0 0 0v.3c-.3.5-.7 1-.8 1.6v.7c0 .6.4 1.3.8 1.7l.7.4 1 .2c.4.1.8.4 1.3.4.8.1 1.6 0 2.3-.2l1.1-.5.8-.1h.3l.8.2h.6c.5 0 1.2 0 1.7-.2.8-.4 1.5-.9 1.9-1.6.4-.8.6-1.6.3-2.5-.2-.4-.4-.9-.7-1.2 0-.1 0 .2 0 0-.1-.1.2-.4.3-.6.5-.6.8-1.4.7-2.2 0-.7-.1-1-.6-1.5v-.1h-.1l.1.2.1.5v.6c0 .2-.2.1-.2.1h.1c.2-.3.5-.5.8-.6l1.6-.7 1.8-.7a4.8 4.8 0 0 1 2.8-.3l1.6.4c.7.1 1.4.3 2.2.3l1.6-.3h.8l.7.2.3.2c.3.4.5.8 1 1.1v.1h.2v.2c0 .3-.5.7-.6 1-.4.6-.7 1.3-.5 2 0 .3.2.6.3.8l.6.6c.5.4 1.1.4 1.7.5.8 0 1.4-.2 2-.6l1.1-.6h.1s-.2 0 0 0c.8 0 1.5-.1 2.2-.6.6-.4 1-1 1.4-1.6l.4-1.6v-1.6a4.5 4.5 0 0 0-.8-1.7c0-.1-.1-.3-.1-.1v-.5l.3-.6h-.1.2c.7-.2 1.4-.3 2-.7.5-.4 1-1 1.3-1.5.4-.7.6-1.3.7-2a8 8 0 0 0-.1-2.1l-.1-1.5v-1.9a153.9 153.9 0 0 1 .5-7.9l-.2-2.5-.2-2.5.1-2.4.2-2.7v-1.6l1-1.7c.5-.7 1-1.4 1.1-2.2l.6-1.2c.4-.6 1.2-1 1.8-1.4 1-.7 2-1.4 2.7-2.5l.2-.6c.3-1 .2-1.9-.1-2.8-.3-.9-.8-1.7-1.3-2.4l-1.7-2.3-1.4-2-1-2-1.3-2a4 4 0 0 0-2.4-1.3c-.8-.1-1.6 0-2.5.2l-1.9 1-.5.1h-.6a6 6 0 0 0-3.2.6L99 29.4l-1.6.8c-.2.1-.5.2-.8.1-.2 0-.3-.1-.4-.3l-1.3-1-.5-.3-1.6-.7c-.6-.4-.8-1.1-1.3-1.6l-.4-.4c-.5-.5-1.2-.9-1.9-1.2-.4-.2-1-.5-1.3-.9-.3-.2-.6-.6-.8-1-.1-.3-.2-.3 0-.7l1.2-2.4.1-.7c.2-.7 0-1.5-.2-2.2v-2c-.1-1-.2-1.9-.5-2.8l-.3-.5c-.5-1-1.4-1.6-2.4-2-1-.5-2.1-.8-3.3-1-.8 0-1.5-.1-2.3-.3-.5-.1-1-.3-1.4-.6-.6-.5-1.2-1-1.9-1.3-1-.4-2-.7-3-.4-.2 0-.4 0-.5.2-.6.2-1.1.6-1.6 1l-1 1c-.7.5-1.4 1-1.8 1.8-.4.7-.7 1.6-.7 2.5V16.4l-1.8.2-1.8-.2c-1 0-1.8 0-2.7.2l-2.3.2a8 8 0 0 1-3.3-.8l-.3-.2-.1-.1v-.6c0-.4-.1-.9-.3-1.3l-.4-.8c-.2-.3-.6-.6-1-.8-.3-.4-.5-.7-.6-1.2l-.3-2c-.3-1-.7-1.8-1.8-2.5l-.6-.2c-.7-.2-1.5-.1-2.3 0a23.5 23.5 0 0 0-3.2.9h-1.3c-.9 0-1.8.1-2.6.6-.8.4-1.5 1-2.2 1.6L37.2 11H37h.7l.5.3h-.1c-.2-.3-.5-.5-.8-.6l-.4-.2c-1-.3-1.8 0-2.6.7a7 7 0 0 0-1.5 2.2l-.2.6c-.2.9 0 1.7.5 2.5.2.4.5.9.6 1.4l.4 2.2c.1.5.3 1 .3 1.6 0 .3-.1.6-.3.8L32.6 24c-.5.6-1 1.3-1.6 1.8-.6.6-1.2 1-2 1.5a23.2 23.2 0 0 1-4.4 1.8h-1.1l-1.7-.1c-.3 0-.7-.1-1-.3-.5-.2-.9-.4-1.2-.7-.5-.5-1-1-1.5-1.3a4 4 0 0 0-2.5-1l-.6.1c-.7.2-1.3.6-1.8 1L12 28l-1.2.8c-.6.4-1.2.8-1.6 1.3-.5.7-1 1.3-1.3 2a12 12 0 0 0-.8 2.5L6.7 37l-.4 1.2s-.2.2 0 .1c0 .1-.6 0-.5.1-1.2.1-2 .5-2.3 1.8v.6c0 .8.2 1.6.5 2.3a21.1 21.1 0 0 0 4.1 6l.9 1 .3.6.3 1.5V54l.2 2c0 .7 0 1.4-.2 2 0 .8-.2 1.6-.1 2.4 0 .8.1 1.5.4 2.2l.4 1.5.1 1.4-.1 1.6-.2 2.2.4 1.8v1.4c0 .6-.2 1.1-.3 1.7a11.5 11.5 0 0 0-.2 2.8z" style="display:inline;fill:#468cbd;fill-opacity:1;stroke-width:15;stroke-linejoin:bevel;-inkscape-stroke:none"/><path d="m99.6 92.9-8.4-6c4.6 25.8 18 6.8 18.2-.4v-1.1c0-.3-.3 1.6-.5 1.8l-.1.1h.2-.8c-.5.1-.9.2-1.3.5l-1.5 1c-.3.2-.5.4-.9.5h-.3l-1 .3c-.7.2-1.3.4-1.9.8l-1 .4-1.4.6h-.1l.4.3-.6-.7-.6-.8-.2-1c0-.6 0-1.3-.2-2a6 6 0 0 0-.8-2l-.4-.5a3 3 0 0 0-2.6-.6l-.6.1.2.1-.5-.2a8.8 8.8 0 0 0-3.2-1.1h-.4c-.7 0-1.3.3-1.8.8l-.3.3c-.4.6-.6 1.3-.4 2l.1.5.3.4c-.2-.4-.2-.8 0-1.3l.2-.4.2-.1s.1-.1 0 0c0 0-.2 0-.2.2-.5.4-1 .8-1.3 1.3-.5.7-.9 1.4-1 2.2v1.5l-.4 1.5a7 7 0 0 1-.6 1.2c-.1.3-.3.6-.6.7l-.7.5s.1 0 0 0h-.4c-.8-.2-1.5-.1-2.3.1l-1.4.4h-1l-1.6-.4a5 5 0 0 0-2.1 0l-1.4.2h-1.4l-.4-.2-.3-.1v.1l-.1-.4c-.2-.6-.3-1.3-.6-1.9l-.5-1-.3-1c-.1-.6-.3-1.2-.7-1.7L68 88c-.5-.6-1.2-.9-2-1l-.4.1-1 .3h.2c.3 0 .4.1.7.3h-.1c-.7-.7-1.3-1-2.2-1.2h-2.1c-.6.2-1.3.2-1.9.3h-.8c-.4-.1-.7-.3-1.1-.3-.7-.2-1.4-.2-2 0l-.5.2c-.5.3-1 .7-1.3 1.3-.4.6-.6 1.3-.7 2 0 .7 0 1.3.3 2l.5 1.2.1.6v.2c0 .2 0 .3-.2.3-.4.3-.8.5-1.3.6-.3.2-.6.3-1 .2l-1.8-.3c-.8 0-1.6-.2-2.4-.1H44.7v.1l-.2-.2-.5-.5c-.6-.4-1.2-.8-2-1-.6 0-1.3 0-2 .2l-.6.2h-.1c.5 0 .8.2 1.1.5l.2.3s.1.2 0 .1v-.1c-.3-.8-.8-1.4-1.6-1.8l-.5-.2a4 4 0 0 0-1.5 0l-.5.1.3.4c-.2-.2-.1-.4-.2-.6 0-.5.2-1 .3-1.4.1-.6.3-1.3.2-2 0-.7-.2-1.4-.7-2l-.3-.3c-.4-.4-.9-.7-1.4-.9l-.5-.2-.3-.3-1.1-.8-2-.4h-1.5c-.5 0-1 0-1.5.2a4.2 4.2 0 0 0-2.8 2.6v.3c-.2.6-.2 1.1 0 1.6 0 .6.1 1.1.4 1.6l.3.8s0 .3.1.1h.1-.1c-.2.2-.3.3-.6.3l-1.2-.1c-.3 0-.6-.2-.9-.4-.7-.4-1.4-.7-2.2-.8h-2l-1.2-.1-.6-.5-1.5-1-1.4-.5-.8-.4-.3-.2V86c0-.6 0-1-.2-1.6l-.2-1.3-.6-1.4c-.3-.6-.6-1-1.1-1.5l-1-.6a6 6 0 0 0-1-.6c-.5-.2-1-.3-1.6-.3-.7.2-1.2.5-1.7 1a4 4 0 0 0-.8 1.7 5.9 5.9 0 0 0 .3 3.4l.5 1v.3h.1v1.6c0 .6.2 1.2.6 1.8l.5 1 .4 1a6 6 0 0 0 1 1.7l.9 1 .5 1c.2.6.6 1.1 1 1.6L12 98l.7.6v.1l.3.6c0 .2 0 .3.2.4.3.7.8 1.1 1.4 1.5.5.3 1 .5 1.7.6l.6.5 1.1 1c.5.4 1 .7 1.5.8.7.2 1.2.3 1.9.3h1.3l.8.2.6.6c.3.5.5 1 .9 1.4.4.6 1 1.1 1.7 1.4l.4.1c.6.2 1.2.2 1.7.2s1 0 1.6-.2h.7c.2-.1.4 0 .5.1l1 .8c.6.4 1.1.8 1.7 1a7 7 0 0 0 2.1.7c.4 0 .8 0 1.1.2.3 0 .5.2.7.3l1 1c.7.4 1.4.8 2.2 1a8 8 0 0 0 2 .1l2-.1 1.4.1 1.4.5c.7.3 1.2.6 1.9.7a7.7 7.7 0 0 0 4.4 0l1.5-.5c.3-.1.3 0 0-.1l-.2-.1.2.1 1 .4h.4c.5 0 1-.1 1.6-.4l.8-.4c.1-.1.1 0 0 0l-.6-.1-.3-.2.3.2.6.4c.7.3 1.4.5 2.2.5l1.8-.3 1.6-.4 1.7-.5 1.4-.2 1 .1a7.2 7.2 0 0 0 4.1-.2l1.8-.4 1.8-.1 2.4-.4 2-.6 1.5-.2h1.5c.7 0 1.4 0 2-.2l1.8-.7 1.3-.6 1-.4h.9a3 3 0 0 0 1.7-.1l.6-.4.3-.4c.4-.5.5-1 .5-1.7v-.2.2l-.3.4v-.1l1.3-.8.6-.3a6 6 0 0 0 2.2-.5l.5-.2 1.4-1.1a50.7 50.7 0 0 0 3-2.5c.3-.2.6-.5 1-.6.5-.2 1-.2 1.5-.5l.4-.2c.6-.4 1-.9 1.5-1.4a7 7 0 0 1 1.1-.9l1.4-1c.5-.5 1-1 1.2-1.7l.4-1.4.4-.9.5-.5 1-1a5.3 5.3 0 0 0 1.5-3.5v-2.1l.4-1c.2-.5.4-1 .4-1.5v-1.8a4 4 0 0 0-.7-1.3l-.7-.8a3 3 0 0 0-1.7-.6 3 3 0 0 0-1.8.5c-.4.3-.8.6-1 1l-.3.5-.1.1-.5.7a4 4 0 0 0-.6 1.4v.9l.3 1 .3 2z" style="display:inline;fill:#468cbd;fill-opacity:1;stroke-width:15;stroke-linejoin:bevel;-inkscape-stroke:none"/><path d="M60.6 56c-.2 0 0 0 0 0l-.5.3-.6.2-.6.5c-.6.5-1 1.1-1.3 1.8-.3.7-.3 1-.3 1.7s.2 1.3.5 2l.3.6v-.4l-.2.5c-.3.6-.4 1.2-.4 1.8v1c0 1 .2 1.8.5 2.6-.1-.1.1.5 0 .4v-.2c0 .1 0 0 0 0l-.2.4-.4 1.5-.1.5v1.6c.2 5.1 7.5 4.7 7.2-.4V71.8l.1-.2c.3-.7.5-1.5.6-2.3v-.5c0-.8-.1-1.5-.4-2.3l-.2-.7c0-.1 0 0 0 0v-.3c.3-.8.6-1.6.7-2.5v-.6c-.1-.8-.3-1.6-.6-2.3l-.1-.3-.1-.2.1 1-.2 1a3 3 0 0 1-1 1.2l-.3.3h-.3v.1h.1c5.1-1.7 2.7-8.8-2.3-7.1zM34.6 51l.1.1h-2.9l-2 .7c-.2 0-.3.2-.5.3-.7.4-1.3 1-2 1.6a10.9 10.9 0 0 0-2.2 4.3l-.1 1v-.4c.3-.5 0 0-.2 0l-1.4 1.7c-.5.8-.9 1.7-1 2.7l-.1.6.1 2.4a6.3 6.3 0 0 0 2.3 3.7l.6.5.2.3 1 1.5c.6 1 1.5 1.7 2.5 2.3 1 .6 2 1 3.2 1l.8.1c1 0 1.8-.3 2.7-.7L37 74h.1l.7-.1 1.8-.1c.9-.1 1.7-.3 2.5-.6.2 0 .3-.2.5-.3.8-.4 1.5-.9 2.1-1.5l.4-.4c.7-.9 1.3-1.9 1.5-3v-.6c.2-1.1 0-2.2-.3-3.2l-.1-.5v-.1l.2-2c.1-1 0-2-.2-3l-1-2.3c-.4-1-1.2-1.8-2-2.5-.7-.5-1.5-.9-2.3-1.2.2 0 .3 0 .4.2h.1l-.4-.4c-.8-1-1.7-1.7-2.9-2l-.9-.3c-.9-.1-1.8 0-2.7.2-14.7 29.3 11.2 3.8.1.8zM89.3 49.8H88a10 10 0 0 0-6 2l-2.5 2.3c-.5.6-.8 1.2-1.1 1.9l-.2.5c-.1 0 0 .1-.1 0l-.8.8c-.7.5-1.3 1-1.8 1.7-.6.7-1.2 1.5-1.6 2.3l-.2.6c-.3 1-.4 2.2-.3 3.3l.1.6c.3 1 .7 2.1 1.3 3l.7.7c.7.7.6.6 1.6 1 .4.3.8.4 1.2.5l.6.5a37 37 0 0 0 1.8 1.8c.7.6 1.5 1.2 2.4 1.6l1.4.5a9 9 0 0 0 3.7.2l.8-.2a10 10 0 0 0 3.4-2l1.3-.9c.9-.5 1.7-1.2 2.4-2l.4-.5c.7-1 1-2.2 1.3-3.4.2-1 .2-2.2.1-3.3l-.1-1v-.4a318 318 0 0 0 .4-4.3V57c-.3-1-.7-2-1.4-2.8l-1-1a7.4 7.4 0 0 0-3.9-1.4l-1-.1-1.6-1.8z" style="fill:#fefdfe;fill-opacity:1;stroke-width:15;stroke-linejoin:bevel;-inkscape-stroke:none"/><path d="M31.6 55.8c-.6.2-.9.7-1.3 1.2s-.8 1-1 1.7l-.3.5-.4 2v1.4l-.1 1.6v.6c0 .9.2 1.7.5 2.5l.4.7.6.9c.6.7 1.5 1.2 2.4 1.5l.6.1 1 .3h.6l.9.4c.8.4 1.8.6 2.7.5h.7c.8-.3 1.6-.6 2.2-1l1-1c.5-.4.9-1 1.2-1.5l.5-1c.4-.7.6-1.4.7-2.2v-.5a8.4 8.4 0 0 0-.7-4.3 10 10 0 0 0-.7-1l-.4-.7c0-.2-.2-.4-.3-.5-.6-1-1.5-1.6-2.5-2l-1.3-.3c-.7-.1-1.5 0-2.1.1l-.5.1c-1.5.2-3-.7-4.4-.1zM85 55c-.5 0-1.7 0-2 .2-.4.3-1.2.2-1.5.5l-1.3 1.4-.2.4-1 2-.1.5a10.5 10.5 0 0 0 0 4.4l.2.7.2.4s-.1-.3 0-.2l.3 1.5c.2.6.4 1.2.8 1.7l.4.5c.6.7 1.3 1.3 2.2 1.7l.5.2a8 8 0 0 0 2.1.3h.5-.6c.6.2 1.2.4 1.9.4h.6c1 0 1.9-.3 2.7-.7l.5-.4c.6-.4 1.1-1 1.5-1.6l.3-.4 1-2V66c.3-.9.2-1.8 0-2.8v-2.3l-.3-1a7 7 0 0 0-1.8-2.4l-.5-.4c-.8-.6-1.6-1-2.6-1.1H87.1l-.8-.4z" style="fill:#434043;fill-opacity:1;stroke-width:15;stroke-linejoin:bevel;-inkscape-stroke:none"/></svg>