<?xml version="1.0" encoding="UTF-8"?> <svg version="1.1" viewBox="0 0 130 130" xmlns="http://www.w3.org/2000/svg" xmlns:cc="http://creativecommons.org/ns#" xmlns:dc="http://purl.org/dc/elements/1.1/" xmlns:rdf="http://www.w3.org/1999/02/22-rdf-syntax-ns#" xmlns:xlink="http://www.w3.org/1999/xlink"> <title>SFML Logo</title> <defs> <linearGradient id="a"> <stop stop-color="#a9ee52" offset="0"/> <stop stop-color="#53880e" offset="1"/> </linearGradient> <linearGradient id="c" x1="85.312" x2="85.312" y1="4.4186" y2="206.79" gradientTransform="scale(1.0142 .98602)" gradientUnits="userSpaceOnUse" xlink:href="#a"/> <linearGradient id="b" x1="66.224" x2="66.224" y1="8.1076" y2="177.98" gradientTransform="scale(1.3077 .76471)" gradientUnits="userSpaceOnUse" xlink:href="#a"/> <linearGradient id="e" x1="87.802" x2="87.802" y1="9.253" y2="136.23" gradientUnits="userSpaceOnUse"> <stop stop-color="#a9ee52" offset="0"/> <stop stop-color="#53880e" offset="1"/> </linearGradient> <linearGradient id="d" x1="85.615" x2="85.615" y1="6.2833" y2="198.13" gradientUnits="userSpaceOnUse"> <stop stop-color="#a9ee52" offset="0"/> <stop stop-color="#53880e" offset="1"/> </linearGradient> </defs> <metadata> <rdf:RDF> <cc:Work rdf:about=""> <dc:format>image/svg+xml</dc:format> <dc:type rdf:resource="http://purl.org/dc/dcmitype/StillImage"/> <dc:title>SFML Logo</dc:title> <dc:date>1 May 2013</dc:date> <dc:creator> <cc:Agent> <dc:title>Michael Bradshaw</dc:title> </cc:Agent> </dc:creator> <cc:license rdf:resource="http://creativecommons.org/licenses/publicdomain/"/> </cc:Work> <cc:License rdf:about="http://creativecommons.org/licenses/publicdomain/"> <cc:permits rdf:resource="http://creativecommons.org/ns#Reproduction"/> <cc:permits rdf:resource="http://creativecommons.org/ns#Distribution"/> <cc:permits rdf:resource="http://creativecommons.org/ns#DerivativeWorks"/> </cc:License> </rdf:RDF> </metadata> <g> <title>Layer 1</title> <path d="m84.546 17.273c11.895 9.2744 25.366 16.785 35.617 27.995 4.3734 5.7551 4.2754 13.717 1.4188 20.105-4.4603 14.551-8.968 29.123-14.463 43.317-3.0506 6.7404-9.4455 12.781-17.28 12.445-13.127 0.66997-26.28-3e-3 -39.417 0.25757-7.6986-0.25946-16.475-0.10955-22.703-5.3273-6.4515-6.4196-7.3233-16.071-10.615-24.148-3.4645-11.045-7.675-21.949-9.8907-33.328-1.0462-7.0727 1.5164-14.822 7.7687-18.738 10.252-8.0835 21.135-15.328 31.571-23.17 6.4179-4.2419 13.586-9.5732 21.713-8.457 6.2865 1.1093 11.236 5.4717 16.28 9.0497z" fill="url(#c)"/> <path d="m6.0504 68.478c0.52944 10.186 7.0354 18.438 11.713 27.042 3.1415 5.7312 5.6643 11.838 6.9362 18.258 3.1467 8.4647 14.2 12.29 22.053 7.9946 5.556-2.6086 11.498-7.35 17.96-4.8793 6.4827 2.469 11.721 8.8803 19.223 8.0595 5.6662-0.38263 11.933-2.2069 15.115-7.2667 3.0611-3.9211 6.9919-7.0061 11.16-9.6512 6.4494-5.067 6.17-14.561 2.7904-21.306-3.3186-7.1289-11.902-10.161-19.312-9.54-3.9538 1.0668-8.095 2.8161-12.217 1.2328-6.2705-1.6179-10.873-7.089-17.515-7.6162-9.1865-1.3547-18.739-0.79788-27.658-3.6339-5.4817-2.7956-9.9873-8.02-16.535-8.2434-4.4235-0.66304-10.577 2.7923-9.1319 7.9021 1.8551 6.5767 10.19 1.7892 13.82 6.0067 7.3483 7.2366 18.387 7.3879 28.035 8.2289 5.8179 0.63422 12.453 0.26343 17.093 4.4673 7.5 4.5068 17.13 6.6419 25.403 2.9724 5.7969-1.5485 12.295 6.5243 7.376 11.1-4.8498 3.5765-9.6737 7.095-13.04 12.129-4.8381 3.9826-10.684 0.72174-14.715-2.6364-5.8255-3.7837-13.178-5.5171-19.916-3.3078-5.1445 1.2398-9.579 4.2574-14.374 6.362-6.271 0.43936-5.7461-7.5333-7.6283-11.592-3.1875-8.0392-7.7422-15.413-12.14-22.816-2.0749-3.7462-3.2133-7.953-3.5257-12.192-2.1789-6.0876-12.457-3.735-10.969 2.9254z" fill="url(#e)" stroke-linejoin="bevel" stroke-width="1.0016"/> <path d="m7.188 57.469c2.0298 13.411 7.6029 25.914 11.344 38.882 2.1149 6.1082 3.6558 12.669 7.478 17.983 5.5413 6.5308 14.8 6.7753 22.68 7.0101 12.617 0.11621 25.238 0.064 37.854 0.0292 5.8223-0.15993 12.359-0.98607 16.198-5.9222 6.126-7.4431 8.0594-17.19 11.209-26.072 0.26173-3.109 5.1902-9.1826-0.6431-8.3223-36.03-4.0493-72.256-10.209-106.12-23.587z" fill="url(#b)"/> <path d="m24.47 47.583c-1.0482-6.5878 7.8954-6.0224 11.487-9.3768 5.8631-3.6485 9.4697-10.443 16.442-12.39 4.5045-1.8294 9.6649-1.2725 13.872-3.9578 1.7818-0.69497 7.2828-4.1141 4.9725-2.5998 4.4093 3.9708 6.9242 10.353 12.893 12.639 3.6662 2.555 9.8426 1.0164 11.042 6.5058 2.3235 5.0768 7.2747 8.8717 12.961 9.0225 3.0184 0.83539 12.664-0.2632 8.404 4.0105-2.3186 3.2658-5.5265 6.5164-4.7369 10.896-0.37181 1.7246 1.2152 5.0785 0.69501 2.697-1.4772 1.4378-3.4039 6.6117-2.4632 6.8886-0.70604-3.5272 7.3331-4.4227 1.1395-5.5365-6.2726-2.3507-10.794 7.9388-4.2124 10.466 3.74 1.8213 9.796 3.7922 12.691-0.36566 1.2931-0.75169 1.7953-5.7737 1.3674-3.7179 4.0417-3.2967 1.8383-8.5274 2.832-12.264 2.5826-5.5897 2.5838-12.455 0.20052-18.115-1.8329-4.1239-6.4622-6.0462-10.768-5.7579-5.4956 0.8008-8.3093-2.8399-10.278-7.3611-2.8785-4.9843-8.7557-5.9065-13.725-7.4107-5.2873-2.8551-6.9013-9.46-11.982-12.64-4.8857-3.3648-10.774-0.68774-15.225 2.0676-4.2556 2.5191-9.4917 1.9143-13.944 3.9931-6.3717 2.1487-11.388 6.759-15.926 11.54-5.0748 4.7174-13.511 4.8158-17.05 11.402-2.457 4.4169-4.2353 12.861 1.8029 15.102 3.8017 1.387 7.8073-1.7231 7.5094-5.7355z" fill="url(#d)" stroke-linejoin="bevel" stroke-width="1.0016"/> <path d="m51.852 22.925c0.0031 3.4366 0.03373 6.8826 0.6447 10.278 0.58691 3.4412 1.1728 6.8963 2.1292 10.253 0.50011 2.6043 1.2474 5.147 2.1388 7.6419 1.2182 3.4719 1.7768 7.151 2.9059 10.66 1.1601 2.3304 3.5829 4.2752 6.3057 3.8968 3.1624-0.136 5.4852-3.2006 5.5634-6.2248 0.24015-3.3041 1.1272-6.5252 2.2651-9.614 1.1308-4.8845 2.79-9.6406 3.8623-14.536 0.73739-4.0097 1.6024-8.1818 0.50573-12.216-1.1006-4.3106-4.7169-8.2106-9.2749-8.7097-3.2648-0.52857-6.7341-0.49743-9.8484 0.70912-2.319 0.98013-2.8375-0.51366-3.7547 1.7792l-1.2756 1.2235c-1.444 1.1509-2.2409 3.025-2.167 4.8592z" fill="#fff" stroke-linejoin="bevel" stroke-width="1.0016"/> <path d="m36.518 31.463c-8.9022 5.8763-17.309 14.092-19.658 24.884-1.551 7.1252-0.93636 14.61 0.48639 21.702 1.6874 7.0256 5.3272 13.372 8.5421 19.777 4.667 6.7923 11.928 11.704 19.758 14.113 9.0465 1.8881 18.128 3.9798 27.424 4.0164 6.417 0.25045 12.606-2.0341 18.503-4.3018 8.0285-3.2828 12.553-11.394 14.965-19.302 3.635-11.281 7.1697-22.887 6.9839-34.865-0.27182-8.6381-3.6474-17.541-10.682-22.91-4.2229-3.5406-9.9001-7.3632-15.656-5.673-7.036 2.0965-8.6037 13.109-2.0695 16.75 4.1088 2.0225 8.9145 4.7276 9.2499 9.8554 0.99658 8.0742-1.3979 16.069-3.505 23.786-1.9276 4.8778-2.5057 10.498-6.0046 14.603-4.9021 2.339-10.416 3.9195-15.881 2.8997-6.4262-0.39815-12.672-2.085-18.968-3.2541-4.1762-1.7693-8.2567-4.5694-9.7388-9.0481-2.3916-4.7535-4.8711-9.6217-5.23-15.026-0.62897-5.4116-0.31266-11.519 3.9107-15.509 2.9537-3.6936 7.3172-5.7955 10.64-9.0486 4.3385-4.7137 2.1425-13.168-4.0105-15.041-3.0347-1.0229-6.558-0.41278-9.0597 1.5914z" fill="#fff" stroke-linejoin="bevel" stroke-width="1.0016"/> </g> </svg>