<?xml version="1.0" encoding="UTF-8" standalone="no"?>
<svg
   width="130"
   height="130"
   id="svg2"
   version="1.1"
   inkscape:version="1.3.2 (091e20e, 2023-11-25, custom)"
   sodipodi:docname="sfml.new.svg"
   xmlns:inkscape="http://www.inkscape.org/namespaces/inkscape"
   xmlns:sodipodi="http://sodipodi.sourceforge.net/DTD/sodipodi-0.dtd"
   xmlns:xlink="http://www.w3.org/1999/xlink"
   xmlns="http://www.w3.org/2000/svg"
   xmlns:svg="http://www.w3.org/2000/svg"
   xmlns:rdf="http://www.w3.org/1999/02/22-rdf-syntax-ns#"
   xmlns:cc="http://creativecommons.org/ns#"
   xmlns:dc="http://purl.org/dc/elements/1.1/">
  <sodipodi:namedview
     pagecolor="#ffffff"
     bordercolor="#666666"
     borderopacity="1"
     objecttolerance="10"
     gridtolerance="10"
     guidetolerance="10"
     inkscape:pageopacity="0"
     inkscape:pageshadow="2"
     inkscape:window-width="1920"
     inkscape:window-height="991"
     id="namedview28"
     showgrid="false"
     inkscape:zoom="5.134683"
     inkscape:cx="23.759987"
     inkscape:cy="55.602264"
     inkscape:window-x="-9"
     inkscape:window-y="-9"
     inkscape:window-maximized="1"
     inkscape:current-layer="g19"
     inkscape:showpageshadow="0"
     inkscape:pagecheckerboard="0"
     inkscape:deskcolor="#505050" />
  <title
     id="title4">SFML Logo</title>
  <defs
     id="defs6">
    <linearGradient
       id="linearGradient3"
       inkscape:collect="always">
      <stop
         style="stop-color:#a9ee52;stop-opacity:1;"
         offset="0"
         id="stop3" />
      <stop
         style="stop-color:#53880e;stop-opacity:1;"
         offset="1"
         id="stop4" />
    </linearGradient>
    <linearGradient
       id="linearGradient1"
       inkscape:collect="always">
      <stop
         style="stop-color:#a9ee52;stop-opacity:1;"
         offset="0"
         id="stop1" />
      <stop
         style="stop-color:#53880e;stop-opacity:1;"
         offset="1"
         id="stop2" />
    </linearGradient>
    <linearGradient
       id="linearGradient4987">
      <stop
         stop-color="#a9ee52"
         offset="0"
         id="stop4989" />
      <stop
         stop-color="#53880e"
         offset="1"
         id="stop4991" />
    </linearGradient>
    <linearGradient
       xlink:href="#linearGradient4987"
       id="linearGradient4885"
       y2="206.79123"
       x2="85.311884"
       y1="4.4186206"
       x1="85.311884"
       gradientTransform="scale(1.0141828,0.98601554)"
       gradientUnits="userSpaceOnUse" />
    <linearGradient
       xlink:href="#linearGradient4987"
       id="linearGradient4923"
       y2="177.97501"
       x2="66.224087"
       y1="8.1075806"
       x1="66.224087"
       gradientTransform="scale(1.3076795,0.76471339)"
       gradientUnits="userSpaceOnUse" />
    <linearGradient
       inkscape:collect="always"
       xlink:href="#linearGradient1"
       id="linearGradient2"
       x1="87.802124"
       y1="9.2530451"
       x2="87.802124"
       y2="136.23264"
       gradientUnits="userSpaceOnUse" />
    <linearGradient
       inkscape:collect="always"
       xlink:href="#linearGradient3"
       id="linearGradient4"
       x1="85.614944"
       y1="6.2833366"
       x2="85.614944"
       y2="198.12888"
       gradientUnits="userSpaceOnUse" />
  </defs>
  <metadata
     id="metadata7">
    <rdf:RDF>
      <cc:Work
         rdf:about="">
        <dc:format>image/svg+xml</dc:format>
        <dc:type
           rdf:resource="http://purl.org/dc/dcmitype/StillImage" />
        <dc:title>SFML Logo</dc:title>
        <dc:date>1 May 2013</dc:date>
        <dc:creator>
          <cc:Agent>
            <dc:title>Michael Bradshaw</dc:title>
          </cc:Agent>
        </dc:creator>
        <cc:license
           rdf:resource="http://creativecommons.org/licenses/publicdomain/" />
      </cc:Work>
      <cc:License
         rdf:about="http://creativecommons.org/licenses/publicdomain/">
        <cc:permits
           rdf:resource="http://creativecommons.org/ns#Reproduction" />
        <cc:permits
           rdf:resource="http://creativecommons.org/ns#Distribution" />
        <cc:permits
           rdf:resource="http://creativecommons.org/ns#DerivativeWorks" />
      </cc:License>
    </rdf:RDF>
  </metadata>
  <g
     id="g19"
     style="display:inline">
    <title
       id="title21">Layer 1</title>
    <path
       fill="url(#linearGradient4885)"
       id="path6382"
       d="m 84.545998,17.273001 c 11.894524,9.274411 25.365582,16.784845 35.617052,27.994894 4.37341,5.755093 4.27537,13.71674 1.41883,20.104956 -4.46032,14.550903 -8.96798,29.123158 -14.46262,43.316699 -3.05058,6.74041 -9.44549,12.78105 -17.279503,12.44463 -13.127395,0.66997 -26.279781,-0.003 -39.417436,0.25757 -7.69865,-0.25946 -16.475363,-0.10955 -22.702623,-5.32732 C 21.268243,109.64488 20.39642,99.993531 17.104979,91.915999 13.640467,80.871175 9.4300142,69.966802 7.2142674,58.588051 6.168025,51.515368 8.730675,43.766328 14.982965,39.850449 25.235403,31.766914 36.117683,24.522493 46.553916,16.680346 52.971778,12.438475 60.139482,7.1071643 68.266444,8.2233042 74.552911,9.3326107 79.502051,13.695018 84.545998,17.273001 Z"
       style="display:inline;fill:url(#linearGradient4885)" />
    <path
       style="fill:url(#linearGradient2);stroke-width:1.00157;stroke-linejoin:bevel"
       id="path1"
       d="m 6.050414,68.478218 c 0.5294443,10.185945 7.03544,18.437756 11.712995,27.0425 3.141496,5.731222 5.66434,11.838122 6.936174,18.258482 3.146698,8.46466 14.200208,12.29019 22.052889,7.99458 5.555956,-2.60855 11.4975,-7.35 17.95974,-4.87934 6.482663,2.46899 11.720806,8.88032 19.22329,8.05946 5.666151,-0.38263 11.932918,-2.20694 15.114881,-7.2667 3.061077,-3.92111 6.991907,-7.00613 11.160387,-9.65124 6.4494,-5.06696 6.16999,-14.561351 2.79043,-21.306256 C 109.68264,79.600786 101.09888,76.568219 93.689387,77.1897 89.735582,78.256454 85.594339,80.005802 81.472451,78.42247 75.201966,76.804552 70.599236,71.333477 63.957468,70.806225 54.770919,69.451555 45.218153,70.00834 36.299549,67.17231 c -5.48173,-2.795558 -9.987295,-8.020033 -16.535447,-8.243416 -4.423541,-0.663045 -10.5770492,2.792342 -9.1319,7.902063 1.855112,6.576677 10.190411,1.78921 13.820046,6.006735 7.348261,7.236554 18.386723,7.387944 28.034617,8.228921 5.81792,0.634216 12.453282,0.263428 17.092616,4.467331 7.50003,4.506755 17.130104,6.641947 25.403321,2.972428 5.796948,-1.548468 12.294848,6.524323 7.376008,11.099582 -4.849805,3.576486 -9.673678,7.094986 -13.040069,12.129316 -4.838068,3.98264 -10.684133,0.72174 -14.715413,-2.63637 -5.82548,-3.78372 -13.178291,-5.51709 -19.915705,-3.30777 -5.144501,1.23976 -9.578966,4.25744 -14.374297,6.36195 -6.271025,0.43936 -5.746087,-7.5333 -7.628264,-11.59167 -3.1875,-8.039226 -7.742212,-15.4131 -12.14003,-22.816323 -2.07488,-3.7462 -3.213257,-7.952987 -3.525721,-12.192303 -2.178869,-6.0876 -12.4571121,-3.73499 -10.968897,2.925434 z" />
    <path
       fill="url(#linearGradient4923)"
       id="path4909"
       d="m 7.188,57.469002 c 2.0298212,13.410703 7.602871,25.914421 11.343818,38.881799 2.114865,6.108199 3.655778,12.669229 7.47796,17.982739 5.54132,6.53078 14.800084,6.77527 22.67985,7.01007 12.616711,0.11621 25.238283,0.064 37.854192,0.0292 5.822256,-0.15993 12.359443,-0.98607 16.19799,-5.92221 6.12605,-7.44309 8.05937,-17.189966 11.20922,-26.072215 0.26173,-3.108994 5.19021,-9.182564 -0.6431,-8.322288 C 77.277477,77.006817 41.052166,70.847522 7.188,57.469002 Z"
       style="display:inline;fill:url(#linearGradient4923)" />
    <path
       style="display:inline;fill:url(#linearGradient4);stroke-width:1.00157;stroke-linejoin:bevel"
       id="path2"
       d="m 24.469519,47.583116 c -1.048197,-6.587838 7.895436,-6.02236 11.486506,-9.376769 5.863091,-3.648458 9.469748,-10.44285 16.442235,-12.390387 4.504463,-1.829358 9.664927,-1.272503 13.871974,-3.957813 1.781816,-0.694972 7.282825,-4.114079 4.972529,-2.599793 4.409339,3.97085 6.924162,10.353148 12.893191,12.638625 3.666155,2.554971 9.84256,1.016377 11.041605,6.50582 2.323508,5.076822 7.274681,8.871679 12.960961,9.022454 3.01843,0.835393 12.66416,-0.263202 8.40403,4.010488 -2.31862,3.265838 -5.52652,6.516382 -4.73694,10.896049 -0.37181,1.724626 1.21517,5.078494 0.69501,2.697005 -1.47718,1.43785 -3.40388,6.611733 -2.46319,6.88856 -0.70604,-3.527164 7.33314,-4.42272 1.13951,-5.536515 -6.27256,-2.350709 -10.7943,7.938752 -4.21239,10.465804 3.73995,1.821341 9.79603,3.792196 12.6907,-0.365658 1.29314,-0.75169 1.79527,-5.773691 1.36736,-3.71788 4.04173,-3.296682 1.8383,-8.527362 2.83203,-12.263833 2.58259,-5.589678 2.58385,-12.455151 0.20052,-18.114887 -1.83288,-4.123926 -6.46225,-6.046211 -10.76777,-5.757929 -5.4956,0.800795 -8.30927,-2.839885 -10.27798,-7.361137 -2.8785,-4.984334 -8.755661,-5.906532 -13.724761,-7.410723 C 83.997344,18.999522 82.383339,12.394565 77.302699,9.2140971 72.416973,5.8492777 66.528351,8.5263545 62.077752,11.281665 c -4.25562,2.519144 -9.491736,1.914254 -13.944482,3.993103 -6.371653,2.148704 -11.387994,6.75904 -15.926221,11.539703 -5.07479,4.71738 -13.511449,4.815766 -17.049838,11.401853 -2.456969,4.416854 -4.235266,12.860894 1.802906,15.102334 3.801671,1.387047 7.807333,-1.723061 7.509402,-5.735542 z" />
    <g
       fill="#ffffff"
       id="g3366" />
    <path
       style="display:inline;fill:#ffffff;stroke-width:1.00157;stroke-linejoin:bevel"
       id="path3"
       d="m 51.851511,22.925359 c 0.0031,3.436614 0.03373,6.88261 0.644696,10.27838 0.58691,3.441229 1.172763,6.896281 2.129179,10.253013 0.500107,2.604253 1.247437,5.146961 2.13875,7.641924 1.218197,3.471871 1.776758,7.151012 2.905881,10.659508 1.160113,2.330358 3.582855,4.275151 6.305666,3.89682 3.162352,-0.135999 5.485226,-3.200615 5.563365,-6.22481 0.240148,-3.304054 1.127246,-6.52515 2.265079,-9.614022 1.130767,-4.884452 2.789993,-9.640622 3.8623,-14.535904 0.73739,-4.009742 1.602372,-8.181844 0.50573,-12.216311 -1.100573,-4.310645 -4.716943,-8.21063 -9.274884,-8.709664 -3.264792,-0.528574 -6.734112,-0.497431 -9.848413,0.709121 -2.319046,0.980133 -2.837457,-0.513663 -3.754694,1.779216 l -1.275625,1.223482 c -1.443968,1.150851 -2.240907,3.025007 -2.16703,4.859247 z"
       sodipodi:nodetypes="ccccccccccccccc" />
    <path
       style="fill:#ffffff;stroke-width:1.00157;stroke-linejoin:bevel"
       id="path5"
       d="m 36.518176,31.462669 c -8.90216,5.876254 -17.308972,14.092216 -19.658424,24.883974 -1.550968,7.125202 -0.936355,14.609632 0.48639,21.70199 1.687441,7.025555 5.327244,13.372162 8.542092,19.777005 4.667003,6.792272 11.927761,11.703632 19.757804,14.112762 9.046455,1.88807 18.127764,3.97983 27.424237,4.01639 6.417031,0.25045 12.6057,-2.03412 18.503349,-4.30177 8.028468,-3.28279 12.552546,-11.39363 14.965356,-19.301562 3.63505,-11.281114 7.16974,-22.886678 6.98387,-34.864882 -0.27182,-8.638063 -3.64744,-17.541393 -10.68157,-22.9102 -4.222853,-3.540555 -9.900107,-7.363219 -15.656278,-5.672962 -7.035984,2.096528 -8.603684,13.108581 -2.069528,16.74954 4.108792,2.022499 8.914533,4.727619 9.249882,9.855439 0.996577,8.074195 -1.397923,16.069307 -3.504995,23.786158 -1.927567,4.877787 -2.505651,10.49839 -6.004615,14.602887 -4.90211,2.339041 -10.41586,3.919461 -15.880914,2.899678 -6.426225,-0.398154 -12.671651,-2.085039 -18.968462,-3.254103 -4.176184,-1.769337 -8.256694,-4.569434 -9.738804,-9.048076 -2.391581,-4.753532 -4.871146,-9.6217 -5.229969,-15.025575 -0.628974,-5.41157 -0.312663,-11.519428 3.910667,-15.508855 2.953663,-3.693603 7.317222,-5.795489 10.640053,-9.048634 4.338459,-4.713716 2.142469,-13.167611 -4.010482,-15.040554 -3.034655,-1.022936 -6.557983,-0.412785 -9.059659,1.59135 z" />
  </g>
</svg>
