<svg width="465" height="470" xml:space="preserve" xmlns="http://www.w3.org/2000/svg"><g style="display:inline"><path style="display:inline;fill:#080808;fill-opacity:1;stroke-width:1.10829;stroke-linejoin:bevel" d="M256 3c-20 0-37 1-44 3l-15 6a252 252 0 0 0-35 11l-23 4c-24 8-74 42-84 66l-4 16A252 252 0 0 0 5 234l-5 12c-2 5 0 9 4 12a252 252 0 0 0 22 103l5 13c-2 6-3 12 0 18 7 19 23 28 41 36a252 252 0 0 0 130 73l12 10c18 10 60 14 81 10 16-3 28-14 39-27a252 252 0 0 0 80-44c15-2 29-5 33-12 3-5 8-11 9-16 2-6 2-13 3-19a252 252 0 0 0 35-70l4-6c4-9 19-78 15-87-2-4-4-7-8-9a252 252 0 0 0-3-24c3-3 5-7 4-12l-9-10a252 252 0 0 0-25-56c-1-11-3-21-8-31-7-13-21-19-36-24a252 252 0 0 0-43-34h-1c-4-5-40-28-46-31-9-5-49-7-82-6Z" transform="matrix(.9037 0 0 .9037 1 -3)"/><path style="display:inline;fill:#fff;fill-opacity:1;stroke-width:1.00157;stroke-linejoin:bevel" d="M108 251c10-36 9-64 32-95 10-12 27-17 41-25 11-7 33-17 47-17 2 0-5-1-9 2-6 4-10 9-14 15-4 7-8 40-5 48 6 14 29 4 34-6l-4 13c-2 10-5 19-5 29l-3 28c-2 23-4 51 2 73 8 30 37 23 54 6 11-10 5-28 7-41 4-23 19-48 4-69l-8-10c-2-3-20-31-16-35 3-3 24 5 24 4l5-6c12-12 32-19 47-27 4-2 38-17 40-13 1 3-12 16-14 19-18 32-33 33-33 75v43c0 9 1 18 3 26v12c6 39 26 21 45 0 1-2 14-18 18-14 2 2-1 15-1 18-5 25-37 73-61 83-22 9-23 1-38-13l-12-12-4 8c-8 11-19 30-34 33-27 5-84-21-105-39l-7-8c-3-4-8-6-7-13l11 2c7 2 15 1 19-5 10-13 2-31 5-46 3-14 6-48 3-62-4-17-27-37-42-24-10 9-7 26-15 38" transform="matrix(.9037 0 0 .9037 1 -3)"/></g></svg>