<?xml version="1.0" encoding="UTF-8" standalone="no"?>
<!-- Created with Inkscape (http://www.inkscape.org/) -->

<svg
   width="500"
   height="500"
   viewBox="0 0 132.29166 132.29167"
   version="1.1"
   id="svg1"
   inkscape:version="1.3.2 (091e20e, 2023-11-25, custom)"
   sodipodi:docname="darkmode.svg"
   xmlns:inkscape="http://www.inkscape.org/namespaces/inkscape"
   xmlns:sodipodi="http://sodipodi.sourceforge.net/DTD/sodipodi-0.dtd"
   xmlns:xlink="http://www.w3.org/1999/xlink"
   xmlns="http://www.w3.org/2000/svg"
   xmlns:svg="http://www.w3.org/2000/svg">
  <sodipodi:namedview
     id="namedview1"
     pagecolor="#505050"
     bordercolor="#eeeeee"
     borderopacity="1"
     inkscape:showpageshadow="0"
     inkscape:pageopacity="0"
     inkscape:pagecheckerboard="0"
     inkscape:deskcolor="#505050"
     inkscape:document-units="mm"
     inkscape:zoom="0.4894542"
     inkscape:cx="-114.41316"
     inkscape:cy="289.09753"
     inkscape:window-width="1920"
     inkscape:window-height="991"
     inkscape:window-x="-9"
     inkscape:window-y="-9"
     inkscape:window-maximized="1"
     inkscape:current-layer="svg1" />
  <defs
     id="defs1">
    <inkscape:path-effect
       effect="fillet_chamfer"
       id="path-effect8"
       is_visible="true"
       lpeversion="1"
       nodesatellites_param="F,0,0,1,0,0,0,1 @ F,0,0,1,0,0,0,1 @ F,0,0,1,0,0,0,1 @ F,0,0,1,0,0,0,1"
       radius="0"
       unit="px"
       method="auto"
       mode="F"
       chamfer_steps="1"
       flexible="false"
       use_knot_distance="true"
       apply_no_radius="true"
       apply_with_radius="true"
       only_selected="false"
       hide_knots="false" />
    <inkscape:path-effect
       effect="fillet_chamfer"
       id="path-effect7"
       is_visible="true"
       lpeversion="1"
       nodesatellites_param="F,0,0,1,0,7.5492277,0,1 @ F,0,0,1,0,7.5492277,0,1 @ F,0,0,1,0,7.5492277,0,1 @ F,0,0,1,0,7.5492277,0,1"
       radius="0"
       unit="px"
       method="auto"
       mode="F"
       chamfer_steps="1"
       flexible="false"
       use_knot_distance="true"
       apply_no_radius="true"
       apply_with_radius="true"
       only_selected="false"
       hide_knots="false" />
    <inkscape:perspective
       sodipodi:type="inkscape:persp3d"
       inkscape:vp_x="0 : 66.145835 : 1"
       inkscape:vp_y="0 : 1000 : 0"
       inkscape:vp_z="132.29166 : 66.145835 : 1"
       inkscape:persp3d-origin="66.14583 : 44.097223 : 1"
       id="perspective2" />
    <pattern
       inkscape:collect="always"
       xlink:href="#InvertedCircle-4"
       preserveAspectRatio="xMidYMid"
       id="pattern10-6"
       patternTransform="scale(1.3)"
       x="0"
       y="0" />
    <pattern
       patternUnits="userSpaceOnUse"
       width="100"
       height="100"
       id="InvertedCircle-4"
       style="fill:#000000"
       preserveAspectRatio="xMidYMid"
       patternTransform="scale(0.2,0.2)"
       inkscape:label="Cercle Inversé"
       inkscape:collect="always"
       inkscape:isstock="true">
      <path
         id="rect2-2"
         clip-path="none"
         style="stroke:none;stroke-width:5;stroke-miterlimit:10"
         d="M 100,0 75.087891,24.912109 c -0.547154,-0.525981 -1.111823,-1.023698 -1.683594,-1.507812 l -0.525391,-0.525391 -0.04883,0.04883 C 66.344236,17.665628 58.427027,15.019531 50.5,15.019531 41.408503,15.019532 32.31766,18.479214 25.398438,25.398438 12.44622,38.350653 11.6354,58.901751 22.929688,72.828125 l -0.05078,0.05078 0.525391,0.525391 c 0.484123,0.571974 0.981706,1.136309 1.507812,1.683594 L 0,100 H 100 Z M 75.042969,29.199219 a 32.5,32.5 0 0 1 6.849609,29.71289 32.5,32.5 0 0 1 -22.980469,22.980469 32.5,32.5 0 0 1 -29.628906,-6.933594 z" />
    </pattern>
  </defs>
  <path
     style="font-variation-settings:normal;opacity:1;vector-effect:none;fill:#ffffff;fill-opacity:1;stroke:none;stroke-width:3.96875;stroke-linecap:butt;stroke-linejoin:bevel;stroke-miterlimit:4;stroke-dasharray:none;stroke-dashoffset:0;stroke-opacity:1;-inkscape-stroke:none"
     id="path10"
     d="m 111.4567,40.736588 c 0.0185,-0.0039 0.0743,-0.0095 0.0555,-0.01161 -0.88287,-0.100928 -0.0607,0.0041 0.13729,-0.04869 -0.18359,-0.02638 0.11585,0.01953 0.0485,0.0054 -0.0366,-0.0077 -0.14615,-0.01931 -0.10924,-0.02503 0.11458,-0.01773 0.22723,0.04622 0.34051,0.0709 0.0882,0.01953 0.34793,0.09302 0.26447,0.05855 -0.0959,-0.03961 -0.20226,-0.0464 -0.3022,-0.07413 -0.21667,-0.06013 -0.4158,-0.146818 -0.61736,-0.24496 -0.15704,-0.110177 -0.34503,-0.200051 -0.48839,-0.327117 -0.43277,-0.430125 -0.69464,-0.985036 -0.91004,-1.547276 -0.2853,-0.839806 -0.24813,-1.689862 -0.0665,-2.545516 0.0694,-0.246293 0.0317,-0.127101 0.12167,-0.382167 0.006,-0.01752 0.0269,-0.06915 0.0188,-0.05248 -0.13106,0.26675 -0.25099,0.541054 -0.37451,0.811255 -0.4396,0.943901 -0.7545,1.930016 -1.01389,2.935753 -0.41108,1.8859 -0.18589,3.771201 0.25027,5.623367 0.30666,1.111244 0.70639,2.193552 1.13907,3.261034 0.27071,0.663506 0.56954,1.314942 0.82353,1.985256 0.0573,0.0034 0.0671,0.395653 0.0124,0.149792 -0.0643,0.431315 -0.12808,0.877694 -0.19994,1.3131 -0.11995,0.715418 -0.299,1.418479 -0.45235,2.126954 -0.3835,1.490789 -0.57199,3.011429 -0.63632,4.546626 -0.0515,1.523148 0.12313,3.036218 0.39451,4.531659 0.23983,1.367869 0.66742,2.687929 1.13545,3.991708 0.38653,1.007636 0.75883,2.020342 1.11699,3.038366 0.32,0.916419 0.63987,1.829795 0.88521,2.769275 0.30705,1.113465 0.52344,2.248027 0.71689,3.385759 0.16835,1.053701 0.33988,2.107867 0.44166,3.170431 0.0665,0.73714 0.059,1.474536 -0.004,2.210948 -0.0515,0.623022 -0.14923,1.237006 -0.347,1.829491 -0.17927,0.5213 -0.44346,1.011105 -0.69213,1.502346 -0.4246,0.794369 -0.84821,1.589151 -1.26936,2.385526 -0.55194,1.033806 -1.05122,2.094436 -1.53874,3.159768 -0.50368,1.076174 -0.90146,2.194816 -1.2848,3.317954 -0.3454,1.002885 -0.62537,2.02628 -0.93374,3.040756 -0.21159,0.721809 -0.42462,1.440815 -0.69325,2.143566 -0.1516,0.364133 -0.30311,0.728409 -0.56489,1.025557 -0.0283,0.03131 -0.056,0.06327 -0.085,0.09393 -0.0343,0.03624 -0.0675,0.07381 -0.10499,0.106741 -0.009,0.008 -0.038,0.0244 -0.0325,0.014 0.0177,-0.0333 0.0462,-0.0598 0.0717,-0.08764 0.0854,-0.09341 0.15006,-0.124534 -0.0393,-7.94e-4 -0.69133,0.395439 -1.40466,0.751109 -2.11061,1.119559 -0.90612,0.51275 -1.82442,1.0156 -2.66889,1.6281 -0.75353,0.54655 -0.93258,0.72707 -1.63181,1.33154 -1.441239,1.25241 -2.563107,2.78711 -3.588626,4.38329 -0.674161,1.06584 -1.285333,2.1689 -1.912594,3.2623 -0.193204,0.22481 -0.509153,1.04662 -0.781635,1.18961 -0.193082,0.21127 -0.411239,0.39176 -0.657841,0.53479 -0.357738,0.20332 -0.739849,0.35542 -1.122834,0.50322 -0.357071,0.13351 -0.720444,0.26522 -1.101598,0.30691 -0.818724,0.0942 -1.643477,0.11938 -2.466287,0.155 -1.402683,0.0279 -2.793375,0.2087 -4.176823,0.42831 -1.476201,0.27426 -2.936679,0.61812 -4.414943,0.8824 -1.660843,0.27738 -3.334989,0.47068 -5.01065,0.63263 -1.385166,0.15834 -2.772836,0.0255 -4.151847,-0.11981 -1.43636,-0.15749 -2.851904,-0.45999 -4.255178,-0.79764 -1.613569,-0.42245 -3.215558,-0.88691 -4.829881,-1.30653 -1.889871,-0.51225 -3.816286,-0.85347 -5.757582,-1.09393 -1.646304,-0.2094 -3.303849,-0.30633 -4.962639,-0.31457 -1.389149,-0.004 -2.777963,0.0416 -4.166642,0.0738 -1.104662,0.0567 -2.210059,0.0267 -3.312718,-0.0493 -1.011931,-0.10892 -2.024706,-0.21845 -3.029598,-0.38136 -0.601285,-0.096 -1.17365,-0.2839 -1.74629,-0.48092 -0.142436,-0.0962 -0.275426,-0.19528 -0.416431,-0.2944 -0.410643,-0.28641 -0.803227,-0.598 -1.204557,-0.89727 0.169698,0.10787 -0.435182,-0.3132 -0.314447,-0.25359 0.08945,0.0442 0.138708,0.15353 0.23186,0.18924 0.103825,0.0398 -0.114081,-0.10032 -0.0088,-0.0307 -0.09066,-0.18463 -0.222258,-0.3495 -0.332375,-0.52414 -5.434486,-8.77953 -17.850614,-1.094 -12.416127,7.68553 v 0 c 0.392483,0.63871 0.785262,1.27787 1.249624,1.86834 0.838998,1.04352 1.750006,2.03024 2.852337,2.80347 0.73324,0.54482 1.47397,1.08088 2.253948,1.55774 1.227254,0.73774 2.500625,1.40136 3.884105,1.79849 1.304287,0.36759 2.625889,0.66604 3.972377,0.83277 1.381276,0.17403 2.767428,0.29766 4.156184,0.39601 1.520991,0.084 3.043613,0.13956 4.566917,0.0791 1.238681,-0.0381 2.477323,-0.0841 3.716631,-0.0952 1.146638,0.004 2.294938,0.0114 3.437906,0.11399 1.28374,0.1219 2.558936,0.31359 3.804007,0.65914 1.688145,0.43777 3.366392,0.91357 5.06426,1.31364 0.375915,0.0916 1.675532,0.41099 2.028304,0.48561 1.374536,0.29078 2.771753,0.4508 4.168015,0.59268 2.28672,0.21082 4.589576,0.42416 6.882784,0.1645 1.919202,-0.18869 3.826973,-0.46866 5.739958,-0.71047 1.484902,-0.18506 2.972922,-0.34584 4.449101,-0.59358 0.879882,-0.11802 1.765204,-0.1931 2.653128,-0.21103 1.317281,-0.0536 2.636567,-0.10472 3.948059,-0.24396 1.516055,-0.22486 3.002357,-0.58463 4.421727,-1.17519 1.368034,-0.56041 2.718971,-1.17279 3.947721,-2.0044 1.28665,-0.90493 2.48315,-1.92029 3.49548,-3.13171 0.91991,-1.12114 1.75632,-2.30215 2.38737,-3.61352 0.44714,-0.85815 0.89586,-1.71603 1.39362,-2.54634 0.26511,-0.4444 0.53226,-0.88943 0.90969,-1.25018 0.42005,-0.40991 0.95729,-0.67133 1.47004,-0.94568 1.19003,-0.61523 2.40922,-1.1801 3.53418,-1.91314 0.65156,-0.44044 0.96235,-0.62892 1.59203,-1.15805 0.91007,-0.76474 1.68512,-1.66856 2.38191,-2.62784 0.87448,-1.28469 1.63729,-2.6322 2.18179,-4.09281 0.43132,-1.09088 0.82535,-2.19732 1.12458,-3.33256 0.23471,-0.82779 0.48504,-1.650226 0.74983,-2.468892 0.23359,-0.695241 0.48141,-1.384425 0.77771,-2.056069 0.33015,-0.762744 0.68112,-1.515235 1.0802,-2.244794 0.50218,-0.926433 1.02012,-1.844699 1.47942,-2.793749 0.6459,-1.322332 1.27967,-2.663063 1.65792,-4.090781 0.39371,-1.51466 0.66178,-3.054297 0.75384,-4.618807 0.10592,-1.599179 0.14004,-3.203289 -0.0625,-4.797679 -0.1623,-1.399575 -0.37009,-2.792614 -0.64196,-4.175503 -0.27953,-1.46444 -0.56112,-2.929192 -0.9113,-4.378749 -0.33867,-1.345599 -0.68534,-2.690243 -1.15243,-3.998322 -0.35998,-1.028372 -0.74642,-2.046772 -1.12164,-3.069569 -0.20337,-0.59789 -0.37363,-1.20678 -0.50327,-1.82508 -0.0903,-0.460076 -0.17638,-0.923859 -0.19578,-1.393193 0.006,-0.557485 0.0779,-1.09389 0.25199,-1.630209 0.30585,-1.081479 0.58519,-2.173025 0.75705,-3.284849 0.2021,-1.323943 0.37844,-2.656306 0.36601,-3.998749 -0.076,-1.684882 -0.30645,-3.295949 -0.92183,-4.878387 -0.31072,-0.820293 -0.62377,-1.640112 -0.96535,-2.448134 -0.16798,-0.379897 -0.33068,-0.763008 -0.4495,-1.161688 -0.0361,0.447059 0.0255,0.916623 -0.14035,1.354651 -0.1908,0.650925 0.045,-0.158226 0.11081,-0.263953 0.38293,-0.825707 0.82436,-1.628844 1.05309,-2.517839 0.0747,-0.300281 0.16689,-0.59676 0.22422,-0.900848 0.28681,-1.521476 0.21901,-3.07594 -0.18225,-4.570031 -0.52531,-1.652143 -1.21482,-3.074054 -2.39606,-4.362389 -0.88067,-0.930577 -1.8368,-1.79668 -2.94977,-2.445007 -1.11187,-0.61699 -2.27195,-1.15996 -3.52822,-1.411739 -0.77652,-0.179002 -1.55441,-0.353191 -2.3509,-0.416823 -0.45193,-0.04666 -0.89664,-0.14998 -1.35246,-0.15669 -10.58081,0 -10.58081,14.963525 0,14.963525 z" />
  <path
     style="font-variation-settings:normal;display:inline;opacity:1;vector-effect:none;fill:#ffffff;fill-opacity:1;stroke:none;stroke-width:3.78634;stroke-linecap:butt;stroke-linejoin:bevel;stroke-miterlimit:4;stroke-dasharray:none;stroke-dashoffset:0;stroke-opacity:1;-inkscape-stroke:none"
     id="path8"
     d="m 46.160708,7.6342651 c -0.283981,0.1325985 -0.57531,0.2591816 -0.857691,0.3899774 0.01164,-0.00413 0.02353,-0.00765 0.03493,-0.012404 0.0053,-0.00224 -0.01123,0.00298 -0.01673,0.00482 -0.07452,0.024866 -0.149084,0.049579 -0.223311,0.075288 -0.30059,0.1041132 -0.595391,0.2181129 -0.891037,0.3351216 -0.670753,0.2598952 -1.316526,0.5720585 -1.948501,0.9145643 -0.929234,0.4955126 -1.762936,1.1344606 -2.562341,1.8146636 -0.947165,0.792672 -1.690136,1.773922 -2.430669,2.751884 -0.416561,0.559328 -0.838849,1.113744 -1.304518,1.633215 -0.251019,0.259336 -0.573183,0.4342 -0.875233,0.626968 -0.676523,0.424879 -1.367883,0.825653 -2.070264,1.20609 -0.766343,0.430426 -1.547609,0.833171 -2.320853,1.250887 -0.986692,0.495776 -1.962558,1.011394 -2.925406,1.552041 -1.039687,0.59561 -2.027072,1.278957 -3.017372,1.952513 -0.78827,0.538892 -1.567411,1.090896 -2.346038,1.64356 -0.805362,0.555613 -1.573646,1.161422 -2.344845,1.762754 -0.813837,0.665741 -1.62005,1.340545 -2.400881,2.044821 -0.82157,0.759228 -1.587559,1.574879 -2.323577,2.416388 -0.701805,0.8444 -1.343074,1.736832 -1.996474,2.618666 -0.615296,0.833965 -1.192902,1.694649 -1.793302,2.539183 -0.692267,0.989808 -1.316016,2.025372 -1.9160325,3.072989 -0.5799805,1.014063 -1.0650703,2.077113 -1.5316181,3.146774 -0.4301891,0.991396 -0.7584219,2.021644 -1.0605797,3.057857 -0.3881507,1.265695 -0.5159742,2.585152 -0.622461,3.898287 -0.066015,1.149717 -0.070581,2.301726 -0.1131884,3.452451 -0.018003,0.867984 -0.045456,1.733656 -0.1234515,2.598356 -0.064442,0.72232 -0.1942241,1.435944 -0.3380721,2.145956 -0.1670189,0.818304 -0.3783795,1.626602 -0.5737887,2.438414 -0.2284213,0.975525 -0.5000855,1.940206 -0.7376173,2.913498 -0.2694403,1.085546 -0.5304715,2.173331 -0.7541081,3.269308 -0.2479506,1.26212 -0.407643,2.540409 -0.5473674,3.818484 -0.1492168,1.458145 -0.1868041,2.924541 -0.2204867,4.38898 -0.050884,1.469902 -0.043923,2.941274 0.00178,4.411143 0.052801,1.601789 0.1991565,3.198923 0.3854072,4.790172 0.149041,1.39326 0.4436765,2.760695 0.7927002,4.115505 0.3441662,1.227108 0.8481344,2.39818 1.3432375,3.569451 0.3750479,0.842752 0.750073,1.685698 1.0951758,2.541235 0.291845,0.698256 0.5812426,1.397 0.8362172,2.109693 0.1972609,0.607636 0.3929989,1.216385 0.5626965,1.832404 0.1809943,0.681042 0.3235604,1.371367 0.4482479,2.064663 0.1194585,0.646913 0.1948337,1.299354 0.2469527,1.954654 0.064833,0.8921 0.1224767,1.78457 0.2035552,2.67541 0.1108196,1.44187 0.4492487,2.83895 0.9194126,4.20205 0.5908787,1.63363 1.5283177,2.97245 2.6865657,4.24672 0.990181,1.04157 2.17798,1.84608 3.41351,2.56387 1.076827,0.55626 2.188157,1.04577 3.330741,1.44978 0.888789,0.30901 1.792942,0.56895 2.683642,0.8721 0.678763,0.2415 1.35304,0.4963 2.019118,0.77091 1.01373,0.42638 3.080868,1.17609 3.080868,1.17609 L 115.05199,26.950822 c 0,0 -2.62684,-1.63731 -3.99053,-2.367362 -0.88492,-0.473092 -1.75646,-0.969018 -2.60961,-1.497075 -0.7082,-0.458634 -1.36643,-0.987222 -2.00103,-1.541679 -0.56063,-0.509066 -1.02866,-1.104216 -1.49018,-1.701181 -0.52922,-0.684322 -1.01083,-1.402012 -1.47657,-2.130314 -0.62359,-1.047433 -1.24189,-2.092769 -1.93748,-3.094469 -0.79312,-1.026556 -1.605116,-2.068433 -2.574905,-2.938528 -0.29496,-0.264645 -0.608144,-0.50836 -0.912245,-0.762563 C 96.690285,9.881435 95.198216,9.0233581 93.711567,8.1696931 92.496155,7.4676833 91.236454,6.8458947 89.970451,6.2412616 88.651467,5.5961185 87.276285,5.0838487 85.885823,4.6179229 84.453942,4.1418051 82.97633,3.8260113 81.500999,3.5192726 80.067898,3.2028685 78.618662,2.9827709 77.159744,2.8308236 75.467283,2.6366819 73.768619,2.6959356 72.076133,2.8410415 70.308412,2.9800666 68.582532,3.3902435 66.869001,3.8253745 64.64239,4.446999 62.580079,5.503457 60.54663,6.5798187 Z"
     sodipodi:nodetypes="ccccsccccccccccccccccccccccccccccccccccccccccccccccccccccscccccccccc" />
  <path
     id="path1"
     style="font-variation-settings:normal;display:inline;vector-effect:none;fill:#000000;fill-opacity:1;stroke:none;stroke-width:3.48131;stroke-linecap:butt;stroke-linejoin:bevel;stroke-miterlimit:4;stroke-dasharray:none;stroke-dashoffset:0;stroke-opacity:1;-inkscape-stroke:none"
     d="m 109.64505,29.837589 c -0.54134,-0.01193 -1.11265,0.02881 -1.71238,0.128761 0.014,0.0012 0.0554,6.1e-4 0.0418,0.0038 -0.67622,0.154822 -1.32831,0.312613 -1.97037,0.578237 -0.85121,0.321279 -1.61557,0.811531 -2.35524,1.332274 -0.65892,0.482022 -1.25164,1.040656 -1.81453,1.629706 -0.72463,0.761655 -1.25883,1.662446 -1.73044,2.594703 -0.360938,0.718503 -0.643198,1.47155 -0.894668,2.234076 -0.006,0.01885 -0.0104,0.01762 -0.0152,0.03041 -0.026,0.02345 0.0279,-0.03224 -0.0294,0.02138 -0.21868,0.22882 -0.46682,0.418742 -0.72268,0.602468 -0.674901,0.490536 -1.359009,0.965765 -2.01741,1.478615 -0.846555,0.65783 -1.61751,1.403414 -2.359514,2.17516 -0.824719,0.859332 -1.540507,1.802826 -2.183712,2.802811 -0.684153,1.09582 -1.180052,2.292163 -1.692899,3.473698 -0.392331,0.922813 -0.781326,1.846897 -1.180706,2.7667 -0.05825,0.12273 -0.119258,0.245166 -0.178175,0.368229 l -5.084876,5.302011 c -0.395097,0.312144 -0.795081,0.617795 -1.192108,0.92746 -0.99617,0.728004 -1.89732,1.554309 -2.730591,2.462141 -0.647004,0.756671 -1.182054,1.589717 -1.67627,2.447885 L 68.374,73.387383 c -0.209656,0.100405 -0.423278,0.191961 -0.632402,0.293633 -1.067793,0.516309 -2.141461,1.020954 -3.21095,1.533729 -1.217264,0.570623 -2.388126,1.230839 -3.533565,1.932842 -1.261697,0.769077 -2.417276,1.692516 -3.546394,2.641265 -1.151765,0.950556 -2.192887,2.011667 -3.164388,3.143006 -1.037774,1.202827 -1.891892,2.54361 -2.696855,3.908446 -0.702186,1.197588 -1.281482,2.458128 -1.804556,3.742149 -0.397284,1.04596 -0.688425,2.125459 -0.975924,3.205248 l -3.021847,3.150608 c -0.06699,0.02277 -0.132871,0.04863 -0.200031,0.0708 -0.872746,0.271726 -1.751136,0.524305 -2.619884,0.808678 -1.252981,0.411293 -2.472043,0.91144 -3.666128,1.469107 -1.254029,0.59378 -2.416711,1.353256 -3.537366,2.166126 -1.0699,0.77069 -2.00351,1.69773 -2.859827,2.69496 -0.686444,0.82727 -1.263525,1.73415 -1.809782,2.65742 -0.372861,0.64119 -0.717927,1.29819 -1.062873,1.9547 -0.383203,0.74347 -0.701303,1.51701 -1.01726,2.29061 -0.303453,0.73778 -0.555446,1.49493 -0.785396,2.25831 -0.118603,0.42759 -0.315963,1.29237 -0.315963,1.29237 l 12.454666,5.12098 c 0,0 2.401626,0.72467 3.626217,0.99683 1.221744,0.29309 2.471886,0.41888 3.717917,0.55543 1.304562,0.13727 2.612801,0.23084 3.918898,0.35208 1.027085,0.0971 2.046166,0.25623 3.063183,0.42618 0.977354,0.15843 1.950523,0.34045 2.923495,0.52313 1.119748,0.1923 2.244731,0.35204 3.371545,0.49651 1.204279,0.10886 2.406429,0.2392 3.610062,0.35446 1.479971,0.18716 2.960166,0.0766 4.434893,-0.0894 1.378991,-0.13768 2.740159,-0.38595 4.086145,-0.71127 1.330562,-0.31786 2.619852,-0.78111 3.908922,-1.23345 1.036801,-0.37197 2.062041,-0.77445 3.082188,-1.18973 0.694488,-0.3067 1.416243,-0.53179 2.149977,-0.72078 0.782967,-0.19691 1.582961,-0.30916 2.379943,-0.43095 1.250748,-0.13718 2.503967,-0.24724 3.754977,-0.38295 1.486826,-0.16947 2.962814,-0.41567 4.426816,-0.72363 1.609751,-0.35144 3.154151,-0.93401 4.673409,-1.56129 1.80038,-0.78872 3.392048,-1.93447 4.891978,-3.18814 1.45425,-1.19536 2.63949,-2.64795 3.71125,-4.1845 0.97733,-1.48069 1.73729,-3.08239 2.42509,-4.71285 0.58907,-1.39939 1.06111,-2.84142 1.5095,-4.29045 0.28065,-0.933526 0.5836,-1.85913 1.02628,-2.729158 0.40651,-0.796554 0.89377,-1.548092 1.38882,-2.291567 0.66114,-1.018491 1.32904,-2.032598 1.98843,-3.052255 0.6329,-0.941833 1.23094,-1.9058 1.81121,-2.880733 0.6155,-1.074593 1.20619,-2.162873 1.75941,-3.270816 0.59023,-1.186722 1.06286,-2.424988 1.49003,-3.678006 0.49339,-1.451844 0.74083,-2.964632 0.88896,-4.485733 0.1357,-1.531662 0.0485,-3.068773 -0.0945,-4.595963 -0.13977,-1.572521 -0.52609,-3.105691 -0.9479,-4.622096 -0.32049,-1.156258 -0.68513,-2.298623 -0.99777,-3.457069 -0.29122,-1.231855 -0.51058,-2.479467 -0.66852,-3.735021 -0.1523,-1.174769 -0.21066,-2.358728 -0.23756,-3.542118 -0.0189,-1.187294 0.0222,-2.374531 0.0817,-3.560173 0.0657,-1.29571 0.18274,-2.587863 0.27462,-3.881838 0.0916,-1.302746 0.18978,-2.605382 0.24327,-3.910346 0.0755,-1.39373 0.0471,-2.788939 -0.029,-4.181647 -0.111,-1.336561 -0.32109,-2.674223 -0.74881,-3.949307 -0.0971,-0.289406 -0.21536,-0.571047 -0.32309,-0.856665 -0.18417,-0.44767 -0.40485,-0.876087 -0.64191,-1.294739 -0.31328,-3.154764 -2.66054,-6.106802 -6.65233,-6.194786 z"
     sodipodi:nodetypes="ccccccccccccccccccccccccccccccccccccccccccccccccccccccccccccccccccccccccccccccscccc" />
  <path
     style="font-variation-settings:normal;display:none;opacity:1;vector-effect:none;fill:#000000;fill-opacity:1;stroke:none;stroke-width:3.96875;stroke-linecap:butt;stroke-linejoin:bevel;stroke-miterlimit:4;stroke-dasharray:none;stroke-dashoffset:0;stroke-opacity:1;-inkscape-stroke:none"
     id="path9"
     d="m 108.70498,23.143923 c -0.40673,0.382527 -0.29296,0.256758 -0.55592,0.547729 -0.0687,0.07602 -0.28987,0.286453 -0.20503,0.229019 0.12731,-0.08617 0.2556,-0.256741 0.15376,-0.125545 -0.081,0.117222 -0.2424,0.203809 -0.34983,0.28258 -0.42117,0.287901 -0.84371,0.5737 -1.26399,0.862936 -1.04488,0.720367 -1.95928,1.598048 -2.82246,2.522523 -0.98617,1.097899 -1.72075,2.385065 -2.20144,3.778943 -0.21943,0.636275 -0.3235,1.147625 -0.47181,1.788015 -0.1762,0.875638 -0.35404,1.74998 -0.59581,2.610207 -0.12708,0.494789 -0.30781,0.971835 -0.521699,1.434859 -0.173855,0.391803 -0.415637,0.744609 -0.694732,1.068194 -0.273958,0.328838 -0.573046,0.637495 -0.92306,0.885137 -0.514903,0.344199 -1.035124,0.68054 -1.565061,1.00117 -0.812657,0.485887 -1.634723,0.955699 -2.44638,1.443228 -0.932058,0.552932 -1.825141,1.165223 -2.699718,1.804043 -0.848873,0.612865 -1.639149,1.299401 -2.423938,1.990741 -0.929894,0.831919 -1.730774,1.790459 -2.493237,2.774056 -0.73279,0.930656 -1.324989,1.95766 -1.904402,2.987357 -0.381456,0.663557 -0.752915,1.333749 -1.172329,1.974385 -0.299377,0.474175 -0.648894,0.910399 -1.021996,1.327644 -0.327689,0.348676 -0.683125,0.666928 -1.055534,0.966788 -0.530431,0.398865 -1.058106,0.80138 -1.600859,1.183465 -0.894733,0.626158 -1.769478,1.279107 -2.639726,1.938639 -1.079014,0.791792 -2.074508,1.684049 -3.035832,2.612888 -0.89503,0.885907 -1.753701,1.806088 -2.564641,2.769415 -0.742421,0.92684 -1.481574,1.856777 -2.177661,2.819124 -0.49685,0.678024 -1.020313,1.335178 -1.582462,1.960007 -0.268264,0.34698 -0.585584,0.618916 -0.945978,0.855565 -0.872892,0.568835 -1.779688,1.08236 -2.693183,1.582385 -1.390751,0.711047 -2.666826,1.612509 -3.919358,2.539204 -1.34689,0.989938 -2.58242,2.107803 -3.719126,3.330601 -1.073092,1.185932 -1.951839,2.520961 -2.744568,3.904684 -0.481584,0.904235 -1.000643,1.787059 -1.505741,2.678049 -0.313187,0.51521 -0.621684,1.036651 -0.983784,1.519558 -0.280546,0.411924 -0.595614,0.793432 -0.963213,1.129075 -0.41075,0.337775 -0.871443,0.615942 -1.327177,0.888883 -1.112739,0.597781 -2.259324,1.127877 -3.377827,1.715712 -1.158076,0.612555 -2.270582,1.305634 -3.354474,2.04017 -1.037276,0.725377 -2.01395,1.530924 -2.953843,2.377324 -0.756208,0.687729 -1.4839,1.402911 -2.178534,2.152631 -0.682215,0.700712 -1.31839,1.44253 -1.913245,2.218159 -0.110744,0.153699 -0.223321,0.306093 -0.332229,0.461099 -0.298109,0.424284 -0.576244,0.862857 -0.837258,1.310929 -0.275897,0.47362 -0.397822,0.50401 -0.154993,0.399817 -0.03157,0.06582 -0.0564,0.135318 -0.09472,0.197453 -0.184444,0.299112 -0.45103,0.640062 -0.661406,0.912482 -0.411816,0.53328 -0.832074,1.06012 -1.245526,1.59215 -0.745775,0.95945 -1.441897,1.95539 -2.139473,2.94996 -0.711057,0.97759 -1.329934,2.01465 -1.910861,3.07328 -0.576826,1.08673 -1.089324,2.22251 -1.322744,3.4388 -0.07854,0.40925 -0.114039,0.8256 -0.171058,1.2384 -0.09456,1.59168 0.125724,3.18839 0.797519,4.64801 0.545262,1.18469 0.763051,1.36279 1.521069,2.35212 0.946856,1.09714 2.064382,2.01211 3.255097,2.82895 1.041138,0.70531 2.16852,1.26407 3.303233,1.79957 1.148122,0.54517 2.317933,1.0416 3.506192,1.49204 1.265007,0.4489 2.535351,0.88252 3.802915,1.32411 1.15644,0.41134 2.339017,0.74006 3.519675,1.07295 1.296868,0.37265 2.622515,0.62639 3.944495,0.88972 1.247902,0.26543 2.505967,0.4751 3.765863,0.67355 1.296805,0.20542 2.602185,0.34708 3.908033,0.47969 1.48922,0.12325 2.983537,0.16617 4.475218,0.25094 1.663385,0.13615 3.326016,0.0949 4.988361,-0.0222 1.786639,-0.12889 3.554828,-0.39859 5.307489,-0.76177 1.724917,-0.38909 3.420322,-0.88233 5.096796,-1.44154 1.846582,-0.59764 3.63243,-1.34859 5.370073,-2.20949 1.93009,-0.9979 3.691737,-2.27363 5.34149,-3.67927 1.63621,-1.43865 2.881231,-3.22895 4.120497,-5.00225 0.74944,-1.02614 1.338815,-2.18663 2.231922,-3.1014 0.36051,-0.35197 0.768707,-0.6272 1.225259,-0.83382 1.233056,-0.48701 2.487078,-0.91265 3.713173,-1.42171 1.837577,-0.76485 3.575367,-1.73388 5.248447,-2.80617 1.60363,-1.07263 3.10239,-2.29079 4.62245,-3.47633 1.53912,-1.1761 2.93946,-2.51156 4.30213,-3.88377 1.54299,-1.7132 2.8466,-3.624857 4.15453,-5.518901 1.34247,-2.110518 2.57586,-4.288761 3.7872,-6.476494 1.20708,-2.255192 2.28952,-4.575585 3.34148,-6.906453 1.01679,-2.312432 1.77295,-4.729726 2.51912,-7.140059 0.69646,-2.29057 1.24204,-4.623054 1.78388,-6.953883 0.62807,-2.670746 0.91421,-5.394796 1.08264,-8.127394 0.11899,-2.609106 0.15186,-5.220851 0.24492,-7.830923 0.0976,-2.360856 0.11372,-4.72367 0.15356,-7.085862 0.0168,-2.004623 0.0431,-4.017893 -0.28318,-6.003348 -0.0801,-0.487547 -0.19211,-0.969319 -0.28817,-1.453978 -0.61581,-2.671408 -2.00169,-5.025347 -3.51935,-7.270742 -0.96893,-1.431888 -2.03963,-2.788753 -3.18373,-4.0836 -0.18386,-0.196249 -0.36772,-0.392501 -0.55158,-0.588751 -7.07952,-7.267711 -17.35761,2.744245 -10.27809,10.011958 v 0 c 0.098,0.09314 0.19608,0.186285 0.29412,0.279429 0.77775,0.782381 1.50425,1.613789 2.17353,2.4912 0.51042,0.681252 1.0494,1.362356 1.4052,2.140482 0.41979,1.441905 0.34221,2.972054 0.4291,4.456729 0.0346,2.272355 -0.0215,4.544377 -0.0286,6.816809 -0.0155,2.409915 -0.0663,4.820468 -0.22848,7.225565 -0.14062,1.991349 -0.36249,3.976835 -0.84478,5.918843 -0.46843,2.03858 -0.99879,4.062465 -1.5814,6.071467 -0.55318,1.89397 -1.13868,3.781253 -1.92559,5.593781 -0.82836,1.959214 -1.69041,3.90773 -2.71972,5.771428 -0.99206,1.779908 -2.01803,3.545721 -3.21807,5.195665 -0.85636,1.222666 -1.70969,2.461887 -2.75562,3.533095 -0.94817,0.962308 -1.92378,1.899793 -2.97713,2.747685 -1.133718,0.90057 -2.262772,1.813864 -3.480355,2.600441 -0.977998,0.606817 -1.977062,1.186974 -3.029765,1.655607 -1.619131,0.640495 -3.298473,1.126724 -4.885259,1.851184 -0.962596,0.50494 -1.211059,0.59963 -2.110989,1.21446 -1.216448,0.83106 -2.29004,1.85581 -3.281833,2.93933 -0.256072,0.30126 -0.521332,0.59495 -0.768212,0.9038 -0.8889,1.11199 -1.599322,2.34895 -2.405439,3.51913 -0.554677,0.81789 -1.115663,1.63993 -1.824259,2.33511 -0.717508,0.66349 -1.472856,1.2906 -2.348524,1.73733 -1.110702,0.57379 -2.283068,1.01005 -3.467238,1.40719 -1.202123,0.39199 -2.428287,0.69451 -3.661161,0.974 -1.091324,0.25406 -2.199198,0.39942 -3.317589,0.47304 -1.104582,0.0816 -2.210617,0.0173 -3.316134,-0.0193 -1.22582,-0.0422 -2.446978,-0.13188 -3.663386,-0.29374 -1.060212,-0.11075 -2.118633,-0.23861 -3.173061,-0.39576 -1.067131,-0.16271 -2.12861,-0.35902 -3.185824,-0.57708 -0.94761,-0.18543 -1.893993,-0.37957 -2.823197,-0.64482 -0.974526,-0.27471 -1.940901,-0.57623 -2.909347,-0.87146 -1.019003,-0.31751 -2.037922,-0.63936 -3.028067,-1.0399 -0.823949,-0.3492 -1.636469,-0.7216 -2.441786,-1.11203 -0.485376,-0.25366 -0.956866,-0.53021 -1.417114,-0.82716 -0.06173,-0.0423 -0.543745,-0.42473 -0.234818,-0.13805 0.114226,0.16371 0.243097,0.31812 0.342678,0.49113 0.537694,0.93419 0.825945,1.98389 0.694812,3.06134 -0.09589,0.50152 -0.08397,0.58309 -0.244062,1.00486 -0.01868,0.0492 -0.04383,0.0962 -0.07286,0.14009 -0.0054,0.008 -0.02924,0.0208 -0.02718,0.0112 0.01669,-0.0773 0.129468,-0.33062 0.153447,-0.3869 0.246738,-0.58196 0.592712,-1.11219 0.931532,-1.64396 0.544174,-0.83292 1.100627,-1.6572 1.68361,-2.4637 0.791998,-1.11439 1.643811,-2.18001 2.529681,-3.22135 0.362913,-0.48457 0.716688,-0.94753 1.004364,-1.47633 0.228862,-0.42515 0.649647,-0.73538 0.934252,-1.11811 0.411699,-0.4541 0.838348,-0.89408 1.280424,-1.31876 0.434504,-0.41407 0.868699,-0.83036 1.354156,-1.18545 0.666377,-0.47872 1.349404,-0.93542 2.052788,-1.35798 1.108422,-0.65603 2.274718,-1.19507 3.427024,-1.76825 1.487546,-0.798957 2.945744,-1.662293 4.191024,-2.817744 1.050803,-0.980337 2.030256,-2.029082 2.867064,-3.201186 0.701929,-0.976947 1.3715,-1.979049 1.940396,-3.040576 0.453202,-0.846815 0.894575,-1.69995 1.353656,-2.543611 0.26729,-0.477475 0.535099,-0.956985 0.877541,-1.386176 0.458687,-0.561523 0.996976,-1.051213 1.560862,-1.505551 0.752046,-0.56248 1.56551,-1.030414 2.378022,-1.499581 1.21516,-0.690034 2.447755,-1.350238 3.641688,-2.076953 1.428303,-0.942964 2.696945,-1.962864 3.809957,-3.270864 0.820531,-0.925864 1.585878,-1.896292 2.317356,-2.893996 0.554397,-0.707623 1.076513,-1.440289 1.651826,-2.131492 0.519607,-0.599699 1.040786,-1.198038 1.607203,-1.754714 0.533524,-0.518043 1.076145,-1.027625 1.680022,-1.464651 0.719614,-0.538266 1.469221,-1.035648 2.217216,-1.533326 0.895811,-0.614241 1.777342,-1.248199 2.616277,-1.939211 0.976075,-0.821076 1.929546,-1.67318 2.762139,-2.643124 0.80377,-0.942954 1.562201,-1.923627 2.23347,-2.966402 0.556537,-0.870739 1.090916,-1.755188 1.590619,-2.659968 0.259802,-0.449855 0.530606,-0.89309 0.849024,-1.304665 0.210307,-0.288936 0.440791,-0.567391 0.69537,-0.818084 0.435332,-0.405837 0.882772,-0.796245 1.365579,-1.146016 0.50248,-0.395158 1.0386,-0.746543 1.58004,-1.085594 0.77776,-0.492217 1.57161,-0.958485 2.3622,-1.429663 1.09126,-0.661349 2.17529,-1.338503 3.1773,-2.132044 1.1737,-0.972632 2.26551,-2.034275 3.20654,-3.237862 0.94483,-1.237147 1.82224,-2.529911 2.46659,-3.953163 0.56299,-1.23624 1.07233,-2.500199 1.39187,-3.824148 0.2422,-0.986493 0.45732,-1.978887 0.67561,-2.970871 0.0112,-0.0482 0.0808,-0.129836 0.0335,-0.144613 -0.0471,-0.01474 -0.0291,0.09457 -0.0487,0.139882 -0.16068,0.371465 -0.3669,0.737233 -0.65612,1.0238 0.0283,-0.04181 0.14093,-0.144057 0.10146,-0.112538 -0.1743,0.139216 -0.19939,0.140947 0.1919,-0.104476 0.4591,-0.303535 0.93266,-0.585028 1.38727,-0.895556 0.59666,-0.381243 1.17071,-0.79611 1.71919,-1.244148 0.22054,-0.178117 1.26782,-1.123397 0.43899,-0.333007 8.12243,-6.768687 -1.44994,-18.255531 -9.57237,-11.486844 z" />
</svg>
