<svg width="200mm" height="75mm" viewBox="0 0 200 75" xmlns="http://www.w3.org/2000/svg"><path style="fill:#000;stroke-width:.264999;stroke-linejoin:bevel" d="M-1 72.4c2.2 0 5.3-.2 7.4-.1h8.9l2.2-.1h22.8l8.2-.1c9.3-.2-3.9 0 5.3 0 7 0-1.9-.1 5.1-.1h33.5l14.3-.1c4.8.1 9.6 0 14.4.2 4.3 0 8.5.2 12.8.3H138.2l8.3.3h33l1.7-.1h1.6l6.4-.1 11.8-.1c8.8 0 10-5 0-5h-11.9l-9.7.2H176l-1.7.1H169a456 456 0 0 1-22.4 0l-12.6-.3-6.3-.2h-6.5L114 67c-2.5 0-5-.2-7.4 0l-7.2-.1H78.4L64 67H48.5c-9 .2 3.5 0-5.5 0l-5.5.1H22c-1.6 0-3.1.2-4.6.1h-2.2c-3 0-6 .2-8.9 0l-7.4.2Z"/></svg>