<svg fill="#fff" width="21" height="32" xmlns="http://www.w3.org/2000/svg"><g style="fill:#fff"><path style="fill:#fff;stroke-width:.976792;stroke-linejoin:bevel" d="m-.3-.3 13.9.12L13.47 8l-2.59 4.3.26 4.78 5.52 4.31H-.29Z" transform="rotate(-90 15.91 15.9)"/><path style="fill:#fff;stroke-width:1.10163;stroke-linejoin:bevel" d="M17.66-1.93V-.2h2.45v7.17a8.73 7.8 0 0 1-2.45 14v4.1h18.16V-1.94Z" transform="rotate(-90 15.91 15.9)"/></g><path d="M0 11.82v7h6.9a7.5 7.5 0 1 0 0-7z" fill="#000" fill-opacity=".05"/><path d="M0 18.82v-3h6.9a7.5 7.5 0 0 0 14-2 7.5 7.5 0 0 1-7.4 9c-2.9 0-5.4-1.6-6.6-4z" fill="#000"/></svg>