<svg aria-label="Loading..." class="By4nA" viewBox="0 0 100 100" xmlns="http://www.w3.org/2000/svg"><path d="m97 48.7-.6-.6-.1-.1c-.2-.1 0 0-.1 0a3 3 0 0 0-2.2-1h-1.8a20.9 20.9 0 0 1-2.3-.3 32.5 32.5 0 0 0-3.2 0l-1.2.1-1-.1a5 5 0 0 1-1-.4l-1.2-.5c-.3-.2-.7-.2-1-.3h-.7l-1.1.1-.6.2a17.2 17.2 0 0 0-2.6.7l-1.1.2-1.2.2-.2.1c-.6.2-1 .5-1.5.9l-.2.2c-.3.4-.6.8-.7 1.3v.8c0 .5.2 1 .5 1.4l.5.5c.4.3.8.6 1.2.7l.6.1h.1l.7.1h4.3l.2.2.6.5.7.4.2.1c.4.2.9.2 1.3.2h.3l.4-.1a2.4 2.4 0 0 0 1.4-1.3h1.5l.8.4h.2c.5.2 1 .2 1.6.2a7.6 7.6 0 0 0 2.7-.5l.2-.1H94a3 3 0 0 0 3-2.3 2 2 0 0 0 0-2z" transform="rotate(-60 50 50)" style="fill:#f1f1f1;fill-opacity:1"/><path d="M95.4 47.4a3 3 0 0 0-.8-.3h-.1c-.4-.3-.9-.5-1.4-.6a15.6 15.6 0 0 0-2.3-.2h-1l-.9.1h-.7a23 23 0 0 1-1.9-.2h-1a29 29 0 0 0-2.7-.2l-1.2.1-1 .1h-1.9l-.4-.1H78l-.3-.2c-.2-.1.2 0 0 0-1.3-.8-2.5 0-2.8 1.1a3 3 0 0 0-2.8 2.8l-.2.8c0 .4 0 .7.2 1 0 .2.2.4.3.5 0 .1 0 .2.2.3.3.4.8.7 1.4.8l1 .2h1.9l1-.4h.2l.2.2 1.4.4h.3a3.5 3.5 0 0 0 1.7-.6H87l.7.5a3 3 0 0 0 1.8.3l1-.3.7-.4.3-.1H94c.4 0 .7 0 1-.2l1.2-.3.7-.5c.3-.3.5-.8.6-1.3v-.4l-.1-.4c-.1-.4-.4-.8-.6-1.1l-.1-.2a3 3 0 0 0-1.3-1.2z" transform="rotate(-30 50 50)" style="fill:#e3e3e3;fill-opacity:1"/><path d="M89 45.4h-1l-1.2.2-1 .2-.8.1a27.4 27.4 0 0 1-2.7.2l-1-.2a16.5 16.5 0 0 0-3 0c-.5 0-1 .3-1.5.5a227.7 227.7 0 0 0-1.5.6H75a3 3 0 0 0-.5 0c-.3-.2-.6-.3-1.1-.3-.4 0-.7.2-1 .4-.3 0-.5.3-.7.4a3 3 0 0 0-.6.8 4.5 4.5 0 0 0-.4 1.9c0 .4.1.8.3 1.1 0 .2.2.3.3.4.3.4.7.7 1.2 1l1.3.3h.7c.5.1-.1 0 .4 0h3.2l.7.3.7.3.8.3c.4.2.7.2 1 .2h.5c.4 0 .8-.3 1.2-.4h1.2a2.1 2.1 0 0 0 1.6.2c.3 0 .5-.2.7-.3l.8-.6h1.1l.5.4 1 .5.1.1c.6.2 1.3.1 1.8-.2.3-.2.4-.2.6-.5l.3-.3H94c.4 0 .8 0 1.2-.3h1.2l.2-.2c.4-.1.8-.3 1.1-.7l.2-.3.3-.4a2 2 0 0 0 0-1.3l-.5-.7c-.2-.3-.5-.4-.8-.6l-.4-.1a3 3 0 0 0-2-1.4l-.6-.4-.4-.3a34.5 34.5 0 0 0-2.2-.6l-1.1-.2-1.2-.1z" style="fill:#d4d4d4;fill-opacity:1"/><path d="M73.6 46.7a2 2 0 0 0-.9 1.4c-.6.1-1.1.5-1.4 1.2l-.2.5c0 .5 0 .9.2 1.3l.1.3c.2.4.5.7.9 1l.2.1 1 .5 1.3.4 1.3.1h1.2l1-.1h2.4a16.6 16.6 0 0 0 2.2 0 12.3 12.3 0 0 1 1.8 0h.2l.6.2 1.4.5h1.6l1.3-.2h1l.9-.2 1.3-.1h.3a8 8 0 0 0 2.4-1.1l.8-.6.6-.8.2-.6v-1.2l-.1-.3-.7-1.1-.3-.2c-.3-.3-.7-.5-1.2-.7l-1.2-.1h-1.2a7.2 7.2 0 0 1-1.6-.1l-1-.2-1.1-.3-1.3-.3h-.3l-1.2-.1-1.6.1-1.2.3-1 .2a11.4 11.4 0 0 1-2.2 0c-.4 0-.8 0-1.1-.2a31.5 31.5 0 0 0-2.4-.1l-1.2.1-.9.1h-.3l-.2.1-.4.2z" transform="rotate(30 50 50)" style="fill:#c6c6c6;fill-opacity:1"/><path d="M71.4 48.2c-.3.6-.3 1.3 0 1.9 0 .2.2.3.3.5v.3c0 .3.1.7.3 1a3 3 0 0 0 2.3 1.7l1 .2.7.1.7.2.8.1.7.2a3.8 3.8 0 0 0 2-.2l.4-.2h1l.9-.1h2l1.3-.2 1-.3h1l.7.1.8.2a21 21 0 0 0 2 .3l1-.1.2-.1 1-.3.6-.2.7-.1.2-.1a5.8 5.8 0 0 0 2-1.4c.4-.5.6-.9.7-1.4v-1.4l-.4-.5a3.5 3.5 0 0 0-2.3-1.2 3 3 0 0 0-1-.2h-1.5l-.4-.3-.8-.4H90l-.4.2-.6.3h-.1l-.4-.1a23 23 0 0 1-1.2-.5l-.9-.3-1.1-.2H85l-1 .3-.5.3a40 40 0 0 1-1.5.7h-1.6l-1-.3-1-.2a9.4 9.4 0 0 0-4.8.2c-.5.1-1 .3-1.3.6l-.3.2-.5.7zm17.3-1.4z" transform="rotate(60 50 50)" style="fill:#b8b8b8;fill-opacity:1"/><path d="m71.8 51 .1.6.5.9a4.4 4.4 0 0 0 2.4 1.6l.3.1 1.6.1 1.4-.1L80 54l1.7-.3 1.6-.2 1.4-.2a28.2 28.2 0 0 1 2.6-.1l1.3.1h5.3c.6-.1 1.1-.3 1.6-.6a3 3 0 0 0 1.2-1.3l.2-.4v-.6l.1-.4c0-1-.6-2-1.4-2.5l-.4-.3-1.6-.7-1.5-.3c-.7 0-1.4 0-2 .2-.4 0-.7.2-1 .3l-.7.1H88l-.5-.3-1.1-.4a7 7 0 0 0-3 .3l-1.2.6h-3.9a11 11 0 0 0-2-.4h-1.7l-1 .6-.9.8v.2A3 3 0 0 0 72 50l-.2 1z" transform="rotate(90 50 50)" style="fill:#aaa;fill-opacity:1"/><path d="M71.4 51.2v-.1c-.1 0 0 0 0 0v.3a4.3 4.3 0 0 0 1.4 1.2 3.8 3.8 0 0 0 1.8.6H77a32.4 32.4 0 0 0 2 .1l1 .1h2.5l.3-.2.7-.2H88a12.2 12.2 0 0 0 2 .6h1.2l1.2-.1 1-.2 1-.3h.3a3 3 0 0 0 1.1-.6l.5-.4c.3-.3.6-.7.7-1.1l.1-.4V49l-.1-.3a3 3 0 0 0-.6-.9l-.6-.4-.9-.4h-.3l-1.2-.2a23.8 23.8 0 0 0-2.1-.2h-1l-1-.1a7.6 7.6 0 0 0-2.6.3l-.6.1h-1.6l-.7-.3a8 8 0 0 0-2.3-.4h-1.3a9.2 9.2 0 0 0-2 .4 13.1 13.1 0 0 1-1.4.3H75c-1 0-2 .5-2.5 1.3-1 .3-2 1.5-1.1 3z" transform="rotate(120 50 50)" style="fill:#9c9c9c;fill-opacity:1"/><path d="M72.4 52.8c.5.3 1.1.3 1.7 0l.9.2h.6l1 .3 1 .1h4.2a28.6 28.6 0 0 1 2 .2H85c.5 0 1 0 1.6-.2l1.1-.4h3.4a63.3 63.3 0 0 0 2 .2 6 6 0 0 0 2.8-.8c.6-.3 1-.8 1.2-1.4l.2-.3v-.5c0-.6-.1-1.2-.4-1.7l-.2-.3a2.7 2.7 0 0 0-2-1 3 3 0 0 0-.8-.2h-2.7l-.9-.7a3 3 0 0 0-1.8-.5c-.6 0-1 0-1.6.2l-1.2.4-.8.2h-.2l-.2-.1-1.2-.4A6.9 6.9 0 0 0 80 46c-.5 0-1 .2-1.6.4l-1 .4h-1.6l-.9.2a3 3 0 0 0-2.7 1.6l-.6.8a3 3 0 0 0-.3 2.1c.2.7.5 1 1 1.3z" transform="rotate(150 50 50)" style="fill:#8e8e8e;fill-opacity:1"/><path style="display:inline;fill:gray;fill-opacity:1" d="M89.9 53.7h1.3l1.2-.2 1-.2.9-.2h.3l.2-.1.3-.2a3 3 0 0 0 1.7-1.8l.2-.2.1-.2.4-1.2-.1-.6-.2-.4a3 3 0 0 0-.5-.8l-.2-.1a4.1 4.1 0 0 0-2.2-1 14.8 14.8 0 0 0-2.2-.2H91a15.2 15.2 0 0 0-2.4 0h-1.2a8.7 8.7 0 0 1-2 0l-1-.1-1.3-.2H82a25.8 25.8 0 0 0-2.2.2 17.8 17.8 0 0 0-1.7.4h-3.2c-.6.1-1.1.2-1.6.5l-.3.1-.9.9-.2.3c-.2.4-.2 1-.2 1.4v.4l.5 1 .1.2.2.1A3 3 0 0 0 75 53h3.5l1 .2 1.6.1h5.4l1.2.2 1 .1 1.2.1z" transform="rotate(180 50 50)"/><path d="M95 53c.2 0 .4-.3.6-.5l.5-.3c.3-.2.6-.5.8-1l.3-1V49l-.1-.2c-.2-.5-.4-.9-.8-1.2l-.1-.1a5 5 0 0 0-3.3-1l-.9-.1h-4.5a19.1 19.1 0 0 1-1.8 0l-.8-.2-1-.2a18.1 18.1 0 0 0-2.1-.1h-3.2l-1.2.1-.8.1-1 .1a6.2 6.2 0 0 0-2.4.8 3 3 0 0 0-1.2 1.4c-.2.5-.3 1-.2 1.5l.1.5.2.5A3 3 0 0 0 75 53h.5l.4.1a12 12 0 0 0 2.7.3h1.2l1.2-.1a8.8 8.8 0 0 1 2.2.2l1.3.1 1.4.1a11.4 11.4 0 0 0 2.9-.3l1.1-.2h1.5l.5.1.8.2h1.5l.8-.4z" transform="rotate(210 50 50)" style="fill:#717171;fill-opacity:1"/><path style="display:inline;fill:#555;fill-opacity:1" d="M97 50.9c.2-.3.3-.6.3-1v-.3c0-.5-.3-1-.6-1.4l-.3-.3-.4-.3-.4-.2A3 3 0 0 0 94 47h-2.5l-.9-.5-1.3-.5-1.3-.2h-.2c-.6 0-1 .2-1.6.3l-1.1.6-.7.3h-2l-.5-.2-.9-.3-1-.4h-1.7l-1 .5-.5.3h-1.4a6 6 0 0 0-1 0h-.1c-.5 0-1 .2-1.4.4l-.4.2c-.3.2-.6.5-.8.9l-.1.3c-.2.3-.3.7-.2 1v.7c.2.5.4 1 .7 1.3l.2.3 1 1 .4.1c.4.3.9.4 1.4.5h1.8l.5-.1a5.6 5.6 0 0 1 2.2.2l1 .4 1.2.1h.7l1-.5.6-.2 1-.5h6.5l.5.3.4.1c1 .4 1.8 0 2.2-.5a3 3 0 0 0 2-1.6l.3-.4z" transform="rotate(-120 50 50)"/></svg>