<svg xmlns="http://www.w3.org/2000/svg" xml:space="preserve" width="120" height="120"><path d="m6 49-.7 1c-.6.7-2.5 1.3-2.8 2.3l-.2 1.6c-.1 1 0 2 .1 3 .3 1.6.6 3.2 1.2 4.8.8 2 1.6 3.7 3.3 5 1.5 1.4 3 2.5 5 3.1 2 .7 4.1 1.1 6.3.7a35.8 35.8 0 0 0 15-6.6 29.2 29.2 0 0 0 5.8-6.7 109.3 109.3 0 0 1 4-5.2l1-1h.2-.3c-.4 0-.7-.2-1-.5l.8.7c.5 1.2.5 2.5.7 3.7a67.2 67.2 0 0 1-.3 15 393.4 393.4 0 0 1-.9 9.2c0 1.6 0 3.2.3 4.8l1.1 4.4c.4 1.3.7 2.6.8 3.9.2 1.2.1 2.4 0 3.6l-.2 4.2a15.4 15.4 0 0 0 3.1 9.2 21.6 21.6 0 0 0 6.7 5.1l3.5 1a18 18 0 0 0 7.3.2l1.3-.3a9.1 9.1 0 0 0 5.8-8l.3-3.2c0-1 0-2.1.2-3.2 0-1 .2-2 .4-3l1-3c.5-1.2 1-2.5 1.3-3.8.3-1.5.4-2.9.2-4.4 0-1.3-.2-2.5-.5-3.8l-.7-3.4a18.3 18.3 0 0 1-.2-6.7l.6-4c.2-1.6.4-3.1.3-4.7-.1-1.5-.4-3-1-4.6l-1.2-4.2c-.2-1-.5-2.1-.6-3.2V51l-.6.5.3-.2c.2-.2.6-.1.9 0 .8 0 1.5.3 2.2.7 1 .5 2 1 2.8 1.6.9.7 1.7 1.3 2.3 2.2.7 1.1 1.5 2.2 2 3.4l2.3 3.8c1 1.3 2 2.6 3.3 3.5a14.7 14.7 0 0 0 8.4 2.8 29.3 29.3 0 0 0 9.1-1.3c1.7-.5 3.3-1 4.7-2l.8-.6c1-.7 1.6-1.7 2.3-2.7l.5-.8c.5-1 .8-2 1-3 .4-1.3.5-2.7.4-4a13 13 0 0 0-1-4 35.6 35.6 0 0 0-4-6.8 19 19 0 0 0-6-4.7l-3-1.7a19.8 19.8 0 0 1-5.5-4.3l-2.3-3-2.1-3.3a26.7 26.7 0 0 0-5.8-6.1 29.9 29.9 0 0 0-6.8-4.2 25 25 0 0 1-5.4-3.4c-.8-.7-1.6-1.4-2.2-2.3L70 8.5A10.7 10.7 0 0 0 64.2 4c-1-.4-2-.6-3-.7h-3c-1 0-2 0-3 .2a20 20 0 0 0-3.2.8 22 22 0 0 0-5.8 3.5c-.7.7-1.5 1.4-2.1 2.2a53 53 0 0 0-1.7 2L41 13.6a22.8 22.8 0 0 1-5.5 4.2 71 71 0 0 1-4.4 2.9l-2.5 1.7c-1 .6-1.8 1.3-2.6 2.1a29.5 29.5 0 0 0-4.2 5.4L20.3 33l-1.4 3.1a22.2 22.2 0 0 1-3 5l-1.6 1.5-1.7 1.1c-.8.6-1.6 1.3-2.2 2L8.8 48s-1.6-.4-2.7 1z" style="fill:#000;fill-opacity:1;stroke-width:14.1507;stroke-linejoin:bevel;-inkscape-stroke:none"/></svg>