<svg xmlns="http://www.w3.org/2000/svg" xmlns:xlink="http://www.w3.org/1999/xlink" version="1.0" viewBox="0 0 78.78 285.95"><defs><radialGradient xlink:href="#a" id="v" cx="1275.6" cy="920.53" r="22" fx="1275.6" fy="920.53" gradientTransform="matrix(-1.91465 .20148 -.54823 -5.20984 4306.59 5462.38)" gradientUnits="userSpaceOnUse"/><radialGradient xlink:href="#b" id="w" cx="1283.95" cy="921.12" r="22" fx="1283.95" fy="921.12" gradientTransform="matrix(1.548 .1826 -1.64706 13.9633 825.48 -12157.9)" gradientUnits="userSpaceOnUse"/><radialGradient xlink:href="#c" id="P" cx="1131.48" cy="528.99" r="3.68" fx="1131.48" fy="528.99" gradientTransform="matrix(-1.16766 .01872 -.00563 -.35128 2455.59 698.44)" gradientUnits="userSpaceOnUse"/><radialGradient xlink:href="#d" id="R" cx="1130.71" cy="539.78" r=".47" fx="1130.71" fy="539.78" gradientTransform="matrix(1.03354 .89538 -.75624 .87293 369.58 -943.88)" gradientUnits="userSpaceOnUse"/><radialGradient xlink:href="#d" id="S" cx="1130.71" cy="539.78" r=".47" fx="1130.71" fy="539.78" gradientTransform="matrix(1.03354 .89538 -.75624 .87293 369.58 -943.88)" gradientUnits="userSpaceOnUse"/><radialGradient xlink:href="#d" id="T" cx="1130.71" cy="539.78" r=".47" fx="1130.71" fy="539.78" gradientTransform="matrix(1.03354 .89538 -.75624 .87293 369.58 -943.88)" gradientUnits="userSpaceOnUse"/><radialGradient xlink:href="#d" id="U" cx="1130.71" cy="539.78" r=".47" fx="1130.71" fy="539.78" gradientTransform="matrix(1.03354 .89538 -.75624 .87293 369.58 -943.88)" gradientUnits="userSpaceOnUse"/><radialGradient xlink:href="#d" id="V" cx="1130.71" cy="539.78" r=".47" fx="1130.71" fy="539.78" gradientTransform="matrix(1.03354 .89538 -.75624 .87293 369.58 -943.88)" gradientUnits="userSpaceOnUse"/><radialGradient xlink:href="#d" id="W" cx="1130.71" cy="539.78" r=".47" fx="1130.71" fy="539.78" gradientTransform="matrix(1.03354 .89538 -.75624 .87293 369.58 -943.88)" gradientUnits="userSpaceOnUse"/><radialGradient xlink:href="#d" id="X" cx="1130.71" cy="539.78" r=".47" fx="1130.71" fy="539.78" gradientTransform="matrix(1.03354 .89538 -.75624 .87293 369.58 -943.88)" gradientUnits="userSpaceOnUse"/><radialGradient xlink:href="#d" id="Y" cx="1130.71" cy="539.78" r=".47" fx="1130.71" fy="539.78" gradientTransform="matrix(1.03354 .89538 -.75624 .87293 369.58 -943.88)" gradientUnits="userSpaceOnUse"/><radialGradient xlink:href="#d" id="Z" cx="1130.71" cy="539.78" r=".47" fx="1130.71" fy="539.78" gradientTransform="matrix(1.03354 .89538 -.75624 .87293 369.58 -943.88)" gradientUnits="userSpaceOnUse"/><radialGradient xlink:href="#d" id="aa" cx="1130.71" cy="539.78" r=".47" fx="1130.71" fy="539.78" gradientTransform="matrix(1.03354 .89538 -.75624 .87293 369.58 -943.88)" gradientUnits="userSpaceOnUse"/><radialGradient xlink:href="#d" id="ab" cx="1130.71" cy="539.78" r=".47" fx="1130.71" fy="539.78" gradientTransform="matrix(1.03354 .89538 -.75624 .87293 369.58 -943.88)" gradientUnits="userSpaceOnUse"/><radialGradient xlink:href="#d" id="ac" cx="1130.71" cy="539.78" r=".47" fx="1130.71" fy="539.78" gradientTransform="matrix(1.03354 .89538 -.75624 .87293 369.58 -943.88)" gradientUnits="userSpaceOnUse"/><radialGradient xlink:href="#d" id="ad" cx="1130.71" cy="539.78" r=".47" fx="1130.71" fy="539.78" gradientTransform="matrix(1.03354 .89538 -.75624 .87293 369.58 -943.88)" gradientUnits="userSpaceOnUse"/><radialGradient xlink:href="#d" id="ae" cx="1130.71" cy="539.78" r=".47" fx="1130.71" fy="539.78" gradientTransform="matrix(1.03354 .89538 -.75624 .87293 369.58 -943.88)" gradientUnits="userSpaceOnUse"/><radialGradient xlink:href="#d" id="af" cx="1130.71" cy="539.78" r=".47" fx="1130.71" fy="539.78" gradientTransform="matrix(1.03354 .89538 -.75624 .87293 369.58 -943.88)" gradientUnits="userSpaceOnUse"/><radialGradient xlink:href="#d" id="ag" cx="1130.71" cy="539.78" r=".47" fx="1130.71" fy="539.78" gradientTransform="matrix(1.03354 .89538 -.75624 .87293 369.58 -943.88)" gradientUnits="userSpaceOnUse"/><radialGradient xlink:href="#d" id="ah" cx="1130.71" cy="539.78" r=".47" fx="1130.71" fy="539.78" gradientTransform="matrix(1.03354 .89538 -.75624 .87293 369.58 -943.88)" gradientUnits="userSpaceOnUse"/><radialGradient xlink:href="#d" id="ai" cx="1130.71" cy="539.78" r=".47" fx="1130.71" fy="539.78" gradientTransform="matrix(1.03354 .89538 -.75624 .87293 369.58 -943.88)" gradientUnits="userSpaceOnUse"/><radialGradient xlink:href="#d" id="aj" cx="1130.71" cy="539.78" r=".47" fx="1130.71" fy="539.78" gradientTransform="matrix(1.03354 .89538 -.75624 .87293 369.58 -943.88)" gradientUnits="userSpaceOnUse"/><radialGradient xlink:href="#d" id="ak" cx="1130.71" cy="539.78" r=".47" fx="1130.71" fy="539.78" gradientTransform="matrix(1.03354 .89538 -.75624 .87293 369.58 -943.88)" gradientUnits="userSpaceOnUse"/><radialGradient xlink:href="#d" id="al" cx="1130.71" cy="539.78" r=".47" fx="1130.71" fy="539.78" gradientTransform="matrix(1.03354 .89538 -.75624 .87293 369.58 -943.88)" gradientUnits="userSpaceOnUse"/><radialGradient xlink:href="#d" id="am" cx="1130.71" cy="539.78" r=".47" fx="1130.71" fy="539.78" gradientTransform="matrix(1.03354 .89538 -.75624 .87293 369.58 -943.88)" gradientUnits="userSpaceOnUse"/><radialGradient xlink:href="#d" id="an" cx="1130.71" cy="539.78" r=".47" fx="1130.71" fy="539.78" gradientTransform="matrix(1.03354 .89538 -.75624 .87293 369.58 -943.88)" gradientUnits="userSpaceOnUse"/><radialGradient xlink:href="#d" id="ao" cx="1130.71" cy="539.78" r=".47" fx="1130.71" fy="539.78" gradientTransform="matrix(1.03354 .89538 -.75624 .87293 369.58 -943.88)" gradientUnits="userSpaceOnUse"/><radialGradient xlink:href="#d" id="ap" cx="1130.71" cy="539.78" r=".47" fx="1130.71" fy="539.78" gradientTransform="matrix(1.03354 .89538 -.75624 .87293 369.58 -943.88)" gradientUnits="userSpaceOnUse"/><radialGradient xlink:href="#d" id="aq" cx="1130.71" cy="539.78" r=".47" fx="1130.71" fy="539.78" gradientTransform="matrix(1.03354 .89538 -.75624 .87293 369.58 -943.88)" gradientUnits="userSpaceOnUse"/><radialGradient xlink:href="#d" id="ar" cx="1130.71" cy="539.78" r=".47" fx="1130.71" fy="539.78" gradientTransform="matrix(1.03354 .89538 -.75624 .87293 369.58 -943.88)" gradientUnits="userSpaceOnUse"/><radialGradient xlink:href="#d" id="as" cx="1130.71" cy="539.78" r=".47" fx="1130.71" fy="539.78" gradientTransform="matrix(1.03354 .89538 -.75624 .87293 369.58 -943.88)" gradientUnits="userSpaceOnUse"/><radialGradient xlink:href="#d" id="at" cx="1130.71" cy="539.78" r=".47" fx="1130.71" fy="539.78" gradientTransform="matrix(1.03354 .89538 -.75624 .87293 369.58 -943.88)" gradientUnits="userSpaceOnUse"/><radialGradient xlink:href="#d" id="au" cx="1130.71" cy="539.78" r=".47" fx="1130.71" fy="539.78" gradientTransform="matrix(1.03354 .89538 -.75624 .87293 369.58 -943.88)" gradientUnits="userSpaceOnUse"/><radialGradient xlink:href="#d" id="av" cx="1130.71" cy="539.78" r=".47" fx="1130.71" fy="539.78" gradientTransform="matrix(1.03354 .89538 -.75624 .87293 369.58 -943.88)" gradientUnits="userSpaceOnUse"/><radialGradient xlink:href="#d" id="aw" cx="1130.71" cy="539.78" r=".47" fx="1130.71" fy="539.78" gradientTransform="matrix(1.03354 .89538 -.75624 .87293 369.58 -943.88)" gradientUnits="userSpaceOnUse"/><radialGradient xlink:href="#d" id="ax" cx="1130.71" cy="539.78" r=".47" fx="1130.71" fy="539.78" gradientTransform="matrix(1.03354 .89538 -.75624 .87293 369.58 -943.88)" gradientUnits="userSpaceOnUse"/><radialGradient xlink:href="#d" id="ay" cx="1130.71" cy="539.78" r=".47" fx="1130.71" fy="539.78" gradientTransform="matrix(1.03354 .89538 -.75624 .87293 369.58 -943.88)" gradientUnits="userSpaceOnUse"/><radialGradient xlink:href="#d" id="az" cx="1130.71" cy="539.78" r=".47" fx="1130.71" fy="539.78" gradientTransform="matrix(1.03354 .89538 -.75624 .87293 369.58 -943.88)" gradientUnits="userSpaceOnUse"/><radialGradient xlink:href="#d" id="aA" cx="1130.71" cy="539.78" r=".47" fx="1130.71" fy="539.78" gradientTransform="matrix(1.03354 .89538 -.75624 .87293 369.58 -943.88)" gradientUnits="userSpaceOnUse"/><radialGradient xlink:href="#d" id="aB" cx="1130.71" cy="539.78" r=".47" fx="1130.71" fy="539.78" gradientTransform="matrix(1.03354 .89538 -.75624 .87293 369.58 -943.88)" gradientUnits="userSpaceOnUse"/><radialGradient xlink:href="#d" id="aC" cx="1130.71" cy="539.78" r=".47" fx="1130.71" fy="539.78" gradientTransform="matrix(1.03354 .89538 -.75624 .87293 369.58 -943.88)" gradientUnits="userSpaceOnUse"/><radialGradient xlink:href="#d" id="aD" cx="1130.71" cy="539.78" r=".47" fx="1130.71" fy="539.78" gradientTransform="matrix(1.03354 .89538 -.75624 .87293 369.58 -943.88)" gradientUnits="userSpaceOnUse"/><radialGradient xlink:href="#d" id="aE" cx="1130.71" cy="539.78" r=".47" fx="1130.71" fy="539.78" gradientTransform="matrix(1.03354 .89538 -.75624 .87293 369.58 -943.88)" gradientUnits="userSpaceOnUse"/><radialGradient xlink:href="#d" id="aF" cx="1130.71" cy="539.78" r=".47" fx="1130.71" fy="539.78" gradientTransform="matrix(1.03354 .89538 -.75624 .87293 369.58 -943.88)" gradientUnits="userSpaceOnUse"/><radialGradient xlink:href="#d" id="aG" cx="1130.71" cy="539.78" r=".47" fx="1130.71" fy="539.78" gradientTransform="matrix(1.03354 .89538 -.75624 .87293 369.58 -943.88)" gradientUnits="userSpaceOnUse"/><radialGradient xlink:href="#d" id="aH" cx="1130.71" cy="539.78" r=".47" fx="1130.71" fy="539.78" gradientTransform="matrix(1.03354 .89538 -.75624 .87293 369.58 -943.88)" gradientUnits="userSpaceOnUse"/><radialGradient xlink:href="#d" id="aI" cx="1130.71" cy="539.78" r=".47" fx="1130.71" fy="539.78" gradientTransform="matrix(1.03354 .89538 -.75624 .87293 369.58 -943.88)" gradientUnits="userSpaceOnUse"/><radialGradient xlink:href="#d" id="aJ" cx="1130.71" cy="539.78" r=".47" fx="1130.71" fy="539.78" gradientTransform="matrix(1.03354 .89538 -.75624 .87293 369.58 -943.88)" gradientUnits="userSpaceOnUse"/><radialGradient xlink:href="#d" id="aK" cx="1130.71" cy="539.78" r=".47" fx="1130.71" fy="539.78" gradientTransform="matrix(1.03354 .89538 -.75624 .87293 369.58 -943.88)" gradientUnits="userSpaceOnUse"/><radialGradient xlink:href="#d" id="aL" cx="1130.71" cy="539.78" r=".47" fx="1130.71" fy="539.78" gradientTransform="matrix(1.03354 .89538 -.75624 .87293 369.58 -943.88)" gradientUnits="userSpaceOnUse"/><radialGradient xlink:href="#d" id="aM" cx="1130.71" cy="539.78" r=".47" fx="1130.71" fy="539.78" gradientTransform="matrix(1.03354 .89538 -.75624 .87293 369.58 -943.88)" gradientUnits="userSpaceOnUse"/><radialGradient xlink:href="#d" id="aN" cx="1130.71" cy="539.78" r=".47" fx="1130.71" fy="539.78" gradientTransform="matrix(1.03354 .89538 -.75624 .87293 369.58 -943.88)" gradientUnits="userSpaceOnUse"/><radialGradient xlink:href="#d" id="aO" cx="1130.71" cy="539.78" r=".47" fx="1130.71" fy="539.78" gradientTransform="matrix(1.03354 .89538 -.75624 .87293 369.58 -943.88)" gradientUnits="userSpaceOnUse"/><radialGradient xlink:href="#d" id="aP" cx="1130.71" cy="539.78" r=".47" fx="1130.71" fy="539.78" gradientTransform="matrix(1.03354 .89538 -.75624 .87293 369.58 -943.88)" gradientUnits="userSpaceOnUse"/><radialGradient xlink:href="#d" id="aQ" cx="1130.71" cy="539.78" r=".47" fx="1130.71" fy="539.78" gradientTransform="matrix(1.03354 .89538 -.75624 .87293 369.58 -943.88)" gradientUnits="userSpaceOnUse"/><radialGradient xlink:href="#d" id="aR" cx="1130.71" cy="539.78" r=".47" fx="1130.71" fy="539.78" gradientTransform="matrix(1.03354 .89538 -.75624 .87293 369.58 -943.88)" gradientUnits="userSpaceOnUse"/><radialGradient xlink:href="#d" id="aS" cx="1130.71" cy="539.78" r=".47" fx="1130.71" fy="539.78" gradientTransform="matrix(1.03354 .89538 -.75624 .87293 369.58 -943.88)" gradientUnits="userSpaceOnUse"/><radialGradient xlink:href="#d" id="aT" cx="1130.71" cy="539.78" r=".47" fx="1130.71" fy="539.78" gradientTransform="matrix(1.03354 .89538 -.75624 .87293 369.58 -943.88)" gradientUnits="userSpaceOnUse"/><radialGradient xlink:href="#d" id="aU" cx="1130.71" cy="539.78" r=".47" fx="1130.71" fy="539.78" gradientTransform="matrix(1.03354 .89538 -.75624 .87293 369.58 -943.88)" gradientUnits="userSpaceOnUse"/><radialGradient xlink:href="#d" id="aV" cx="1130.71" cy="539.78" r=".47" fx="1130.71" fy="539.78" gradientTransform="matrix(1.03354 .89538 -.75624 .87293 369.58 -943.88)" gradientUnits="userSpaceOnUse"/><radialGradient xlink:href="#d" id="aW" cx="1130.71" cy="539.78" r=".47" fx="1130.71" fy="539.78" gradientTransform="matrix(1.03354 .89538 -.75624 .87293 369.58 -943.88)" gradientUnits="userSpaceOnUse"/><radialGradient xlink:href="#d" id="aX" cx="1130.71" cy="539.78" r=".47" fx="1130.71" fy="539.78" gradientTransform="matrix(1.03354 .89538 -.75624 .87293 369.58 -943.88)" gradientUnits="userSpaceOnUse"/><radialGradient xlink:href="#d" id="aY" cx="1130.71" cy="539.78" r=".47" fx="1130.71" fy="539.78" gradientTransform="matrix(1.03354 .89538 -.75624 .87293 369.58 -943.88)" gradientUnits="userSpaceOnUse"/><radialGradient xlink:href="#d" id="aZ" cx="1130.71" cy="539.78" r=".47" fx="1130.71" fy="539.78" gradientTransform="matrix(1.03354 .89538 -.75624 .87293 369.58 -943.88)" gradientUnits="userSpaceOnUse"/><radialGradient xlink:href="#d" id="ba" cx="1130.71" cy="539.78" r=".47" fx="1130.71" fy="539.78" gradientTransform="matrix(1.03354 .89538 -.75624 .87293 369.58 -943.88)" gradientUnits="userSpaceOnUse"/><radialGradient xlink:href="#d" id="bb" cx="1130.71" cy="539.78" r=".47" fx="1130.71" fy="539.78" gradientTransform="matrix(1.03354 .89538 -.75624 .87293 369.58 -943.88)" gradientUnits="userSpaceOnUse"/><radialGradient xlink:href="#d" id="bc" cx="1130.71" cy="539.78" r=".47" fx="1130.71" fy="539.78" gradientTransform="matrix(1.03354 .89538 -.75624 .87293 369.58 -943.88)" gradientUnits="userSpaceOnUse"/><radialGradient xlink:href="#e" id="be" cx="1130.71" cy="539.78" r=".47" fx="1130.71" fy="539.78" gradientTransform="matrix(1.03354 .89538 -.75624 .87293 369.58 -943.88)" gradientUnits="userSpaceOnUse"/><linearGradient id="t"><stop offset="0" stop-color="#fdefc2"/><stop offset="1" stop-color="#c3a662"/></linearGradient><linearGradient id="r"><stop offset="0" stop-color="#c4af84"/><stop offset="1" stop-color="#735728"/></linearGradient><linearGradient id="q"><stop offset="0" stop-color="#fcfdf8"/><stop offset=".63" stop-color="#f1d379"/><stop offset="1" stop-color="#4b2f12"/></linearGradient><linearGradient id="c"><stop offset="0" stop-color="#4b2f12" stop-opacity="0"/><stop offset=".45" stop-color="#f1d379" stop-opacity=".39"/><stop offset="1" stop-color="#fcfdf8"/></linearGradient><linearGradient id="p"><stop offset="0" stop-color="#fcfdf8"/><stop offset=".45" stop-color="#f1d379"/><stop offset="1" stop-color="#4b2f12"/></linearGradient><linearGradient id="d"><stop offset="0" stop-color="#fcfdf8"/><stop offset=".59" stop-color="#f1d379"/><stop offset="1" stop-color="#4b2f12"/></linearGradient><linearGradient id="s"><stop offset="0" stop-color="#deba5a"/><stop offset=".11" stop-color="#fcfdf8"/><stop offset=".21" stop-color="#f1d379"/><stop offset=".38" stop-color="#e8cd74"/><stop offset=".57" stop-color="#f8d972"/><stop offset=".61" stop-color="#c19a49"/><stop offset=".66" stop-color="#cfa84e"/><stop offset=".85" stop-color="#dcb550"/><stop offset=".9" stop-color="#b48c3e"/><stop offset=".94" stop-color="#6a491e"/><stop offset="1" stop-color="#4b2f12"/></linearGradient><linearGradient id="i"><stop offset="0" stop-color="#010006"/><stop offset=".86" stop-color="#010006"/><stop offset="1" stop-color="#fff" stop-opacity="0"/></linearGradient><linearGradient id="j"><stop offset="0" stop-color="#fff"/><stop offset="1" stop-color="#fff" stop-opacity="0"/></linearGradient><linearGradient id="k"><stop offset="0" stop-color="#fff"/><stop offset="1" stop-color="#fff" stop-opacity="0"/></linearGradient><linearGradient id="h"><stop offset="0" stop-color="#fff"/><stop offset="1" stop-opacity=".64"/></linearGradient><linearGradient id="a"><stop offset="0" stop-color="#dcad38" stop-opacity="0"/><stop offset=".16" stop-color="#fff9db" stop-opacity="0"/><stop offset=".79" stop-color="#e1b94c"/><stop offset="1" stop-color="#010101"/></linearGradient><linearGradient id="b"><stop offset="0" stop-color="#dcad38"/><stop offset=".16" stop-color="#fff9db"/><stop offset=".37" stop-color="#e1b94c" stop-opacity=".86"/><stop offset="1" stop-color="#010101" stop-opacity="0"/></linearGradient><linearGradient id="g"><stop offset="0" stop-color="#fff"/><stop offset="1" stop-color="#fff" stop-opacity="0"/></linearGradient><linearGradient id="l"><stop offset="0" stop-color="#c51f32"/><stop offset=".42" stop-color="#d62947"/><stop offset="1" stop-color="#831c20"/></linearGradient><linearGradient id="f"><stop offset="0" stop-color="#0e0e0e"/><stop offset=".13" stop-color="#161616"/><stop offset=".29" stop-color="#162413"/><stop offset=".52" stop-color="#2d431d"/><stop offset=".74" stop-color="#49740b"/><stop offset=".91" stop-color="#70ab1f"/><stop offset="1" stop-color="#99d734"/></linearGradient><linearGradient xlink:href="#f" id="u" x1="1273.36" x2="1337.77" y1="1026.61" y2="1012.83" gradientUnits="userSpaceOnUse"/><linearGradient id="e"><stop offset="0" stop-color="#fcfdf8"/><stop offset=".59" stop-color="#f1d379"/><stop offset="1" stop-color="#4b2f12"/></linearGradient><linearGradient id="o"><stop offset="0" stop-color="#deba5a"/><stop offset=".11" stop-color="#fcfdf8"/><stop offset=".21" stop-color="#f1d379"/><stop offset=".38" stop-color="#e8cd74"/><stop offset=".57" stop-color="#f8d972"/><stop offset=".61" stop-color="#c19a49"/><stop offset=".66" stop-color="#cfa84e"/><stop offset=".85" stop-color="#dcb550"/><stop offset=".9" stop-color="#b48c3e"/><stop offset=".94" stop-color="#6a491e"/><stop offset="1" stop-color="#4b2f12"/></linearGradient><linearGradient id="n"><stop offset="0" stop-color="#393e37"/><stop offset=".12" stop-color="#7c785c"/><stop offset=".21" stop-color="#38382d"/><stop offset=".32" stop-color="#2c2f28"/><stop offset=".41" stop-color="#2b2d27"/><stop offset=".52" stop-color="#1b1f19"/><stop offset=".61" stop-color="#161d19"/><stop offset=".71" stop-color="#171d19"/><stop offset=".82" stop-color="#1b1e18"/><stop offset=".91" stop-color="#181d19"/><stop offset="1" stop-color="#1b201e"/></linearGradient><linearGradient id="m"><stop offset="0" stop-color="#faf5d5"/><stop offset=".07" stop-color="#fbf5df"/><stop offset=".15" stop-color="#faf0d5"/><stop offset=".22" stop-color="#f7e8c6"/><stop offset=".31" stop-color="#f0e2c0"/><stop offset=".4" stop-color="#efe2c2"/><stop offset=".47" stop-color="#e3d4b1"/><stop offset=".55" stop-color="#ddc8a2"/><stop offset=".62" stop-color="#d6bf95"/><stop offset=".66" stop-color="#d5bd91"/><stop offset=".73" stop-color="#cfb78b"/><stop offset=".8" stop-color="#cdb589"/><stop offset=".89" stop-color="#bba377"/><stop offset="1" stop-color="#957f58"/></linearGradient><linearGradient xlink:href="#g" id="bu" x1="2559.1" x2="2563.19" y1="1675.13" y2="1228.84" gradientUnits="userSpaceOnUse"/><linearGradient xlink:href="#h" id="x" x1="1652.63" x2="1685.35" y1="1069.8" y2="1069.8" gradientUnits="userSpaceOnUse"/><linearGradient xlink:href="#h" id="z" x1="1677.57" x2="1657.48" y1="1069.8" y2="1069.8" gradientUnits="userSpaceOnUse"/><linearGradient xlink:href="#h" id="A" x1="1686.4" x2="1657.48" y1="1069.8" y2="1069.8" gradientUnits="userSpaceOnUse"/><linearGradient xlink:href="#h" id="B" x1="1720.14" x2="1657.48" y1="1069.8" y2="1069.8" gradientUnits="userSpaceOnUse"/><linearGradient xlink:href="#i" id="E" x1="2283.89" x2="2445.88" y1="1018.86" y2="987.75" gradientUnits="userSpaceOnUse"/><linearGradient xlink:href="#j" id="F" x1="2503.4" x2="2403.63" y1="1036.47" y2="918.5" gradientUnits="userSpaceOnUse"/><linearGradient xlink:href="#k" id="G" x1="2393.74" x2="2434.35" y1="1032.45" y2="885.47" gradientUnits="userSpaceOnUse"/><linearGradient xlink:href="#l" id="I" x1="2184.82" x2="2246.25" y1="804.44" y2="783.62" gradientUnits="userSpaceOnUse"/><linearGradient xlink:href="#d" id="J" x1="1120.76" x2="1144.67" y1="535.07" y2="537.58" gradientTransform="translate(-250.08 84.75)" gradientUnits="userSpaceOnUse"/><linearGradient xlink:href="#m" id="K" x1="501.93" x2="568.77" y1="451.32" y2="451.32" gradientUnits="userSpaceOnUse"/><linearGradient xlink:href="#n" id="L" x1="514.56" x2="581.41" y1="510.72" y2="510.72" gradientUnits="userSpaceOnUse"/><linearGradient xlink:href="#o" id="M" x1="502.88" x2="569.56" y1="456.97" y2="456.97" gradientUnits="userSpaceOnUse"/><linearGradient xlink:href="#d" id="N" x1="1120.76" x2="1144.67" y1="535.07" y2="537.58" gradientTransform="translate(34.08 6.5)" gradientUnits="userSpaceOnUse"/><linearGradient xlink:href="#p" id="O" x1="1130.98" x2="1130.98" y1="533.02" y2="534.06" gradientUnits="userSpaceOnUse"/><linearGradient xlink:href="#d" id="Q" x1="1129.54" x2="1129.55" y1="546.11" y2="546.97" gradientUnits="userSpaceOnUse"/><linearGradient xlink:href="#q" id="bd" x1="1034.72" x2="1070.26" y1="509.52" y2="509.52" gradientUnits="userSpaceOnUse"/><linearGradient xlink:href="#r" id="bg" x1="1108.4" x2="1146.34" y1="529.85" y2="529.41" gradientUnits="userSpaceOnUse"/><linearGradient xlink:href="#r" id="bh" x1="1108.4" x2="1146.34" y1="529.85" y2="529.41" gradientUnits="userSpaceOnUse"/><linearGradient xlink:href="#r" id="bi" x1="1108.4" x2="1146.34" y1="529.85" y2="529.41" gradientUnits="userSpaceOnUse"/><linearGradient xlink:href="#r" id="bj" x1="1108.4" x2="1146.34" y1="529.85" y2="529.41" gradientUnits="userSpaceOnUse"/><linearGradient xlink:href="#r" id="bk" x1="1108.4" x2="1146.34" y1="529.85" y2="529.41" gradientUnits="userSpaceOnUse"/><linearGradient xlink:href="#r" id="bl" x1="1108.4" x2="1146.34" y1="529.85" y2="529.41" gradientUnits="userSpaceOnUse"/><linearGradient xlink:href="#r" id="bm" x1="1108.4" x2="1146.34" y1="529.85" y2="529.41" gradientUnits="userSpaceOnUse"/><linearGradient xlink:href="#r" id="bn" x1="1108.4" x2="1146.34" y1="529.85" y2="529.41" gradientUnits="userSpaceOnUse"/><linearGradient xlink:href="#r" id="bo" x1="1108.4" x2="1146.34" y1="529.85" y2="529.41" gradientUnits="userSpaceOnUse"/><linearGradient xlink:href="#r" id="bf" x1="1108.4" x2="1146.34" y1="529.85" y2="529.41" gradientUnits="userSpaceOnUse"/><linearGradient xlink:href="#r" id="bp" x1="1051.21" x2="1134.8" y1="537.73" y2="537.73" gradientUnits="userSpaceOnUse"/><linearGradient xlink:href="#r" id="bq" x1="1035.02" x2="1127.13" y1="537.73" y2="537.73" gradientUnits="userSpaceOnUse"/><linearGradient xlink:href="#r" id="br" x1="1049.33" x2="1140.46" y1="537.73" y2="537.73" gradientUnits="userSpaceOnUse"/><linearGradient xlink:href="#s" id="bs" x1="1124.47" x2="1143.45" y1="562.07" y2="559.83" gradientUnits="userSpaceOnUse"/><linearGradient xlink:href="#t" id="bt" x1="1132.28" x2="1135.19" y1="560.3" y2="562.72" gradientUnits="userSpaceOnUse"/><filter id="y" width="1.18" height="1.86" x="-.09" y="-.43"><feGaussianBlur stdDeviation="1.76"/></filter><filter id="H" width="1.07" height="1.07" x="-.04" y="-.04"><feGaussianBlur stdDeviation=".97"/></filter><filter id="bv" width="1.34" height="1.04" x="-.17" y="-.02"><feGaussianBlur stdDeviation="3.62"/></filter><filter id="D" width="1.12" height="1.06" x="-.06" y="-.03"><feGaussianBlur stdDeviation=".86"/></filter><clipPath id="C" clipPathUnits="userSpaceOnUse"><path fill="url(#u) #000" d="M1311.39 869.85c-8.66.05-12.46 2.82-13 4.54a13.18 13.18 0 0 0-.63 5c.16 1.4.58 1.92.57 3.46-.02 1.55-.11 10.3-.2 11.94-.07 1.65-.95 2.87-.87 5 .1 2.13 1.5 3.49 1.47 7.35 1.25 64.99-25.43 87.42-24.9 137.87l-.47 84c-.04 20.1 32.18 18.22 37.97 18.22h.28c5.78 0 38 1.88 37.97-18.22l-.47-84c.52-50.45-26.15-72.88-24.9-137.87-.03-3.86 1.37-5.22 1.46-7.35.09-2.13-.8-3.35-.88-5a816.3 816.3 0 0 1-.21-11.94c-.02-1.54.4-2.06.56-3.46.16-1.41-.05-3.28-.6-5-.53-1.72-4.34-4.54-13-4.54h-.15z" color="#000" overflow="visible" style="marker:none" transform="translate(-1.8 -2.32)"/></clipPath></defs><g transform="translate(-392.64 -264.01)"><path fill="url(#v)" d="M1311.73 869.2c-8.66.05-12.47 2.82-13 4.54-.55 1.72-.79 3.6-.63 5 .16 1.4.58 1.92.56 3.47-.01 1.54-.1 10.28-.18 11.93-.08 1.65-.97 2.87-.88 5 .09 2.14 1.5 3.49 1.47 7.35.52 27.3-3.88 47.08-9.13 64.6l8.41 6.83 31.34-1.09 4.25-4.78c-5.37-17.75-9.93-37.76-9.4-65.56-.03-3.86 1.38-5.21 1.47-7.35.08-2.13-.8-3.35-.88-5-.08-1.65-.2-10.39-.22-11.93-.01-1.55.4-2.07.57-3.47.15-1.4-.06-3.28-.6-5-.54-1.72-4.34-4.53-13-4.53z" overflow="visible" style="marker:none" transform="translate(-879.22 -605.19)"/><path fill="url(#w)" d="M1311.73 869.2c-8.66.05-12.47 2.82-13 4.54-.55 1.72-.79 3.6-.63 5 .16 1.4.58 1.92.56 3.47-.01 1.54-.1 10.28-.18 11.93-.08 1.65-.97 2.87-.88 5 .09 2.14 1.5 3.49 1.47 7.35.52 27.3-3.88 47.08-9.13 64.6l8.41 6.83 31.34-1.09 4.25-4.78c-5.37-17.75-9.93-37.76-9.4-65.56-.03-3.86 1.38-5.21 1.47-7.35.08-2.13-.8-3.35-.88-5-.08-1.65-.2-10.39-.22-11.93-.01-1.55.4-2.07.57-3.47.15-1.4-.06-3.28-.6-5-.54-1.72-4.34-4.53-13-4.53z" overflow="visible" style="marker:none" transform="translate(-879.22 -605.19)"/><rect width="47.38" height="9.89" x="1656.86" y="1064.86" fill="url(#x)" filter="url(#y)" opacity=".25" overflow="visible" ry="3.64" style="marker:none" transform="matrix(-.53974 0 0 .40634 1339.33 -157.83)"/><rect width="47.38" height="9.89" x="1656.86" y="1064.86" fill="url(#z)" filter="url(#y)" opacity=".46" overflow="visible" ry="3.64" style="marker:none" transform="matrix(-.53974 0 0 .30769 1339.33 -60.27)"/><rect width="47.38" height="9.89" x="1656.86" y="1064.86" fill="url(#A)" filter="url(#y)" opacity=".46" overflow="visible" ry="3.64" style="marker:none" transform="matrix(-.53974 0 0 .36935 1339.33 -104.72)"/><rect width="47.38" height="9.89" x="1656.86" y="1064.86" fill="url(#B)" filter="url(#y)" opacity=".3" overflow="visible" ry="3.64" style="marker:none" transform="matrix(.53974 0 0 .40634 -474.77 -136.34)"/></g><path stroke="#000" stroke-width=".44" d="M-457.24 734.62v-11.29h3.41l2.05 7.7 2.03-7.7h3.41v11.29h-2.11v-8.89l-2.24 8.89h-2.2l-2.23-8.89v8.89zm23.36 0h-2.48l-.98-2.57h-4.52l-.93 2.57h-2.41l4.4-11.29h2.4zm-4.2-4.47-1.55-4.18-1.52 4.18zm7.96 4.47v-9.38h-3.35v-1.9h8.97v1.9h-3.34v9.38zm7.1 0v-11.29h2.28v4.44h4.47v-4.44h2.28v11.29h-2.28v-4.94h-4.47v4.94zm11.32 0v-11.29h2.28v11.29zm4.44 0v-11.29h8.37v1.91h-6.09v2.5h5.67v1.9h-5.67v3.08h6.3v1.9z" font-family="Arial" font-size=".81" font-weight="700" opacity=".86" overflow="visible" style="line-height:100%;-inkscape-font-specification:'Arial Bold';text-align:center;marker:none" text-anchor="middle" transform="matrix(0 -1.11455 .89722 0 -613.95 -413.64)"/><path d="m834.74 286.47-6.67.26-1.66 6.46-2.3-6.26-6.66.41 5.24-4.12-2.45-6.2 5.55 3.7 5.14-4.24-1.82 6.42z" opacity=".86" overflow="visible" style="marker:none" transform="matrix(.59828 -.0323 -.0323 -.59828 -445.41 217.7)"/><path fill="none" stroke="#161616" stroke-width="5" d="M1286.04 979.62c-6.46 20.06-12.93 38.06-12.67 63.05 0 .09.02-2.21 0 .01l-.47 84c-.01 4.66 1.8 7.88 4.64 10.3 2.87 2.45 6.84 4.07 11.11 5.06 8.53 1.99 17.83 1.53 20.88 1.53h.28c3.05 0 12.36.46 20.88-1.53 4.27-.99 8.25-2.61 11.11-5.05 2.85-2.43 4.65-5.65 4.64-10.3l-.47-84v-.02c.27-25-6.2-43-12.66-63.05z" clip-path="url(#C)" filter="url(#D)" overflow="visible" style="marker:none" transform="translate(-1269.71 -867.22)"/><path fill="url(#E)" stroke="url(#F)" stroke-width=".52" d="M2320.13 834.9c58.37 37.85 100.64 89.75 125.5 156.85l-34.02 30.3c-35.04-67.15-52.18-86.28-108.1-131.1z" overflow="visible" style="marker:none" transform="matrix(-.38567 0 0 .38567 953.64 -230.88)"/><path fill="#fbe37f" d="m2303.78 889.14-1.01 3.25c55.86 44.77 73.27 64.5 108.28 131.59l2.26-2.02c-35.07-67.2-53.56-87.97-109.53-132.82z" font-family="Bitstream Vera Sans" font-weight="400" overflow="visible" style="line-height:normal;text-indent:0;text-align:start;text-decoration-line:none;text-transform:none;marker:none" transform="matrix(-.38567 0 0 .38567 953.13 -231.86)"/><path fill="#fbe37f" d="M2584.64 1267.75a267.1 267.1 0 0 1 31.34 23.71l1.22-1.66c-8.89-7.83-19.43-15.7-31.97-24z" font-family="Bitstream Vera Sans" font-weight="400" overflow="visible" style="line-height:normal;text-indent:0;text-align:start;text-decoration-line:none;text-transform:none;marker:none" transform="matrix(-.38567 0 0 .38567 1056.16 -395.93)"/><path fill="#010006" stroke="url(#G)" stroke-width=".52" d="M2319.94 834.8c58.37 37.86 100.83 89.85 125.69 156.95l-34.02 30.3c-35.04-67.15-52.43-86.27-108.35-131.08z" overflow="visible" style="marker:none" transform="translate(-873.7 -230.88) scale(.38567)"/><path fill="#fbe37f" d="m2303.35 889.14-.95 3.3c55.86 44.78 73.64 64.45 108.65 131.54l2.26-2.02c-35.07-67.2-54-87.97-109.96-132.82z" font-family="Bitstream Vera Sans" font-weight="400" overflow="visible" style="line-height:normal;text-indent:0;text-align:start;text-decoration-line:none;text-transform:none;marker:none" transform="translate(-873.21 -231.86) scale(.38567)"/><path fill="#fbe37f" d="m2300.68 886.45-.86 2.9c55.88 44.76 77.7 66.6 111.41 134.76l2.24-2c-34.16-67.95-56.8-90.82-112.79-135.66z" font-family="Bitstream Vera Sans" font-weight="400" overflow="visible" style="line-height:normal;text-indent:0;text-align:start;text-decoration-line:none;text-transform:none;marker:none" transform="translate(-871.33 -233.65) scale(.38567)"/><path fill="#fbe37f" d="M2584.5 1267.38a269.62 269.62 0 0 1 31.48 24.08l1.22-1.66a294.47 294.47 0 0 0-32.13-24.34z" font-family="Bitstream Vera Sans" font-weight="400" overflow="visible" style="line-height:normal;text-indent:0;text-align:start;text-decoration-line:none;text-transform:none;marker:none" transform="translate(-976.25 -395.93) scale(.38567)"/><path d="M2246.83 849.8c-3.48 3.23-4.33 1.96-8.8 3.57-6 2.16-5.75 3.66-12.13 3.98-4.74.23-4.58-1.29-9.03-2.93-6-2.2-6.76-.9-11.85-4.75-3.78-2.87-2.68-3.93-5.04-8.05-3.17-5.54-4.6-5.03-6.02-11.26-1.05-4.62.47-4.73 1.31-9.4 1.13-6.28-.29-6.81 2.63-12.5 2.16-4.21 3.4-3.31 7.05-6.35 4.9-4.09 4.16-5.4 10.04-7.89 4.37-1.84 4.74-.35 9.48-.33 6.39.02 6.67-1.47 12.77.41 4.53 1.4 3.85 2.77 7.48 5.84 4.88 4.12 6.05 3.15 9.5 8.52 2.58 3.98 1.18 4.6 2 9.28 1.08 6.29 2.6 6.3 1.8 12.64-.6 4.7-2.06 4.28-4.45 8.38-3.21 5.52-2.06 6.5-6.74 10.85z" filter="url(#H)" overflow="visible" style="marker:none" transform="matrix(.38354 .1289 -.12995 .38042 -706.62 -495.63)"/><g transform="translate(-498.98 -538.91)"><path fill="url(#I)" d="M2246.83 849.8c-3.48 3.23-4.33 1.96-8.8 3.57-6 2.16-5.75 3.66-12.13 3.98-4.74.23-4.58-1.29-9.03-2.93-6-2.2-6.76-.9-11.85-4.75-3.78-2.87-2.68-3.93-5.04-8.05-3.17-5.54-4.6-5.03-6.02-11.26-1.05-4.62.47-4.73 1.31-9.4 1.13-6.28-.29-6.81 2.63-12.5 2.16-4.21 3.4-3.31 7.05-6.35 4.9-4.09 4.16-5.4 10.04-7.89 4.37-1.84 4.74-.35 9.48-.33 6.39.02 6.67-1.47 12.77.41 4.53 1.4 3.85 2.77 7.48 5.84 4.88 4.12 6.05 3.15 9.5 8.52 2.58 3.98 1.18 4.6 2 9.28 1.08 6.29 2.6 6.3 1.8 12.64-.6 4.7-2.06 4.28-4.45 8.38-3.21 5.52-2.06 6.5-6.74 10.85z" overflow="visible" style="marker:none" transform="matrix(.38354 .1289 -.12995 .38042 -207.77 43.45)"/><path fill="none" stroke="#000" stroke-width=".15" d="M2554.91 1276.37c-.3.32-1.53-1.5-1.83-1.18-.3.32 1.52 1.51 1.21 1.82-.3.31-1.47-1.55-1.78-1.24-.31.3 1.46 1.57 1.14 1.86-.32.3-1.4-1.6-1.73-1.32-.33.3 1.4 1.63 1.06 1.92-.33.28-1.33-1.67-1.67-1.4-.34.28 1.32 1.7.98 1.96-.34.27-1.26-1.72-1.61-1.46-.35.26 1.25 1.74.9 2-.36.25-1.2-1.78-1.56-1.53-.36.24 1.18 1.79.82 2.03-.37.24-1.12-1.82-1.49-1.6-.37.24 1.1 1.85.73 2.07-.38.23-1.04-1.86-1.42-1.65-.38.22 1.03 1.88.64 2.1-.38.2-.96-1.92-1.35-1.72-.38.2.95 1.93.56 2.12-.4.2-.88-1.95-1.28-1.76-.4.18.87 1.96.47 2.14-.4.17-.8-1.99-1.2-1.82-.4.16.78 2 .37 2.16-.4.15-.71-2.02-1.12-1.87-.41.15.7 2.03.28 2.17-.41.14-.63-2.04-1.04-1.91-.42.13.6 2.06.19 2.18-.42.12-.54-2.07-.96-1.95-.43.11.52 2.08.1 2.18-.43.11-.46-2.08-.88-1.99-.43.1.43 2.1 0 2.2-.42.08-.36-2.11-.79-2.04-.43.08.35 2.12-.08 2.2-.43.06-.28-2.13-.71-2.07-.44.06.26 2.13-.18 2.19-.43.05-.19-2.13-.62-2.09-.44.04.17 2.14-.27 2.17-.43.04-.1-2.13-.53-2.1-.44.02.08 2.14-.36 2.15-.43.02-.01-2.14-.45-2.13-.43.01 0 2.15-.44 2.14-.44 0 .08-2.13-.36-2.14-.44-.02-.1 2.14-.54 2.12-.43-.02.17-2.13-.26-2.16-.44-.03-.2 2.13-.63 2.1-.43-.04.26-2.13-.17-2.17-.44-.05-.28 2.12-.72 2.07-.43-.06.35-2.11-.08-2.18-.43-.07-.37 2.11-.8 2.04-.43-.08.44-2.1.01-2.18-.43-.08-.45 2.1-.88 2-.43-.09.52-2.07.1-2.17-.43-.1-.55 2.07-.97 1.96-.42-.1.6-2.05.19-2.17-.42-.12-.63 2.06-1.05 1.93-.41-.13.7-2.03.28-2.16-.41-.14-.71 2.02-1.13 1.87-.4-.14.78-1.99.37-2.14-.4-.16-.8 1.99-1.2 1.83-.4-.17.86-1.96.46-2.13-.4-.17-.88 1.95-1.28 1.77-.4-.18.94-1.92.55-2.1-.4-.2-.97 1.91-1.36 1.72-.39-.2 1.02-1.88.64-2.09-.39-.2-1.04 1.88-1.43 1.67-.38-.22 1.1-1.84.73-2.06-.38-.22-1.12 1.83-1.5 1.6-.37-.22 1.18-1.78.81-2.02-.37-.23-1.2 1.78-1.56 1.54-.36-.24 1.25-1.73.9-1.99-.36-.25-1.27 1.73-1.63 1.47-.35-.25 1.32-1.68.98-1.94-.35-.27-1.34 1.67-1.68 1.4-.34-.27 1.38-1.63 1.05-1.9-.33-.29-1.4 1.61-1.74 1.32-.33-.28 1.46-1.56 1.14-1.85-.33-.3-1.48 1.55-1.8 1.25-.31-.3 1.52-1.5 1.21-1.8-.3-.32-1.54 1.49-1.84 1.17-.3-.31 1.58-1.44 1.28-1.76-.3-.32-1.6 1.43-1.89 1.1-.29-.32 1.64-1.36 1.36-1.7-.28-.33-1.66 1.36-1.94 1.02-.27-.33 1.7-1.3 1.43-1.64-.27-.34-1.71 1.29-1.98.94-.26-.35 1.75-1.23 1.5-1.58-.26-.36-1.77 1.21-2.02.85-.24-.36 1.8-1.15 1.56-1.52-.24-.36-1.81 1.15-2.04.78-.24-.37 1.84-1.08 1.62-1.46-.23-.37-1.87 1.07-2.08.69-.22-.38 1.89-1 1.68-1.38-.2-.39-1.9.98-2.1.6-.2-.4 1.92-.93 1.73-1.32-.19-.4-1.94.9-2.13.5-.18-.39 1.97-.83 1.8-1.23-.18-.4-1.99.82-2.15.42-.17-.4 2-.76 1.84-1.16-.16-.41-2.02.74-2.17.33-.15-.41 2.03-.67 1.9-1.09-.15-.41-2.05.66-2.18.24-.14-.42 2.05-.58 1.93-1-.13-.42-2.07.57-2.19.14-.11-.42 2.08-.5 1.98-.92-.1-.42-2.1.48-2.2.06-.09-.43 2.1-.41 2.02-.84-.09-.43-2.11.4-2.2-.04-.07-.43 2.12-.32 2.05-.75-.07-.43-2.12.3-2.18-.13-.06-.43 2.12-.24 2.07-.67-.05-.43-2.14.22-2.18-.22-.04-.43 2.13-.14 2.1-.58-.03-.43-2.14.13-2.17-.3-.02-.44 2.14-.06 2.12-.5-.01-.44-2.14.04-2.15-.4 0-.44 2.14.03 2.14-.4 0-.44-2.14-.06-2.13-.5.01-.43 2.13.13 2.15-.3.03-.44-2.14-.15-2.1-.59.02-.43 2.12.21 2.16-.22.04-.43-2.13-.23-2.08-.67.04-.43 2.11.3 2.17-.13.06-.43-2.12-.32-2.06-.75.07-.43 2.1.39 2.18-.04.08-.43-2.1-.41-2.02-.84.08-.43 2.08.48 2.18.05.09-.43-2.09-.5-1.99-.93.1-.42 2.06.57 2.17.15.12-.42-2.06-.59-1.94-1 .12-.43 2.04.64 2.17.23.13-.42-2.04-.68-1.9-1.1.13-.4 2 .74 2.15.33.15-.4-2-.75-1.85-1.16.15-.41 1.97.81 2.13.41.17-.4-1.97-.84-1.8-1.24.17-.4 1.94.9 2.12.5.18-.4-1.94-.92-1.75-1.32.19-.39 1.9.99 2.1.6.2-.4-1.9-1-1.7-1.4.2-.38 1.86 1.07 2.07.69.22-.39-1.85-1.08-1.63-1.46.22-.38 1.81 1.13 2.04.76.23-.37-1.8-1.15-1.57-1.52.23-.37 1.76 1.2 2 .85.25-.37-1.75-1.24-1.5-1.6.25-.35 1.7 1.29 1.97.94.26-.35-1.7-1.3-1.44-1.65.27-.35 1.65 1.35 1.93 1.01.27-.34-1.65-1.37-1.37-1.7.28-.34 1.6 1.41 1.88 1.09.3-.33-1.59-1.45-1.3-1.77.3-.32 1.54 1.49 1.84 1.17.3-.31-1.52-1.5-1.21-1.82.3-.3 1.47 1.55 1.78 1.25.31-.3-1.46-1.57-1.14-1.87.32-.3 1.4 1.61 1.73 1.33.33-.3-1.4-1.64-1.06-1.92.33-.28 1.33 1.67 1.67 1.4.34-.28-1.32-1.7-.98-1.96.34-.27 1.26 1.72 1.61 1.46.35-.26-1.25-1.74-.9-2 .36-.25 1.2 1.78 1.56 1.53.36-.25-1.18-1.8-.82-2.03.37-.24 1.12 1.82 1.49 1.59.37-.23-1.1-1.84-.73-2.07.38-.22 1.04 1.87 1.42 1.66.38-.22-1.03-1.89-.64-2.1.38-.2.96 1.91 1.35 1.71.38-.2-.95-1.92-.56-2.11.4-.2.88 1.94 1.28 1.76.4-.18-.87-1.96-.47-2.14.4-.17.8 1.98 1.2 1.82.4-.17-.78-2-.37-2.16.4-.16.71 2.02 1.12 1.87.41-.15-.7-2.03-.28-2.17.41-.14.63 2.04 1.04 1.9.42-.12-.6-2.05-.19-2.17.42-.13.54 2.06.96 1.95.43-.11-.52-2.08-.1-2.19.43-.1.46 2.1.88 2 .43-.1-.43-2.1 0-2.2.42-.08.36 2.11.79 2.03.43-.08-.35-2.11.08-2.19.43-.07.28 2.12.71 2.06.44-.06-.26-2.13.18-2.18.43-.05.19 2.13.62 2.09.44-.05-.17-2.14.27-2.18.43-.03.1 2.14.53 2.11.44-.02-.08-2.14.36-2.15.43-.02 0 2.13.45 2.13.43-.01 0-2.15.44-2.15s-.08 2.14.36 2.15c.44.01.1-2.14.54-2.12.43.02-.17 2.13.26 2.16.44.03.2-2.14.63-2.1.43.04-.26 2.12.17 2.17.44.05.28-2.13.72-2.07.43.06-.35 2.11.08 2.18.43.06.37-2.12.8-2.04.43.07-.44 2.1-.01 2.18.43.08.45-2.1.88-2 .43.09-.52 2.07-.1 2.17.43.1.55-2.08.97-1.97.42.11-.6 2.05-.19 2.17.42.12.63-2.05 1.05-1.92.41.13-.7 2.02-.28 2.16.41.14.71-2.02 1.13-1.88.4.15-.78 2-.37 2.15.4.15.8-2 1.2-1.83.4.16-.86 1.96-.46 2.13.4.17.88-1.96 1.28-1.78.4.18-.94 1.92-.55 2.11.4.19.97-1.92 1.36-1.72.39.2-1.02 1.88-.64 2.08.39.2 1.04-1.87 1.43-1.66.38.21-1.1 1.83-.73 2.05.38.23 1.12-1.83 1.5-1.6.37.23-1.18 1.79-.81 2.02.37.24 1.2-1.78 1.56-1.53.36.24-1.25 1.73-.9 1.98.36.26 1.27-1.73 1.63-1.47.35.26-1.32 1.68-.98 1.95.35.27 1.34-1.68 1.68-1.4.34.27-1.38 1.62-1.05 1.9.33.28 1.4-1.62 1.74-1.33.33.29-1.46 1.57-1.14 1.86.33.3 1.48-1.56 1.8-1.25.31.3-1.52 1.5-1.21 1.8.3.31 1.54-1.49 1.84-1.17.3.3-1.58 1.43-1.28 1.75.3.32 1.6-1.43 1.89-1.1.29.33-1.64 1.37-1.36 1.7.28.34 1.66-1.36 1.94-1.02.27.34-1.7 1.3-1.43 1.65.27.34 1.71-1.3 1.98-.94.26.35-1.75 1.22-1.5 1.58.26.36 1.77-1.22 2.02-.86.24.36-1.8 1.16-1.56 1.52.24.37 1.81-1.14 2.04-.77.24.37-1.84 1.08-1.62 1.45.23.38 1.87-1.06 2.08-.68.22.38-1.89 1-1.68 1.38.2.39 1.9-.98 2.1-.6.2.4-1.92.92-1.73 1.32.19.39 1.94-.9 2.13-.51.18.4-1.97.84-1.8 1.24.18.4 1.99-.83 2.15-.42.17.4-2 .75-1.84 1.16.16.4 2.02-.74 2.17-.33.15.41-2.03.67-1.9 1.08.15.42 2.05-.65 2.18-.23.14.41-2.05.58-1.93 1 .13.42 2.07-.57 2.19-.15.11.42-2.08.5-1.98.92.1.43 2.1-.48 2.2-.05.09.43-2.1.41-2.02.84.09.43 2.11-.4 2.2.04.07.43-2.12.32-2.05.75.07.43 2.12-.3 2.18.13.06.43-2.12.23-2.07.67.05.43 2.14-.22 2.18.22.04.43-2.13.14-2.1.57.03.44 2.14-.12 2.17.32.02.43-2.14.05-2.12.49.01.43 2.14-.04 2.15.4 0 .44-2.14-.03-2.14.4 0 .44 2.14.06 2.13.5-.01.43-2.13-.13-2.15.3-.03.44 2.14.15 2.1.59-.02.43-2.12-.22-2.16.22-.04.43 2.13.23 2.08.67-.04.43-2.11-.3-2.17.13-.06.43 2.12.32 2.06.75-.07.43-2.1-.39-2.18.04-.08.43 2.1.41 2.02.84-.08.43-2.08-.48-2.18-.05-.09.43 2.09.5 1.99.92-.1.43-2.06-.56-2.17-.14-.12.42 2.06.59 1.94 1-.12.43-2.04-.64-2.17-.23-.13.42 2.04.67 1.9 1.09-.13.41-2-.73-2.15-.32-.15.4 2 .75 1.85 1.16-.15.4-1.97-.82-2.13-.41-.17.4 1.97.84 1.8 1.24-.17.4-1.94-.9-2.12-.5-.18.4 1.94.92 1.75 1.31-.19.4-1.9-.98-2.1-.59-.2.4 1.9 1 1.7 1.4-.2.38-1.86-1.07-2.07-.69-.22.38 1.85 1.08 1.63 1.46-.22.38-1.81-1.14-2.04-.77-.23.38 1.8 1.16 1.57 1.53-.23.37-1.76-1.21-2-.85-.25.36 1.75 1.23 1.5 1.6-.25.35-1.7-1.3-1.97-.94-.26.35 1.7 1.3 1.44 1.65-.27.35-1.65-1.35-1.93-1.01-.27.34 1.65 1.37 1.37 1.7-.28.34-1.6-1.42-1.88-1.09-.3.33 1.59 1.44 1.3 1.77z" overflow="visible" style="marker:none" transform="translate(-742.07 7.35) scale(.50445)"/><circle cx="2636.87" cy="1307.53" r="12.31" fill="#871629" overflow="visible" style="marker:none" transform="translate(-704.62 27.37) scale(.47156)"/><g transform="translate(-34.02 -2.36)"><circle cx="2527.59" cy="1293.8" r="21.93" fill="none" overflow="visible" style="marker:none" transform="rotate(91 727.98 366.8) scale(.39964)"/><circle cx="2527.59" cy="1293.8" r="21.93" fill="none" overflow="visible" style="marker:none" transform="translate(-234.76 232.9) scale(.31951)"/><g style="line-height:100%;text-align:center;marker:none" text-anchor="middle"><path d="M573.62 653.3v1.7h-.35l-.4-1.2-.08-.26c-.01.07-.05.16-.09.28l-.41 1.18h-.3v-1.7h.22v1.42l.5-1.42h.2l.49 1.45v-1.45zm-1.81-.03-1.07 1.48-.23-.06-.24-1.83.25.07.06.55.69.18.3-.45zm-.65.55-.56-.15.05.5.03.38c.04-.1.1-.2.17-.3zm-1.44-1.25-.69 1.33.5.26-.1.18-1.2-.62.1-.18.5.26.69-1.33zm-.9-.5-1.1 1.3-.17-.15.45-.53-.68-.57-.45.53-.17-.14 1.1-1.3.17.14-.52.62.68.57.52-.61zm-1.28-1.19-1.3 1.1-.15-.18 1.3-1.1zm-.41-.48-1.46.88-.63-1.06.17-.1.52.86.44-.27-.48-.8.17-.1.48.8.5-.3-.53-.9.17-.1zm-1.41-2.88a.61.61 0 0 1 .33.43c.04.17.01.31-.08.44a.48.48 0 0 1-.29.19c-.1.02-.2 0-.3-.04a.85.85 0 0 1-.28-.25.93.93 0 0 1-.18.2.35.35 0 0 1-.43.01.42.42 0 0 1-.18-.27.4.4 0 0 1 .05-.3.34.34 0 0 1 .22-.17c.16-.03.32.04.48.23l.31-.38a.96.96 0 0 0-.25-.03v-.22c.16 0 .29.02.4.07.08-.1.14-.2.2-.32l.18.1c-.03.1-.1.2-.17.3zm-.77.6a.56.56 0 0 0-.18-.14.24.24 0 0 0-.13 0 .2.2 0 0 0-.13.08.19.19 0 0 0-.03.14c.02.06.04.1.09.13.04.03.09.04.14.02a.2.2 0 0 0 .08-.03.44.44 0 0 0 .07-.08zm.64-.44-.38.48c.09.1.17.15.23.18a.3.3 0 0 0 .18.02.36.36 0 0 0 .2-.12.27.27 0 0 0 .05-.26.47.47 0 0 0-.28-.3zm-.25-2.78.08-.22c.18.07.31.17.4.3a.7.7 0 0 1 .09.47.8.8 0 0 1-.16.43.7.7 0 0 1-.35.22 1.16 1.16 0 0 1-.92-.11.7.7 0 0 1-.26-.32.84.84 0 0 1-.06-.42.7.7 0 0 1 .18-.42c.1-.1.23-.17.39-.2l.03.23a.53.53 0 0 0-.3.14.46.46 0 0 0-.1.27c-.02.13 0 .24.05.34.05.1.13.16.23.21a1.05 1.05 0 0 0 .7.07c.11-.03.2-.09.26-.17.07-.08.1-.17.12-.28a.48.48 0 0 0-.08-.33.56.56 0 0 0-.3-.2zm.71-.42-1.61-.55.07-.21 1.42.48.27-.79.2.07zm.35-1.09-1.12-1.44.13-.2 1.82.27-.13.22-.55-.1-.36.62.34.42zm-.34-.78.3-.5-.5-.09a4.66 4.66 0 0 1-.36-.07c.08.07.16.15.23.24zm.86-2.71.15-.17.7.69c.13.12.21.23.26.32.04.1.05.21.03.33a.74.74 0 0 1-.21.35.82.82 0 0 1-.34.22.47.47 0 0 1-.32-.01c-.1-.04-.22-.13-.35-.25l-.7-.7.16-.15.7.68c.1.1.2.17.26.2.07.03.14.04.22.01a.5.5 0 0 0 .2-.13c.12-.12.18-.23.18-.33s-.09-.23-.24-.38zm1.67.78-.9-1.45.5-.3c.12-.07.2-.12.28-.14a.5.5 0 0 1 .27-.03.7.7 0 0 1 .33.14 1 1 0 0 1 .26.31c.07.11.12.22.15.32l.03.27c0 .08-.02.15-.05.21a.63.63 0 0 1-.13.18 1.4 1.4 0 0 1-.22.17zm.09-.29.3-.19a.8.8 0 0 0 .21-.16c.05-.06.07-.1.09-.16a.54.54 0 0 0-.01-.25.98.98 0 0 0-.13-.3.8.8 0 0 0-.3-.3.44.44 0 0 0-.28-.06.88.88 0 0 0-.26.13l-.3.19zm1.44-.56-.63-1.58.2-.08.64 1.58zm.58-.24-.36-1.67.22-.05 1.16 1.12-.28-1.3.21-.05.36 1.66-.23.05-1.15-1.12.28 1.31zm1.7-.32.04-1.7 1.23.03v.2l-1.01-.02-.02.52.95.02v.2l-.95-.02-.01.58 1.04.02v.2z" font-family="Arial" font-size="2.38" font-weight="400" style="marker:none" transform="rotate(91 572.84 646.3)"/></g></g><path fill="none" d="M2549.51 1293.8a21.94 21.94 0 1 0-43.87.01 21.94 21.94 0 0 0 43.87-.01z" overflow="visible" style="marker:none" transform="rotate(-91.71 836.05 809.22) scale(.39964)"/><g style="line-height:100%;text-align:center;marker:none" text-anchor="middle"><path d="m567.63 648.7 1.8.23.06.23-1.48 1.08-.07-.25.46-.31-.17-.7-.54-.05zm.8.3.13.57.42-.29.31-.2h-.34zm-.34 1.38 1.15-.45.06.17-.17.07.21.06c.04.03.07.07.09.11a.4.4 0 0 1 .01.23h-.2a.3.3 0 0 0-.02-.16.2.2 0 0 0-.08-.1.22.22 0 0 0-.14-.03.83.83 0 0 0-.24.06l-.6.23zm.67 1.45.14-.08a.38.38 0 0 1-.33-.22.48.48 0 0 1-.05-.27c0-.1.04-.2.1-.28a.78.78 0 0 1 .27-.22c.1-.06.21-.09.32-.1a.48.48 0 0 1 .55.45c0 .07-.02.13-.05.19l.54-.3.1.19-1.5.8zm.23-.88c-.14.08-.23.16-.27.26a.3.3 0 0 0 .22.41c.1.02.21 0 .35-.07.15-.08.24-.17.28-.27a.3.3 0 0 0-.22-.42.55.55 0 0 0-.36.1zm.86 1.76.11.2a.53.53 0 0 1-.35.02.57.57 0 0 1-.3-.22.56.56 0 0 1-.12-.45.65.65 0 0 1 .28-.4.68.68 0 0 1 .48-.17c.16.02.29.1.4.23.1.14.13.28.1.43a.67.67 0 0 1-.28.4l-.05.04-.55-.74a.47.47 0 0 0-.18.28c-.02.1 0 .2.07.27.04.07.1.1.16.12a.4.4 0 0 0 .23 0zm-.14-.75.42.55a.42.42 0 0 0 .13-.2c.03-.1.01-.2-.05-.28a.33.33 0 0 0-.23-.14.38.38 0 0 0-.27.07zm.81 0-.1-.14.1-.41.17.22zm.22 1.61.12.16a.53.53 0 0 1-.35.11.5.5 0 0 1-.33-.15.53.53 0 0 1-.17-.4c0-.16.08-.3.22-.45.1-.1.2-.16.3-.2.1-.04.2-.05.3-.02.1.03.18.08.26.16.1.09.15.2.16.3a.5.5 0 0 1-.09.32l-.16-.12a.34.34 0 0 0 .06-.2.26.26 0 0 0-.09-.18.32.32 0 0 0-.26-.1c-.1 0-.2.07-.32.19-.12.11-.18.22-.19.32 0 .1.03.18.1.25a.3.3 0 0 0 .2.1.4.4 0 0 0 .24-.1zm-.04.57 1.02-1.36.16.12-.36.5a.44.44 0 0 1 .4.08.5.5 0 0 1 .16.18c.03.07.04.14.02.2a.69.69 0 0 1-.13.26l-.46.62-.17-.12.47-.63c.06-.08.09-.16.08-.22a.25.25 0 0 0-.11-.17.34.34 0 0 0-.17-.07c-.07 0-.12 0-.17.04a.6.6 0 0 0-.17.16l-.4.54zm2.01.82.18.12a.46.46 0 0 1-.3.17.57.57 0 0 1-.36-.07.56.56 0 0 1-.3-.35.65.65 0 0 1 .07-.48c.1-.19.22-.3.37-.36.15-.05.3-.03.45.05.14.07.24.19.28.33.04.15 0 .32-.09.5l-.02.04-.82-.43a.47.47 0 0 0-.04.33c.03.1.09.17.18.22.06.04.13.05.2.04a.4.4 0 0 0 .2-.11zm-.45-.62.61.32c.04-.1.06-.18.04-.24a.32.32 0 0 0-.17-.23.33.33 0 0 0-.26-.03.38.38 0 0 0-.22.18zm1.67.46.07-.23.23.07-.07.23zm-.29.95.07-.23.23.07-.07.23zm1.26.32.18-1.7 1.14.13-.02.2-.92-.1-.06.53.8.08-.02.2-.8-.08-.08.76zm1.4.11-.02-1.24h.18v.19a.5.5 0 0 1 .14-.18.23.23 0 0 1 .13-.05.4.4 0 0 1 .22.07l-.07.2a.3.3 0 0 0-.15-.05.2.2 0 0 0-.13.04.22.22 0 0 0-.07.12.81.81 0 0 0-.03.25l.02.64zm1.58-.29a.65.65 0 0 1-.42.24.48.48 0 0 1-.33-.05.33.33 0 0 1-.14-.24.34.34 0 0 1 .1-.3.5.5 0 0 1 .14-.1c.04 0 .1-.03.18-.05.16-.04.28-.09.36-.13v-.05c-.02-.08-.05-.14-.1-.17-.05-.04-.13-.05-.24-.03-.1.01-.17.04-.2.08-.05.04-.07.1-.08.2h-.2c0-.1.02-.17.05-.23a.4.4 0 0 1 .17-.15.82.82 0 0 1 .27-.08c.1-.02.19-.02.26 0a.3.3 0 0 1 .24.2l.04.19.04.28.06.36c.02.05.04.1.08.14l-.22.03a.44.44 0 0 1-.06-.15zm-.09-.46c-.07.04-.18.08-.32.12a.79.79 0 0 0-.18.07.18.18 0 0 0-.09.18c.01.06.04.1.09.13.05.03.11.04.2.03a.43.43 0 0 0 .2-.08c.05-.05.1-.1.11-.17a.5.5 0 0 0 0-.2zm.62.51-.36-1.18.18-.06.05.17a.44.44 0 0 1 .32-.3.51.51 0 0 1 .2-.03c.07 0 .13.03.17.06a.4.4 0 0 1 .1.13c.03.03.05.1.08.19l.22.72-.2.06-.22-.71a.56.56 0 0 0-.08-.18.2.2 0 0 0-.11-.07.34.34 0 0 0-.35.16c-.04.07-.04.18 0 .33l.2.65zm1.79-1.17.2-.06c.04.14.04.26-.01.37a.5.5 0 0 1-.26.26.53.53 0 0 1-.44.02.7.7 0 0 1-.34-.36.86.86 0 0 1-.09-.35c0-.1.03-.2.09-.29a.6.6 0 0 1 .23-.19.51.51 0 0 1 .34-.05c.11.03.2.1.27.2l-.17.1a.34.34 0 0 0-.17-.12.27.27 0 0 0-.19.02.32.32 0 0 0-.18.21c-.03.1 0 .22.06.37a.6.6 0 0 0 .24.29.3.3 0 0 0 .28 0 .3.3 0 0 0 .15-.16.38.38 0 0 0 0-.26zm1.02-.57.2-.1c.04.13.04.25 0 .36a.6.6 0 0 1-.23.28c-.16.1-.3.13-.45.1a.65.65 0 0 1-.4-.3.68.68 0 0 1-.13-.5.54.54 0 0 1 .26-.37c.13-.1.28-.12.43-.08.15.03.28.14.39.3 0 .02.02.03.03.05l-.77.51c.08.1.17.17.27.2.1.02.19 0 .27-.06a.27.27 0 0 0 .13-.15.4.4 0 0 0 0-.24zm-.75.1.57-.38a.42.42 0 0 0-.2-.15.32.32 0 0 0-.28.04.33.33 0 0 0-.15.21.4.4 0 0 0 .06.28z" font-family="Arial" font-size="2.38" font-weight="400" style="marker:none" transform="rotate(-23.63 549.26 735.35)"/></g></g><path fill="url(#J)" d="m882.78 615.4.28.57-.56-.28v1.18l.56-.25-.28.54h1.19l-.28-.53.56.25v-1.2l-.56.29.25-.56zm.6 1.76c-.34 0-.6.23-.6.56 0 .24.13.47.35.56-4.98.04-7.36 1.76-4.38 5.44v1.84a.39.39 0 0 0-.19.35c0 .2.18.37.38.37h8.87c.2 0 .38-.16.38-.37a.38.38 0 0 0-.16-.32v-1.9c2.94-3.66.52-5.37-4.44-5.4a.62.62 0 0 0 .38-.57c0-.33-.26-.56-.6-.56zm-.79 2.15c.1.78.1 1.6.03 2.38h-.15c-.37.02-.72.05-1.06.1-.51-1.87.02-2.42 1.18-2.48zm1.53 0c1.2.05 1.72.57 1.2 2.47l-1.04-.1h-.19c-.07-.78-.07-1.59.03-2.37zm-3.78.25c-.34.52-.44 1.33-.5 2.57-.42.14-.77.29-1 .5-.74-1.83.08-2.69 1.5-3.07zm6.07 0c1.44.39 2.27 1.27 1.5 3.13l-.1-.1a3.06 3.06 0 0 0-.9-.46c-.06-1.24-.16-2.05-.5-2.57z" overflow="visible" style="marker:none" transform="translate(-652.3 -382.3) scale(.78366)"/><path fill="url(#K)" d="M501.97 451.32c22.3 1.32 44.4 1.15 66.7.07l.1 56.45a311.23 311.23 0 0 1-66.84.08l.04-56.6z" overflow="visible" style="marker:none" transform="translate(-495.4 -255.17)"/><path fill="url(#L)" d="M581.4 510.72a311.22 311.22 0 0 1-66.84.06v9.19c21.83 2.3 44 2.44 66.85-.06z" overflow="visible" style="marker:none" transform="translate(-508.03 -267.23)"/><path fill="url(#M)" d="M502.88 455.38v2.25c22.29 1.31 44.39 1.14 66.68.06v-2.25c-22.3 1.08-44.39 1.25-66.68-.06z" overflow="visible" style="marker:none" transform="translate(-496.26 -259.22)"/><g transform="translate(-1093.5 -322.06)"><path fill="url(#N)" d="M1167.44 540.03c-5.09 0-7.55 1.72-4.53 5.44v2.15h9.28v-2.18c3-3.74.43-5.44-4.75-5.4zm-.69 1.03c.1.78.1 1.6.03 2.38h-.16c-.37.02-.71.05-1.06.1-.5-1.87.03-2.42 1.19-2.48zm1.53 0c1.2.05 1.72.57 1.19 2.47l-1.03-.1h-.19c-.07-.78-.07-1.59.03-2.37zm-3.78.25c-.35.52-.45 1.33-.5 2.57-.42.14-.77.29-1 .5-.74-1.83.07-2.69 1.5-3.07zm6.06 0c1.44.39 2.28 1.27 1.5 3.13-.03-.03-.05-.07-.1-.1a3.06 3.06 0 0 0-.9-.46c-.05-1.24-.15-2.05-.5-2.57z" overflow="visible" style="marker:none" transform="translate(-34.07 -6.29)"/><path fill="url(#O)" d="M1127.97 533.92c0-1.63 7.37-1.68 7.36 0z" overflow="visible" style="marker:none" transform="translate(1.86 4.8)"/><path fill="url(#P)" d="M1127.97 533.92c0-1.63 7.37-1.68 7.36 0z" overflow="visible" style="marker:none" transform="translate(1.86 4.8)"/><rect width="9.67" height=".72" x="1125.98" y="546.24" fill="url(#Q)" overflow="visible" ry=".36" style="marker:none" transform="matrix(.99453 0 0 1.0467 8.83 -30.75)"/><circle cx="1130.14" cy="539.86" r=".47" fill="url(#R)" overflow="visible" style="marker:none" transform="translate(549.25 263.4) scale(.51348)"/><circle cx="1130.14" cy="539.86" r=".47" fill="url(#S)" overflow="visible" style="marker:none" transform="translate(550.23 263.4) scale(.51348)"/><circle cx="1130.14" cy="539.86" r=".47" fill="url(#T)" overflow="visible" style="marker:none" transform="translate(551.2 263.4) scale(.51348)"/><circle cx="1130.14" cy="539.86" r=".47" fill="url(#U)" overflow="visible" style="marker:none" transform="translate(552.18 263.4) scale(.51348)"/><circle cx="1130.14" cy="539.86" r=".47" fill="url(#V)" overflow="visible" style="marker:none" transform="translate(553.16 263.4) scale(.51348)"/><circle cx="1130.14" cy="539.86" r=".47" fill="url(#W)" overflow="visible" style="marker:none" transform="translate(554.14 263.4) scale(.51348)"/><circle cx="1130.14" cy="539.86" r=".47" fill="url(#X)" overflow="visible" style="marker:none" transform="translate(555.11 263.4) scale(.51348)"/><circle cx="1130.14" cy="539.86" r=".47" fill="url(#Y)" overflow="visible" style="marker:none" transform="translate(556.09 263.4) scale(.51348)"/><circle cx="1130.14" cy="539.86" r=".47" fill="url(#Z)" overflow="visible" style="marker:none" transform="translate(557.07 263.4) scale(.51348)"/><circle cx="1130.14" cy="539.86" r=".47" fill="url(#aa)" overflow="visible" style="marker:none" transform="translate(568.51 264.74) scale(.4999)"/><circle cx="1130.14" cy="539.86" r=".47" fill="url(#ab)" overflow="visible" style="marker:none" transform="translate(568.51 265.2) scale(.4999)"/><circle cx="1130.14" cy="539.86" r=".47" fill="url(#ac)" overflow="visible" style="marker:none" transform="translate(568.51 265.67) scale(.4999)"/><circle cx="1130.14" cy="539.86" r=".47" fill="url(#ad)" overflow="visible" style="marker:none" transform="translate(568.51 266.13) scale(.4999)"/><circle cx="1130.14" cy="539.86" r=".47" fill="url(#ae)" overflow="visible" style="marker:none" transform="translate(568.51 266.6) scale(.4999)"/><circle cx="1130.14" cy="539.86" r=".47" fill="url(#af)" overflow="visible" style="marker:none" transform="translate(568.51 267.06) scale(.4999)"/><circle cx="1130.14" cy="539.86" r=".47" fill="url(#ag)" overflow="visible" style="marker:none" transform="translate(570.83 264.93) scale(.4999)"/><circle cx="1130.14" cy="539.86" r=".47" fill="url(#ah)" overflow="visible" style="marker:none" transform="translate(571.04 265.36) scale(.4999)"/><circle cx="1130.14" cy="539.86" r=".47" fill="url(#ai)" overflow="visible" style="marker:none" transform="translate(571.22 265.8) scale(.4999)"/><circle cx="1130.14" cy="539.86" r=".47" fill="url(#aj)" overflow="visible" style="marker:none" transform="translate(571.27 266.27) scale(.4999)"/><circle cx="1130.14" cy="539.86" r=".47" fill="url(#ak)" overflow="visible" style="marker:none" transform="translate(571.26 266.74) scale(.4999)"/><circle cx="1130.14" cy="539.86" r=".47" fill="url(#al)" overflow="visible" style="marker:none" transform="translate(571.2 267.2) scale(.4999)"/><circle cx="1130.14" cy="539.86" r=".47" fill="url(#am)" overflow="visible" style="marker:none" transform="matrix(0 .4999 .4999 0 861.3 -30.1)"/><circle cx="1130.14" cy="539.86" r=".47" fill="url(#an)" overflow="visible" style="marker:none" transform="matrix(0 .4999 .4999 0 861.1 -29.67)"/><circle cx="1130.14" cy="539.86" r=".47" fill="url(#ao)" overflow="visible" style="marker:none" transform="matrix(0 .4999 .4999 0 860.92 -29.23)"/><circle cx="1130.14" cy="539.86" r=".47" fill="url(#ap)" overflow="visible" style="marker:none" transform="matrix(0 .4999 .4999 0 860.86 -28.76)"/><circle cx="1130.14" cy="539.86" r=".47" fill="url(#aq)" overflow="visible" style="marker:none" transform="matrix(0 .4999 .4999 0 860.87 -28.28)"/><circle cx="1130.14" cy="539.86" r=".47" fill="url(#ar)" overflow="visible" style="marker:none" transform="matrix(0 .4999 .4999 0 860.94 -27.82)"/><circle cx="1130.14" cy="539.86" r=".47" fill="url(#as)" overflow="visible" style="marker:none" transform="matrix(.4999 0 0 .48588 573.38 276.05)"/><circle cx="1130.14" cy="539.86" r=".47" fill="url(#at)" overflow="visible" style="marker:none" transform="matrix(.4999 0 0 .48588 573.65 275.67)"/><circle cx="1130.14" cy="539.86" r=".47" fill="url(#au)" overflow="visible" style="marker:none" transform="matrix(.4999 0 0 .48588 573.86 275.25)"/><circle cx="1130.14" cy="539.86" r=".47" fill="url(#av)" overflow="visible" style="marker:none" transform="matrix(.4999 0 0 .48588 573.99 274.8)"/><circle cx="1130.14" cy="539.86" r=".47" fill="url(#aw)" overflow="visible" style="marker:none" transform="matrix(.4999 0 0 .48588 574.02 274.35)"/><circle cx="1130.14" cy="539.86" r=".47" fill="url(#ax)" overflow="visible" style="marker:none" transform="matrix(.4999 0 0 .48588 573.92 273.89)"/><circle cx="1130.14" cy="539.86" r=".47" fill="url(#ay)" overflow="visible" style="marker:none" transform="matrix(.4999 0 0 .48588 573.7 273.48)"/><circle cx="1130.14" cy="539.86" r=".47" fill="url(#az)" overflow="visible" style="marker:none" transform="matrix(.4999 0 0 .48588 573.4 273.13)"/><circle cx="1130.14" cy="539.86" r=".47" fill="url(#aA)" overflow="visible" style="marker:none" transform="matrix(.4999 0 0 .48588 573.03 272.84)"/><circle cx="1130.14" cy="539.86" r=".47" fill="url(#aB)" overflow="visible" style="marker:none" transform="matrix(.4999 0 0 .48588 572.62 272.6)"/><circle cx="1130.14" cy="539.86" r=".47" fill="url(#aC)" overflow="visible" style="marker:none" transform="matrix(.4999 0 0 .48588 572.2 272.42)"/><circle cx="1130.14" cy="539.86" r=".47" fill="url(#aD)" overflow="visible" style="marker:none" transform="matrix(.4999 0 0 .48588 571.75 272.26)"/><circle cx="1130.14" cy="539.86" r=".47" fill="url(#aE)" overflow="visible" style="marker:none" transform="matrix(.4999 0 0 .48588 571.28 272.12)"/><circle cx="1130.14" cy="539.86" r=".47" fill="url(#aF)" overflow="visible" style="marker:none" transform="matrix(.4999 0 0 .48588 570.83 272.02)"/><circle cx="1130.14" cy="539.86" r=".47" fill="url(#aG)" overflow="visible" style="marker:none" transform="matrix(.4999 0 0 .48588 570.37 271.94)"/><circle cx="1130.14" cy="539.86" r=".47" fill="url(#aH)" overflow="visible" style="marker:none" transform="matrix(.4999 0 0 .48588 569.9 271.9)"/><circle cx="1130.14" cy="539.86" r=".47" fill="url(#aI)" overflow="visible" style="marker:none" transform="matrix(.4999 0 0 .48588 569.43 271.86)"/><circle cx="1130.14" cy="539.86" r=".47" fill="url(#aJ)" overflow="visible" style="marker:none" transform="matrix(.4999 0 0 .48588 568.96 271.83)"/><circle cx="1130.14" cy="539.86" r=".47" fill="url(#aK)" overflow="visible" style="marker:none" transform="matrix(.4999 0 0 .48588 568.49 271.83)"/><circle cx="1130.14" cy="539.86" r=".47" fill="url(#aL)" overflow="visible" style="marker:none" transform="matrix(.4999 0 0 .48588 568.02 271.85)"/><circle cx="1130.14" cy="539.86" r=".47" fill="url(#aM)" overflow="visible" style="marker:none" transform="matrix(.4999 0 0 .48588 567.55 271.88)"/><circle cx="1130.14" cy="539.86" r=".47" fill="url(#aN)" overflow="visible" style="marker:none" transform="matrix(.4999 0 0 .48588 567.08 271.92)"/><circle cx="1130.14" cy="539.86" r=".47" fill="url(#aO)" overflow="visible" style="marker:none" transform="matrix(.4999 0 0 .48588 566.6 272)"/><circle cx="1130.14" cy="539.86" r=".47" fill="url(#aP)" overflow="visible" style="marker:none" transform="matrix(.4999 0 0 .48588 566.14 272.08)"/><circle cx="1130.14" cy="539.86" r=".47" fill="url(#aQ)" overflow="visible" style="marker:none" transform="matrix(.4999 0 0 .48588 565.68 272.21)"/><circle cx="1130.14" cy="539.86" r=".47" fill="url(#aR)" overflow="visible" style="marker:none" transform="matrix(.4999 0 0 .48588 565.24 272.36)"/><circle cx="1130.14" cy="539.86" r=".47" fill="url(#aS)" overflow="visible" style="marker:none" transform="matrix(.4999 0 0 .48588 564.8 272.53)"/><circle cx="1130.14" cy="539.86" r=".47" fill="url(#aT)" overflow="visible" style="marker:none" transform="matrix(.4999 0 0 .48588 564.38 272.73)"/><circle cx="1130.14" cy="539.86" r=".47" fill="url(#aU)" overflow="visible" style="marker:none" transform="matrix(.4999 0 0 .48588 563.98 272.99)"/><circle cx="1130.14" cy="539.86" r=".47" fill="url(#aV)" overflow="visible" style="marker:none" transform="matrix(.4999 0 0 .48588 563.63 273.3)"/><circle cx="1130.14" cy="539.86" r=".47" fill="url(#aW)" overflow="visible" style="marker:none" transform="matrix(.4999 0 0 .48588 563.34 273.66)"/><circle cx="1130.14" cy="539.86" r=".47" fill="url(#aX)" overflow="visible" style="marker:none" transform="matrix(.4999 0 0 .48588 563.14 274.08)"/><circle cx="1130.14" cy="539.86" r=".47" fill="url(#aY)" overflow="visible" style="marker:none" transform="matrix(.4999 0 0 .48588 563.13 274.54)"/><circle cx="1130.14" cy="539.86" r=".47" fill="url(#aZ)" overflow="visible" style="marker:none" transform="matrix(.4999 0 0 .48588 563.2 274.99)"/><circle cx="1130.14" cy="539.86" r=".47" fill="url(#ba)" overflow="visible" style="marker:none" transform="matrix(.4999 0 0 .48588 563.38 275.42)"/><circle cx="1130.14" cy="539.86" r=".47" fill="url(#bb)" overflow="visible" style="marker:none" transform="matrix(.4999 0 0 .48588 563.6 275.82)"/><circle cx="1130.14" cy="539.86" r=".47" fill="url(#bc)" overflow="visible" style="marker:none" transform="matrix(.4999 0 0 .48588 563.9 276.16)"/><path fill="url(#bd)" d="m1046.94 502.31 2.15 4.5-4.59-2.22v9.82l4.6-2.2-2.2 4.5h9.6l-2.19-4.5 4.6 2.2v-9.82l-4.6 2.22 2.16-4.5z" overflow="visible" style="marker:none" transform="translate(1006.08 470.04) scale(.12112)"/><circle cx="1130.14" cy="539.86" r=".47" fill="url(#be)" overflow="visible" style="marker:none" transform="matrix(1.27802 0 0 1.24218 -310.88 -137.4)"/></g><path fill="none" d="M1111.73 538.13c3.83-4.2 13.76-6.07 22.17-4.15 3.76.85 6.43 2.17 8.2 4.04" overflow="visible" style="marker:none" transform="matrix(1.25 0 0 .67677 -1369.54 -153.1)"/><g fill="url(#bf)" stroke-width=".05" font-family="Arial" font-size="3.54" font-weight="400" style="line-height:100%;text-align:center;marker:none" text-anchor="middle" transform="translate(-1093.18 -321.94)"><path fill="url(#bg)" d="m1115.97 531.07.34-.06c.05.28.02.53-.09.73a.95.95 0 0 1-.53.47 1.2 1.2 0 0 1-.67.12 1.1 1.1 0 0 1-.56-.28 1.73 1.73 0 0 1-.54-1.26 1.12 1.12 0 0 1 .72-.97c.23-.1.45-.13.66-.09a1 1 0 0 1 .55.35l-.27.21a.78.78 0 0 0-.4-.27.68.68 0 0 0-.43.06.82.82 0 0 0-.4.33.74.74 0 0 0-.1.45 1.6 1.6 0 0 0 .45.96c.12.12.26.19.41.2.15.03.3 0 .44-.06.17-.07.3-.19.37-.34.08-.15.1-.33.05-.55z" style="marker:none"/><path fill="url(#bh)" d="m1118.94 531.09-.57-2.48.33-.07.23 1.01 1.29-.29-.23-1.01.32-.08.57 2.47-.33.08-.27-1.17-1.28.3.26 1.16z" style="marker:none"/><path fill="url(#bi)" d="m1123.09 530.26.64-2.64.35-.05 1.36 2.38-.38.05-.39-.73-1.05.14-.18.8zm.59-1.13.85-.11-.35-.66c-.1-.2-.2-.37-.25-.5 0 .16-.03.33-.07.5z" style="marker:none"/><path fill="url(#bj)" d="m1127.66 529.74-.15-2.53.5-.03.7 1.76.15.37.11-.42.5-1.8.45-.02.15 2.53-.32.02-.13-2.12-.6 2.16-.3.02-.87-2.11.13 2.15z" style="marker:none"/><path fill="url(#bk)" d="M1132.58 529.54V527h.96a1.4 1.4 0 0 1 .69.14c.1.06.16.14.21.25.05.1.08.22.08.35 0 .21-.07.4-.21.54-.14.15-.39.23-.74.23h-.65v1.03zm.34-1.33h.66c.21 0 .37-.04.46-.12.09-.08.13-.2.13-.34 0-.11-.02-.2-.08-.28a.38.38 0 0 0-.2-.15 1.43 1.43 0 0 0-.32-.02h-.65z" style="marker:none"/><path fill="url(#bl)" d="m1136.64 529.6 1.12-2.48.36.02.88 2.6-.38-.03-.25-.78-1.06-.06-.32.75zm.79-1 .85.05-.22-.72a6.9 6.9 0 0 1-.15-.53c-.04.16-.1.32-.16.47z" style="marker:none"/><path fill="url(#bm)" d="m1142.54 529.1.03-.29 1.07.14-.12.93a1.9 1.9 0 0 1-.54.23 1.51 1.51 0 0 1-1.2-.22 1 1 0 0 1-.4-.51 1.57 1.57 0 0 1 .17-1.36c.13-.2.3-.34.5-.42.2-.07.43-.1.69-.06.18.02.34.07.48.15.14.07.24.17.31.29.07.11.12.26.14.43l-.31.05a.94.94 0 0 0-.1-.32.58.58 0 0 0-.22-.2 1.03 1.03 0 0 0-.74-.1.74.74 0 0 0-.3.15.87.87 0 0 0-.18.23 1.34 1.34 0 0 0-.12 1.07c.06.16.15.28.3.38.13.09.28.15.45.17a1.25 1.25 0 0 0 .77-.17l.06-.47z" style="marker:none"/><path fill="url(#bn)" d="m1145.9 530.64.55-2.48.34.08.86 2.23.44-1.94.31.07-.56 2.48-.33-.08-.86-2.24-.44 1.95z" style="marker:none"/><path fill="url(#bo)" d="m1150.27 531.82 1.03-2.32 1.68.75-.12.27-1.37-.6-.32.7 1.28.57-.12.27-1.28-.57-.35.79 1.42.63-.12.28z" style="marker:none"/></g><g stroke-width=".05" font-family="Arial" font-weight="400" text-anchor="middle"><text xml:space="preserve" x="1114.57" y="539.97" fill="url(#bp)" overflow="visible" style="line-height:0%;text-align:center;marker:none" transform="matrix(.2165 0 0 .26979 -211.55 73.33)"><tspan x="1114.57" y="539.97" font-size="6.27" style="line-height:1">GUILHERAND</tspan></text><text xml:space="preserve" x="1114.57" y="539.97" fill="url(#bq)" overflow="visible" style="line-height:0%;text-align:center;marker:none" transform="matrix(.30977 0 0 .256 -294.6 80.74)"><tspan x="1114.57" y="539.97" font-size="6.27" style="line-height:1">FRANCE</tspan></text></g><text xml:space="preserve" x="1114.57" y="539.97" fill="url(#br)" stroke-width=".05" font-family="Arial" font-weight="400" overflow="visible" style="line-height:0%;text-align:center;marker:none" text-anchor="middle" transform="matrix(.32857 0 0 .2422 -326.3 90.84)"><tspan x="1114.57" y="539.97" font-size="6.27" style="line-height:1">FONDEE EN 1995</tspan></text><g style="line-height:100%;text-align:center;marker:none" text-anchor="middle"><path d="m1112.23 544.49-1.4-.06.01-.14c.15 0 .25-.02.31-.08.06-.05.1-.15.1-.3v-.1l-.12-2.26c-.35.56-.6 1-.75 1.32l-.79 1.63h-.13l-1.18-3.36-.14 1.01c-.06.46-.1.82-.11 1.1-.03.59.1.9.4.93v.14l-1.29-.06.01-.13c.17-.03.3-.17.41-.4.05-.1.11-.3.2-.58.09-.35.17-.73.22-1.13l.1-.75.02-.12c0-.13-.02-.23-.08-.28-.05-.04-.14-.07-.28-.08v-.14l.93.04 1.09 3.06.77-1.62c.29-.6.48-1.05.58-1.33l1.01.05-.01.13a.64.64 0 0 0-.33.06c-.08.05-.12.14-.13.29v.06l.12 2.28c0 .24.03.4.07.48.06.12.2.19.4.2zm3.53.12-1.01-.03v-.14h.06c.03 0 .05-.03.05-.1v-.05l-.31-1-1.24-.05c-.15.36-.22.64-.23.82 0 .1.03.17.09.23.06.07.14.1.24.1h.15v.14l-1.28-.04v-.14c.22 0 .42-.22.6-.66l1.28-2.92h.16l.9 2.94.18.47c.1.19.23.28.36.3zm-1.26-1.5-.47-1.53-.65 1.5zm4.36-1.09h-.2c0-.55-.27-.83-.84-.85h-.16l-.08 2.9c-.01.3.13.45.42.47v.14l-1.4-.05v-.13c.18 0 .3-.03.35-.09.06-.06.1-.18.1-.35l.09-2.9-.2-.01c-.52-.02-.8.25-.83.79h-.2l.03-1.09h.12c.03.1.06.14.11.14l2.48.07c.07 0 .1-.04.1-.12h.14zm3.75 2.78-1.39-.04v-.14c.17 0 .28-.03.35-.09.06-.06.1-.18.1-.35l.03-1.3-1.73-.05-.04 1.31c0 .3.14.45.43.46v.14l-1.4-.03v-.14c.18 0 .3-.03.35-.1.06-.05.1-.17.1-.34l.06-2.46c0-.17-.03-.29-.08-.35-.06-.06-.17-.1-.34-.1v-.14l1.39.03v.13c-.17 0-.29.03-.35.1-.06.06-.1.17-.1.34l-.02.98 1.73.04.02-.98c0-.17-.02-.28-.08-.35-.05-.06-.17-.1-.34-.1v-.14l1.4.03v.14c-.18 0-.3.03-.35.09-.06.06-.1.18-.1.35l-.06 2.45c0 .18.02.3.08.36s.17.1.34.1zm1.77.02-1.38-.02v-.14c.16 0 .28-.03.34-.1.06-.06.1-.17.1-.34l.04-2.46c0-.17-.02-.29-.08-.35-.06-.07-.17-.1-.34-.1v-.14l1.39.02v.14c-.17 0-.29.03-.35.1-.06.05-.09.17-.1.34l-.04 2.46c0 .29.14.44.42.46zm2.92-1-.25 1.17h-.14c0-.09-.04-.13-.11-.13l-2.07-.03v-.14c.17 0 .29-.03.35-.09s.09-.18.09-.35l.04-2.46c0-.17-.03-.28-.09-.35-.06-.06-.17-.1-.34-.1v-.14l2.03.03c.12 0 .18-.04.19-.14h.13l-.01 1.09h-.21c0-.54-.32-.82-.96-.83h-.21c-.03.2-.04.39-.05.55 0 .63.26.95.79.96h.28v.2l-1.05.02-.02 1.63h.3c.63.01 1-.28 1.1-.89zm5.2.3c-.32.58-.58.87-.77.87-.22 0-.55-.26-.96-.8-.2.25-.35.42-.46.52a.93.93 0 0 1-.61.27.69.69 0 0 1-.53-.26.8.8 0 0 1-.21-.56c0-.38.32-.8.96-1.28-.2-.4-.3-.7-.3-.92 0-.25.13-.45.4-.6.23-.11.48-.17.76-.17a.8.8 0 0 1 .43.11c.14.1.2.22.2.38 0 .15-.07.3-.23.44l-.42.3-.36.23.6.95c.18-.27.3-.58.35-.95l1.01.01v.15c-.47 0-.89.3-1.26.92.37.52.65.77.82.78.12 0 .27-.15.46-.45zm-1.56-2.44a.3.3 0 0 0-.1-.25.41.41 0 0 0-.27-.09.43.43 0 0 0-.34.13.49.49 0 0 0-.13.35c0 .16.08.4.24.7.2-.17.33-.3.39-.36.14-.17.21-.33.21-.48zm-.25 2.41a10 10 0 0 1-.72-1.1c-.31.32-.47.63-.47.94 0 .16.04.3.12.42.1.13.22.2.38.2.2 0 .43-.15.69-.46zm6.59.14c-.6.52-1.15.77-1.64.77-.47 0-.85-.17-1.15-.52a1.81 1.81 0 0 1-.42-1.2 2 2 0 0 1 .96-1.77c.3-.2.67-.3 1.1-.3.38 0 .73.06 1.06.17v.86h-.2a.84.84 0 0 0-.37-.64c-.2-.14-.45-.21-.74-.21-.42 0-.75.16-1 .47-.21.3-.32.65-.32 1.08 0 .46.12.84.37 1.15.26.33.62.5 1.06.5.42 0 .85-.18 1.29-.53zm2.89-.36-.24 1.17h-.14c0-.09-.04-.13-.12-.13l-2.06.01v-.14c.17 0 .29-.03.35-.1.05-.06.08-.18.08-.35v-2.46c0-.17-.04-.28-.1-.35-.06-.06-.17-.1-.34-.1v-.13h1.4v.13c-.18 0-.3.04-.35.1-.06.06-.09.18-.09.35l.02 2.9h.36c.58 0 .92-.3 1.02-.9zm3.49 1.01h-1.02v-.13h.07c.03 0 .04-.03.04-.1v-.06l-.36-.98h-1.24c-.13.38-.19.65-.19.83 0 .1.04.18.1.24.06.05.14.08.24.08h.15v.14h-1.27v-.13c.21-.01.4-.24.57-.68l1.14-2.98h.17l1.03 2.9c.07.2.14.35.2.45.11.18.23.28.37.28zm-1.33-1.45-.53-1.5-.59 1.51zm5.16-2.11c-.36.06-.52.66-.5 1.78v.68a1.3 1.3 0 0 1-.19.64c-.21.33-.6.5-1.17.5-.6.02-1.01-.15-1.25-.48a1.04 1.04 0 0 1-.17-.6l-.03-2.02c0-.17-.04-.28-.1-.34-.06-.07-.17-.1-.34-.1v-.14l1.39-.02v.14c-.17 0-.29.04-.35.1-.05.07-.08.19-.08.36l.03 1.99c.01.36.15.63.43.8.16.1.35.14.59.14.48 0 .8-.18.94-.53.07-.17.1-.42.1-.76-.02-.56-.03-.95-.06-1.18-.09-.6-.25-.92-.5-.94v-.13l1.25-.02zm3.97 1.22a2.12 2.12 0 0 1-2.2 2.24l-1.48.03v-.13c.17 0 .28-.04.34-.11s.09-.18.08-.35l-.05-2.46c0-.17-.04-.29-.1-.35-.06-.06-.17-.1-.34-.1v-.13l2.23-.05c1-.02 1.5.45 1.53 1.4zm-.53.38c-.02-1.12-.5-1.67-1.45-1.65-.33 0-.6.09-.81.24l.06 2.83c.3.17.6.25.89.25.43-.01.77-.19 1-.53.22-.31.32-.7.31-1.14zm2.39 1.76-1.4.04v-.14c.18 0 .29-.04.35-.1.05-.07.08-.19.08-.36l-.07-2.46c0-.17-.04-.28-.1-.34-.06-.06-.17-.1-.34-.1v-.13l1.39-.04v.14c-.17 0-.29.04-.34.1-.06.07-.09.19-.08.36l.06 2.46c.01.29.16.43.44.44zm3.95-3.62c-.34.05-.5.62-.46 1.73l.06 1.92h-.14l-2.55-3.23.03 1.05c.02.5.05.86.09 1.1.1.56.26.85.5.87v.14l-1.23.04v-.14c.34-.06.5-.72.45-1.97l-.03-.98c0-.16-.04-.27-.1-.32-.06-.06-.17-.09-.34-.09v-.13l.94-.03 2.15 2.7-.03-.84c-.04-1.16-.23-1.75-.57-1.78v-.13l1.24-.04zm2.83 2.34-.18 1.19h-.14c0-.08-.05-.12-.12-.12l-2.06.08-.01-.14c.17 0 .28-.04.34-.1.05-.07.08-.2.07-.37l-.1-2.45c0-.17-.03-.29-.1-.35-.06-.06-.17-.09-.34-.08l-.01-.14 2.03-.08c.12 0 .18-.05.18-.15h.13l.04 1.08-.2.01c-.03-.54-.36-.8-1-.77l-.22.01c-.01.2-.02.4-.01.55.02.63.3.94.83.92l.28-.01v.2l-1.03.07.06 1.63.3-.01c.64-.03.99-.35 1.06-.95z" font-family="Andalus" font-size="5.81" font-weight="400" style="marker:none" transform="matrix(1.09228 0 0 1.28376 -1198.27 -471.08)"/></g><g style="line-height:100%;text-align:center;marker:none" text-anchor="middle"><path stroke="#000" stroke-linecap="square" stroke-width=".05" d="m1112.17 555.72.14-2.86 1.07.05c.22.01.4.05.52.12.13.06.23.15.3.28.07.12.1.25.1.38a.68.68 0 0 1-.12.34.7.7 0 0 1-.31.25.7.7 0 0 1 .5.72.9.9 0 0 1-.1.37.72.72 0 0 1-.22.25c-.09.06-.2.1-.32.13a1.9 1.9 0 0 1-.47.02zm.46-1.64.62.03c.17.01.29 0 .36-.01a.4.4 0 0 0 .23-.14.41.41 0 0 0 .08-.24.5.5 0 0 0-.05-.26.35.35 0 0 0-.2-.15 1.63 1.63 0 0 0-.43-.06l-.57-.03zm-.06 1.32.71.04h.26a.62.62 0 0 0 .22-.07.42.42 0 0 0 .15-.15.5.5 0 0 0 .07-.24.44.44 0 0 0-.29-.46 1.4 1.4 0 0 0-.41-.07l-.66-.03zm3.4.5.1-2.87 1.27.05c.26.01.45.04.58.1.13.06.24.15.31.28.07.14.1.28.1.44a.73.73 0 0 1-.21.5 1 1 0 0 1-.62.25c.1.05.17.1.22.15.1.1.2.24.3.4l.47.79-.48-.02-.35-.6c-.1-.18-.2-.32-.26-.41a.85.85 0 0 0-.19-.2.57.57 0 0 0-.17-.08 1.15 1.15 0 0 0-.2-.03l-.45-.01-.04 1.27zm.44-1.59.81.03c.17 0 .3 0 .4-.04.1-.03.18-.08.24-.16a.47.47 0 0 0 .08-.26.41.41 0 0 0-.13-.33c-.1-.1-.25-.14-.46-.15l-.9-.04zm5.51-1.08h.38l-.05 1.66a2 2 0 0 1-.11.68c-.07.17-.2.3-.37.4-.17.1-.4.15-.67.15a1.4 1.4 0 0 1-.66-.16.8.8 0 0 1-.35-.41 1.9 1.9 0 0 1-.09-.72l.05-1.66.38.01-.05 1.66c-.01.24.01.43.05.55.05.12.12.21.23.28.12.06.25.1.41.1.28.01.48-.05.6-.17.13-.12.2-.36.2-.72zm2.78 2.93.04-2.53-.94-.02.01-.34 2.27.05-.01.34-.95-.02-.05 2.52zm5.1.08.03-2.87h.38l-.03 2.87zm2.14.02.02-2.87h.57l.67 2.04.13.42.15-.46.7-1.99h.5v2.87h-.37l.01-2.4-.84 2.4h-.34l-.82-2.45-.01 2.44zm4.46.01v-2.87h1.07c.2 0 .34 0 .44.03a.7.7 0 0 1 .58.4c.06.12.09.25.09.4 0 .24-.08.44-.23.61-.16.17-.44.26-.84.26h-.73v1.17zm.37-1.5h.75c.24-.01.41-.06.52-.15.1-.09.15-.22.15-.38a.52.52 0 0 0-.1-.31.42.42 0 0 0-.23-.17 1.62 1.62 0 0 0-.36-.02h-.73zm3.43 1.48-.04-2.86 2.07-.03v.34l-1.69.02.01.88 1.58-.02v.34l-1.58.01.01.98 1.76-.02v.34zm3.77-.05-.05-2.86 1.27-.02c.25 0 .45.01.58.06.14.05.24.14.33.27a.8.8 0 0 1 .12.43c0 .2-.06.38-.19.52a1 1 0 0 1-.6.27l.23.14c.11.1.22.23.32.38l.51.77h-.47l-.4-.58c-.1-.17-.2-.3-.27-.4a.86.86 0 0 0-.2-.18.57.57 0 0 0-.17-.07l-.21-.01h-.44l.02 1.28zm.35-1.6.81-.02c.18 0 .31-.02.41-.06.1-.04.17-.1.22-.18a.47.47 0 0 0 .07-.25.42.42 0 0 0-.15-.33c-.1-.09-.26-.13-.47-.13l-.9.02zm3.71 1.52-.07-2.86.38-.01.07 2.86zm1.84-.04 1-2.9.42-.01 1.26 2.82-.44.02-.36-.86-1.2.04-.28.87zm.79-1.2.97-.03-.33-.79a8 8 0 0 1-.22-.58c-.03.18-.07.36-.13.55zm3.29 1.06-.11-2.86.38-.01.1 2.52 1.4-.05.02.34z" font-family="Arial" font-size="4" font-weight="400" style="marker:none" transform="translate(-1094 -321.8)"/></g><path fill="url(#bs)" stroke="url(#bt)" stroke-linecap="square" stroke-width=".2" d="m1135.32 563.29-1.74-.75-1.39 1.36.17-1.9-1.72-.9 1.86-.42.32-1.9.98 1.62 1.91-.28-1.25 1.43z" overflow="visible" style="marker:none" transform="rotate(11.31 1469.21 -3935.78) scale(.7825)"/><g fill="#c3a662" stroke-width=".2" font-family="Arial" font-weight="400" text-anchor="middle"><g style="line-height:100%;text-align:center;marker:none"><path d="m1110.63 570.72.12-1.16.43.04.18.03.14.07c.03.03.06.07.08.12.02.05.02.1.02.16a.36.36 0 0 1-.12.24c-.07.07-.19.09-.35.07l-.3-.03-.05.47zm.21-.6.3.04c.1 0 .17 0 .22-.04a.2.2 0 0 0 .08-.15c0-.05 0-.09-.03-.13a.17.17 0 0 0-.09-.07.68.68 0 0 0-.14-.03l-.3-.03zm.87.71.11-1.16.52.04c.1.01.18.03.23.06.05.02.1.07.12.12.03.06.04.12.03.18a.3.3 0 0 1-.1.2.4.4 0 0 1-.26.08l.1.07.1.17.18.33-.2-.02-.13-.25a1.98 1.98 0 0 0-.1-.17.33.33 0 0 0-.07-.09.23.23 0 0 0-.06-.03.47.47 0 0 0-.09-.02l-.18-.01-.04.51zm.22-.64.33.03h.16a.18.18 0 0 0 .1-.06.19.19 0 0 0 .04-.1c.01-.06 0-.1-.04-.15a.38.38 0 0 0-.19-.07l-.36-.03zm.96.18c.01-.2.08-.34.2-.44a.5.5 0 0 1 .4-.13c.11.01.2.04.29.1a.5.5 0 0 1 .18.23c.03.1.05.2.04.32a.7.7 0 0 1-.1.31.49.49 0 0 1-.22.2.58.58 0 0 1-.58-.06.51.51 0 0 1-.17-.24.66.66 0 0 1-.04-.3zm.15.01c0 .14.02.26.09.34.06.09.16.14.27.15.11 0 .21-.02.3-.1a.5.5 0 0 0 .14-.33c0-.1 0-.18-.03-.25a.37.37 0 0 0-.33-.26.4.4 0 0 0-.29.09c-.08.07-.13.19-.15.36zm1.1.67.1-1.16.4.03a1 1 0 0 1 .2.03.4.4 0 0 1 .17.1c.05.06.1.13.12.21.02.08.03.18.02.28a.88.88 0 0 1-.05.23.56.56 0 0 1-.1.17.42.42 0 0 1-.1.1.43.43 0 0 1-.15.04.77.77 0 0 1-.19 0zm.17-.13.24.02h.19a.26.26 0 0 0 .1-.05.36.36 0 0 0 .1-.14.72.72 0 0 0 .05-.22.53.53 0 0 0-.03-.29.3.3 0 0 0-.14-.14.6.6 0 0 0-.2-.04l-.24-.02zm1.86-.88.15.02-.05.67a.8.8 0 0 1-.07.27.34.34 0 0 1-.15.16.5.5 0 0 1-.28.04c-.1 0-.2-.03-.26-.08a.32.32 0 0 1-.14-.17.77.77 0 0 1-.02-.3l.06-.67.15.02-.05.67a.7.7 0 0 0 0 .22c.02.05.05.09.1.12.04.03.1.05.16.05.11.01.2 0 .25-.06.05-.04.08-.14.1-.29zm.34 1.2.09-1.16h.15l-.09 1.17zm.72.06.07-1.03-.38-.03.01-.14.92.07v.14l-.4-.03-.07 1.02zm1.15.07.07-1.16.4.03c.1 0 .16.01.2.03a.4.4 0 0 1 .17.1c.06.05.1.12.13.2.02.08.03.17.03.28a1 1 0 0 1-.05.23.57.57 0 0 1-.1.16.43.43 0 0 1-.1.1.44.44 0 0 1-.15.05.8.8 0 0 1-.18.01zm.16-.12.25.01h.18a.26.26 0 0 0 .1-.06.37.37 0 0 0 .1-.14.71.71 0 0 0 .05-.23.57.57 0 0 0-.04-.28.3.3 0 0 0-.14-.14.6.6 0 0 0-.2-.04l-.24-.01zm1.01.2.07-1.16.84.05v.13l-.7-.04-.01.36.64.04-.01.13-.64-.03-.03.4.72.03-.01.14zm1.55.09.06-1.16.78.04v.14l-.64-.04-.02.36.55.03-.01.14-.55-.03-.03.53zm.98.06.06-1.17.51.03c.1 0 .19.02.24.04.05.02.1.06.12.12.03.05.05.11.04.17 0 .09-.03.15-.09.2a.4.4 0 0 1-.25.1l.09.07.12.16.19.32h-.2l-.14-.26a2.46 2.46 0 0 0-.1-.16.35.35 0 0 0-.08-.08.22.22 0 0 0-.07-.04h-.08l-.18-.02-.03.52zm.19-.65.33.02c.07 0 .12 0 .16-.02a.18.18 0 0 0 .1-.06.2.2 0 0 0 .03-.1c0-.06-.01-.1-.05-.14-.04-.04-.1-.06-.19-.07l-.36-.01zm.86.7.5-1.15h.16l.42 1.2-.17-.01-.12-.36-.49-.02-.14.34zm.35-.47.4.02-.11-.33-.07-.24a1.4 1.4 0 0 1-.07.22zm.86.52.04-1.16h.16l.58.94.03-.91h.15l-.05 1.17-.15-.01-.58-.94-.04.92zm2.02-.33.15.04a.52.52 0 0 1-.18.28.48.48 0 0 1-.32.1.55.55 0 0 1-.3-.1.48.48 0 0 1-.17-.22.8.8 0 0 1 .03-.63.48.48 0 0 1 .2-.2.58.58 0 0 1 .29-.06c.12 0 .21.04.29.1.08.06.13.15.16.25l-.16.04a.36.36 0 0 0-.1-.2.31.31 0 0 0-.2-.06.38.38 0 0 0-.22.06.33.33 0 0 0-.14.17.67.67 0 0 0-.04.22c0 .1 0 .18.03.26.03.07.07.13.13.17.06.04.13.06.2.06.08 0 .16-.02.22-.07.06-.04.1-.12.13-.21zm.34.42.03-1.17.84.03v.13l-.69-.02-.01.36.64.02v.14l-.64-.02-.01.4.71.01v.14zm16.86-.06-.04-1.17.43-.01h.18c.06 0 .1.02.15.05.04.02.07.06.1.1l.04.16c0 .1-.03.19-.09.26s-.17.1-.33.12h-.3l.02.48zm.13-.62.3-.01c.1 0 .17-.03.21-.07a.2.2 0 0 0 .06-.15.2.2 0 0 0-.04-.13.17.17 0 0 0-.1-.06.7.7 0 0 0-.15 0h-.3zm.96.57-.05-1.16.51-.02c.1 0 .19 0 .24.02.06.02.1.05.13.1a.33.33 0 0 1-.01.39.4.4 0 0 1-.24.12l.1.05.13.15.21.3-.2.02-.16-.24a2.07 2.07 0 0 0-.11-.15.35.35 0 0 0-.09-.08.24.24 0 0 0-.07-.03h-.08l-.18.01.02.52zm.12-.65.33-.02a.5.5 0 0 0 .17-.03.17.17 0 0 0 .09-.07.19.19 0 0 0 .02-.1c0-.06-.02-.1-.06-.14a.3.3 0 0 0-.2-.04l-.36.01zm.98.04a.63.63 0 0 1 .13-.46c.1-.12.23-.18.4-.19.1 0 .2.02.29.06a.5.5 0 0 1 .2.21c.06.09.08.2.09.3a.64.64 0 0 1-.06.33c-.04.1-.1.17-.19.22a.58.58 0 0 1-.58.02.51.51 0 0 1-.2-.2.66.66 0 0 1-.08-.3zm.16 0c0 .13.05.24.13.32.07.07.17.11.28.1.12 0 .21-.05.28-.13.08-.09.1-.2.1-.35 0-.1-.03-.18-.06-.25a.37.37 0 0 0-.36-.2.4.4 0 0 0-.27.12c-.08.08-.11.2-.1.38zm1.17.5-.06-1.16.4-.03.21.01a.4.4 0 0 1 .17.07c.07.05.12.12.15.2.04.07.06.17.06.27l-.01.24a.57.57 0 0 1-.07.17.42.42 0 0 1-.1.11.43.43 0 0 1-.14.07.8.8 0 0 1-.19.03zm.15-.15.25-.01a.6.6 0 0 0 .18-.03.25.25 0 0 0 .1-.07.37.37 0 0 0 .08-.15.71.71 0 0 0 .01-.22.58.58 0 0 0-.07-.28.3.3 0 0 0-.15-.13.6.6 0 0 0-.2 0h-.25zm1.72-1.12.16-.01.04.67c0 .12 0 .21-.03.28a.34.34 0 0 1-.13.18.5.5 0 0 1-.27.08c-.1 0-.2-.01-.27-.04a.32.32 0 0 1-.16-.16.77.77 0 0 1-.06-.29l-.04-.67h.16l.04.66c0 .1.02.18.04.23a.2.2 0 0 0 .1.1c.05.02.1.03.17.03.11 0 .2-.04.24-.1.04-.05.06-.15.05-.3zm.51 1.13-.07-1.16h.15l.07 1.15zm.72-.04-.07-1.03-.38.03-.01-.14.92-.06.01.14-.38.02.06 1.03zm1.14-.08-.08-1.16.4-.03h.21a.4.4 0 0 1 .18.08c.06.04.11.1.15.19.04.07.06.17.06.27.01.09 0 .17-.01.24a.58.58 0 0 1-.07.17.43.43 0 0 1-.1.11.42.42 0 0 1-.13.07.79.79 0 0 1-.18.03zm.15-.14.25-.02c.07 0 .13-.02.18-.04a.25.25 0 0 0 .1-.06.37.37 0 0 0 .07-.16.73.73 0 0 0 .02-.22.55.55 0 0 0-.08-.28.3.3 0 0 0-.16-.12.6.6 0 0 0-.2 0h-.24zm1.03.06-.09-1.16.84-.06.01.13-.68.05.02.36.65-.05v.14l-.64.05.03.4.72-.06v.14zm1.54-.12-.1-1.16.79-.06.01.14-.63.05.03.36.54-.05.02.14-.55.04.04.53zm.98-.08-.1-1.16.52-.04.24.01c.06.02.1.05.14.1.04.05.06.11.06.17a.28.28 0 0 1-.06.22.4.4 0 0 1-.24.13l.1.05c.05.03.1.08.14.14l.23.3-.2.02-.17-.23-.12-.15a.35.35 0 0 0-.09-.07.22.22 0 0 0-.07-.03h-.09l-.18.02.05.51zm.1-.66.33-.02a.5.5 0 0 0 .17-.04.17.17 0 0 0 .08-.08.19.19 0 0 0 .02-.1c0-.06-.03-.1-.07-.13-.04-.04-.1-.05-.2-.04l-.36.03zm.95.58.34-1.2.16-.02.58 1.12-.17.02-.17-.34-.48.04-.1.36zm.29-.5.4-.04-.16-.31-.1-.24-.04.23zm.91.39-.1-1.16.16-.01.69.85-.09-.9.15-.02.1 1.16-.15.01-.7-.85.1.9zm1.96-.59.16.02a.52.52 0 0 1-.15.3.48.48 0 0 1-.3.14.56.56 0 0 1-.3-.05.48.48 0 0 1-.2-.2.8.8 0 0 1-.06-.63c.04-.1.1-.17.18-.23a.58.58 0 0 1 .28-.1.6.6 0 0 1 .3.07c.08.05.14.13.19.23l-.15.05a.36.36 0 0 0-.14-.17.31.31 0 0 0-.2-.04.38.38 0 0 0-.21.08.34.34 0 0 0-.11.19.72.72 0 0 0 .05.48c.04.07.09.12.15.15s.13.04.2.04a.3.3 0 0 0 .21-.1.38.38 0 0 0 .1-.23zm.39.37-.12-1.16.84-.08.02.14-.69.06.04.36.64-.07.01.14-.64.06.04.4.71-.07.01.13z" font-size="1.63" style="marker:none" transform="translate(-1095.6 -322.92)"/></g><g style="line-height:100%;text-align:center;marker:none"><path d="M1106.6 570.43v-2.87h1.07c.21 0 .39.03.52.1a.7.7 0 0 1 .42.65c0 .1-.03.22-.1.33a.7.7 0 0 1-.3.26.7.7 0 0 1 .54.7.83.83 0 0 1-.3.64.87.87 0 0 1-.3.14 1.9 1.9 0 0 1-.47.05zm.37-1.66h.62c.17 0 .29-.01.36-.04a.4.4 0 0 0 .22-.14.4.4 0 0 0 .07-.25.4.4 0 0 0-.07-.25.34.34 0 0 0-.2-.15 1.63 1.63 0 0 0-.43-.04h-.57zm0 1.32h.71l.26-.01a.62.62 0 0 0 .22-.08c.06-.04.1-.1.14-.16a.5.5 0 0 0 .06-.24c0-.1-.03-.2-.08-.28a.43.43 0 0 0-.23-.17c-.1-.03-.23-.04-.42-.04h-.66zm2.31.34v-2.87h1.27c.26 0 .45.03.59.08.13.05.24.14.31.27.08.13.12.28.12.44 0 .2-.06.37-.2.5a1 1 0 0 1-.6.27c.1.05.17.1.23.15.1.1.21.23.31.38l.5.78h-.48l-.38-.6c-.1-.17-.2-.3-.27-.4a.87.87 0 0 0-.2-.18.57.57 0 0 0-.17-.08l-.2-.01h-.45v1.27zm.38-1.6h.82c.17 0 .3-.02.4-.06a.4.4 0 0 0 .23-.17.46.46 0 0 0 .07-.25.43.43 0 0 0-.14-.34c-.1-.09-.26-.13-.47-.13h-.9zm4.39-1.27h.38v1.66c0 .29-.04.51-.1.68a.84.84 0 0 1-.35.42c-.17.1-.4.16-.67.16s-.49-.05-.66-.14a.8.8 0 0 1-.37-.4c-.07-.18-.1-.42-.1-.72v-1.66h.37v1.66c0 .25.03.43.07.55.05.11.13.2.24.27.11.06.25.1.41.1.28 0 .48-.07.6-.2.12-.12.18-.36.18-.72zm1.74 2.87v-2.53h-.94v-.34h2.26v.34h-.94v2.53z" font-size="4" style="marker:none" transform="matrix(.85327 0 0 1.06381 -908.75 -356.96)"/></g></g><g style="line-height:100%;text-align:center;marker:none" text-anchor="middle"><path fill="#c3a662" d="m1105.46 564.15.15-1.2.87.1-.02.15-.71-.09-.04.37.66.08-.02.14-.66-.08-.05.4.73.1-.01.14zm1.11.13.14-1.2.16.02-.12 1.06.59.07-.02.14zm.81.1.6-1.15.17.02.35 1.26-.18-.03-.1-.37-.5-.06-.17.35zm.4-.45.4.04-.08-.35-.06-.25c-.02.07-.05.15-.09.22zm.84.59.13-1.2.45.05c.1 0 .17.03.22.06.05.03.1.07.12.12a.5.5 0 0 1 .03.17.33.33 0 0 1-.06.14.3.3 0 0 1-.14.1c.07.02.13.06.16.12a.3.3 0 0 1 .04.19.41.41 0 0 1-.06.15.3.3 0 0 1-.1.1.37.37 0 0 1-.13.05.8.8 0 0 1-.2 0zm.24-.68.26.03h.15c.04 0 .07-.02.1-.05a.17.17 0 0 0 .04-.1c0-.04 0-.08-.02-.11a.15.15 0 0 0-.07-.07.68.68 0 0 0-.18-.04l-.24-.02zm-.06.55.3.04h.1c.04 0 .07 0 .1-.02a.18.18 0 0 0 .07-.06.2.2 0 0 0 .03-.1c0-.04 0-.08-.02-.12a.18.18 0 0 0-.09-.08.59.59 0 0 0-.17-.04l-.28-.03zm.96-.34c.02-.2.1-.35.21-.45.12-.1.26-.15.43-.13.11.01.21.05.3.11.08.06.14.14.17.24.04.1.05.21.04.33a.71.71 0 0 1-.1.32.5.5 0 0 1-.24.2.6.6 0 0 1-.3.04.57.57 0 0 1-.3-.1.53.53 0 0 1-.17-.25.68.68 0 0 1-.04-.31zm.17.02c-.02.14 0 .26.08.35.07.1.16.15.28.16.12.01.22-.02.3-.1.1-.07.14-.19.16-.34 0-.1 0-.19-.02-.26a.38.38 0 0 0-.13-.19.4.4 0 0 0-.21-.08.4.4 0 0 0-.3.08c-.1.07-.15.2-.16.38zm1.13.7.11-1.2.54.05c.1.01.18.03.24.06.05.03.1.07.12.13.03.05.04.12.03.18a.31.31 0 0 1-.1.21.42.42 0 0 1-.27.09l.1.07.1.17.18.35-.2-.02-.13-.27a1.96 1.96 0 0 0-.1-.18.36.36 0 0 0-.07-.08.23.23 0 0 0-.07-.04.45.45 0 0 0-.09-.02l-.18-.02-.06.54zm.22-.65.34.03h.18a.19.19 0 0 0 .14-.17.17.17 0 0 0-.05-.15c-.04-.04-.1-.06-.2-.07l-.37-.04zm.99.77.11-1.2.87.08-.01.14-.71-.07-.04.37.67.06-.01.15-.67-.07-.04.41.74.07-.01.14zm1.58.14.1-1.2.46.04c.08 0 .14.02.18.03.06.01.1.03.15.07a.3.3 0 0 1 .08.12c.02.05.03.1.03.17a.38.38 0 0 1-.12.25c-.07.06-.2.09-.37.07l-.3-.02-.05.49zm.22-.61.3.02c.11.01.19 0 .23-.04a.2.2 0 0 0 .08-.15c0-.05 0-.1-.03-.13a.18.18 0 0 0-.09-.08.7.7 0 0 0-.15-.03l-.3-.02zm.78.7.55-1.17.18.02.4 1.24-.19-.02-.11-.37-.5-.04-.17.35zm.38-.47.41.04-.1-.35a3.2 3.2 0 0 1-.06-.25 1.6 1.6 0 0 1-.09.22zm.87.57.1-1.2.53.04c.1 0 .19.02.24.05.05.02.1.06.12.12.03.06.05.12.04.19a.32.32 0 0 1-.1.2.42.42 0 0 1-.26.1c.04.02.07.04.09.07l.12.17.18.34-.2-.02-.14-.26a2.17 2.17 0 0 0-.1-.17.35.35 0 0 0-.08-.09.25.25 0 0 0-.07-.04h-.08l-.19-.02-.04.53zm.21-.66.35.02a.5.5 0 0 0 .17 0 .18.18 0 0 0 .1-.07.2.2 0 0 0 .04-.1.2.2 0 0 0-.05-.15c-.04-.04-.1-.06-.2-.07l-.38-.03zm2.36.42.16.05a.54.54 0 0 1-.2.29.5.5 0 0 1-.33.08.57.57 0 0 1-.31-.1.5.5 0 0 1-.17-.24.81.81 0 0 1 .05-.65.5.5 0 0 1 .22-.2.6.6 0 0 1 .3-.06.5.5 0 0 1 .3.12.5.5 0 0 1 .15.27l-.16.02a.37.37 0 0 0-.1-.2.32.32 0 0 0-.2-.07.4.4 0 0 0-.24.05.35.35 0 0 0-.15.17.75.75 0 0 0-.05.23c0 .1 0 .2.03.27a.3.3 0 0 0 .12.18c.06.04.13.07.2.07.1 0 .17-.01.24-.06a.4.4 0 0 0 .14-.22zm.33.45.08-1.2h.16l-.03.5.62.04.03-.5.16.01-.07 1.2h-.16l.03-.57-.62-.04-.04.57zm1.08.07.53-1.18h.18l.42 1.24-.18-.01-.12-.37-.5-.03-.16.35zm.38-.48.4.02-.1-.34-.07-.25a1.6 1.6 0 0 1-.08.22zm.87.55.07-1.2h.24l.24.87.05.18.07-.19.33-.82.22.01-.07 1.2h-.15l.05-1.01-.4.99h-.14l-.3-1.05-.05 1.02zm1.41.07.06-1.2.46.01.18.02.15.07a.3.3 0 0 1 .09.12.38.38 0 0 1-.08.42c-.07.07-.2.1-.36.1l-.31-.02-.03.49zm.2-.63.3.02c.1 0 .18-.01.23-.05a.2.2 0 0 0 .07-.16c0-.05 0-.1-.03-.13a.18.18 0 0 0-.1-.08.7.7 0 0 0-.15-.01l-.3-.02zm.8.68.51-1.2.17.02.44 1.22h-.18l-.12-.38-.5-.02-.15.36zm.36-.49.41.02-.1-.34a3.4 3.4 0 0 1-.08-.25 1.5 1.5 0 0 1-.08.23zm1.48.09v-.15l.52.02-.02.45a.9.9 0 0 1-.25.13.72.72 0 0 1-.57-.05.5.5 0 0 1-.22-.23.68.68 0 0 1-.06-.32.7.7 0 0 1 .09-.33.5.5 0 0 1 .22-.22c.1-.04.2-.06.32-.06a.52.52 0 0 1 .4.18c.03.05.06.12.08.2l-.15.03a.46.46 0 0 0-.06-.14.28.28 0 0 0-.1-.1.42.42 0 0 0-.17-.03c-.08 0-.14 0-.2.03a.35.35 0 0 0-.13.08.43.43 0 0 0-.08.11.62.62 0 0 0-.05.25c0 .1 0 .2.04.27s.09.13.16.16a.52.52 0 0 0 .43.03.52.52 0 0 0 .15-.08v-.22zm.72.5.04-1.21h.16l.6.97.04-.95h.15l-.04 1.22h-.16l-.6-.98-.03.95zm1.23.03.03-1.2.87.02v.14l-.71-.02-.01.37.67.02v.14l-.67-.02-.01.42.74.02v.14zm1.58.04.02-1.2h.24l.27.86.06.18.07-.2.3-.83h.22l-.03 1.22h-.15l.02-1.02-.37 1h-.15l-.33-1.03-.02 1.03zm1.28.03.48-1.2h.17l.48 1.21h-.18l-.14-.37h-.5l-.14.36zm.35-.5.41.01-.12-.33-.08-.25a1.5 1.5 0 0 1-.07.22zm1.22.51v-1.06h-.4v-.14h.97v.15h-.4l-.01 1.06zm.72.01.01-1.2h.16v.5h.63v-.5h.16v1.2h-.17v-.56h-.63v.56zm1.25.01v-1.2h.16v1.2zm.44 0v-1.2l.87-.01v.14h-.71v.37h.67v.14h-.67v.42h.74v.14zm2.26-.16a.5.5 0 0 1-.16.13.43.43 0 0 1-.19.04.37.37 0 0 1-.3-.12.34.34 0 0 1-.08-.23.3.3 0 0 1 .07-.2.6.6 0 0 1 .21-.16.7.7 0 0 1-.1-.15.25.25 0 0 1 .06-.3.3.3 0 0 1 .2-.09c.08 0 .15.02.2.07.06.05.08.12.08.19 0 .11-.07.21-.22.3l.22.27c.02-.05.04-.1.05-.17l.16.03c-.03.1-.06.2-.1.26.05.07.11.13.18.18l-.1.12a.87.87 0 0 1-.18-.17zm-.3-.62a.4.4 0 0 0 .12-.1.17.17 0 0 0 .02-.1.14.14 0 0 0-.04-.1.13.13 0 0 0-.1-.04.14.14 0 0 0-.1.04.13.13 0 0 0-.03.1l.01.06a.3.3 0 0 0 .05.06zm.2.5-.27-.33a.52.52 0 0 0-.16.14.21.21 0 0 0-.04.12c0 .05.02.1.06.15.04.05.1.08.17.08.04 0 .09-.02.13-.04a.34.34 0 0 0 .12-.11zm1.87-.18.17.04a.53.53 0 0 1-.18.3.5.5 0 0 1-.31.1.57.57 0 0 1-.32-.07.5.5 0 0 1-.2-.22.83.83 0 0 1 0-.66.5.5 0 0 1 .2-.21.6.6 0 0 1 .3-.08.5.5 0 0 1 .3.09c.09.06.15.14.18.25l-.16.04a.37.37 0 0 0-.12-.19.32.32 0 0 0-.2-.05c-.1 0-.17.02-.23.07-.07.04-.1.1-.13.18a.73.73 0 0 0-.04.23c0 .1.02.2.05.27a.4.4 0 0 0 .14.17.4.4 0 0 0 .21.05c.09 0 .17-.03.23-.08a.4.4 0 0 0 .12-.23zm.36.42-.02-1.21h.16l.02 1.06.6-.01v.14zm.82-.02.43-1.22h.17l.53 1.2h-.18l-.15-.37-.5.02-.13.37zm.33-.5.41-.01-.13-.34-.1-.24c0 .07-.03.15-.05.23zm1.69-.76h.15l.02.7a1 1 0 0 1-.03.28.35.35 0 0 1-.14.18.53.53 0 0 1-.28.07.58.58 0 0 1-.28-.05.33.33 0 0 1-.16-.16.8.8 0 0 1-.06-.3l-.02-.7h.16l.02.7c0 .1.02.17.04.22.02.05.05.09.1.12.05.02.11.03.18.03.12 0 .2-.03.25-.09.04-.05.07-.15.06-.3zm.46 1.2-.05-1.21.42-.02.21.01a.4.4 0 0 1 .18.08.5.5 0 0 1 .15.2c.04.09.06.18.06.29 0 .09 0 .17-.02.24a.59.59 0 0 1-.08.18.44.44 0 0 1-.1.12.45.45 0 0 1-.15.06.83.83 0 0 1-.19.03zm.15-.16h.26c.08 0 .14-.02.18-.03a.27.27 0 0 0 .11-.07.36.36 0 0 0 .08-.15.75.75 0 0 0 .03-.24.52.52 0 0 0-.08-.29.32.32 0 0 0-.15-.13.62.62 0 0 0-.2-.02l-.26.01zm1.09.11-.05-1.2.16-.01.05 1.2zm.44-.02-.05-1.2.16-.01.68.92-.04-.95h.15l.05 1.2-.16.01-.68-.92.04.95zm1.22-.05-.05-1.2.87-.04v.14l-.7.03.01.37.67-.03v.14l-.66.03.02.41.74-.03.01.14zm1.14-.05v-.17h.16l.01.16a.4.4 0 0 1-.02.15.21.21 0 0 1-.1.1l-.05-.06a.14.14 0 0 0 .07-.07.25.25 0 0 0 .02-.11zm1.46-.55-.01-.14.5-.03.03.45a.9.9 0 0 1-.23.15.72.72 0 0 1-.59 0 .5.5 0 0 1-.23-.2.7.7 0 0 1-.09-.32.7.7 0 0 1 .06-.33.5.5 0 0 1 .2-.24.6.6 0 0 1 .55-.06.4.4 0 0 1 .17.1c.05.05.08.12.1.2l-.14.05a.43.43 0 0 0-.07-.14.28.28 0 0 0-.12-.08.49.49 0 0 0-.36.02.36.36 0 0 0-.12.1.42.42 0 0 0-.07.12.62.62 0 0 0-.03.24c0 .1.03.2.07.27.04.07.1.12.17.15a.5.5 0 0 0 .22.04c.07 0 .14-.02.2-.05a.53.53 0 0 0 .15-.1l-.01-.22zm1.49-.82h.16l.04.69c0 .12 0 .22-.03.29a.35.35 0 0 1-.14.18.53.53 0 0 1-.27.09.56.56 0 0 1-.28-.05.33.33 0 0 1-.17-.16.82.82 0 0 1-.06-.3l-.04-.7h.16l.04.7c0 .1.02.18.04.22.02.05.06.09.1.11.06.03.12.04.18.03.12 0 .2-.04.25-.1.05-.05.07-.15.06-.3zm.52 1.18-.08-1.2.16-.02.08 1.2zm.43-.03-.08-1.2.16-.01.07 1.06.6-.04v.14zm.95-.06-.08-1.2.16-.01.03.49.63-.04-.04-.5h.16l.09 1.2h-.16l-.04-.56-.63.04.04.57zm1.22-.08-.1-1.2.88-.07v.14l-.7.05.02.37.67-.05v.14l-.66.05.03.41.74-.05.01.14zm1.12-.09-.1-1.2.54-.04.25.01c.05.02.1.05.14.1.04.06.06.12.06.18a.29.29 0 0 1-.06.23.42.42 0 0 1-.25.13l.1.05c.05.04.1.09.14.15l.24.31-.2.02-.18-.24-.13-.16a.36.36 0 0 0-.08-.07.24.24 0 0 0-.08-.03h-.09l-.18.02.04.53zm.1-.68.35-.03a.4.4 0 0 0 .17-.03.18.18 0 0 0 .08-.08.2.2 0 0 0 .03-.11c0-.06-.03-.1-.07-.14a.31.31 0 0 0-.2-.04l-.39.03zm.98.6.36-1.24.17-.01.6 1.16-.19.01-.17-.35-.5.04-.1.38zm.3-.52.41-.04-.15-.32-.1-.24-.05.23zm.95.42-.1-1.2.16-.02.71.9-.08-.95.16-.02.1 1.2-.16.02-.72-.89.08.94zm1.22-.1-.11-1.2.41-.05h.22c.07.01.13.03.18.07a.5.5 0 0 1 .16.2c.04.07.07.17.08.28l-.01.24a.6.6 0 0 1-.07.18.42.42 0 0 1-.24.2.82.82 0 0 1-.19.03zm.14-.16.26-.03a.4.4 0 0 0 .18-.04.26.26 0 0 0 .1-.07.4.4 0 0 0 .08-.16.76.76 0 0 0 .01-.23.56.56 0 0 0-.09-.29.31.31 0 0 0-.16-.12.62.62 0 0 0-.2 0l-.26.02zm1.09.04-.02-.17.17-.01.02.16c0 .07 0 .12-.02.16a.21.21 0 0 1-.1.1l-.04-.06a.14.14 0 0 0 .06-.07.26.26 0 0 0 .01-.12zm.92-.08-.12-1.2.81-.09.02.15-.65.06.03.37.57-.05.01.14-.56.05.05.55zm1.02-.1-.12-1.2.53-.06h.25c.06.02.1.06.14.1.04.06.07.12.07.18a.3.3 0 0 1-.06.23.42.42 0 0 1-.24.14l.1.05c.05.03.1.08.15.14l.24.3-.2.03-.19-.24-.13-.15a.37.37 0 0 0-.09-.07.24.24 0 0 0-.07-.03.5.5 0 0 0-.1 0l-.18.03.06.53zm.1-.7.33-.03a.5.5 0 0 0 .17-.04.18.18 0 0 0 .09-.08.2.2 0 0 0-.06-.24c-.04-.04-.11-.05-.2-.04l-.38.04zm.98.59.33-1.25.17-.02.62 1.15-.18.02-.18-.35-.5.05-.1.38zm.3-.53.4-.05-.16-.32c-.05-.1-.09-.17-.11-.24l-.04.24zm.95.39-.13-1.2.16-.01.73.87-.1-.94.15-.02.13 1.2-.16.02-.73-.88.1.95zm2.02-.65.16.03a.54.54 0 0 1-.14.31.5.5 0 0 1-.3.14.57.57 0 0 1-.33-.04.5.5 0 0 1-.21-.2.83.83 0 0 1-.07-.66.5.5 0 0 1 .18-.23.6.6 0 0 1 .28-.1.5.5 0 0 1 .32.05c.09.05.15.13.2.24l-.15.05a.37.37 0 0 0-.15-.18.33.33 0 0 0-.2-.03.4.4 0 0 0-.23.09.35.35 0 0 0-.1.2.71.71 0 0 0-.02.23c.01.1.04.19.08.26.03.07.09.12.15.15a.4.4 0 0 0 .21.04.34.34 0 0 0 .22-.1.4.4 0 0 0 .1-.25zm.41.38-.14-1.2.86-.1.02.14-.7.09.03.36.67-.07.01.14-.66.07.05.41.73-.08.02.14z" font-family="Arial" font-size="1.69" font-weight="400" style="marker:none" transform="translate(-1095.6 -313)"/></g><path fill="url(#bu)" d="M2551.88 1730.27c-.48-56.66-.97-218.17-.53-253.66.95-18.73.73-23 5.32-41.78 15.5-63.51 34.65-142.57 37.32-152.72 2.26-11.87 10.26-10.49 8 2.31 0 0-23.31 124.27-29.5 154.07-2.32 8.45-.72 24.89-3.42 34.57-.47 85.42-3 264.18-3 264.18 2.1 6.97-14.41 16.17-14.2-6.97z" filter="url(#bv)" overflow="visible" style="marker:none" transform="matrix(.49206 0 0 .40383 -1248.02 -434.31)"/></svg>