<svg xmlns="http://www.w3.org/2000/svg" xmlns:xlink="http://www.w3.org/1999/xlink" version="1.0" viewBox="0 0 78.78 285.95"><defs><linearGradient id="a"><stop offset="0" stop-color="#0e0e0e"/><stop offset=".13" stop-color="#161616"/><stop offset=".29" stop-color="#162413"/><stop offset=".52" stop-color="#2d431d"/><stop offset=".74" stop-color="#49740b"/><stop offset=".91" stop-color="#70ab1f"/><stop offset="1" stop-color="#99d734"/></linearGradient><linearGradient xlink:href="#a" id="c" x1="1285.98" x2="1341.04" y1="1029.88" y2="1018.44" gradientUnits="userSpaceOnUse"/><filter id="b" width="1.06" height="1.33" x="-.03" y="-.16"><feGaussianBlur stdDeviation="1.29"/></filter></defs><g transform="translate(-613.95 -413.64)"><ellipse cx="26.77" cy="274.46" color="#000" filter="url(#b)" opacity=".51" overflow="visible" rx="56.22" ry="9.52" style="marker:none" transform="matrix(.66402 0 0 1.5 635.57 268.97)"/><path fill="url(#c)" d="M1311.39 869.85c-8.66.05-12.46 2.82-13 4.54a13.18 13.18 0 0 0-.63 5c.16 1.4.58 1.92.57 3.46-.02 1.55-.11 10.3-.2 11.94-.07 1.65-.95 2.87-.87 5 .1 2.13 1.5 3.49 1.47 7.35 1.25 64.99-25.43 87.42-24.9 137.87l-.47 84c-.04 20.1 32.18 18.22 37.97 18.22h.28c5.78 0 38 1.88 37.97-18.22l-.47-84c.52-50.45-26.15-72.88-24.9-137.87-.03-3.86 1.37-5.22 1.46-7.35.09-2.13-.8-3.35-.88-5a816.3 816.3 0 0 1-.21-11.94c-.02-1.54.4-2.06.56-3.46.16-1.41-.05-3.28-.6-5-.53-1.72-4.34-4.54-13-4.54z" overflow="visible" style="marker:none" transform="translate(-657.56 -455.9)"/></g></svg>